<?xml version="1.0" encoding="UTF-8"?>
<svg id="Layer_3" xmlns="http://www.w3.org/2000/svg" xmlns:xlink="http://www.w3.org/1999/xlink" version="1.1" viewBox="0 0 1000 1000">
  <!-- Generator: Adobe Illustrator 29.5.0, SVG Export Plug-In . SVG Version: 2.1.0 Build 137)  -->
  <defs>
    <style>
      .st0 {
        fill: none;
      }

      .st1 {
        fill: #3fde99;
      }

      .st2 {
        fill: url(#linear-gradient);
      }

      .st3 {
        fill: #00324d;
      }

      .st4 {
        fill: #005894;
      }

      .st5 {
        fill: #2fbc7c;
      }
    </style>
    <linearGradient id="linear-gradient" x1="197.9" y1="556" x2="354.3" y2="399.7" gradientUnits="userSpaceOnUse">
      <stop offset="0" stop-color="#0064a4"/>
      <stop offset="1" stop-color="#00c1b1"/>
    </linearGradient>
  </defs>
  <g>
    <path class="st3" d="M447.9,470.8c0,12.5-9.4,20.2-24.3,20.2h-11.3v15.4h-13v-56h24.2c15,0,24.3,7.8,24.3,20.3ZM434.8,470.8c0-6.2-4-9.8-11.9-9.8h-10.6v19.4h10.6c7.9,0,11.9-3.6,11.9-9.7Z"/>
    <path class="st3" d="M491.7,481.9v24.6h-11.7v-5.4c-2.3,3.9-6.8,6-13.1,6-10.1,0-16.1-5.6-16.1-13s5.4-12.9,18.5-12.9h9.9c0-5.4-3.2-8.5-9.9-8.5s-9.3,1.5-12.4,4l-4.5-8.7c4.7-3.4,11.7-5.2,18.6-5.2,13.1,0,20.7,6.1,20.7,19.1ZM479.3,492.9v-4.4h-8.6c-5.8,0-7.7,2.2-7.7,5s2.6,5.2,7,5.2,7.8-1.9,9.2-5.8Z"/>
    <path class="st3" d="M496.6,502.5l4.2-9c3.8,2.5,9.7,4.2,15,4.2s7.9-1.5,7.9-3.9c0-7-26,.2-26-17s7.4-13.9,19.9-13.9,12.5,1.4,16.6,3.8l-4.2,8.9c-4.2-2.4-8.5-3.2-12.4-3.2-5.6,0-8,1.8-8,4,0,7.4,26,.2,26,17.2s-7.4,13.7-20.3,13.7-14.6-2-18.6-4.6Z"/>
    <path class="st3" d="M527.3,520.2l3.4-9c1.4,1,3.2,1.5,5.3,1.5,3.1,0,5.1-2,5.1-6.2v-43h12.5v43c0,9.9-5.8,16.2-16.2,16.2s-7.6-.7-10-2.4ZM539.5,450.5c0-3.9,3.1-7,7.8-7s7.8,2.9,7.8,6.7-3.1,7.2-7.8,7.2-7.8-3-7.8-7Z"/>
    <path class="st3" d="M558.9,484.9c0-13,10-22.2,23.7-22.2s23.6,9.2,23.6,22.2-9.9,22.2-23.6,22.2-23.7-9.2-23.7-22.2ZM593.5,484.9c0-7.4-4.7-11.9-11-11.9s-11,4.5-11,11.9,4.8,11.9,11,11.9,11-4.5,11-11.9Z"/>
    <path class="st3" d="M656,481.8v24.6h-12.5v-22.7c0-7-3.2-10.2-8.7-10.2s-10.3,3.7-10.3,11.6v21.3h-12.5v-43h11.9v5c3.4-3.7,8.4-5.7,14.2-5.7,10.2,0,17.8,5.9,17.8,19Z"/>
    <path class="st3" d="M702.4,481.9v24.6h-11.7v-5.4c-2.3,3.9-6.8,6-13.1,6-10.1,0-16.1-5.6-16.1-13s5.4-12.9,18.5-12.9h9.9c0-5.4-3.2-8.5-9.9-8.5s-9.3,1.5-12.4,4l-4.5-8.7c4.7-3.4,11.7-5.2,18.6-5.2,13.1,0,20.7,6.1,20.7,19.1ZM689.9,492.9v-4.4h-8.6c-5.8,0-7.7,2.2-7.7,5s2.6,5.2,7,5.2,7.8-1.9,9.2-5.8Z"/>
    <path class="st3" d="M707.7,484.9c0-13,10-22.2,24-22.2s16.2,3.9,19.3,11l-9.7,5.2c-2.3-4.1-5.8-5.9-9.7-5.9-6.3,0-11.3,4.4-11.3,11.9s5,11.9,11.3,11.9,7.4-1.8,9.7-5.9l9.7,5.3c-3.1,6.9-10.2,10.9-19.3,10.9-14,0-24-9.2-24-22.2Z"/>
    <path class="st3" d="M754.3,450.5c0-3.9,3.1-7,7.8-7s7.8,2.9,7.8,6.7-3.1,7.2-7.8,7.2-7.8-3-7.8-7ZM755.8,463.4h12.5v43h-12.5v-43Z"/>
    <path class="st1" d="M778.1,450.5h13v56h-13v-56Z"/>
    <path class="st1" d="M813.2,461h-17.9v-10.6h48.8v10.6h-17.9v45.4h-13v-45.4Z"/>
  </g>
  <g>
    <rect class="st2" x="185.4" y="387.2" width="181.4" height="181.4" rx="42.7" ry="42.7"/>
    <path class="st4" d="M337.4,547.5c-7.3-11.2-37.7-19.1-37.7-19.1h-44.8s-30.4,8-37.7,19.1c-3.4,5.1-5.7,11.5-7.3,16.9,5.6,2.7,11.8,4.1,18.4,4.1h95.9c7.3,0,14.2-1.8,20.2-5.1-1.6-5.2-3.9-11.1-7.1-15.9Z"/>
    <rect class="st1" x="210.4" y="412.1" width="131.3" height="106.4" rx="20.6" ry="20.6"/>
    <g>
      <rect class="st4" x="224.4" y="425.9" width="103.3" height="79.7" rx="9.3" ry="9.3"/>
      <path class="st3" d="M318.5,508.6h-84.7c-6.8,0-12.3-5.5-12.3-12.3v-61.1c0-6.8,5.5-12.3,12.3-12.3h84.7c6.8,0,12.3,5.5,12.3,12.3v58.5c0,6.9-5.4,14.9-12.3,14.9ZM233.7,428.9c-3.5,0-6.3,2.8-6.3,6.3v61.1c0,3.5,2.8,6.3,6.3,6.3h84.7c3.1,0,6.3-5.2,6.3-8.9v-58.5c0-3.5-2.8-6.3-6.3-6.3h-84.7Z"/>
    </g>
    <path class="st1" d="M277.2,547.4s-8.3-5.7-13.5-9.3-8.2-7.6-8.2-18.9h43.5c0,11.2-2.9,15.3-8.2,18.9s-7.6,4.7-12,8"/>
    <path class="st5" d="M255.5,524.2s10.9,3.9,20.6,4.9,18.1.5,18.1.5l5.8-10.6-45.8-.5,1.3,5.7Z"/>
    <path class="st1" d="M255.4,468.8c-1.9,0-3.5-1.6-3.5-3.5v-13.7c0-1.9,1.6-3.5,3.5-3.5s3.5,1.6,3.5,3.5v13.7c0,1.9-1.6,3.5-3.5,3.5Z"/>
    <path class="st1" d="M296.7,468.8c-1.9,0-3.5-1.6-3.5-3.5v-13.7c0-1.9,1.6-3.5,3.5-3.5s3.5,1.6,3.5,3.5v13.7c0,1.9-1.6,3.5-3.5,3.5Z"/>
    <path class="st3" d="M340.1,545.5c-5.8-8.9-23.3-15.5-33-18.6-.8-1.9-1.7-3.7-2.8-5.5h16.9c13,0,23.6-10.6,23.6-23.6v-65.1c0-13-10.6-23.6-23.6-23.6h-90.1c-13,0-23.6,10.6-23.6,23.6v65.1c0,13,10.6,23.6,23.6,23.6h18.7c-1.2,1.8-2.1,3.7-2.9,5.7-9.9,3.2-26.6,9.7-32.3,18.3-3.4,5.2-5.9,11.6-7.6,17.1,1.9,1.1,3.9,2,6,2.8,1.5-5.2,3.8-11.5,7.1-16.4,3.7-5.6,15.1-10.8,24.5-14.2-1.5,6.9-1.3,12.7-1.2,13.2l.2,5.1,4.6-2.4c0,0,9-4.6,19.2-5.7l5.3,3.6c-3.1,5.1-3.8,12-4,19.9h6.5c.2-8.1.9-14.7,4.3-18.4.2-.1.5-.4.9-.7.1,0,.3-.2.4-.3.8-.6,1.6-1.2,2.3-1.7.2-.1.3-.2.5-.4,1.1-.8,2.2-1.5,3.3-2.2,10.2,1.1,19,5.7,19.1,5.7l4.6,2.4.2-5.1c0-.4.2-6.4-1.3-13.4,9.6,3.4,21.5,8.7,25.3,14.5,3.1,4.7,5.3,10.5,6.8,15.6,2-.9,4-2,5.9-3.2-1.7-5.2-4-11.1-7.2-16ZM213.4,497.8v-65.1c0-9.7,7.9-17.6,17.6-17.6h90.1c9.7,0,17.6,7.9,17.6,17.6v65.1c0,9.7-7.9,17.6-17.6,17.6h-90.1c-9.7,0-17.6-7.9-17.6-17.6ZM250,542.8c.3-3.7,1.1-9,3.1-13.8,1.2,5,3.4,8.2,6.6,10.8-3.8.9-7.2,2.1-9.7,3.1ZM288.9,535.9c-1.8,1.2-3.3,2.2-4.8,3.2-1.4.9-2.8,1.8-4.3,2.8-1.2.8-2,1.4-2.7,1.9l-11.6-7.9c-3.5-2.4-6.1-4.9-6.7-12.9h36.8c-.5,8.1-3.1,10.5-6.7,12.9ZM294.6,539.8c3.1-2.5,5.3-5.5,6.5-10.2,1.8,4.6,2.6,9.6,2.9,13.2-2.5-1-5.7-2.1-9.4-3Z"/>
    <rect class="st0" x="185.4" y="387.2" width="181.4" height="181.4" rx="42.7" ry="42.7"/>
    <path class="st1" d="M297.3,479.6c-.3-.8-.9-1.6-1.6-2-.8-.4-1.7-.5-2.6-.2-.8.3-1.5.8-1.9,1.6,0,0-.2.3-.6.7-.4.4-1.1,1-2.1,1.6-1.2.7-2.6,1.2-4.2,1.6-2,.5-4.4.8-6.9.8s0,0,0,0c0,0,0,0,0,0-2.6,0-4.9-.3-6.9-.8-1.6-.4-3-.9-4.2-1.6-1-.6-1.7-1.2-2.1-1.6-.4-.4-.5-.6-.6-.7-.4-.7-1.1-1.3-1.9-1.6-.9-.3-1.8-.2-2.6.2-.8.4-1.4,1.1-1.6,2-.3.9-.2,1.8.2,2.6.2.4,1.4,2.5,4.5,4.4,1.7,1.1,3.8,2,6,2.6,2.7.7,5.8,1.1,9.1,1.1s0,0,0,0c0,0,0,0,0,0,3.3,0,6.4-.4,9.1-1.1,2.3-.6,4.3-1.5,6-2.6,3.1-2,4.3-4,4.5-4.4.4-.8.5-1.7.2-2.6Z"/>
  </g>
</svg>