<?xml version="1.0" encoding="UTF-8"?>
<svg id="Layer_2" xmlns="http://www.w3.org/2000/svg" version="1.1" viewBox="0 0 1000 1000">
  <!-- Generator: Adobe Illustrator 29.5.0, SVG Export Plug-In . SVG Version: 2.1.0 Build 137)  -->
  <defs>
    <style>
      .st0 {
        fill: #3fde99;
      }

      .st1 {
        fill: #00324d;
      }

      .st2 {
        fill: #005894;
      }

      .st3 {
        fill: #005b96;
      }

      .st4 {
        fill: #2fbc7c;
      }
    </style>
  </defs>
  <path class="st0" d="M523.8,331.1c0,14-10.3,29-24.3,39.8-11.5,8.9-18.3,12-23.3,17.4l-.7.6c-28.2-17.5-25.5-57.8-25.5-57.8"/>
  <path class="st4" d="M451.2,343.1s18.2,9,34.2,11.3c16.1,2.3,30.1,1.1,30.1,1.1l9.7-24.4-76.2-1.2,2.1,13.2Z"/>
  <path class="st2" d="M498.6,371c11.8-9.2,21-21.3,23.6-33.2l.3-1.4s12.1,6.2,14.7,18.1c18.4,4.9,49.4,12.2,62.8,29.2,12.3,16.6,20.8,49.3,25.2,63.8.7,3,2.2,6.6-1,8.6-9,4.2-20.6,6.2-32.3,9.2-4.9,1.1-12.4,3-15.8,2.7-4-.5-5.2-3.2-6.5-8.5-.8-3.4-1.5-6.6-2.3-10.5-1.3-6.3-2.3-11.6-3.4-17.5-.9-5-.3,1.4-.3,3,1.3,19.9,2.5,55.6,2.8,78.8.3,17.9,1.2,29.8,1,41.6-.4,3.1-2.5,2.7-5.7,3.4-19.1,3.3-44.7,6.1-64.8,7.2-18.4,1.1-36.6,1.3-55.1-.6-13-1.2-31.4-4.1-40.3-6.7-3.5-1-3.8-1.4-3.9-6.7-.6-26.9.2-56,1.6-84.5v-4.4c-7.8,0-17.9-.5-26.3-2-4.2-.8-8.7-1.4-11.9-3.3-1.7-1.1-1.9-2.6-1.4-5.1,2.9-11.4,7.4-25.7,11.5-37.4,4.7-12.6,9.3-26.4,19.2-35.2,12.5-11.3,30.5-18.2,46.4-21.2l1.5-3.8c3.2-7.1,11.6-11.4,11.6-11.4v1.1c1.7,13.4,7.2,33.6,25.1,44.7l1.2-1.2c5-5,11.7-8.2,22.8-16.8"/>
  <path class="st3" d="M453.3,832.4l3.2,28.6c.4,3.2-1.2,6.3-3.9,8-5.9,3.6-17.8,9.4-37.3,12.4-29.7,4.5-47.6,3.1-50.7-5.5s12.8-19.7,24.8-25.5c12.1-5.9,25.9-18.9,25.9-18.9"/>
  <path class="st3" d="M529.9,836.2l-6.9,40.2c-.5,3.2.8,6.4,3.6,8.1,5,3.2,14.5,7.2,29.1,5.5,10.8-1.3,18-3.2,22.7-4.8,4.2-1.5,6.4-6.1,5-10.3l-13.9-39.8"/>
  <path class="st3" d="M474.8,603.7s-6.4,51.6-10.2,104.7c-3.8,53.1-5.5,122.7-5.5,122.7,0,0-11.7,4.1-26.5,3.4-14.8-.7-26.9-7.6-26.9-7.6,0,0-1.4-59-2.8-144.5-1.4-85.5,0-124.3,0-124.3,0,0,22.5,8,66.6,8s94.1-8.3,94.1-8.3c0,0-.3,56.7,4.9,142.5,5.2,85.9,7.9,131.7,7.9,131.7,0,0-10.3,6.9-23.4,6.9s-28.6-4.4-28.6-4.4c0,0-7.9-51.1-17.2-113.5-9.3-62.4-22.1-115.9-22.1-115.9,0,0-4.6-.4-10.1-1.6Z"/>
  <path class="st0" d="M582.1,467.2s4.7,22.2,7.4,52.9c2.8,30.7,2.7,60.4,2.7,60.4-3.7,6.9-8.9,16.6-11.5,25.8-2,6.3-2.4,17.8,3,20.9,3.3,2.3,7,.3,9.4-2.5.9-.7,4.4-6.1,5-4.5,0,3.3-2.6,6.5-4.7,9-4.1,4.4-10.1,9-7.2,15.1,4.1,7.5,16.9,3.4,23.2-.3,5.7-3.3,10.9-8.2,14-13.9,7.9-13.8,8.9-34.6,3.4-43.2,0,0-.6-29.1-.6-69.3s-7.3-59.6-7.3-59.6l-36.7,9.2Z"/>
  <path class="st4" d="M618.3,462.5s-6,7-13.6,11.4-18.4,7.6-18.4,7.6l-1.4-13.3,34.1-8.8-.8,3.1Z"/>
  <path class="st0" d="M397.7,491.8c-1.5,6.7-19.3,71.5-20.5,79.9,2.4,7.1,5.7,17.3,6.8,26.5.9,6.4-.3,17.4-5.7,19.7-3.3,1.7-6.4-.8-8.2-3.8-.7-.8-3.1-6.5-3.9-5.1-.4,3.2,1.4,6.7,3,9.4,3.1,4.8,7.9,10.2,4.4,15.6-4.8,6.6-15.8.7-21-3.7-4.7-4-8.7-9.5-10.8-15.4-5.3-14.5,1.8-38.7,3-42.1,0-.2,2.8-30.6,5.8-47.7,4.1-23.6,15.1-64.3,15.8-65.8,0,0,12.7,3.1,22.7,3.1,10,0,10,2.1,10,2.1l-1.5,27.2Z"/>
  <path class="st4" d="M584.8,135.5l26.5,11.7c8.1,3.6,13.2,11.7,12.8,20.6l-5.4,133.9c-.4,9-6.3,16.8-14.9,19.6l-26.4,8.6"/>
  <path class="st0" d="M571.1,331.1h-199.7c-10.4,0-18.7-8.7-18.3-19.1l6.6-160.4c.4-9.8,8.5-17.6,18.3-17.6h199.7c10.4,0,18.7,8.7,18.3,19.1l-6.6,160.4c-.4,9.8-8.5,17.6-18.3,17.6Z"/>
  <path class="st3" d="M377.4,293.2l5.1-122.3c.3-7.4,6.4-13.3,13.9-13.3h161.6c7.9,0,14.2,6.6,13.9,14.5l-5.1,122.3c-.3,7.4-6.4,13.3-13.9,13.3h-161.6c-7.9,0-14.2-6.6-13.9-14.5Z"/>
  <g>
    <path class="st1" d="M576.4,172.2c.2-5.1-1.6-9.9-5.1-13.6-3.5-3.7-8.3-5.7-13.4-5.7h-161.6c-10,0-18.1,7.8-18.5,17.8l-5.1,122.3c-.2,5.1,1.6,9.9,5.1,13.6,3.5,3.7,8.3,5.7,13.4,5.7h161.6c10,0,18.1-7.8,18.5-17.8l5.1-122.3ZM562.1,294.2c-.2,5-4.3,8.9-9.2,8.9h-161.6c-2.5,0-4.9-1-6.7-2.8-1.8-1.8-2.7-4.2-2.6-6.8l5.1-122.3c.2-5,4.3-8.9,9.2-8.9h161.6c2.5,0,4.9,1,6.7,2.8,1.8,1.8,2.7,4.2,2.6,6.8l-5.1,122.3Z"/>
    <path class="st1" d="M660,394.8c-4.3-6.4-8.4-13.3-9.2-21.2-.8-6.7.5-13.6,1.9-20.8,2.3-12.3,4.7-25-3.2-36.8-5.5-8.8-15.7-15.9-25.8-18.3l5.2-129.6c.4-10.8-5.7-20.6-15.6-25l-25.4-11.2c-3.1-1.5-6.5-2.3-10.1-2.3h-199.7c-12.4,0-22.4,9.7-22.9,22l-6.6,160.4c-.3,6.3,2,12.3,6.4,16.8,4.4,4.6,10.3,7.1,16.6,7.1h72.4c0,1.3,0,2.8.2,4.5-3.3,2.2-8.2,6.2-10.8,12-.2.5-.4,1-.6,1.4-18.3,3.9-34.9,11.8-46,21.9-10.2,9.2-15.3,22.9-19.8,35l-.9,2.3c-4.5,12.8-8.8,26.9-11.6,37.9,0,0,0,.1,0,.2-.4,1.8-1.5,7.2,3.6,10.5,0,0,.2.1.2.2.8.5,1.6.8,2.4,1.2-3.5,12.4-11.3,42.7-14.5,61.4-1.2,6.9-3.2,20.6-5.7,46.7,0,.4,0,.7,0,.9-1.3,4.1-8.6,28.7-2.8,44.5,2.2,6.5,6.6,12.7,12.1,17.4,4.3,3.8,11.4,7.8,17.9,7.8.6,0,1.1,0,1.7,0,3.4-.4,6.3-2.1,8.2-4.8v-.2c3.3-4.9,2.2-9.6.2-13.6.9-.1,1.8-.4,2.7-.9,8.1-3.6,9.4-16.9,8.3-24.5-1.1-9.2-4.3-18.9-6.7-26.2,1.1-5.6,5.7-23,10.1-39.7,0,6.7,0,13.3.2,19.8,0,3.2.2,5.5,1.4,7.6.9,1.6,2.2,2.5,3.5,3.1-.3,12.2-1,51.2.1,120.4,1.4,84.5,2.8,143.9,2.8,144.5,0,1.6.9,3.1,2.3,3.9.2.1,1.7,1,4.2,2.1-4.9,4.2-12.4,9.9-19.1,13.2-5.5,2.7-32.4,16.6-27.2,31.3,2.7,7.5,11.3,11.1,27.2,11.1,7.7,0,17.2-.9,28.5-2.6,19.7-3,32.1-8.7,39-13,4.2-2.6,6.6-7.5,6.1-12.5l-2.8-24.7c.8-.2,1.2-.4,1.3-.4,1.8-.6,3-2.3,3.1-4.3,0-.7,1.8-70.2,5.5-122.5,3-42.6,7.7-85,9.4-99.6,1,.2,1.8.3,2.6.4,2.8,12.4,13.4,59.3,21.3,112.3,9.2,61.7,17.2,113,17.2,113.5.3,1.8,1.6,3.3,3.3,3.7.2,0,1.1.3,2.6.7l-6.1,35.9c-.9,5.1,1.4,10.1,5.7,12.8,5,3.2,13.1,6.6,24.6,6.6,2.3,0,4.8-.1,7.5-.5,9.4-1.1,17.3-2.8,23.7-5,6.6-2.3,10.1-9.6,7.8-16.2l-12.5-35.9c1.6-.9,2.6-1.5,2.7-1.6,1.4-.9,2.2-2.5,2.1-4.1,0,0-2.8-45.9-7.9-131.7-4.3-71.2-4.8-122.9-4.8-137.8,2.3-.8,4.9-2.6,5.4-6.9,0-.2,0-.4,0-.5,0-6.7-.1-13.3-.4-21-.2-6-.5-12.9-.6-20.8-.2-11.9-.6-27.1-1.1-41.8,1.3.8,2.9,1.5,4.9,1.7.9.1,1.9.1,3.1,0,1.5,8.1,4.4,25.7,6.4,47.5,2.4,26.8,2.7,53.1,2.7,58.8-3.7,7-8.7,16.4-11.3,25.6-1.3,4-1.8,9-1.5,13.4.5,6.1,2.7,10.6,6.4,12.8.9.6,1.9,1.1,2.9,1.3-2.8,3.7-4.8,8.4-2.1,13.9v.2c1.7,3,4.4,5.1,7.8,6,1.5.4,3.1.6,4.8.6,6.1,0,12.7-2.5,17.1-5.1,6.7-3.9,12.3-9.4,15.7-15.6,8.1-14.1,9.8-35.8,4-46.8-.1-5.9-.6-32.8-.6-68s-1.3-27.3-2.8-37.6c25.6-4.1,42.2-19.5,44.6-41.8,2.5-19-4.5-32.2-12.5-43.5ZM594.1,313.8l6.6-160.4c0-2.1-.1-4.1-.5-6l9.3,4.1c6.4,2.8,10.3,9.2,10.1,16.2l-5.4,133.9c-.3,7-5,13.2-11.7,15.4l-9.6,3.1c.7-2,1.1-4.1,1.2-6.3ZM371.5,326.5c-3.8,0-7.3-1.5-9.9-4.2-2.6-2.7-4-6.3-3.8-10l6.6-160.4c.3-7.4,6.3-13.1,13.7-13.1h199.7c1.8,0,3.6.4,5.2,1l.4.2c1.6.7,3,1.7,4.2,3,2.6,2.7,4,6.3,3.8,10l-6.6,160.4c-.3,7.4-6.3,13.1-13.7,13.1h-199.7ZM495.4,366.8s0,0,0,0c-4.9,3.8-8.9,6.5-12.4,8.9-3.4,2.3-6.3,4.3-8.9,6.5-17.1-13.1-19.5-36.8-19.7-46.4h62.9c-1.9,10.3-9.9,21.8-21.8,31h0ZM501.9,375.1h0c11.4-8.9,19.7-19.5,23.7-30.1,2.7,2.5,5.5,6,6.5,10.5,1.3,5.9-4.4,19.8-9.8,29.9l-20.5-10.2c0,0,0,0,.1-.1ZM442.8,356.6c.7-1.5,1.7-2.9,2.9-4.1,1.3,6.6,3.6,13.9,7.5,20.9l-15.2,6.8c.5-6.9,1.7-16.8,4.8-23.6ZM392.7,492.6c-1,4.1-3.4,13.2-6.2,23.6-7.2,27-13.2,49.8-14,54.9l-.2,1.1.5,1.4c2.3,7,5.5,16.6,6.5,25.3h0c1,6.9-1.1,14.1-2.9,14.9h-.3c0,.2,0,.2,0,.2-.3,0-1.1-.6-2-2.1l-.2-.3h-.1c-.1-.4-.3-.7-.5-1.1-1.6-3-3.3-6.2-6.8-6.2,0,0,0,0,0,0-1.8,0-3.5,1-4.4,2.6l-.4.8v.9c-.7,4.5,1.4,8.7,3.5,12.3v.2c.5.7,1,1.4,1.5,2.1,3.2,4.6,4.1,6.6,3.1,8.4-.4.6-.9.8-1.7.9-3.3.4-8.9-2.5-12.5-5.6-4.3-3.6-7.7-8.5-9.4-13.5-4.5-12.3,1.3-34.2,3-38.9v-.3q.2-.4.4-2.2c2.5-25.7,4.4-39.2,5.6-45.9,3.4-19.3,11.3-49.6,14.4-60.7.2,0,.5,0,.7.1l1.5.3c7.9,1.4,16.2,1.9,21.9,2-.4,8.2-.7,16.5-1,24.9ZM450.2,865.1c-5.1,3.1-16.5,8.8-35.5,11.7-40.4,6.1-45.1-1-45.6-2.5-1.3-3.6,7.6-12.6,22.5-19.8,9.9-4.8,20.6-14,25-17.9,4.3,1.2,9.4,2.2,14.8,2.5,1.2,0,2.4,0,3.6,0,5.4,0,10.3-.6,14.3-1.2l2.7,23.6c.2,1.4-.5,2.8-1.7,3.5ZM578.9,876.5c.6,1.8-.3,3.8-2.1,4.4-3.9,1.4-10.8,3.3-21.7,4.6-12.9,1.5-21.3-1.8-26-4.8-1.1-.7-1.7-2.1-1.5-3.5l6.1-35.5c5.4,1,12,1.9,18.2,1.9s10.6-1.1,14.8-2.5l12.3,35.3ZM570.6,829.5c-3.4,1.8-10.5,4.9-18.6,4.9s-19.6-2.3-24.5-3.5c-1.8-11.9-8.8-57.3-16.8-110.5-9.2-61.9-22-115.7-22.1-116.2-.5-2-2.2-3.4-4.2-3.5,0,0-3-.2-8-1.2-.6-.4-1.3-.8-2.1-.9-.5,0-1,0-1.5,0-.5-.1-.9-.2-1.4-.3-7.3-1.7-10.4-3.7-10.5-3.8-2.1-1.4-4.9-.9-6.4,1.2-1.5,2.1-1,5,1.1,6.5.4.3,4.3,2.9,13,5-1.6,13.9-6.4,57.2-9.5,100.8-3.3,46-5,105-5.4,119.6-4.2,1.1-12.4,2.8-21.8,2.3-9.9-.5-18.6-4-22.5-5.8-.3-12.7-1.5-67.5-2.7-141.7-1.1-65.2-.5-103.4-.2-117.7,10.4,2.3,25,4.4,34.9,5.2,9.4,1,19.2,1.4,29.8,1.4s16.8-.3,26.1-.8c19.4-1.1,42.7-3.5,60.8-6.5,0,17.1.7,67.7,4.9,136.6,4.4,73.4,7.1,117.6,7.8,128.8ZM576.6,462.6c-.3,0-.4,0-.4,0-.2-.2-.7-1.1-1.6-4.4-.7-3.1-1.4-6.1-2.1-9.7v-.7c-1.5-6.4-2.5-11.7-3.6-17.4-.3-1.7-1.3-6.7-6.3-6.1-5,.6-4.7,5.5-4.5,8.4,0,.7,0,1.3,0,1.7,0,0,0,.2,0,.3,1.3,19.8,2.5,55.5,2.8,78.6.1,8.1.4,15,.6,21,.2,6.8.5,12.7.4,18.5-.5,0-1,.2-1.5.3-18.2,3.2-43.4,6-64.1,7.1-21.3,1.3-38.1,1.1-54.3-.6-13.4-1.2-31.1-4.1-39.4-6.5,0,0,0,0,0,0,0-.7,0-1.4,0-1.8-1-46,2.1-98.1,4.8-138.4.2-2.9-2-5.4-4.9-5.6-2.9-.2-5.4,2-5.6,4.9-.9,13.9-1.9,29.1-2.8,45-7.4-.2-14.8-.9-20.6-1.9l-1.5-.3c-2.7-.5-5.5-1-7.5-1.8,2.7-10.6,6.9-24.4,11.3-36.7l.8-2.3c4.2-11.5,8.6-23.4,16.9-30.9,8.7-7.9,21.4-14.2,35.6-18.1-2.2,11.3-2.1,22.6-2.1,23.2,0,1.8.9,3.4,2.4,4.4.9.5,1.8.8,2.8.8s1.5-.2,2.2-.5l24.5-11.1c2.3,2.8,5,5.5,8.2,7.9-6.1,10.8-5.1,33.7-4.9,36.4.2,2.8,2.5,5,5.2,5s.2,0,.3,0c2.9-.2,5.1-2.6,5-5.5-.5-9,.1-25.4,3.8-31,2.9-4.3,6.4-6.7,12.3-10.7,1-.7,2.1-1.4,3.2-2.2l29.8,14.9c.8.4,1.5.6,2.3.6,1.8,0,3.5-.9,4.5-2.6.2-.3,4-6.9,7.7-15.1,3.3-7.4,5.2-13.6,5.9-18.7,17.7,4.7,42.5,11.8,53.4,25.5,10.3,14,18,40.5,22.6,56.3.6,2.1,1.1,3.9,1.6,5.6,0,.4.2.8.3,1.2.1.5.3,1.2.4,1.8-5.9,2.6-13.2,4.3-20.8,6.1-3.1.7-6.2,1.5-9.4,2.3-.9.2-1.8.4-2.8.6-3.3.7-9.3,2.1-11.2,1.9ZM619.3,627.9c-2.6,4.7-7.1,9.1-12.3,12.1-4.4,2.6-11.1,4.6-14.7,3.6-1.2-.3-1.7-.9-2-1.4-.9-1.9.5-3.8,4.6-7.9.6-.6,1.3-1.3,1.9-1.9h.1c2.8-3.4,5.8-7.4,5.9-12.1v-.9s-.3-.9-.3-.9c-.7-1.7-2.2-2.9-4-3.2-3.4-.5-5.5,2.2-7.8,5.1-.3.4-.5.7-.7.9l-.4.4s-2.2,2.5-3.3,1.7l-.3-.2c-2.3-1.4-2.8-9.6-.9-15.5h0c2.5-8.7,7.4-17.9,11-24.7l.7-1.4v-1.2c0-.3,0-30.2-2.7-60.8-2-22-5-39.8-6.5-48.2.8-.2,1.7-.4,2.5-.6,1-.2,1.9-.4,2.8-.6,0,0,.1,0,.2,0,3.1-.8,6.2-1.5,9.3-2.3,4.6-1.1,9-2.1,13.2-3.4,2.1,9.2,5.9,29.4,5.9,53.1,0,39.8.6,69.1.6,69.4v1.3s.7,1.1.7,1.1c4.4,7,3.9,25.7-3.5,38.5ZM663.3,437.1h0c-2.7,24.9-24.9,31.9-36.9,33.8-.7-3.9-1.4-7.1-2-9.5.6-.3,1.3-.5,1.9-.8.1,0,.3-.1.4-.2,6.3-3.7,4.5-10.4,3.7-13.3,0-.4-.2-.7-.3-1,0,0,0-.2,0-.3-.5-1.7-1-3.6-1.7-5.7-4.8-16.6-12.9-44.3-24.3-59.7,0,0,0,0,0-.1-13.6-17.2-42.6-24.9-61.7-30-.3,0-.7-.2-1-.3-2.3-6.5-6.7-11.2-10.4-14.3h40.2c2.8,0,5.4-.5,7.9-1.4h0s26.4-8.6,26.4-8.6c8.7-2.8,15.2-10.1,17.3-18.8,7.4,2.1,14.9,7.5,18.9,13.9h0c5.9,8.9,4,18.7,1.9,30.1-1.4,7.7-2.9,15.6-2,23.6,1,9.9,6,18.3,10.8,25.4,8.2,11.7,12.9,22,10.9,37.1Z"/>
  </g>
  <path class="st0" d="M438.5,236.2c-3.9,0-7.1-3.2-7.1-7.1v-22.4c0-3.9,3.2-7.1,7.1-7.1s7.1,3.2,7.1,7.1v22.4c0,3.9-3.2,7.1-7.1,7.1Z"/>
  <path class="st0" d="M509.6,236.2c-3.9,0-7.1-3.2-7.1-7.1v-22.4c0-3.9,3.2-7.1,7.1-7.1s7.1,3.2,7.1,7.1v22.4c0,3.9-3.2,7.1-7.1,7.1Z"/>
  <path class="st1" d="M549.8,856.3c-5.2,0-8.4-1.1-8.6-1.2-1.8-.6-2.7-2.6-2.1-4.3.6-1.8,2.5-2.7,4.3-2.1.1,0,5.7,1.8,14,0,1.8-.4,3.7.7,4.1,2.6.4,1.8-.7,3.7-2.6,4.1-3.4.8-6.5,1.1-9.1,1.1Z"/>
  <circle class="st0" cx="486.6" cy="413.4" r="5.5"/>
  <path class="st0" d="M510.7,259.2c-.5-1.6-1.6-3-3.1-3.7-1.5-.8-3.2-1-4.8-.5-1.6.5-2.9,1.5-3.7,3,0,0-.4.6-1.1,1.3-.7.7-2,1.8-3.9,3-2.2,1.3-4.9,2.3-7.9,3.1-3.8,1-8.2,1.5-13.1,1.5s-.1,0-.2,0c0,0-.1,0-.2,0-4.8,0-9.2-.5-13.1-1.5-3-.7-5.6-1.8-7.9-3.1-1.9-1.1-3.2-2.2-3.9-3-.7-.7-1-1.2-1.1-1.3-.8-1.4-2.1-2.5-3.7-3-1.6-.5-3.3-.3-4.8.5-1.5.8-2.6,2.1-3.1,3.7-.5,1.6-.3,3.3.5,4.8.4.7,2.7,4.7,8.5,8.4,3.3,2.1,7.1,3.7,11.4,4.9,5.1,1.4,10.9,2.1,17.2,2.1s.1,0,.2,0c0,0,.1,0,.2,0,6.3,0,12.1-.7,17.2-2.1,4.3-1.2,8.1-2.8,11.4-4.9,5.9-3.7,8.1-7.6,8.5-8.4.8-1.5,1-3.2.5-4.8Z"/>
</svg>