<?xml version="1.0" encoding="utf-8"?>
<!-- Generator: Adobe Adobe Illustrator 24.2.0, SVG Export Plug-In . SVG Version: 6.00 Build 0)  -->
<svg version="1.1" xmlns="http://www.w3.org/2000/svg" xmlns:xlink="http://www.w3.org/1999/xlink" x="0px" y="0px" width="1000px"
	 height="1000px" viewBox="0 0 1000 1000" style="enable-background:new 0 0 1000 1000;" xml:space="preserve">
<style type="text/css">
	.st0{fill:#DBF3F5;}
	.st1{fill:#3EDD99;stroke:#00324D;stroke-width:10;stroke-miterlimit:10;}
	.st2{fill:#005894;stroke:#00324D;stroke-width:10;stroke-miterlimit:10;}
	.st3{fill:#00324D;}
	.st4{fill:#005B96;stroke:#00324D;stroke-width:10;stroke-miterlimit:10;}
	.st5{fill:#3FDE99;}
	.st6{fill:#005894;}
	.st7{fill:#005B96;}
	.st8{fill:#00DD99;stroke:#00324D;stroke-width:10;stroke-linecap:round;stroke-linejoin:round;stroke-miterlimit:10;}
</style>
<g id="Layer_10">
	<path class="st0" d="M256.6,315.7c43.4,7.6,87.1-12.1,123-37.2c27.2-19,54.1-45.5,53.8-78.2c-0.2-26.7-18.6-49.7-37.4-69
		c-8.6-8.8-18.2-18.9-17.7-31.1c0.4-10.7,8.6-19.5,17.2-26.2C433.1,44.9,484,38.1,532.1,38c31,0,62.8,2.5,91.2,14.6
		s53.3,35.5,60.3,65.1c6.8,28.7-3.3,60.8,10.3,87.1c10.6,20.3,32.7,31.8,49.4,47.7s27.7,43.8,11.8,60.5c-5.5,5.8-13.2,8.9-20.7,12
		c-28.9,11.7-58.3,24.1-80.6,45.5c-22.3,21.4-36.3,53.8-26.9,83c6.8,21.2,24.3,37.1,37.3,55.3c12.6,17.7,21,38.2,24.5,59.4
		c2.2,13.2,2.2,27.7-5.5,38.7c-14.7,20.9-46.3,17.8-71.7,22.8c-21.6,4.2-41.8,16.5-53.3,34.9c-11.4,18.4-13,42.8-2,61.4
		c15.6,26.2,49.6,34.7,80.1,40.7c29.9,5.9,59.7,11.8,89.6,17.7c10.5,2.1,21.1,4.2,30.5,9c32.5,16.8,37.7,67.9,9.4,90.8
		c-9.8,8-22.1,12.4-34.2,16.3c-122.1,39.1-254.8,32.5-381.2,9.7c-30.2-5.4-65.6-16.3-74-45.2c-7.8-26.7,12.6-53.3,34.4-71
		c40-32.6,88.8-53.4,130.6-83.8c5.3-3.8,10.7-8.2,12.9-14.3c4.9-13.8-8.9-26.7-21.5-34.7c-41.2-26-86.4-46-133.6-59.1
		c-25.1-7-50.9-12.1-74.3-23.2s-44.8-29.4-52.1-53.9c-9.2-30.8,5.6-63.2,21.1-91.5c7.6-14,15.7-30.3,9.6-45
		c-11.8-28.3-63.3-22.7-73.9-51.4c-6.5-17.8,9.4-37.4,28-42.5c18.6-5.1,38.4,0.1,57,5.3C229,304,241.3,313,256.6,315.7z"/>
	<path class="st0" d="M277.3,599.5c54.2,24.2,88.9,86.1,81.4,144.9c-2.3,18.2-6.8,40.4,7.6,51.7c5.1,4,11.8,5.7,18.4,5.9
		c23,0.9,44.6-13.9,56.4-33.6c11.8-19.7,14.9-43.6,13.9-66.5c-2-44.8-19.2-88.8-48.2-123.1c-5.7-6.8-12-13.2-19.6-17.9
		c-6.9-4.3-14.6-6.9-22.3-9.3c-43.5-13.3-90.9-18.7-134.3-5c-9.1,2.9-19.7,9.5-18.1,18.9c1.2,6.8,8.3,10.7,14.7,13.5
		C245.5,587.3,264.4,593.8,277.3,599.5z"/>
	<path class="st0" d="M612.5,627.1c-21.8,26.9-15.7,68,3,97.2c18.7,29.2,47.4,50.1,72.7,73.8c9.8,9.2,19.8,20.4,19.7,33.9
		c0,3.7-0.9,7.6-3.3,10.4c-4.1,4.8-11.1,5.4-17.4,5.3c-59.4-1.1-117-36.2-145.2-88.5c-28.2-52.3-25.9-119.7,5.7-170
		c8.2-13,18.7-25.2,32.7-31.2s32.3-4.3,42.3,7.4"/>
	<path class="st0" d="M323.1,347.8c41-48.7,46.5-124.1,13.1-178.3c-5.7-9.2-12.5-18.1-15.2-28.7c-6.4-25,12.3-49.4,32.8-65
		C412,31.5,495.9,24.1,561,57.6"/>
	<path class="st0" d="M703.9,790.6c-32.9-10.6-59.6-38.4-68.8-71.7c-4.2-15.2-4.9-31.2-5.4-47c-0.5-15.5-0.3-32.4,9.5-44.3
		c8.3-10,21.5-14.1,35.1-17.6c2.1-9-1.9-18.6-8.8-24.8s-16-9.2-25.2-10.2c-30.8-3.4-61.2,15.4-77.8,41.6
		C546,642.8,541.6,675,543.2,706c1,18.2,4.2,37,15.1,51.6c7.7,10.3,18.5,17.7,29.6,24.2c31.6,18.8,66,32.4,100.2,45.9
		C697.5,831.4,707.3,835.3,703.9,790.6z"/>
	<path class="st0" d="M720.8,791c-27.4-0.8-53-17.6-67.7-40.7c-14.7-23.1-19.3-51.7-16.3-79c2.3-21.2,11.1-44.3,30.7-52.8
		c5.4-2.3,11.7-3.6,15.4-8.2c3.6-4.4,3.7-10.6,3.6-16.2c-0.2-21.9-0.7-44.7-10.5-64.2c-7-14-18.5-25.5-24.8-39.9
		c-6.2-14.2-6.9-30.1-6.3-45.6c1-24.8,5.5-49.7,16.2-72c10.7-22.3,28.1-42,50.6-52.4c4.1-1.9,9.2-5,8.4-9.4c-0.2-1-0.7-1.9-1.2-2.8
		c-13.1-22.3-43-30.7-68.1-24.6c-25.1,6.1-45.9,24-62.2,44.1c-34.6,42.8-53,97.2-58,152.1s2.6,110.1,15.6,163.6
		c8.7,35.8,20.1,71.7,41.2,101.9c14.2,20.2,32.3,37.4,51.2,53.2c18,15.1,38.1,29.7,61.4,32.6c10.4,1.3,22.9-0.9,27.9-10.1
		C734.2,809.4,725.9,795.7,720.8,791z"/>
	<path class="st0" d="M631.3,712.8c0.4-25.1,6.4-52.9,27-67.3c6.9-4.9,15-7.8,22.1-12.4c18.7-12.1,28.9-36.1,24.6-58
		c-5.9-30.1-34.5-49.9-48.6-77.2c-13.5-25.9-12.7-57.8-2.2-85c10.5-27.3,30-50.3,52.3-69.2c9.1-7.7,19.9-18.4,15.7-29.6
		c-3.6-9.7-15.8-12.2-26.1-13.3c-11.2-1.2-22.7-2.3-33.6,0.7c-16.7,4.7-29,18.5-39.2,32.5c-39.9,55.1-60.1,124-56.2,191.9
		c2.1,36.4,10.8,72.1,15.4,108.3c4,31.4,6.1,65.9,28,88.7C616.3,729.1,631,733.1,631.3,712.8z"/>
</g>
<g id="Layer_4">
	<path class="st1" d="M362.1,256.2V138.9c0-27,21.9-48.8,48.8-48.8h172.3c27,0,48.8,21.9,48.8,48.8v117.3c0,27-21.9,48.8-48.8,48.8
		H410.9C384,305,362.1,283.2,362.1,256.2z"/>
</g>
<g id="Layer_8">
	<path class="st2" d="M389.1,248.4V146.6c0-16.1,13-29.1,29.1-29.1H578c16.1,0,29.1,13,29.1,29.1v101.8c0,16.1-13,29.1-29.1,29.1
		H418.2C402.1,277.5,389.1,264.5,389.1,248.4z"/>
</g>
<g id="Layer_5">
	<path class="st3" d="M458.4,306.7c27.5,0.1,55.1,0,82.6-0.5L440.1,307"/>
	<path class="st3" d="M553.9,307.6c-13-8.2-29.7-4.3-45-3.7c-19.1,0.8-39.3-3.9-56.8,3.8C484.5,309.5,517,309.7,553.9,307.6z"/>
	<path class="st3" d="M458.1,308c7.6,0.5,15.3,1,22.9,1.5c20.1,1.3,40.6,2.6,60.1-2.2c-0.4-1.2-1.4-1.9-2.5-2.5
		c-6.6-3.5-14.7-1.1-22.1,0c-21.9,3.2-45.7-6-65.7,3.5C450.6,309.2,450.7,307.5,458.1,308z"/>
</g>
<g id="Layer_3">
	<path class="st4" d="M540.4,810.6c-1.8,8.7-2.7,17.6-2.7,26.4c0,1.6,0.1,3.3,1,4.6c1,1.4,2.7,2,4.3,2.6c27.7,9.3,56.6,14.7,85.7,16
		c4.1,0.2,8.6,0.2,12.1-2c5.6-3.6,6.6-11.9,3.7-17.9c-2.9-6-8.7-10.1-14.6-13c-5.9-3-12.3-5.2-17.7-9c-8-5.6-13.6-14.2-21.3-20.2
		c-2.1-1.6-4.4-3.1-7.1-3.5c-2.2-0.3-4.5,0.2-6.6,0.8c-12.7,3.1-25.4,6.1-38.1,9.2C538.9,808.9,538.9,813.4,540.4,810.6z"/>
	<path class="st3" d="M604.1,815.7c-4.6,2.7-9.2,5.3-13.8,8c-1.6,0.9-3.4,2.5-2.7,4.2c0.6,1.4,2.6,1.5,4.1,1.3
		c6.7-0.9,13.2-2.9,19.1-6.1c0.3-1.8-1.2-3.5-2.8-4.5C606.4,817.6,604.6,816.9,604.1,815.7z"/>
	<path class="st3" d="M412.9,818.1c4.3,4.3,9.7,7.7,15.4,9.7c1,0.3,2.1,0.6,3,0.2c0.7-0.3,1.1-1,1.4-1.7c1.4-3.7-1.7-7.7-5.1-9.7
		c-3.5-2-7.5-2.9-10.6-5.5C413.9,812.5,410.3,815.6,412.9,818.1z"/>
</g>
<g id="Layer_2_1_">
	<path class="st5" d="M538.9,305.5c-0.9,0-1.7,0-2.6,0c-1.8,0-3.5-0.3-5.1-0.6c-8.9,2.3-18.1,1.8-27.2,2.4
		c-9.9,0.7-18.7-0.1-28.5-1.5c2.7,0.4,5.4,0.7,8.1,1.1c-3.4-0.2-6.8-0.6-10.1-1l0,0c0.6,0.1,1.1,0.1,1.7,0.2
		c-0.7-0.1-1.4-0.1-2.1-0.2c-2.3,0.4-4.6,0.6-7,0.7c0.4,11.8,3.9,38.6,25.5,52.1l0.7-0.6c5-5.4,11.8-8.5,23.3-17.4
		c12.5-9.6,22-22.6,23.9-35.3C539.3,305.6,539.1,305.6,538.9,305.5z"/>
	<path class="st6" d="M587.1,428.6c0-0.3,0-0.7,0-1c0-0.5,0-1,0.1-1.4c-0.1-1.9-0.1-3.8-0.1-5.7c-0.8-1-1.5-2.1-2.2-3.2
		c-0.7-0.2-1.4-0.4-2.1-0.6c0.2,0.8,0.3,1.6,0.5,2.4c0.8,3.9,1.5,7.1,2.3,10.5c0.3,1.4,0.7,2.6,1.1,3.6
		C586.8,431.6,586.9,430.1,587.1,428.6z"/>
	<path class="st6" d="M587.2,341.6c0-2.3,0.1-4.5,0.3-6.6c-12-4.8-24.8-7.9-34.3-10.5c-2.6-11.9-14.7-18.1-14.7-18.1l-0.3,1.4
		c-2.6,11.9-11.8,24-23.6,33.2l0.3,0c-11.1,8.6-17.8,11.8-22.8,16.8l-1.2,1.2c-17.9-11.1-23.4-31.3-25.1-44.7v-1.1
		c0,0-8.4,4.3-11.6,11.4l-1.5,3.8c-8.8,1.7-18.3,4.5-27.1,8.7c-0.4,3-1.1,5.7-2.7,8.6c-0.1,0.2-0.6,1-1,1.8
		c-0.1,0.6-0.2,1.2-0.3,1.9c0.6,1.2,1.2,2.4,1.6,3.7c1.6,4.7,1.9,9.8,1.6,14.8c0.4,1.3,0.8,2.6,1,3.9c0.2,0.7,0.3,1.5,0.4,2.2
		c3,7.5,1.5,15.7-4.1,21.8c-2.8,3-6.1,4.6-9.7,5.2c0,2.8-0.2,5.6-0.4,8.4c-0.7,9.2-2.1,15.4-2.8,23.1c2,0.1,4,0.1,5.9,0.1v4.4
		c-1.4,28.5-2.2,57.6-1.6,84.5c0.1,5.3,0.4,5.7,3.9,6.7c8.9,2.6,27.3,5.5,40.3,6.7c18.5,1.9,36.7,1.7,55.1,0.6
		c20.1-1.1,45.7-3.9,64.8-7.2c3.2-0.7,5.3-0.3,5.7-3.4c0.2-11.8-0.7-23.7-1-41.6c-0.3-19.4-1.1-47.5-2.2-67.9
		c-11.7-6.2-17-24-6-34.7c0.9-0.8,1.7-1.7,2.6-2.5c1.2-1.1,2.7-3.5,0.6-0.2c0.4-0.7,0.9-1.5,1.4-2.1c0.4-3.9,2.7-8.7,3.9-11.2
		c0.8-1.6,1.8-3,2.9-4.4c0-0.2,0.1-0.5,0.3-1c0.7-1.7,1.8-3.2,3.1-4.5C587.7,350.5,587.2,346.1,587.2,341.6z"/>
	<path class="st7" d="M469.3,802.4l3.2,28.6c0.4,3.2-1.2,6.3-3.9,8c-5.9,3.6-17.8,9.4-37.3,12.4c-29.7,4.5-47.6,3.1-50.7-5.5
		s12.8-19.7,24.8-25.5c12.1-5.9,25.9-18.9,25.9-18.9"/>
	<path class="st7" d="M490.8,573.7c0,0-6.4,51.6-10.2,104.7c-3.8,53.1-5.5,122.7-5.5,122.7s-11.7,4.1-26.5,3.4
		c-14.8-0.7-26.9-7.6-26.9-7.6s-1.4-59-2.8-144.5s0-124.3,0-124.3s22.5,8,66.6,8s94.1-8.3,94.1-8.3s-0.3,56.7,4.9,142.5
		c5.2,85.9,7.9,131.7,7.9,131.7s-10.3,6.9-23.4,6.9s-28.6-4.4-28.6-4.4s-7.9-51.1-17.2-113.5s-22.1-115.9-22.1-115.9
		s-4.6-0.4-10.1-1.6L490.8,573.7z"/>
	<path class="st3" d="M583.5,532.3c2.3-0.8,4.9-2.6,5.4-6.9v-0.5c0-6.7-0.1-13.3-0.4-21c-0.2-6-0.5-12.9-0.6-20.8
		c-0.1-6.6-0.3-14.3-0.5-22.3c-0.5-3.6-0.8-7.2-0.8-10.8c0-1.3,0-2.7,0-4c-0.4-5.8-0.2-11.7,0.5-17.5c0-0.3,0-0.7,0-1
		c0-0.5,0-1,0.1-1.4c-0.1-1.9-0.1-3.8-0.1-5.7c-0.8-1-1.5-2.1-2.2-3.2c-4.1-0.9-7.7-3.2-10.5-6.2c1.1,20.4,2.1,51.5,2.4,72.3
		c0.1,8.1,0.4,15,0.6,21c0.2,6.8,0.5,12.7,0.4,18.5c-0.5,0-1,0.2-1.5,0.3c-18.2,3.2-43.4,6-64.1,7.1c-21.3,1.3-38.1,1.1-54.3-0.6
		c-13.4-1.2-31.1-4.1-39.4-6.5v-1.8c-0.9-41.4,1.5-87.7,4-125.9c-0.1,0.1-0.2,0.3-0.4,0.4c-2.8,3-6.1,4.6-9.7,5.2
		c0,2.8-0.2,5.6-0.4,8.4c-0.5,6.3-1.3,11.2-2,16.2c0,0.5-0.1,1-0.1,1.6c0,0-0.1,0-0.1,0c-0.4,2.8-0.7,5.7-0.9,8.8
		c0,0.6-0.1,1.2-0.1,1.8c0.2,0,0.5,0,0.7,0c-0.4,7.6-0.7,15.2-0.9,23c1,8.3-0.3,17.1-0.8,25.3c0,0.3,0,0.5,0,0.8
		c0,1.8,0,3.6-0.2,5.3c-0.4,3.9,0,7.9-0.2,11.9c0.2-0.8,0.4-1.5,0.6-2.3c0,6.7,0,13.3,0.2,19.8c0,3.2,0.2,5.5,1.4,7.6
		c0.9,1.6,2.2,2.5,3.5,3.1c-0.3,12.2-1,51.2,0.1,120.4c1.4,84.5,2.8,143.9,2.8,144.5c0,1.6,0.9,3.1,2.3,3.9c0.2,0.1,1.7,1,4.2,2.1
		c-4.9,4.2-12.4,9.9-19.1,13.2c-5.5,2.7-32.4,16.6-27.2,31.3c2.7,7.5,11.3,11.1,27.2,11.1c7.7,0,17.2-0.9,28.5-2.6
		c19.7-3,32.1-8.7,39-13c4.2-2.6,6.6-7.5,6.1-12.5l-2.8-24.7c0.8-0.2,1.2-0.4,1.3-0.4c1.8-0.6,3-2.3,3.1-4.3
		c0-0.7,1.8-70.2,5.5-122.5c3-42.6,7.7-85,9.4-99.6c1,0.2,1.8,0.3,2.6,0.4c2.8,12.4,13.4,59.3,21.3,112.3
		c9.2,61.7,17.2,113,17.2,113.5c0.3,1.8,1.6,3.3,3.3,3.7c0.2,0,1.1,0.3,2.6,0.7l-0.1,0.9c0,0,0.1,0,0.1,0c0.2,0,0.3,0,0.4,0
		c1.3,0.1,2.5,0.4,3.7,0.9c0,0,0,0,0.1,0c0.1,0,0.1,0,0.2,0c0.6,0,1.1,0.1,1.6,0.1c0.2,0,0.4,0,0.6,0.1c0.8,0,1.6,0,2.4,0.2l0.1-0.4
		c5.4,1,12,1.9,18.2,1.9c4.7,0,8.4-0.6,11.7-1.5c0.2-0.1,0.5-0.3,0.8-0.4c0.3-0.2,0.7-0.4,1.1-0.5c0.1-0.1,0.2-0.1,0.4-0.2
		c0.1-0.1,0.4-0.2,1.1-0.5c-0.4,0.2-0.7,0.3-1.1,0.5c0,0-0.1,0-0.1,0.1c0.1-0.1,0.3-0.1,0.5-0.1c0.8-0.5,1.8-0.8,2.7-1c0,0,0,0,0,0
		c0.3-0.2,0.5-0.3,0.6-0.3c0.9-0.4,1.7-0.6,2.6-0.7c1.1-0.3,1.6-0.5-0.2-0.2c0.7-0.1,1.4-0.3,1.9-0.4c0,0,0.1,0,0.1-0.1
		c-0.2,0-0.5,0.1-0.8,0.1c0.4-0.1,0.6-0.1,0.8-0.1c0.3-0.2,0.7-0.4,1.5-0.7l0-0.1c1.6-0.9,2.6-1.5,2.7-1.6c1.4-0.9,2.2-2.5,2.1-4.1
		c0,0-2.8-45.9-7.9-131.7C584,598.9,583.5,547.2,583.5,532.3z M466.3,835l-0.1,0.1c-5.1,3.1-16.5,8.8-35.5,11.7
		c-40.4,6.1-45.1-1-45.6-2.5c-1.3-3.6,7.6-12.6,22.5-19.8c9.9-4.8,20.6-14,25-17.9c4.3,1.2,9.4,2.2,14.8,2.5h3.6
		c5.4,0,10.3-0.6,14.3-1.2l2.7,23.6C468.2,832.9,467.5,834.3,466.3,835z M586.6,799.5c-3.4,1.8-10.5,4.9-18.6,4.9
		s-19.6-2.3-24.5-3.5c-1.8-11.9-8.8-57.3-16.8-110.5c-9.2-61.9-22-115.7-22.1-116.2c-0.5-2-2.2-3.4-4.2-3.5c0,0-3-0.2-8-1.2
		c-0.6-0.4-1.3-0.8-2.1-0.9h-1.5c-0.5-0.1-0.9-0.2-1.4-0.3c-7.3-1.7-10.4-3.7-10.5-3.8c-2.1-1.4-4.9-0.9-6.4,1.2
		c-1.5,2.1-1,5,1.1,6.5c0.4,0.3,4.3,2.9,13,5c-1.6,13.9-6.4,57.2-9.5,100.8c-3.3,46-5,105-5.4,119.6c-4.2,1.1-12.4,2.8-21.8,2.3
		c-9.9-0.5-18.6-4-22.5-5.8c-0.3-12.7-1.5-67.5-2.7-141.7c-1.1-65.2-0.5-103.4-0.2-117.7c10.4,2.3,25,4.4,34.9,5.2
		c9.4,1,19.2,1.4,29.8,1.4s16.8-0.3,26.1-0.8c19.4-1.1,42.7-3.5,60.8-6.5c0,17.1,0.7,67.7,4.9,136.6c4.4,73.4,7.1,117.6,7.8,128.8
		L586.6,799.5z"/>
	<path class="st3" d="M558.4,320.3c-0.3,0-0.7-0.2-1-0.3c-2.1-6-6-10.4-9.5-13.5c-0.4-0.1-0.7-0.2-1.1-0.2c-2.7-0.1-5.3-0.3-8-0.7
		c-0.8,0-1.6,0-2.5,0c-5.6-2-11.6-3.1-17.6-3.1c-9.5,0-18.9,2.5-28.5,2.5c-8.1,0-16.3-1.9-27.4,1.8c-1,0.1-2,0.2-3,0.2
		c0,0.3,0,0.6,0,0.9c-0.6,0.3-1.3,0.5-1.9,0.8l1.9,0c0,0.5,0.1,1.1,0.1,1.7c-3.3,2.2-8.2,6.2-10.8,12c-0.2,0.5-0.4,1-0.6,1.4
		c-7.9,1.7-15.5,4.1-22.5,7.2c0,0.4-0.1,0.8-0.2,1.2c0,0.3,0,0.5-0.1,0.8c-0.4,3.9-0.8,7.1-2.1,10.5c6.4-3.3,13.5-6.1,21.1-8.2
		c-2.2,11.3-2.1,22.6-2.1,23.2c0,1.8,0.9,3.4,2.4,4.4c0.9,0.5,1.8,0.8,2.8,0.8s1.5-0.2,2.2-0.5l24.5-11.1c2.3,2.8,5,5.5,8.2,7.9
		c-6.1,10.8-5.1,33.7-4.9,36.4c0.2,2.8,2.5,5,5.2,5h0.3c2.9-0.2,5.1-2.6,5-5.5c-0.5-9,0.1-25.4,3.8-31c2.9-4.3,6.4-6.7,12.3-10.7
		c1-0.7,2.1-1.4,3.2-2.2l29.8,14.9c0.8,0.4,1.5,0.6,2.3,0.6c1.8,0,3.5-0.9,4.5-2.6c0.2-0.3,4-6.9,7.7-15.1
		c3.3-7.4,5.2-13.6,5.9-18.7c8.8,2.3,19.3,5.3,29,9.3c0.1-3.7,0.3-7.3,1.1-10.7C577.9,325.5,567.1,322.6,558.4,320.3z M454,350.2
		c0.5-6.9,1.7-16.8,4.8-23.6c0.7-1.5,1.7-2.9,2.9-4.1c1.3,6.6,3.6,13.9,7.5,20.9L454,350.2z M511.4,336.8c-4.9,3.8-8.9,6.5-12.4,8.9
		c-3.4,2.3-6.3,4.3-8.9,6.5c-15.5-11.9-18.9-32.5-19.6-43.4c12.5,0.1,25,0.2,37.4,0.3c8.3,0.1,16.8,0.1,25-1.6
		C530.5,317.4,522.7,328.1,511.4,336.8L511.4,336.8z M538.3,355.4l-20.5-10.2c0,0,0,0,0.1-0.1c11.4-8.9,19.7-19.5,23.7-30.1
		c2.7,2.5,5.5,6,6.5,10.5C549.4,331.4,543.7,345.3,538.3,355.4z"/>
	<path class="st3" d="M462.2,306.9l0.8-0.1c-0.1,0-0.2,0.1-0.3,0.1C462.5,306.9,462.3,306.9,462.2,306.9z"/>
	<path class="st5" d="M454,201.5c-3.9,0-7.1-3.2-7.1-7.1V172c0-3.9,3.2-7.1,7.1-7.1s7.1,3.2,7.1,7.1v22.4
		C461.1,198.3,457.9,201.5,454,201.5z"/>
	<path class="st5" d="M533,201.5c-3.9,0-7.1-3.2-7.1-7.1V172c0-3.9,3.2-7.1,7.1-7.1c3.9,0,7.1,3.2,7.1,7.1v22.4
		C540.1,198.3,536.9,201.5,533,201.5z"/>
	<circle class="st5" cx="502.6" cy="383.4" r="5.5"/>
	<path class="st5" d="M533.7,228.1c-0.5-1.6-1.6-3-3.1-3.7c-1.5-0.8-3.2-1-4.8-0.5c-1.6,0.5-2.9,1.5-3.7,3c0,0-0.4,0.6-1.1,1.3
		c-0.7,0.7-2,1.8-3.9,3c-2.2,1.3-4.9,2.3-7.9,3.1c-3.8,1-8.2,1.5-13.1,1.5s-0.1,0-0.2,0c0,0-0.1,0-0.2,0c-4.8,0-9.2-0.5-13.1-1.5
		c-3-0.7-5.6-1.8-7.9-3.1c-1.9-1.1-3.2-2.2-3.9-3c-0.7-0.7-1-1.2-1.1-1.3c-0.8-1.4-2.1-2.5-3.7-3s-3.3-0.3-4.8,0.5
		c-1.5,0.8-2.6,2.1-3.1,3.7s-0.3,3.3,0.5,4.8c0.4,0.7,2.7,4.7,8.5,8.4c3.3,2.1,7.1,3.7,11.4,4.9c5.1,1.4,10.9,2.1,17.2,2.1
		s0.1,0,0.2,0c0,0,0.1,0,0.2,0c6.3,0,12.1-0.7,17.2-2.1c4.3-1.2,8.1-2.8,11.4-4.9c5.9-3.7,8.1-7.6,8.5-8.4
		C534,231.4,534.2,229.7,533.7,228.1z"/>
</g>
<g id="Layer_9">
	<path class="st8" d="M348.6,337.5c-24.7-25.4-42.5-57.4-51.2-91.8c-2.6-10.1-4.4-20.6-9.1-29.9c-7.2-14.2-21.3-28-15-43.4
		c0.9-2.1,2.3-4,4.3-5.2c6.4-4,13.3,1.2,16.9,6.9c1.4,2.2,6.5,12.7,7.8,14.2c0.9,1.1-1.8,1.9-1.7,0.5c0.4-6-12-24.6-23.2-21.6
		c3.3-5.8,13.9-14.4,14.9-15.1c0,0,0.1,0,0.1,0c1.2,0.5,17.8,5,16.8,12.9c-0.3-6.9-11-13.9-17.6-11.9c4.2-6.8,13.4-8.5,21.2-6.7
		s14.1,8.8,14.9,16.8c-6.2-2.1-13.7-0.8-18.2,3.9c-4.6,4.7-5.5,12.8-1.5,18s12.7,6.1,17.3,1.4c-6.3,5.6-17.9-0.7-17.8-9.1
		c0-8.4,9.5-14.8,17.8-13.2c8.3,1.6,14.3,9.5,15.7,17.8s-1.3,16.8-5.5,24.2c-0.9,1.6-1.9,3.2-2.1,5.1c-0.2,1.8,0.5,3.5,1.2,5.2
		c12.7,32.3,25.9,65.3,49,91.2C375.9,321.3,362.4,331.7,348.6,337.5z"/>
	<path class="st8" d="M611.7,310c23-24.8,39.7-55.4,47.9-88.2c0.9-3.4,1.7-7,1-10.5c-1-5.7-5.6-10.2-7.7-15.6
		c-3.3-8.1-0.4-18.3,6.6-23.5c7-5.2,17.6-5,24.4,0.5c4.6,3.7,7.4,10.4,4.7,15.6c-3.4,6.5-12.7,6.8-19.8,5.1c3.9,0.1,7.8,0.2,11.5-1
		c3.7-1.1,7.2-3.8,8.3-7.5c1.6-5.5-2.6-11.4-7.9-13.7c-5.3-2.2-11.3-1.8-17.1-1.3c1.5-11.2,13.8-19.7,24.8-17.1
		c2.2,0.5,4.8,2,4.7,4.3c0,1.1-0.7,2.1-1.3,3c-2.5,3.5-5,7-7.5,10.5c3-4.9,5.9-9.8,8.9-14.6c6.3,1.3,12.2,4.2,17,8.4
		c1,0.9,2.1,2,2.1,3.3c0,0.8-0.3,1.6-0.7,2.3c-2.6,4.6-7.6,7.3-12.2,10c-4.6,2.7-9.3,6-11,11.1c-1.6,5.1,1.9,11.9,7.2,11.4
		c-5.3-0.4-7.8-7.5-5.7-12.4c2-4.9,6.8-8.1,11-11.2s8.6-7.1,9.3-12.4c10.1,7.9,14.1,22.7,9.2,34.6c-3.5,8.4-10.6,14.8-15,22.7
		c-3.3,5.9-5,12.4-6.7,18.9c-5.1,19.2-10.3,38.5-18.9,56.4c-8.6,17.9-20.9,34.5-37.6,45.2c-6.5-5.6-13-11.2-19.5-16.8
		c-3.2-2.7-6.4-5.5-8.5-9.1C611.2,314.8,610.3,310.2,611.7,310z"/>
</g>
<g id="Layer_6">
	<g id="Layer_7">
	</g>
	<path class="st2" d="M657.4,342.6c-7.4-8.6-15.1-17.1-22.9-25.4c-2.6-2.4-5.3-4.8-8.1-7c-2.4-1.9-3.9-4.3-4.7-7
		c-15.6,9.4-31,19.1-46.1,29.3c-6.3,4.3-10.6,10.4-13.6,17.5c6.4,1.6,11.3,7.5,11.3,14.3c0,2.6-0.8,5.1-2,7.3
		c0.7,1.3,1.2,2.6,1.6,3.8c0.7,2.4,0.8,4.7,0.3,7.1c0,0.9-0.2,1.8-0.4,2.7c0,0.5,0.1,1,0.1,1.4c0.4,3.6-1.5,7.6-3.7,10.3
		c-0.4,0.7-0.9,1.3-1.5,1.9c5,4.9,8.3,11.6,9.7,18.5c0.3,1.7,0.5,3.3,0.7,5c0.1,1,0.4,2.9,0.5,3.5c-0.1-0.4-0.1-0.7-0.2-1.1
		c0.3,2,4.5,9.1,4.5,9.1s2.7,19.4-1.1,18.1c-2-0.7,0.8,14.8-0.1,16.5c2.9,1,0.2-29.5,1.7-16.7c0.8,6.7-0.5-15.3-0.5-19.1
		c0-8.9,0.7-8.2,0.5-13.5c-0.6-16.7,18.6-25.3,32.4-34.8c16.2-11.1,31.1-24,44.4-38.4C659.2,344.8,658.3,343.7,657.4,342.6z"/>
	<path class="st3" d="M407.5,821.9c5.1,1.4,10.2,2.9,15.3,4.3c2.3,0.7,5.1,1.2,7-0.3c2.5-2.1,1.3-6.3-1.2-8.4s-5.8-2.8-8.6-4.4
		c-0.9-0.5-1.9-1.2-3-1c-0.8,0.1-1.5,0.7-2.1,1.3C411.6,816.4,408.2,819.5,407.5,821.9z"/>
	<path class="st6" d="M559.4,345.3c-7.7,15.2-7.7,34.1,0.2,49.3c1,1.9,2.3,3.9,4.4,4.1c2,0.2,3.7-1.4,5.1-2.9
		c4.6-5,9.4-10.1,12.1-16.4c3.1-7.1,3.3-15.1,3.5-22.8c0.1-3,0.1-6-0.9-8.8c-3-7.9-12.9-10.1-21.3-11.2c-0.8-0.1-1.6-0.2-2.2,0.2
		c-1,0.5-1.2,1.7-1.4,2.8C556.9,350.2,555,361,559.4,345.3z"/>
	<path class="st6" d="M595.3,366c-11.4,12.8-18.3,29.6-19.3,46.7c-1.1,18.6,4.5,37.9-1.2,55.7c-0.5,1.5-1.3,3.3-2.9,3.6
		c-2.7,0.7-4.3-3-4.6-5.8c-2.5-20-4.9-39.9-7.4-59.9c-0.4-3.4-0.8-6.8-0.2-10.2c0.8-4.5,3.4-8.6,6.3-12.2
		C574.3,373.7,585.3,365.8,595.3,366z"/>
	<path class="st6" d="M553.9,377c-2.3-3.8,0.5-8.7,0.6-13.2c0.1-3.2-1.2-6.5-0.8-9.7c0.8-5.9,7.1-9.6,8.6-15.3
		c0.3-1,0.4-2.1,1.2-2.8c0.6-0.5,1.4-0.6,2.1-0.7c9.6-1.5,19.2-3,28.8-4.4c4.3-0.7,9.5-0.9,11.9,2.6L576,358.4L553.9,377z"/>
	<path class="st6" d="M571.4,354.4l9.6-13c2.2-1.8,4.3-3.9,6.2-6c0.5-0.6,1-1.6,0.3-2c-0.3-0.2-0.6-0.2-1-0.2
		c-7.2,0.5-14.5,1.1-21.7,1.6c-0.2,0-0.4,0-0.6,0.1c-0.3,0.2-0.3,0.6-0.4,0.9c-0.3,2.6-2,4.7-3,7.1c-1.4,3.6-1,8,1,12.4
		C565.5,356.3,569.5,355.8,571.4,354.4z"/>
	<path class="st6" d="M559.9,348.5c0.4-4.1,1.3-8.2,2.7-12.1c0.2-0.7,0.5-1.4,1.2-1.9c0.6-0.4,1.4-0.4,2.2-0.4
		c10.2,0,20.4-2.2,29.8-6.3c2.4-1.1,5.3-2.2,7.6-0.9l-11.4,20L559.9,348.5z"/>
	<path class="st6" d="M562.3,344.2c-0.5-2.4-0.6-4.9-0.3-7.4c0.1-0.8,0.3-1.6,0.8-2.1c0.6-0.6,1.5-0.7,2.3-0.7c1.2,0,2.5,0,3.7,0.1
		c0.6,0,1.3,0.1,1.7,0.6c0.5,0.6,0.2,1.6-0.4,2.1c-0.6,0.5-1.5,0.6-2.2,0.7c-0.9,0.1-1.7,0.2-2.6,0.2c-0.6,0-1.2,0-1.8-0.3
		c-1.2-0.7-0.7-2.8,0.5-3.6s2.8-0.5,4.2-0.4c7.1,0.7,14.2-0.1,21.3-1l5,3.8l-5.2,13.7l-13.3,8.3L562.3,344.2z"/>
	<path class="st6" d="M580.5,398.6c1.3,3.8-0.6,7.8-1.9,11.6c-1.6,4.4-2.4,9.1-2.5,13.8c-0.1,4.5,0.4,9.4-1.9,13.3
		c-0.2,0.3-0.4,0.6-0.8,0.8c-1,0.4-1.7-1.1-1.7-2.2c-0.4-7.3-0.7-14.6,0.2-21.9c0.9-7.2,3.2-14.5,7.6-20.3
		C580.2,392.8,578.3,392.2,580.5,398.6z"/>
	<path class="st6" d="M580.6,402.4c-0.6,1.8-1,3.6-1.2,5.5c0.2-0.2,0.4-0.4,0.7-0.5c-4.5,20.9-3.2,42.5-3,63.9
		c0,0.9-0.2,2.1-1.1,2.4c-0.9,0.3-1.7-0.7-2.2-1.5c-3.5-6.3-4.3-13.8-5-21c-0.4-4-0.8-7.9-1-11.9c-0.5-11.3,0.8-22.6,3.7-33.5
		c0.5-1.9,1.1-3.9,2.1-5.6c1.1-1.9,3.1-3.5,5.2-3.1c1.2,0.3,2.2,1.3,2.4,2.5S581.2,402.1,580.6,402.4z"/>
	<path class="st2" d="M402.8,400.7c-24.9-13.5-47.2-32.4-64.9-55c14.1-13.7,28.1-27.3,42.2-41c8,8.6,17.4,15.7,27.7,21.1
		c4.6,2.4,9.4,4.5,13.1,8c3.8,3.6,6.3,9.1,5.4,13.9c6,8.1,6.4,19.1,6.6,29.3c0.1,3.9,0.1,7.9-0.9,11.7c-1.9,6.9-7.5,12.5-14.2,14.1
		C411.1,404.3,403.6,402,402.8,400.7z"/>
	<path class="st3" d="M398.3,399.1c1.7,1.5,3,3.4,3.8,5.6c-0.9-0.8-1.8-1.7-2.7-2.5c3.4,4,6.9,8.1,8.5,13c1.5,4.5,1.5,9.3,1.5,14.1
		c0.1,9.3,0.8,18.6,2,27.8c0.1,0.6,0.2,1.3,0.8,1.6c0.9,0.4,1.6-0.8,1.9-1.8c3.6-13.3,4.6-27.4,2.8-41.1c-0.3-2.3-0.7-4.6-2-6.5
		C413,406.4,409.2,404.8,398.3,399.1z"/>
	<path class="st3" d="M383.5,390.9c4.3,6.4,11.9,9.8,16.9,15.6c6.1,6.9,8.1,16.5,8.5,25.7s-0.6,18.4,0.5,27.5
		c0.1,1.1,0.7,2.5,1.8,2.3c6.8-15.5,7.5-33.6,2-49.6c-1-3-2.3-6-4.4-8.4c-2-2.3-4.7-4-7.3-5.5C395.5,395.4,389.1,392.6,383.5,390.9z
		"/>
	<path class="st6" d="M387.4,378.2c5.2,10.4,17.4,15.3,24.3,24.6c4.1,5.5,6.2,12.4,7.1,19.2c0.3,2.2,1.1,5,3.3,5
		c0.6,0,1.2-0.3,1.7-0.5c8.9-4.5,12.1-15.5,13.4-25.4c2.5-19.2,0.9-38.9-4.7-57.5c-0.2-0.7-0.5-1.5-1.1-2c-0.9-0.7-2.1-0.5-3.2-0.4
		c-4.4,0.5-8.9-0.2-12.9-2c-3.6-1.6-7.7-4.1-11.2-2.4c-2,1-3.1,3.1-4.1,5C394.1,354.1,389.5,367,387.4,378.2z"/>
	<path class="st6" d="M414.5,398.7c5.7,12.2,3.1,26.9,7.3,39.7c0.3,1,0.9,2.1,1.9,2c0.7,0,1.3-0.7,1.7-1.2
		c4.2-6.1,4.7-14.2,2.6-21.4c-2-7.1-6.3-13.4-11.1-19c-0.6-0.7-1.3-1.4-2.2-1.6C413.8,397.1,412.7,397.8,414.5,398.7z"/>
	<path class="st6" d="M429.7,348.8c0,6.9,0.7,13.7,2.1,20.5c0.5,2.5,1.2,5.1,3.2,6.7c0.5,0.4,1,0.6,1.6,0.6c1.5-0.1,1.9-2,1.9-3.5
		c0.1-2.9,0.1-5.8,0.2-8.7c0.1-2.9,0.1-6-1.4-8.6c-1.4-2.3-3.8-3.7-6.1-5c-1.1-0.6-2.4-1.3-3.7-1.1
		C426.2,349.8,425.1,351.3,429.7,348.8z"/>
	<path class="st6" d="M412.7,334.8c5.5,2.9,11.4,6,17.6,5.4c1.9-0.2,4.3-0.4,5.2,1.3c0.3,0.6,0.3,1.2,0.2,1.8
		c-0.3,3-2.4,5.6-4.9,7.2c-1.7,1-3.8,1.7-5.6,0.9c-0.8-0.4-1.5-1-2.1-1.7C418.9,345.2,415.2,340.2,412.7,334.8z"/>
	<line class="st3" x1="408.6" y1="347.9" x2="426.2" y2="351.5"/>
	<path class="st3" d="M417.3,327.3c3.4,1,6.9,1.9,10.3,2.9c0.9,0.3,1.9,0.5,2.4,1.3c1.3,1.6-0.6,4.2-2.7,4.3c-2.1,0.1-3.8-1.4-5.2-3
		C420.9,331.2,419.7,329.4,417.3,327.3z"/>
	<path class="st3" d="M416.4,325.5c2.9,1.9,6.4,2.9,9.9,2.9c1.6,0,3.2-0.2,4.7,0.2s3,1.6,3,3.2c0,2.2-2.6,3.5-4.8,3.4
		c-2.9-0.2-5.6-1.8-8.1-3.4C418.7,330.3,416.3,328.7,416.4,325.5z"/>
	<path class="st3" d="M415.5,325.3c6.7,1.6,13.6,2.3,20.5,1.8c1.8-0.1,4.1-0.1,4.8,1.6c0.7,1.7-0.9,3.5-2.7,4.2
		c-3.3,1.3-7,0.5-10.4-0.3C422.9,331.5,417.8,330.3,415.5,325.3z"/>
	<path class="st6" d="M402,343.6c-1.4,0.8-2.9,2.2-2.2,3.6c0.2,0.4,0.5,0.6,0.8,0.9c4.5,3.8,9,7.6,13.9,10.8c2.4,1.6,4.9,3,7.7,3.5
		c2.8,0.5,5.9,0,7.9-2.1c2.5-2.5,2.4-7.1-0.1-9.5c-1.3-1.2-2.9-1.9-4.5-2.5c-8.8-3.3-18-5.4-27.3-6.4
		C396.2,341.8,393.7,342,402,343.6z"/>
</g>
</svg>
