<?xml version="1.0" encoding="utf-8"?>
<!-- Generator: Adobe Adobe Illustrator 24.2.0, SVG Export Plug-In . SVG Version: 6.00 Build 0)  -->
<svg version="1.1" xmlns="http://www.w3.org/2000/svg" xmlns:xlink="http://www.w3.org/1999/xlink" x="0px" y="0px" width="1000px"
	 height="1000px" viewBox="0 0 1000 1000" style="enable-background:new 0 0 1000 1000;" xml:space="preserve">
<style type="text/css">
	.st0{fill:#DBF3F5;}
	.st1{fill:#00DAB2;stroke:#003A61;stroke-width:20;stroke-miterlimit:10;}
	.st2{fill:#FAF9F8;stroke:#003960;stroke-width:20;stroke-miterlimit:10;}
	.st3{fill:none;stroke:#00DAB2;stroke-width:25;stroke-miterlimit:10;}
	.st4{fill:none;stroke:#00DAB2;stroke-width:25;stroke-linecap:round;stroke-linejoin:round;stroke-miterlimit:10;}
</style>
<g id="Layer_4">
	<path class="st0" d="M123,256.8c6.7-8.4,15.4-15,24.9-20c20-10.5,28.8-38.6,37.1-61.5c21-58,65.7-107,121.6-133.2
		s122.1-29.3,180.2-8.5c14.7,5.3,29.1,12.2,40.9,22.4c16.6,14.3,27.4,34.5,44.1,48.7c30.3,25.8,74.6,27.6,113.4,19
		c38.8-8.6,75.2-26.2,113.9-35c38.8-8.8,83.1-7.5,113.7,17.8c33.3,27.5,41.4,75.6,37,118.5c-4.2,40.9-17.6,80.3-34.2,117.9
		c-11.5,26-24.7,52-28.4,80.2c-8,61.7,30.7,120.3,33.3,182.4c1.8,43.9-14.8,87-39.2,123.6c-49.3,74.2-140.2,126.5-227.2,107.5
		c-36.8-8-70.3-27.8-107.1-36c-46.6-10.3-95.2-1.3-141.5,10s-93,24.9-140.7,23.9s-98-19.8-123.7-60c-16.4-25.7-21.1-57.1-22-87.5
		c-1.1-35.9,2.6-72,10.9-107c8.9-37.4,23.1-75.9,13.5-113.1c-10.3-40.2-46.5-69.9-57.2-110C79.8,332.2,83.8,305.7,123,256.8z"/>
</g>
<g id="Layer_17">
	<path class="st1" d="M193.6,719.1V280.9c0-29.2,23.7-52.9,52.9-52.9h447.2c29.2,0,52.9,23.7,52.9,52.9v438.2
		c0,29.2-23.7,52.9-52.9,52.9H246.5C217.3,772,193.6,748.3,193.6,719.1z"/>
	<path class="st2" d="M272.6,635.4V197.2c0-29.2,23.7-52.9,52.9-52.9h447.2c29.2,0,52.9,23.7,52.9,52.9v438.2
		c0,29.2-23.7,52.9-52.9,52.9H325.5C296.3,688.3,272.6,664.6,272.6,635.4z"/>
</g>
<g id="Layer_3">
</g>
<g id="Layer_2">
	<circle class="st3" cx="549.1" cy="416.3" r="151.8"/>
	<polyline class="st4" points="477,414.5 530.4,466.8 621.2,365.9 	"/>
</g>
</svg>
