<?xml version="1.0" encoding="utf-8"?>
<!-- Generator: Adobe Adobe Illustrator 24.2.0, SVG Export Plug-In . SVG Version: 6.00 Build 0)  -->
<svg version="1.1" xmlns="http://www.w3.org/2000/svg" xmlns:xlink="http://www.w3.org/1999/xlink" x="0px" y="0px" width="1000px"
	 height="1000px" viewBox="0 0 1000 1000" style="enable-background:new 0 0 1000 1000;" xml:space="preserve">
<style type="text/css">
	.st0{fill:#DBF3F5;}
	.st1{fill:#00CCAA;stroke:#003C5F;stroke-width:25;stroke-linecap:round;stroke-linejoin:round;stroke-miterlimit:10;}
	.st2{fill:#00CBAA;stroke:#003C5F;stroke-width:25;stroke-miterlimit:10;}
	.st3{fill:#003C5F;stroke:#003C5F;stroke-miterlimit:10;}
	.st4{fill:#00CCAA;stroke:#00CBAA;stroke-width:20;stroke-linecap:round;stroke-linejoin:round;stroke-miterlimit:10;}
</style>
<g id="Layer_4">
	<path class="st0" d="M71.2,508.3c58.2-54.8,77.6-141.1,96.8-221.2S213.3,120.9,278,75.3c57-40.1,137.7-37.3,192.1,6.8
		c43.2,35,70.2,92.3,119.8,115.6c28.5,13.4,60.6,13.6,91.4,18.2c52,7.8,102.2,29.1,145.1,61.4c31.3,23.6,60,55.5,67.7,95.5
		c4.8,24.4,1.3,49.8-3.6,74.1c-12.6,62.4-35.1,122.5-66.3,177c-14.8,25.9-31.8,51.1-40.3,80c-10.2,34.5-7.6,71.9-14.9,107.2
		c-10.9,52.2-44.7,98.4-89.5,122.6s-99.9,25.7-145.8,4.1c-50.3-23.6-86.7-71.3-131.6-105.1c-53.8-40.4-120.7-60.5-186.4-55.8
		c-39.8,2.8-82.9,13.6-117.3-7.7c-26.4-16.4-40.8-48.2-49.5-79.4C35.7,642.3,5.6,570,71.2,508.3z"/>
</g>
<g id="Layer_8">
</g>
<g id="Layer_9">
</g>
<g id="Layer_7">
	<polygon class="st1" points="600.9,482.6 779.3,397.8 773.8,622.6 	"/>
</g>
<g id="Layer_3">
	<path class="st2" d="M186.3,638.8V361.2c0-34.9,28.3-63.2,63.2-63.2h367.5c34.9,0,63.2,28.3,63.2,63.2v277.5
		c0,34.9-28.3,63.2-63.2,63.2H249.6C214.6,702,186.3,673.7,186.3,638.8z"/>
	<path class="st3" d="M230.3,614.6V383.4c0-22.8,18.5-41.4,41.4-41.4H595c22.8,0,41.4,18.5,41.4,41.4v231.3
		c0,22.8-18.5,41.4-41.4,41.4H271.7C248.8,656,230.3,637.5,230.3,614.6z"/>
</g>
<g id="Layer_6">
	<polygon class="st4" points="364,420.5 364.9,579.5 502.6,504 	"/>
</g>
<g id="Layer_5">
</g>
</svg>
