<?xml version="1.0" encoding="utf-8"?>
<!-- Generator: Adobe Adobe Illustrator 24.2.0, SVG Export Plug-In . SVG Version: 6.00 Build 0)  -->
<svg version="1.1" xmlns="http://www.w3.org/2000/svg" xmlns:xlink="http://www.w3.org/1999/xlink" x="0px" y="0px" width="1000px"
	 height="1000px" viewBox="0 0 1000 1000" style="enable-background:new 0 0 1000 1000;" xml:space="preserve">
<style type="text/css">
	.st0{fill:#DBF3F5;}
	.st1{fill:#FFFFFF;stroke:#003E60;stroke-width:25;stroke-linecap:round;stroke-linejoin:round;stroke-miterlimit:10;}
	.st2{fill:#00CBAA;stroke:#003E60;stroke-width:25;stroke-linecap:round;stroke-linejoin:round;stroke-miterlimit:10;}
	.st3{fill:none;stroke:#003E60;stroke-width:25;stroke-linecap:round;stroke-linejoin:round;stroke-miterlimit:10;}
	.st4{fill:#00CCAA;stroke:#003E60;stroke-width:25;stroke-linecap:round;stroke-linejoin:round;stroke-miterlimit:10;}
	.st5{fill:none;stroke:#003E60;stroke-width:30;stroke-linecap:round;stroke-linejoin:round;stroke-miterlimit:10;}
</style>
<g id="Layer_4">
	<path class="st0" d="M71.2,508.3c58.2-54.8,77.6-141.1,96.8-221.2S213.3,120.9,278,75.3c57-40.1,137.7-37.3,192.1,6.8
		c43.2,35,70.2,92.3,119.8,115.6c28.5,13.4,60.6,13.6,91.4,18.2c52,7.8,102.2,29.1,145.1,61.4c31.3,23.6,60,55.5,67.7,95.5
		c4.8,24.4,1.3,49.8-3.6,74.1c-12.6,62.4-35.1,122.5-66.3,177c-14.8,25.9-31.8,51.1-40.3,80c-10.2,34.5-7.6,71.9-14.9,107.2
		c-10.9,52.2-44.7,98.4-89.5,122.6s-99.9,25.7-145.8,4.1c-50.3-23.6-86.7-71.3-131.6-105.1c-53.8-40.4-120.7-60.5-186.4-55.8
		c-39.8,2.8-82.9,13.6-117.3-7.7c-26.4-16.4-40.8-48.2-49.5-79.4C35.7,642.3,5.6,570,71.2,508.3z"/>
</g>
<g id="Layer_3">
</g>
<g id="Layer_2">
	<path class="st1" d="M192.7,195.3l-1.5,666.8c0,17.1,13.8,31,30.9,31h521.3c16.9,0,30.7-13.6,30.9-30.5l10.4-666.5
		c0.3-17.3-13.6-31.4-30.9-31.4l-530.3-0.3C206.6,164.4,192.7,178.3,192.7,195.3z"/>
	<line class="st1" x1="543.1" y1="285.4" x2="720.4" y2="289.4"/>
	<line class="st1" x1="543.1" y1="347.4" x2="663.1" y2="351.4"/>
	<line class="st1" x1="275.1" y1="518" x2="720.4" y2="522"/>
	<line class="st1" x1="275.1" y1="588" x2="571.1" y2="592"/>
	<line class="st1" x1="275.1" y1="658" x2="527.1" y2="662"/>
	<line class="st1" x1="275.1" y1="728" x2="447.1" y2="732"/>
	<polygon class="st2" points="282.5,241.6 281.7,401.4 438.4,403.8 440.5,240.9 	"/>
	<polyline class="st3" points="322.5,323.7 354.9,347.5 399.6,297.1 	"/>
</g>
<g id="Layer_5">
	<circle class="st4" cx="720.4" cy="789.7" r="176"/>
	<polyline class="st5" points="635,790.9 707.9,859.1 805.9,720.4 	"/>
</g>
</svg>
