<?xml version="1.0" encoding="utf-8"?>
<!-- Generator: Adobe Adobe Illustrator 24.2.0, SVG Export Plug-In . SVG Version: 6.00 Build 0)  -->
<svg version="1.1" xmlns="http://www.w3.org/2000/svg" xmlns:xlink="http://www.w3.org/1999/xlink" x="0px" y="0px" width="290px"
	 height="335px" viewBox="0 0 290 335" style="enable-background:new 0 0 290 335;" xml:space="preserve">
<style type="text/css">
	.st0{fill:#DBF3F5;}
	.st1{fill:#00324D;}
	.st2{fill:#004B7C;stroke:#00324D;stroke-width:3;stroke-linecap:round;stroke-linejoin:round;stroke-miterlimit:10;}
	.st3{fill:#40DC98;stroke:#00324D;stroke-width:3;stroke-linecap:round;stroke-linejoin:round;stroke-miterlimit:10;}
	.st4{fill:#004B7B;stroke:#00324D;stroke-width:3;stroke-linecap:round;stroke-linejoin:round;stroke-miterlimit:10;}
	.st5{fill:#40DC98;stroke:#00324D;stroke-width:4;stroke-linecap:round;stroke-linejoin:round;stroke-miterlimit:10;}
	.st6{fill:#30BB7A;stroke:#00324D;stroke-width:4;stroke-linecap:round;stroke-linejoin:round;stroke-miterlimit:10;}
	.st7{fill:#005891;stroke:#00324D;stroke-width:4;stroke-linecap:round;stroke-linejoin:round;stroke-miterlimit:10;}
	.st8{fill:none;}
	.st9{fill:#BF191E;}
</style>
<g id="Layer_20">
	<g id="Layer_10">
		<path class="st0" d="M93.97,232.33c-10.87-0.43-21.58,2.41-32.41,3.5c-10.43,1.05-20.95,0.46-31.42-0.13
			c-2.69-0.15-5.45-0.32-7.89-1.45c-3.46-1.6-5.85-5.09-6.39-8.82c-0.54-3.72,0.69-7.59,3.01-10.58c2.33-3,5.67-5.12,8.12-8.03
			s3.9-7.28,1.76-10.42c-1.59-2.35-4.61-3.23-7.33-4.13c-6.73-2.22-13.88-6.62-14.66-13.55c-0.65-5.77,3.68-11.21,9.01-13.72
			c5.33-2.51,11.45-2.71,17.36-2.65c5.91,0.06,11.95,0.3,17.58-1.46c6.4-2,11.72-6.41,16.46-11.09c4.5-4.44,8.65-9.21,12.41-14.27
			c2.82-3.79,5.89-8.05,10.56-9.02c5.09-1.05,9.99,2.23,15.12,3.11c7.81,1.34,16.15-2.95,23.56-0.2
			c7.48,2.77,10.67,11.43,11.75,19.22c0.61,4.4,1.23,9.5,5.04,11.89c1.55,0.97,3.41,1.31,5.17,1.82c4.9,1.41,9.36,4.29,12.62,8.16
			c1.81,2.14,3.3,4.72,3.29,7.5c-0.01,2.41-1.14,4.67-2.3,6.79c-2.01,3.67-4.21,7.25-6.57,10.71c-1.41,2.06-2.92,4.18-3.35,6.63
			c-1.01,5.71,4.07,10.88,4.24,16.67c0.17,5.45-4.18,10.23-9.27,12.4c-5.09,2.17-10.8,2.27-16.34,2.34
			c-5.9,0.07-11.79,0.14-17.69,0.21C108.15,233.85,100.97,232.61,93.97,232.33z"/>
		<path class="st0" d="M154.28,174.5c1.28-3.57,6.83-3.65,9.46-0.93c2.63,2.73,3.05,6.86,3.12,10.65c0.17,10.1-1.13,20.35,1,30.23
			c2.14,9.88,8.86,19.71,18.8,21.53c7.79,1.42,15.71-2.41,21.58-7.71c5.19-4.69,9.28-10.6,11.84-17.11
			c1.35-3.44,2.25-7.42,0.63-10.74c-3.43-7.04-15.15-6.14-18.86-13.04c-2.58-4.79,0.36-10.95,4.73-14.2
			c3.12-2.32,7.23-3.7,10.94-2.54c4.04,1.26,6.68,5.19,8.13,9.17c1.45,3.98,2.04,8.25,3.73,12.13c3.14,7.16,10.18,12.46,17.93,13.49
			c2.76,0.36,5.6,0.23,8.26,1.03c7.55,2.28,10.87,13.04,5.92,19.19c-1.84,2.29-4.71,4.42-4.34,7.33c0.61,4.83,8.99,4.83,10.34,9.51
			c1.18,4.09-3.95,7.03-8.13,7.83c-16.32,3.14-33.1-0.37-49.34-3.87c-30.64-6.6-61.5-13.26-90.32-25.58"/>
		<path class="st0" d="M161.87,169.73c7.5,4.73,10.13,14.23,12.17,22.86c1.72,7.29,3.44,14.59,4.69,21.97
			c0.16,0.97,0.29,2.09-0.35,2.84c-0.49,0.58-1.29,0.77-2.03,0.92c-5.44,1.15-11.51,2.2-16.23-0.73c-2.67-1.65-4.48-4.36-6.17-7
			c-2.06-3.25-4.05-6.54-5.96-9.88"/>
		<path class="st0" d="M16.58,165.31c5.36-3.38,6.92-10.48,5.64-16.5c-1.28-6.02-4.79-11.35-7.75-16.8
			c-2.96-5.45-5.47-11.53-4.49-17.61c0.92-5.73,4.82-10.6,9.1-14.7c5.12-4.89,11.11-9.14,18.02-11.18s14.83-1.64,20.88,2.14
			c4.33,2.71,7.38,6.87,10.99,10.42c8.22,8.07,19.71,13,31.48,13.49c9.63,0.41,20.17-1.84,28.32,3.09
			c5.01,3.03,8.11,8.37,9.53,13.87c1.42,5.51,1.36,11.25,1.29,16.92"/>
		<path class="st0" d="M53.58,231.38c5.43-0.2,11.06-0.36,16.08,1.73s9.26,7.1,8.63,12.5c-0.41,3.54-2.68,7.5-0.48,10.3
			c1.49,1.9,4.27,2.04,6.69,1.99c24.23-0.57,48.38-4.74,72.57-3.38c11.37,0.64,22.63,2.49,33.96,3.56
			c4.56,0.43,10.26,0.11,12.18-4.05c2.13-4.61-2.45-9.56-7.02-11.79c-4.56-2.23-10.09-3.96-12.14-8.61
			c-0.49-1.1-0.71-2.44-0.09-3.47c0.51-0.85,1.47-1.31,2.38-1.71c5.34-2.39,12.2-4.58,16.49-0.6"/>
	</g>
	<g id="Layer_11">
		<path class="st1" d="M17.22,242.47v-0.21c0-0.77,0.62-1.39,1.39-1.39h250.23c0.77,0,1.39,0.62,1.39,1.39v0.21
			c0,0.77-0.62,1.39-1.39,1.39H18.6C17.84,243.86,17.22,243.24,17.22,242.47z"/>
	</g>
</g>
<g id="Layer_7">
	<path class="st2" d="M83.9,180.47c-7.09,1-16.54,12.46-16.54,12.46s-4.69,13.51-5.22,20.65c-0.03,0.4-0.05,0.82,0.13,1.17
		c0.24,0.46,0.75,0.69,1.23,0.87c3.75,1.43,7.81,2.04,11.81,1.76c0.86-0.06,1.73-0.16,2.53-0.48c2.58-1.02,3.82-3.95,4.32-6.67
		c0.51-2.72,0.59-5.62,1.97-8.02c-2.89,4.27-2.9,10.29-0.03,14.58c1.29,1.92,3.06,3.47,4.81,4.98c3.3,2.86,6.6,5.72,9.9,8.58
		c2.66,2.31,5.35,4.63,8.39,6.41c5.91,3.45,12.83,4.66,19.61,5.6c-0.32-2.27,0.77-4.49,1.91-6.48c3.62-6.35,8.08-12.22,13.21-17.42
		c2.47-2.5,5.39-4.98,8.9-5.21c-14.2-5.23-26.35-15.84-33.44-29.2c3.33,4.48,6.91,8.78,10.72,12.85c2.55-3.39,5.11-6.79,7.66-10.18
		c-3.64-5.88-6.8-11.04-13.06-12.45c-3.6-0.81-8.99-1.97-14.67-0.94C98.86,175,89.57,175.67,83.9,180.47z"/>
</g>
<g id="Layer_9">
	<path class="st3" d="M79.2,219c-0.31,3.87,0.01,7.77-0.53,11.62c-0.93-0.08-1.87-0.15-2.8-0.23c2.01-0.3,4.04,0.18,6.01,0.65
		c2.88,0.69,5.77,1.38,8.65,2.07c3.2,0.77,6.42,1.54,9.71,1.63c4.59,0.13,9.35-1.06,13.69,0.45c4.63,1.6,7.99,6.39,7.77,11.32
		c-0.04,0.81-0.59,1.57-1.39,1.72c-1.46,0.27-1.99-1.41-2.43-2.66c-0.85-2.43-2.83-4.44-5.24-5.33c3.28,1.11,5.63,4.52,5.5,7.98
		c-0.04,1.02-0.48,2.24-1.49,2.38c-1.18,0.17-1.89-1.21-2.45-2.27c-1.39-2.62-4.06-4.51-6.99-4.94c1.57-0.8,3.41,0.33,4.7,1.53
		c1.18,1.1,2.33,2.41,2.32,4.11c-0.01,0.83-0.38,1.66-1.07,2.13c-1.06,0.73-2.14,0.27-3.08-0.25c-3.11-1.73-5.92-4.42-9.47-4.63
		c-1.27-0.07-2.59,0.18-3.8-0.23c-0.72-0.25-1.34-0.72-2.03-1.05c-1.47-0.71-3.16-0.75-4.79-0.8c-4.85-0.16-9.69-0.6-14.47-1.48
		c-1.5-0.28-3.45-0.85-5.22-1.42c-2.86-0.93-5-3.31-5.61-6.26c-0.28-1.35-0.53-2.68-0.61-3.52c-0.51-5.39-0.1-10.87,1.21-16.13
		c2.78-0.29,5.58,0.11,8.35,0.5C75.78,216.21,79.54,214.72,79.2,219z"/>
	<path class="st3" d="M127.8,196.36C127.8,196.36,127.8,196.36,127.8,196.36l4.4,4.12c0.25,0.24,0.52,0.48,0.85,0.56
		c0.3,0.07,0.62-0.01,0.92-0.09c0.94-0.24,1.87-0.48,2.81-0.73c-2.36,1.09-4.79,2.06-7.3,2.73c-2.63,0.7-5.34,1.07-7.96,1.8
		c-4.2,1.16-8.15,3.25-11.49,6.06c-3.37,2.84-6.87,7.13-5.29,11.36c0.54,1.46,2.5,1.68,3.36,0.38c0.12-0.18,0.23-0.37,0.34-0.55
		c1.66-2.91,3.78-5.56,6.25-7.82c-2.59,1.96-4.39,4.94-4.91,8.15c-0.14,0.87-0.18,1.81,0.24,2.59c0.31,0.58,0.9,0.72,1.54,0.81
		c0.69,0.09,1.33-0.32,1.58-0.97c1.23-3.3,2.95-6.42,5.07-9.24c-2.04,2.78-3.16,6.23-3.13,9.68c0.01,1.41,1.72,2.14,2.76,1.19
		c0.15-0.14,0.31-0.3,0.49-0.49c1.26-1.33,2.41-2.77,3.45-4.28c1.94-2.82,4.16-5.97,7.41-7.4c2.71-1.19,5.79-1.06,8.68-1.69
		c3.32-0.73,6.4-2.5,8.69-5.01c1.06-1.16,1.98-2.52,2.31-4.07c0.67-3.12-1.16-6.22-3.25-8.64c-2.44-2.82-5.34-5.24-8.56-7.12
		c-0.15-0.09-0.32-0.18-0.48-0.14c-0.13,0.03-0.24,0.13-0.33,0.23C133.46,190.68,130.68,193.6,127.8,196.36z"/>
</g>
<g id="Layer_13">
	<path class="st4" d="M228.87,224.12c4.81-4.43,9.77-8.95,15.86-11.34c1.7-0.67,3.84-1.08,5.2,0.14c0.7,0.63,1.03,1.58,1.18,2.51
		c0.62,3.82-1.31,7.55-3.33,10.85c-3.42,5.58-7.32,10.86-11.52,15.88c-0.91,1.09-1.97,2.24-3.38,2.45
		c-1.06,0.15-2.12-0.27-3.11-0.68c-2.72-1.14-5.44-2.28-8.16-3.42C224.03,235.14,224.33,228.3,228.87,224.12z"/>
	<path class="st4" d="M251.02,224.03c3.18-0.2,6.59-0.49,9.08-2.49c1.33-1.07,2.27-2.53,3.22-3.94c3.2-4.73,6.86-9.16,10.9-13.2
		c1.07-1.06,2.2-2.13,3.6-2.68c1.4-0.55,3.15-0.49,4.25,0.54c1.12,1.04,1.29,2.73,1.29,4.26c-0.04,10.79-5.39,20.76-10.59,30.22
		c-0.62,1.13-1.35,2.35-2.57,2.75c-0.73,0.24-1.53,0.15-2.3,0.05c-2.91-0.38-5.81-0.76-8.72-1.14c-0.62-0.08-1.31-0.2-1.66-0.71
		c-0.21-0.3-0.26-0.67-0.3-1.04c-0.51-4.18-0.82-8.39-0.93-12.6c0.76,4.45,1.26,8.95,1.51,13.45c0.02,0.34,0.03,0.71-0.18,0.99
		c-0.2,0.27-0.56,0.36-0.89,0.44c-5.53,1.24-11.22,1.73-16.88,1.44"/>
	<path class="st3" d="M256.72,223.83c0.43,4.48,0.86,8.97,1.29,13.45c0.01,0.1,0.02,0.2,0.08,0.28c0.1,0.14,0.3,0.15,0.46,0.15
		c1.55,0.03,3.09,0.27,4.57,0.71c-0.4-1.28-0.49-2.63-0.54-3.97c-0.2-5.14,0.12-10.29,0.44-15.42c-0.45,0.11-0.78,0.49-1.09,0.82
		C260.29,221.6,258.12,222.83,256.72,223.83z"/>
</g>
<g id="Layer_12">
	<path class="st4" d="M154.38,217.24c12.8,2.85,26.15-0.45,39.23,0.51c4.83,0.35,9.59,1.29,14.34,2.22
		c6.67,1.31,13.35,2.62,20.02,3.92c-1.22,6.27-2.97,12.44-5.23,18.41c-0.19,0.51-0.41,1.04-0.87,1.33
		c-0.49,0.31-1.11,0.25-1.69,0.16c-7.29-1.05-14.23-3.87-21.5-5.11c-22.95-3.94-46.46,8.04-69.38,3.94
		c-0.77-0.14-1.59-0.32-2.11-0.91c-0.73-0.82-0.58-2.08-0.32-3.14c2.26-9.28,9.26-16.79,17.23-22.05c7.97-5.26,17-8.65,25.67-12.66
		c6.03-2.79,12.22-5.95,18.86-5.88c8.38,0.1,15.73,5.3,22.47,10.28c6.06,4.49,12.13,8.97,18.19,13.77c0.06,0.15,0.13,0.31,0.19,0.46
		"/>
	<path class="st4" d="M188.5,217.01c0.21-1.03,0.41-2.07,0.62-3.1c0.02-0.08,0.03-0.17,0.06-0.23c0.13-0.29,0.31,0.25,0.32,0.71
		C189.52,214.93,189.46,215.48,188.5,217.01z"/>
</g>
<g id="Layer_8">
	<path class="st2" d="M83.73,180.65c-1.07,0.96-1.41,2.55-1.15,3.96s1.06,2.67,1.96,3.79c1.81,2.25,4.12,4.09,6.72,5.35
		c0.78-3.04,3.11-5.42,5.42-7.55C92.01,186.12,87.44,183.7,83.73,180.65z"/>
	<path class="st2" d="M105.99,173.51c0.14,2.87-0.31,5.77-1.31,8.46c2.36,0.54,4.62,1.53,6.61,2.91c0.63-3.04,0.3-6.27-0.94-9.11
		c-0.4-0.93-0.92-1.84-1.67-2.51C107.92,172.59,106.89,172.17,105.99,173.51z"/>
</g>
<g id="Layer_6">
	<path class="st5" d="M82.52,174.97c0.26,2.67,2.04,4.96,4.18,6.39c2.13,1.42,4.61,2.12,7.05,2.81c1.52,0.42,3.03,0.85,4.55,1.27
		c1.45,0.4,2.92,0.82,4.16,1.72c2.22,1.61,3.31,4.48,4.02,7.24c-0.08-3.05-2.94-5.26-3.5-8.25c-0.64-3.43,1.87-6.6,2.34-10.06
		c0.37-2.75-0.57-5.48-1.49-8.08c-0.13-0.37-0.28-0.76-0.6-0.96c-0.3-0.19-0.67-0.16-1.02-0.12c-3.85,0.43-7.7,0.85-11.55,1.28
		c-1.68,0.19-3.39,0.38-4.95,1.08C84.14,169.98,82.16,171.28,82.52,174.97z"/>
</g>
<g id="Layer_3">
	<path class="st6" d="M52.65,113.03c-2.02-1.61-4.9-1.17-7.35-0.45c-5.02,1.47-9.81,3.78-14.11,6.83c-1.29,0.91-2.57,1.93-3.31,3.35
		c-1.26,2.41-0.68,5.35-0.07,8.01c2.65,11.54,5.3,23.08,7.95,34.63c0.52,2.26,1.05,4.55,2.11,6.6c0.99,1.92,2.46,3.62,4.35,4.58
		c1.84,0.94,3.94,1.14,5.98,1.32c3.42,0.31,6.85,0.62,10.27,0.92c2.07,0.19,4.19,0.37,6.21-0.14c3.15-0.8,5.76-3.25,7.34-6.17
		c1.58-2.92,2.24-6.28,2.51-9.62c0.52-6.47-0.35-12.96-1.3-19.37c-1-6.76-2.14-13.64-5.25-19.68c-0.8-1.56-1.74-3.07-2.27-4.75
		c-0.25-0.79-0.41-1.62-0.76-2.36c-0.58-1.22-1.64-2.13-2.8-2.77C59.62,112.56,56.51,112.31,52.65,113.03z"/>
</g>
<g id="Layer_21">
	<path class="st5" d="M48.81,167.18l-10.05-37.41c-2.17-8.09,2.52-16.39,10.49-18.53l49.93-9.95c0,0,11.85-2.52,15.84,6.71
		l11.05,38.43c2.17,8.09-1.09,16.14-9.99,19.04c-11.93,3.88-48.92,12.49-48.92,12.49C59.2,180.1,50.98,175.27,48.81,167.18z"/>
</g>
<g id="Layer_4">
	<path class="st7" d="M57.14,166.1l-9.25-40.39c-0.78-3.39,1.37-6.77,4.78-7.55l46.56-8.53c3.42-0.78,7.88,0.43,9.09,5.71l8.76,33.7
		c0.78,3.39-1.12,8.5-4.54,9.29l-47.81,12.49C61.32,171.6,57.92,169.49,57.14,166.1z"/>
	<g>
		
			<rect x="40.66" y="115.19" transform="matrix(0.99 -0.1408 0.1408 0.99 -21.0131 13.4397)" class="st8" width="87.63" height="80.1"/>
		<path class="st9" d="M63.69,138.83h-7.71l2.39-12.39h7.74l-0.42,2.16h-5.27l-0.52,2.67h4.77l-0.41,2.16h-4.77l-0.63,3.25h5.27
			L63.69,138.83z"/>
		<path class="st9" d="M72.51,132.98c0.34,0.05,0.6,0.17,0.79,0.37c0.19,0.2,0.36,0.54,0.51,1.02l1.36,4.46h-2.5l-0.88-3.12
			c-0.02-0.06-0.04-0.13-0.07-0.22c-0.29-1.03-0.73-1.55-1.31-1.55h-0.97l-0.95,4.9h-2.45l2.42-12.39h3.4
			c1.28,0,2.24,0.24,2.86,0.73c0.62,0.48,0.93,1.23,0.93,2.23c0,1.03-0.27,1.86-0.81,2.49C74.29,132.5,73.51,132.87,72.51,132.98z
			 M70.51,128.5l-0.66,3.38h1.02c0.75,0,1.31-0.18,1.7-0.53s0.58-0.87,0.58-1.56c0-0.43-0.13-0.75-0.38-0.97
			c-0.25-0.21-0.64-0.32-1.15-0.32H70.51z"/>
		<path class="st9" d="M82.75,132.98c0.34,0.05,0.6,0.17,0.79,0.37c0.19,0.2,0.36,0.54,0.51,1.02l1.36,4.46h-2.5l-0.88-3.12
			c-0.02-0.06-0.04-0.13-0.07-0.22c-0.29-1.03-0.73-1.55-1.31-1.55h-0.97l-0.95,4.9h-2.45l2.42-12.39h3.4
			c1.28,0,2.24,0.24,2.86,0.73c0.62,0.48,0.93,1.23,0.93,2.23c0,1.03-0.27,1.86-0.81,2.49C84.52,132.5,83.75,132.87,82.75,132.98z
			 M80.75,128.5l-0.66,3.38h1.02c0.75,0,1.31-0.18,1.7-0.53s0.58-0.87,0.58-1.56c0-0.43-0.13-0.75-0.38-0.97
			c-0.25-0.21-0.64-0.32-1.15-0.32H80.75z"/>
		<path class="st9" d="M86.95,134.97c0-1.11,0.14-2.23,0.42-3.36c0.28-1.13,0.65-2.13,1.12-2.98c0.43-0.77,0.99-1.37,1.68-1.79
			c0.69-0.42,1.47-0.63,2.33-0.63c1.19,0,2.1,0.35,2.73,1.05s0.94,1.7,0.94,3.02c0,1.12-0.14,2.25-0.41,3.39
			c-0.27,1.14-0.64,2.13-1.1,2.97c-0.43,0.78-0.99,1.38-1.69,1.8s-1.47,0.63-2.34,0.63c-1.2,0-2.11-0.35-2.74-1.05
			C87.26,137.32,86.95,136.31,86.95,134.97z M93.64,130.37c0-0.66-0.11-1.16-0.33-1.49s-0.56-0.5-1-0.5c-0.33,0-0.63,0.1-0.91,0.29
			c-0.28,0.2-0.51,0.49-0.71,0.87c-0.12,0.22-0.24,0.5-0.36,0.86c-0.12,0.36-0.24,0.79-0.37,1.3c-0.16,0.64-0.28,1.23-0.37,1.78
			c-0.08,0.55-0.12,1.03-0.12,1.45c0,0.66,0.11,1.16,0.33,1.49c0.22,0.33,0.56,0.49,1,0.49c0.33,0,0.63-0.1,0.9-0.29
			c0.27-0.2,0.51-0.49,0.72-0.87c0.13-0.24,0.25-0.55,0.38-0.91c0.12-0.36,0.24-0.77,0.35-1.23c0.16-0.64,0.28-1.23,0.37-1.78
			C93.6,131.26,93.64,130.78,93.64,130.37z"/>
		<path class="st9" d="M103.21,132.98c0.34,0.05,0.6,0.17,0.79,0.37c0.19,0.2,0.36,0.54,0.51,1.02l1.36,4.46h-2.5l-0.88-3.12
			c-0.02-0.06-0.04-0.13-0.07-0.22c-0.29-1.03-0.73-1.55-1.31-1.55h-0.97l-0.95,4.9h-2.45l2.42-12.39h3.4
			c1.28,0,2.24,0.24,2.86,0.73c0.62,0.48,0.93,1.23,0.93,2.23c0,1.03-0.27,1.86-0.81,2.49C104.99,132.5,104.22,132.87,103.21,132.98
			z M101.21,128.5l-0.66,3.38h1.02c0.75,0,1.31-0.18,1.7-0.53s0.58-0.87,0.58-1.56c0-0.43-0.13-0.75-0.38-0.97
			c-0.25-0.21-0.64-0.32-1.15-0.32H101.21z"/>
		<path class="st9" d="M75.05,142.94h2.56l-1.48,7.62h1.36l-0.41,2.1h-1.36l-0.51,2.67h-2.34l0.52-2.67h-4.93l0.48-2.37
			L75.05,142.94z M74.72,145.76l-4.01,4.8h3.1L74.72,145.76z"/>
		<path class="st9" d="M88.04,146.44c0,1.18-0.14,2.38-0.42,3.59c-0.28,1.21-0.66,2.26-1.13,3.14c-0.4,0.76-0.94,1.35-1.61,1.77
			s-1.4,0.63-2.2,0.63c-1.07,0-1.9-0.33-2.49-0.98s-0.89-1.57-0.89-2.75c0-1.17,0.14-2.36,0.42-3.59s0.65-2.27,1.11-3.13
			c0.41-0.76,0.95-1.35,1.62-1.78c0.67-0.43,1.4-0.64,2.19-0.64c1.07,0,1.9,0.33,2.5,0.98C87.74,144.36,88.04,145.27,88.04,146.44z
			 M82.01,153.07c0.19,0.3,0.48,0.45,0.87,0.45c0.35,0,0.68-0.15,0.98-0.44s0.54-0.71,0.74-1.26c0.3-0.84,0.54-1.74,0.71-2.71
			c0.08-0.42,0.14-0.81,0.18-1.18l-3.77,4.01C81.76,152.44,81.85,152.81,82.01,153.07z M85.32,145.22c-0.18-0.3-0.47-0.45-0.86-0.45
			c-0.37,0-0.7,0.14-1,0.43c-0.29,0.29-0.54,0.71-0.74,1.27c-0.3,0.82-0.54,1.72-0.72,2.68c-0.06,0.33-0.11,0.65-0.15,0.95
			l3.72-3.98C85.53,145.74,85.45,145.44,85.32,145.22z"/>
		<path class="st9" d="M95.52,142.94h2.56l-1.48,7.62h1.36l-0.41,2.1H96.2l-0.51,2.67h-2.34l0.52-2.67h-4.93l0.48-2.37L95.52,142.94
			z M95.19,145.76l-4.01,4.8h3.1L95.19,145.76z"/>
	</g>
</g>
<g id="Layer_5">
</g>
</svg>
