<svg width="24" height="24" viewBox="0 0 24 24" fill="none" xmlns="http://www.w3.org/2000/svg">
<path d="M5.64939 0H18.3506C21.473 0 24 2.52701 24 5.64939V18.3506C24 21.473 21.473 24 18.3506 24H5.64939C2.52701 24 0 21.473 0 18.3506V5.64939C0 2.52701 2.52701 0 5.64939 0Z" fill="url(#paint0_linear_988_254)"/>
<path d="M20.1103 21.2083C19.1444 19.7264 15.1224 18.6812 15.1224 18.6812H9.19515C9.19515 18.6812 5.1731 19.7397 4.20728 21.2083C3.75744 21.883 3.45314 22.7297 3.24146 23.4442C3.98236 23.8014 4.80265 23.9866 5.67586 23.9866H18.3638C19.3297 23.9866 20.2426 23.7485 21.0364 23.3119C20.8247 22.6239 20.5204 21.8433 20.097 21.2083H20.1103Z" fill="#005894"/>
<path d="M6.03308 3.29442H17.9537C19.462 3.29442 20.6792 4.51162 20.6792 6.01989V14.6461C20.6792 16.1544 19.462 17.3716 17.9537 17.3716H6.03308C4.52481 17.3716 3.30761 16.1544 3.30761 14.6461V6.01989C3.30761 4.51162 4.52481 3.29442 6.03308 3.29442Z" fill="#3FDE99"/>
<path d="M6.3903 5.12007H17.5965C18.2712 5.12007 18.8269 5.67574 18.8269 6.35049V14.4343C18.8269 15.109 18.2712 15.6647 17.5965 15.6647H6.3903C5.71555 15.6647 5.15987 15.109 5.15987 14.4343V6.35049C5.15987 5.67574 5.71555 5.12007 6.3903 5.12007Z" fill="#005894"/>
<path d="M17.61 16.0616H6.40374C5.50407 16.0616 4.77639 15.3339 4.77639 14.4343V6.35049C4.77639 5.45083 5.50407 4.72315 6.40374 4.72315H17.61C18.5096 4.72315 19.2373 5.45083 19.2373 6.35049V14.0903C19.2373 15.0032 18.5229 16.0616 17.61 16.0616ZM6.3905 5.51698C5.92744 5.51698 5.55699 5.88743 5.55699 6.35049V14.4343C5.55699 14.8973 5.92744 15.2678 6.3905 15.2678H17.5967C18.0069 15.2678 18.4303 14.5798 18.4303 14.0903V6.35049C18.4303 5.88743 18.0598 5.51698 17.5967 5.51698H6.3905Z" fill="#00324D"/>
<path d="M12.1457 21.1951C12.1457 21.1951 11.0476 20.441 10.3596 19.9647C9.67165 19.4884 9.27474 18.9592 9.27474 17.4641H15.03C15.03 18.946 14.6463 19.4884 13.9451 19.9647C13.2439 20.441 12.9396 20.5865 12.3574 21.0231" fill="#3FDE99"/>
<path d="M9.27464 18.1258C9.27464 18.1258 10.7168 18.6418 12.0001 18.7741C13.2835 18.9064 14.3948 18.8402 14.3948 18.8402L15.1622 17.4378L9.10264 17.3716L9.27464 18.1258Z" fill="#2FBC7C"/>
<path d="M9.2613 10.7961C9.00992 10.7961 8.79824 10.5844 8.79824 10.333V8.52044C8.79824 8.26906 9.00992 8.05737 9.2613 8.05737C9.51268 8.05737 9.72437 8.26906 9.72437 8.52044V10.333C9.72437 10.5844 9.51268 10.7961 9.2613 10.7961Z" fill="#3FDE99"/>
<path d="M14.7256 10.7961C14.4742 10.7961 14.2625 10.5844 14.2625 10.333V8.52044C14.2625 8.26906 14.4742 8.05737 14.7256 8.05737C14.977 8.05737 15.1886 8.26906 15.1886 8.52044V10.333C15.1886 10.5844 14.977 10.7961 14.7256 10.7961Z" fill="#3FDE99"/>
<path d="M20.4677 20.9438C19.7004 19.7663 17.385 18.8931 16.1017 18.4829C15.9959 18.2315 15.8768 17.9934 15.7312 17.7552H17.9672C19.6871 17.7552 21.0896 16.3528 21.0896 14.6329V6.01989C21.0896 4.29994 19.6871 2.89751 17.9672 2.89751H6.04651C4.32656 2.89751 2.92413 4.29994 2.92413 6.01989V14.6329C2.92413 16.3528 4.32656 17.7552 6.04651 17.7552H8.52061C8.36184 17.9934 8.24277 18.2448 8.13692 18.5094C6.82711 18.9327 4.61763 19.7927 3.86349 20.9305C3.41366 21.6185 3.0829 22.4653 2.85798 23.1929C3.10936 23.3385 3.37397 23.4575 3.65181 23.5634C3.85026 22.8754 4.15456 22.0419 4.59117 21.3936C5.08069 20.6527 6.58896 19.9647 7.83262 19.5149C7.63417 20.4278 7.66063 21.1951 7.67386 21.2613L7.70032 21.9361L8.30892 21.6185C8.30892 21.6185 9.49966 21.0099 10.8492 20.8644L11.5504 21.3407C11.1402 22.0154 11.0476 22.9283 11.0212 23.9735H11.8811C11.9076 22.9019 12.0002 22.0287 12.45 21.5391C12.4765 21.5391 12.5162 21.4862 12.5691 21.4465C12.5823 21.4465 12.6088 21.4201 12.622 21.4068C12.7279 21.3274 12.8337 21.2481 12.9263 21.1819C12.9528 21.1819 12.966 21.1555 12.9925 21.129C13.138 21.0232 13.2836 20.9305 13.4291 20.8379C14.7787 20.9835 15.9429 21.5921 15.9562 21.5921L16.5648 21.9096L16.5912 21.2348C16.5912 21.1819 16.6177 20.3881 16.4192 19.462C17.6893 19.9118 19.2638 20.613 19.7665 21.3804C20.1767 22.0022 20.4677 22.7696 20.6662 23.4443C20.9308 23.3252 21.1954 23.1797 21.4468 23.0209C21.2219 22.333 20.9176 21.5524 20.4942 20.9041L20.4677 20.9438ZM3.70473 14.6329V6.01989C3.70473 4.73654 4.74993 3.69134 6.03328 3.69134H17.954C19.2373 3.69134 20.2825 4.73654 20.2825 6.01989V14.6329C20.2825 15.9162 19.2373 16.9614 17.954 16.9614H6.03328C4.74993 16.9614 3.70473 15.9162 3.70473 14.6329ZM8.54706 20.5865C8.58676 20.097 8.6926 19.3958 8.95721 18.7607C9.11597 19.4223 9.40704 19.8456 9.83042 20.1896C9.32766 20.3087 8.87783 20.4675 8.54706 20.5998V20.5865ZM13.6938 19.6737C13.4556 19.8324 13.2572 19.9647 13.0586 20.097C12.8734 20.2161 12.6882 20.3352 12.4897 20.4675C12.331 20.5733 12.2251 20.6527 12.1325 20.7189L10.5978 19.6737C10.1347 19.3561 9.79073 19.0254 9.71134 17.9669H14.5802C14.514 19.0386 14.1701 19.3561 13.6938 19.6737ZM14.4479 20.1896C14.858 19.8589 15.1491 19.462 15.3079 18.8401C15.546 19.4487 15.6519 20.1103 15.6916 20.5865C15.3608 20.4542 14.9374 20.3087 14.4479 20.1896Z" fill="#00324D"/>
<path d="M14.8049 12.2249C14.7652 12.119 14.6858 12.0132 14.5932 11.9603C14.4873 11.9073 14.3682 11.8941 14.2492 11.9338C14.1433 11.9735 14.0507 12.0397 13.9978 12.1455C13.9978 12.1455 13.9713 12.1852 13.9184 12.2381C13.8655 12.291 13.7729 12.3704 13.6406 12.4498C13.4818 12.5424 13.2966 12.6086 13.0849 12.6615C12.8203 12.7276 12.5028 12.7673 12.172 12.7673C11.828 12.7673 11.5237 12.7276 11.2591 12.6615C11.0474 12.6086 10.8622 12.5424 10.7034 12.4498C10.5711 12.3704 10.4785 12.291 10.4256 12.2381C10.3727 12.1852 10.3595 12.1587 10.3462 12.1455C10.2933 12.0529 10.2007 11.9735 10.0948 11.9338C9.97577 11.8941 9.8567 11.9073 9.75086 11.9603C9.64501 12.0132 9.56563 12.1058 9.53917 12.2249C9.49948 12.344 9.51271 12.463 9.56563 12.5689C9.59209 12.6218 9.75086 12.8996 10.161 13.151C10.3859 13.2966 10.6638 13.4157 10.9548 13.4951C11.312 13.5877 11.7222 13.6406 12.1588 13.6406C12.5954 13.6406 13.0055 13.5877 13.3627 13.4951C13.667 13.4157 13.9316 13.2966 14.1566 13.151C14.5667 12.8864 14.7255 12.6218 14.7519 12.5689C14.8049 12.463 14.8181 12.344 14.7784 12.2249H14.8049Z" fill="#3FDE99"/>
<defs>
<linearGradient id="paint0_linear_988_254" x1="1.65136" y1="22.342" x2="22.3487" y2="1.65795" gradientUnits="userSpaceOnUse">
<stop stop-color="#0064A4"/>
<stop offset="1" stop-color="#00C1B1"/>
</linearGradient>
</defs>
</svg>
