<svg width="660" height="182" viewBox="0 0 660 182" fill="none" xmlns="http://www.w3.org/2000/svg">
<path d="M262.998 83.9019C262.998 96.4019 253.598 104.102 238.698 104.102H227.398V119.502H214.398V63.502H238.598C253.598 63.502 262.898 71.302 262.898 83.802L262.998 83.9019ZM249.898 83.9019C249.898 77.7019 245.898 74.102 237.998 74.102H227.398V93.502H237.998C245.898 93.502 249.898 89.902 249.898 83.802V83.9019Z" fill="white"/>
<path d="M306.798 95.0023V119.602H295.098V114.202C292.798 118.102 288.298 120.202 281.998 120.202C271.898 120.202 265.898 114.602 265.898 107.202C265.898 99.8023 271.298 94.3024 284.398 94.3024H294.298C294.298 88.9024 291.098 85.8024 284.398 85.8024C277.698 85.8024 275.098 87.3024 271.998 89.8024L267.498 81.1024C272.198 77.7024 279.198 75.9023 286.098 75.9023C299.198 75.9023 306.798 82.0023 306.798 95.0023ZM294.398 106.002V101.602H285.798C279.998 101.602 278.098 103.802 278.098 106.602C278.098 109.402 280.698 111.802 285.098 111.802C289.498 111.802 292.898 109.902 294.298 106.002H294.398Z" fill="white"/>
<path d="M342.398 133.302L345.798 124.302C347.198 125.302 348.998 125.802 351.098 125.802C354.198 125.802 356.198 123.802 356.198 119.602V76.6016H368.698V119.602C368.698 129.502 362.898 135.802 352.498 135.802C342.098 135.802 344.898 135.102 342.498 133.402L342.398 133.302ZM354.598 63.6016C354.598 59.7016 357.698 56.6016 362.398 56.6016C367.098 56.6016 370.198 59.5016 370.198 63.3016C370.198 67.1016 367.098 70.5016 362.398 70.5016C357.698 70.5016 354.598 67.5016 354.598 63.5016V63.6016Z" fill="white"/>
<path d="M374 98.0008C374 85.0008 384 75.8008 397.7 75.8008C411.4 75.8008 421.3 85.0008 421.3 98.0008C421.3 111.001 411.4 120.201 397.7 120.201C384 120.201 374 111.001 374 98.0008ZM408.6 98.0008C408.6 90.6008 403.9 86.1008 397.6 86.1008C391.3 86.1008 386.6 90.6008 386.6 98.0008C386.6 105.401 391.4 109.901 397.6 109.901C403.8 109.901 408.6 105.401 408.6 98.0008Z" fill="white"/>
<path d="M471.098 94.9008V119.501H458.598V96.8008C458.598 89.8008 455.398 86.6008 449.898 86.6008C444.398 86.6008 439.598 90.3008 439.598 98.2008V119.501H427.098V76.5008H438.998V81.5008C442.398 77.8008 447.398 75.8008 453.198 75.8008C463.398 75.8008 470.998 81.7008 470.998 94.8008L471.098 94.9008Z" fill="white"/>
<path d="M517.498 95.0023V119.602H505.798V114.202C503.498 118.102 498.998 120.202 492.698 120.202C482.598 120.202 476.598 114.602 476.598 107.202C476.598 99.8023 481.998 94.3024 495.098 94.3024H504.998C504.998 88.9024 501.798 85.8024 495.098 85.8024C488.398 85.8024 485.798 87.3024 482.698 89.8024L478.198 81.1024C482.898 77.7024 489.898 75.9023 496.798 75.9023C509.898 75.9023 517.498 82.0023 517.498 95.0023ZM504.998 106.002V101.602H496.398C490.598 101.602 488.698 103.802 488.698 106.602C488.698 109.402 491.298 111.802 495.698 111.802C500.098 111.802 503.498 109.902 504.998 106.002Z" fill="white"/>
<path d="M522.797 98.0008C522.797 85.0008 532.797 75.8008 546.797 75.8008C560.797 75.8008 562.997 79.7008 566.097 86.8008L556.397 92.0008C554.097 87.9008 550.597 86.1008 546.697 86.1008C540.397 86.1008 535.397 90.5008 535.397 98.0008C535.397 105.501 540.397 109.901 546.697 109.901C552.997 109.901 554.097 108.101 556.397 104.001L566.097 109.301C562.997 116.201 555.897 120.201 546.797 120.201C532.797 120.201 522.797 111.001 522.797 98.0008Z" fill="white"/>
<path d="M569.398 63.6016C569.398 59.7016 572.498 56.6016 577.198 56.6016C581.898 56.6016 584.998 59.5016 584.998 63.3016C584.998 67.1016 581.898 70.5016 577.198 70.5016C572.498 70.5016 569.398 67.5016 569.398 63.5016V63.6016ZM570.898 76.5016H583.398V119.502H570.898V76.5016Z" fill="white"/>
<path d="M593.199 63.6016H606.199V119.602H593.199V63.6016Z" fill="#3FDE99"/>
<path d="M628.298 74.102H610.398V63.502H659.198V74.102H641.298V119.502H628.298V74.102Z" fill="#3FDE99"/>
<path fill-rule="evenodd" clip-rule="evenodd" d="M328.397 77.1016C328.397 77.2016 327.497 77.4016 326.297 77.5016C325.097 77.5016 324.197 77.8016 324.097 77.9016C324.097 78.0016 323.697 78.2016 323.397 78.2016C323.097 78.2016 322.697 78.3016 322.697 78.4016C322.697 78.5016 322.197 78.7016 321.597 78.8016C320.997 78.8016 320.497 79.1016 320.497 79.2016C320.497 79.3016 320.197 79.5016 319.897 79.6016C319.597 79.6016 318.997 80.0016 318.697 80.3016C318.397 80.6016 317.997 80.9016 317.897 80.9016C317.597 80.9016 314.897 83.5016 314.897 83.9016C314.897 84.3016 314.697 84.3016 314.597 84.5016C313.997 85.1016 313.297 86.8016 313.297 87.5016C313.297 88.2016 313.197 88.2016 312.997 88.2016C312.697 88.2016 312.597 94.3016 312.997 94.6016C313.097 94.6016 313.297 95.2016 313.397 95.8016C313.397 96.4016 313.797 97.1016 314.097 97.4016C314.397 97.7016 314.597 98.1016 314.597 98.2016C314.597 98.6016 316.797 100.702 317.197 100.702C317.597 100.702 317.597 100.802 317.597 101.002C317.597 101.202 317.897 101.302 318.297 101.402C318.697 101.402 318.997 101.602 318.997 101.702C318.997 101.902 320.297 102.502 321.397 102.702C321.897 102.702 322.297 103.002 322.297 103.102C322.297 103.202 323.097 103.402 324.097 103.502C325.097 103.602 325.897 103.802 325.897 103.902C325.897 104.002 326.497 104.102 327.197 104.102C327.897 104.102 328.597 104.202 328.697 104.302C328.697 104.402 330.097 104.602 331.597 104.702C333.097 104.802 334.297 105.002 334.297 105.102C334.297 105.202 334.797 105.402 335.397 105.502C335.997 105.602 336.597 105.802 336.697 105.902C336.697 106.002 337.097 106.202 337.397 106.402C338.897 107.202 338.497 110.102 336.897 110.102C335.297 110.102 336.497 110.202 336.497 110.402C336.497 110.602 336.197 110.702 335.797 110.702C335.397 110.702 335.097 110.802 335.097 111.002C335.097 111.202 333.597 111.302 331.197 111.302C328.797 111.302 327.297 111.202 327.297 111.002C327.297 110.802 326.797 110.702 326.197 110.702C325.597 110.702 325.097 110.602 324.997 110.502C324.897 110.402 324.197 110.202 323.497 110.102C322.797 110.002 322.097 109.802 322.097 109.702C322.097 109.602 321.597 109.402 320.997 109.302C320.397 109.302 319.897 109.002 319.897 108.902C319.897 108.802 319.697 108.602 319.397 108.602C319.097 108.602 318.897 108.502 318.897 108.302C318.897 108.102 318.497 108.002 318.097 107.902C317.697 107.902 317.297 107.602 317.297 107.502C317.297 106.802 316.097 107.502 315.597 108.402C315.297 108.902 314.797 110.102 314.297 111.102C313.797 112.002 313.497 113.002 313.497 113.202C313.497 113.402 313.397 113.602 313.297 113.602C313.197 113.602 312.997 114.002 312.897 114.402C312.897 114.802 312.597 115.202 312.497 115.202C312.397 115.202 312.297 115.602 312.297 116.202C312.297 117.102 312.797 117.902 313.297 117.902C313.797 117.902 313.697 118.102 313.897 118.302C314.097 118.502 314.597 118.802 315.197 118.902C315.697 118.902 316.097 119.202 316.097 119.302C316.097 119.402 316.397 119.602 316.797 119.602C317.197 119.602 317.497 119.702 317.597 119.902C317.597 120.002 318.297 120.202 318.997 120.302C319.697 120.402 320.197 120.602 320.197 120.702C320.197 120.802 321.097 121.002 322.297 121.102C323.497 121.202 324.497 121.402 324.597 121.602C324.897 122.002 337.197 122.002 337.497 121.602C337.597 121.402 338.297 121.202 339.097 121.102C339.897 121.102 340.697 120.802 340.897 120.702C341.097 120.602 341.897 120.202 342.797 120.002C343.697 119.702 344.397 119.402 344.397 119.302C344.397 119.202 344.697 119.002 345.097 118.902C345.497 118.902 345.797 118.602 345.797 118.502C345.797 118.402 345.997 118.202 346.097 118.202C346.197 118.202 346.797 117.902 347.197 117.502C347.597 117.102 348.097 116.802 348.197 116.802C348.297 116.802 348.497 116.702 348.497 116.502C348.497 116.302 348.897 115.802 349.297 115.402C349.697 115.002 350.097 114.402 350.097 114.202C350.097 114.002 350.197 113.802 350.397 113.802C350.597 113.802 350.697 113.402 350.797 113.002C350.797 112.602 351.097 112.102 351.197 112.002C351.297 112.002 351.497 111.502 351.497 111.102C351.497 110.702 351.597 110.202 351.797 110.102C352.297 109.602 351.797 103.502 351.197 103.502C350.597 103.502 350.997 103.202 350.997 102.902C350.997 102.202 349.997 100.502 349.597 100.502C349.197 100.502 349.397 100.302 349.397 100.102C349.397 99.9016 349.297 99.7016 349.197 99.7016C349.097 99.7016 348.697 99.4016 348.297 99.0016C347.997 98.6016 347.497 98.3016 347.297 98.3016C347.097 98.3016 346.697 98.1016 346.597 97.8016C346.397 97.5016 345.797 97.2016 345.297 97.1016C344.797 97.1016 344.297 96.8016 344.297 96.7016C344.297 96.6016 343.697 96.4016 342.897 96.3016C342.197 96.3016 341.497 96.0016 341.497 95.9016C341.497 95.8016 341.197 95.6016 340.797 95.5016C338.197 95.0016 337.197 94.8016 336.197 94.8016C335.597 94.8016 334.997 94.7016 334.997 94.5016C334.997 94.3016 333.997 94.2016 332.697 94.1016C331.397 94.0016 330.397 93.8016 330.397 93.7016C330.397 93.6016 330.197 93.5016 329.897 93.5016C328.297 93.5016 326.297 92.0016 326.297 90.9016C326.297 89.8016 327.897 88.4016 328.697 88.4016C329.497 88.4016 329.297 88.3016 329.297 88.1016C329.397 87.7016 338.097 87.6016 338.397 88.1016C338.497 88.3016 339.197 88.5016 339.897 88.6016C340.597 88.6016 341.297 88.9016 341.297 89.0016C341.297 89.1016 341.697 89.3016 341.997 89.3016C342.297 89.3016 342.697 89.4016 342.697 89.5016C342.697 89.6016 343.097 89.8016 343.497 89.9016C343.897 89.9016 344.397 90.2016 344.497 90.3016C344.797 90.8016 346.197 90.6016 346.397 89.9016C346.497 89.6016 346.697 89.2016 346.797 89.2016C347.097 89.0016 347.897 87.1016 347.897 86.8016C347.897 86.5016 347.997 86.5016 348.097 86.5016C348.197 86.5016 348.397 86.1016 348.497 85.7016C348.497 85.3016 348.797 84.8016 348.897 84.7016C348.997 84.7016 349.197 84.3016 349.197 84.0016C349.197 83.7016 349.297 83.5016 349.497 83.4016C349.997 83.2016 350.197 80.5016 349.597 80.5016C348.997 80.5016 349.197 80.4016 349.197 80.2016C349.197 80.0016 348.997 79.9016 348.897 79.9016C348.797 79.9016 348.197 79.7016 347.797 79.5016C347.397 79.3016 346.497 79.0016 345.997 78.9016C345.397 78.9016 344.997 78.6016 344.997 78.5016C344.997 78.4016 344.697 78.3016 344.197 78.3016C343.697 78.3016 343.297 78.2016 343.197 78.0016C343.097 77.9016 341.897 77.7016 340.697 77.6016C339.497 77.5016 338.397 77.3016 338.297 77.2016C338.097 76.9016 328.997 76.9016 328.997 77.2016" fill="white"/>
<path d="M43.2 0.300781H139.2C162.8 0.300781 181.9 19.4008 181.9 43.0008V139.001C181.9 162.601 162.8 181.701 139.2 181.701H43.2C19.6 181.701 0.5 162.601 0.5 139.001V43.0008C0.5 19.4008 19.6 0.300781 43.2 0.300781Z" fill="url(#paint0_linear_974_37)"/>
<path d="M152.5 160.6C145.2 149.4 114.8 141.5 114.8 141.5H70C70 141.5 39.6 149.5 32.3 160.6C28.9 165.7 26.6 172.1 25 177.5C30.6 180.2 36.8 181.6 43.4 181.6H139.3C146.6 181.6 153.5 179.8 159.5 176.5C157.9 171.3 155.6 165.4 152.4 160.6H152.5Z" fill="#005894"/>
<path d="M46.1 25.2012H136.2C147.6 25.2012 156.8 34.4012 156.8 45.8012V111.001C156.8 122.401 147.6 131.601 136.2 131.601H46.1C34.7 131.601 25.5 122.401 25.5 111.001V45.8012C25.5 34.4012 34.7 25.2012 46.1 25.2012Z" fill="#3FDE99"/>
<path d="M48.8 39H133.5C138.6 39 142.8 43.2 142.8 48.3V109.4C142.8 114.5 138.6 118.7 133.5 118.7H48.8C43.7 118.7 39.5 114.5 39.5 109.4V48.3C39.5 43.2 43.7 39 48.8 39Z" fill="#005894"/>
<path d="M133.602 121.7H48.9016C42.1016 121.7 36.6016 116.2 36.6016 109.4V48.3C36.6016 41.5 42.1016 36 48.9016 36H133.602C140.402 36 145.902 41.5 145.902 48.3V106.8C145.902 113.7 140.502 121.7 133.602 121.7ZM48.8016 42C45.3016 42 42.5016 44.8 42.5016 48.3V109.4C42.5016 112.9 45.3016 115.7 48.8016 115.7H133.502C136.602 115.7 139.802 110.5 139.802 106.8V48.3C139.802 44.8 137.002 42 133.502 42H48.8016Z" fill="#00324D"/>
<path d="M92.3016 160.501C92.3016 160.501 84.0016 154.801 78.8016 151.201C73.6016 147.601 70.6016 143.601 70.6016 132.301H114.102C114.102 143.501 111.202 147.601 105.902 151.201C100.602 154.801 98.3016 155.901 93.9016 159.201" fill="#3FDE99"/>
<path d="M70.6008 137.302C70.6008 137.302 81.5008 141.202 91.2008 142.202C100.901 143.202 109.301 142.702 109.301 142.702L115.101 132.102L69.3008 131.602L70.6008 137.302Z" fill="#2FBC7C"/>
<path d="M70.5 81.9012C68.6 81.9012 67 80.3012 67 78.4012V64.7012C67 62.8012 68.6 61.2012 70.5 61.2012C72.4 61.2012 74 62.8012 74 64.7012V78.4012C74 80.3012 72.4 81.9012 70.5 81.9012Z" fill="#3FDE99"/>
<path d="M111.801 81.9012C109.901 81.9012 108.301 80.3012 108.301 78.4012V64.7012C108.301 62.8012 109.901 61.2012 111.801 61.2012C113.701 61.2012 115.301 62.8012 115.301 64.7012V78.4012C115.301 80.3012 113.701 81.9012 111.801 81.9012Z" fill="#3FDE99"/>
<path d="M155.202 158.601C149.402 149.701 131.902 143.101 122.202 140.001C121.402 138.101 120.502 136.301 119.402 134.501H136.302C149.302 134.501 159.902 123.901 159.902 110.901V45.8012C159.902 32.8012 149.302 22.2012 136.302 22.2012H46.2016C33.2016 22.2012 22.6016 32.8012 22.6016 45.8012V110.901C22.6016 123.901 33.2016 134.501 46.2016 134.501H64.9016C63.7016 136.301 62.8016 138.201 62.0016 140.201C52.1016 143.401 35.4016 149.901 29.7016 158.501C26.3016 163.701 23.8016 170.101 22.1016 175.601C24.0016 176.701 26.0016 177.601 28.1016 178.401C29.6016 173.201 31.9016 166.901 35.2016 162.001C38.9016 156.401 50.3016 151.201 59.7016 147.801C58.2016 154.701 58.4016 160.501 58.5016 161.001L58.7016 166.101L63.3016 163.701C63.3016 163.701 72.3016 159.101 82.5016 158.001L87.8016 161.601C84.7016 166.701 84.0016 173.601 83.8016 181.501H90.3016C90.5016 173.401 91.2016 166.801 94.6016 163.101C94.8016 163.101 95.1016 162.701 95.5016 162.401C95.6016 162.401 95.8016 162.201 95.9016 162.101C96.7016 161.501 97.5016 160.901 98.2016 160.401C98.4016 160.401 98.5016 160.201 98.7016 160.001C99.8016 159.201 100.902 158.501 102.002 157.801C112.202 158.901 121.002 163.501 121.102 163.501L125.702 165.901L125.902 160.801C125.902 160.401 126.102 154.401 124.602 147.401C134.202 150.801 146.102 156.101 149.902 161.901C153.002 166.601 155.202 172.401 156.702 177.501C158.702 176.601 160.702 175.501 162.602 174.301C160.902 169.101 158.602 163.201 155.402 158.301L155.202 158.601ZM28.5016 110.901V45.8012C28.5016 36.1012 36.4016 28.2012 46.1016 28.2012H136.202C145.902 28.2012 153.802 36.1012 153.802 45.8012V110.901C153.802 120.601 145.902 128.501 136.202 128.501H46.1016C36.4016 128.501 28.5016 120.601 28.5016 110.901ZM65.1016 155.901C65.4016 152.201 66.2016 146.901 68.2016 142.101C69.4016 147.101 71.6016 150.301 74.8016 152.901C71.0016 153.801 67.6016 155.001 65.1016 156.001V155.901ZM104.002 149.001C102.202 150.201 100.702 151.201 99.2016 152.201C97.8016 153.101 96.4016 154.001 94.9016 155.001C93.7016 155.801 92.9016 156.401 92.2016 156.901L80.6016 149.001C77.1016 146.601 74.5016 144.101 73.9016 136.101H110.702C110.202 144.201 107.602 146.601 104.002 149.001ZM109.702 152.901C112.802 150.401 115.002 147.401 116.202 142.701C118.002 147.301 118.802 152.301 119.102 155.901C116.602 154.901 113.402 153.801 109.702 152.901Z" fill="#00324D"/>
<path d="M112.4 92.7006C112.1 91.9006 111.5 91.1006 110.8 90.7006C110 90.3006 109.1 90.2006 108.2 90.5006C107.4 90.8006 106.7 91.3006 106.3 92.1006C106.3 92.1006 106.1 92.4006 105.7 92.8006C105.3 93.2006 104.6 93.8006 103.6 94.4006C102.4 95.1006 101 95.6006 99.4002 96.0006C97.4002 96.5006 95.0002 96.8006 92.5002 96.8006C89.9002 96.8006 87.6002 96.5006 85.6002 96.0006C84.0002 95.6006 82.6002 95.1006 81.4002 94.4006C80.4002 93.8006 79.7002 93.2006 79.3002 92.8006C78.9002 92.4006 78.8002 92.2006 78.7002 92.1006C78.3002 91.4006 77.6002 90.8006 76.8002 90.5006C75.9002 90.2006 75.0002 90.3006 74.2002 90.7006C73.4002 91.1006 72.8002 91.8006 72.6002 92.7006C72.3002 93.6006 72.4002 94.5006 72.8002 95.3006C73.0002 95.7006 74.2002 97.8006 77.3002 99.7006C79.0002 100.801 81.1002 101.701 83.3002 102.301C86.0002 103.001 89.1002 103.401 92.4002 103.401C95.7002 103.401 98.8002 103.001 101.5 102.301C103.8 101.701 105.8 100.801 107.5 99.7006C110.6 97.7006 111.8 95.7006 112 95.3006C112.4 94.5006 112.5 93.6006 112.2 92.7006H112.4Z" fill="#3FDE99"/>
<defs>
<linearGradient id="paint0_linear_974_37" x1="12.9815" y1="169.169" x2="169.419" y2="12.8323" gradientUnits="userSpaceOnUse">
<stop stop-color="#0064A4"/>
<stop offset="1" stop-color="#00C1B1"/>
</linearGradient>
</defs>
</svg>
