<?xml version="1.0" encoding="utf-8"?>
<!-- Generator: Adobe Adobe Illustrator 24.2.0, SVG Export Plug-In . SVG Version: 6.00 Build 0)  -->
<svg version="1.1" xmlns="http://www.w3.org/2000/svg" xmlns:xlink="http://www.w3.org/1999/xlink" x="0px" y="0px" width="1000px"
	 height="1000px" viewBox="0 0 1000 1000" style="enable-background:new 0 0 1000 1000;" xml:space="preserve">
<style type="text/css">
	.st0{fill:#DBF4F5;}
	.st1{fill:#3FDE99;}
	.st2{fill:#005894;}
	.st3{fill:#005894;stroke:#005894;stroke-width:9;stroke-linecap:round;stroke-linejoin:round;stroke-miterlimit:10;}
	.st4{fill:#2FBC7C;}
	.st5{fill:#005B96;}
	.st6{fill:#00324D;}
	.st7{fill:#005894;stroke:#00324D;stroke-width:10;stroke-linecap:round;stroke-linejoin:round;stroke-miterlimit:10;}
	.st8{fill:#3FDE99;stroke:#00324D;stroke-width:10;stroke-linecap:round;stroke-linejoin:round;stroke-miterlimit:10;}
	.st9{fill:#02ABB0;stroke:#00324D;stroke-width:9;stroke-linecap:round;stroke-linejoin:round;stroke-miterlimit:10;}
	.st10{fill:#02ABB0;stroke:#00324D;stroke-width:10;stroke-linecap:round;stroke-linejoin:round;stroke-miterlimit:10;}
	.st11{fill:#3FDE99;stroke:#00324D;stroke-width:7;stroke-linecap:round;stroke-linejoin:round;stroke-miterlimit:10;}
</style>
<g id="Layer_17">
	<path class="st0" d="M300.4,24.9c-19.4,7.2-38.6,15.9-54,29.7S220,88.4,220.9,109c1.4,32.3,30.9,61.6,22.5,92.8
		c-5.9,22.1-28.4,34.8-48.3,46s-41.4,27-42.9,49.8c-1.4,23,18.4,41.5,38.3,53.1c34.6,20.1,79,35,90.9,73.2
		c7.7,24.7-1.9,52.2-18.4,72.2c-16.5,20-38.9,33.9-61,47.5c-15.1,9.3-30.4,18.9-41.2,32.9c-10.7,14-16,33.7-8.5,49.7
		c5.5,11.7,16.6,19.6,27.8,26.1c35.5,21,77.4,35.6,100.9,69.5c17.2,24.8,21.9,56.3,37.7,82c17.2,27.8,51.1,47.4,82.6,39.1
		c22.4-5.9,39.2-24,54.2-41.7c15-17.7,30.5-36.5,52.1-44.8c21.6-8.3,51.2-1.2,58.7,20.7c9.1,26.6-17.1,59.6,0,81.8
		c7.5,9.8,21.5,13,33.7,10.8c12.2-2.2,23.1-8.7,33.6-15.4c21.4-13.6,42.3-28.1,62.5-43.5c14.1-10.7,28.7-22.8,34.3-39.7
		c9.1-27.1-9.9-58-36.2-69.2c-12.7-5.4-28.7-9-33.5-21.9c-6.1-16.6,12.1-31.9,28.6-38.4c31.1-12.2,64.9-15.7,97-25
		c32.1-9.3,64.5-26.2,79.8-55.9c-24.9-16.3-57.5-4.6-86.7,1.4c-28,5.8-57.2,5.7-85.2-0.3c-4.7-1-9.6-2.3-13.2-5.5
		c-10.4-9.3-3.5-26.4,4-38.2c19.6-31,39.2-62.1,58.8-93.1c9.3-14.7,19-32.1,13.6-48.6c-3-9.1-10.2-16.2-17.9-21.9
		c-25.8-19-60.6-25.3-91.5-16.5c-11.7,3.3-24.3,8.7-35.5,3.8c-14.7-6.4-17.2-27.4-9.9-41.7s21.1-23.8,33.1-34.4
		c15.1-13.4,28-29.2,38.1-46.8c3.1-5.4,6-11.1,6.8-17.3c1.7-12.8-5.9-25.2-15.6-33.7c-21.2-18.5-51.4-22.4-79.5-21.2
		c-28.1,1.2-56.1,6.8-84.1,4c-8.4-0.8-17-2.5-23.9-7.3c-18.3-12.6-17.2-39.2-22.4-60.8c-7.3-30.6-31.1-56.1-60.1-68.5
		C366.1,1.9,337.5,11.1,300.4,24.9z"/>
	<path class="st0" d="M741,415.6c-9.7,24.7-12.8,52.1-8.9,78.4c2.8,19,10.6,39.1,27.6,48c10,5.2,21.6,5.8,32.9,6.2
		c15.4,0.6,30.9,1.3,46.3,1.9c9.2,0.4,18.7,0.8,27,4.8s15.1,12.5,14.2,21.6c-0.8,7.8-6.8,14-12.9,18.9
		c-31.5,25.2-76,33.9-100.7,65.8c-16.2,20.9-20.8,48.4-23.9,74.7c-0.9,7.5-1.7,15.2-5.9,21.5c-4.1,6.3-12.6,10.4-19.3,7.1
		c-2.3-1.1-4.1-2.9-5.9-4.7c-31.9-32.3-61.4-68.4-101.2-90.2c-7.8-4.2-15.9-7.9-23.1-13c-24.1-16.8-35.5-47-39.3-76.1
		c-5.4-42.1,2.8-86.3,25.9-121.9C597,423,635.3,397,677.4,391.8C700.9,388.9,727.8,393.9,741,415.6z"/>
	<path class="st0" d="M154.9,629.3c13.4,18.9,15,45.4,4.1,65.8c-2.9,5.4-6.6,10.4-11.8,13.5c-4.6,2.7-9.9,3.8-15,5.4
		c-27.8,9-46.7,35.8-54.7,63.8c-5.5,19.2-6.8,39.9-1.5,59.1c5.3,19.2,17.6,36.9,35,46.7c26.1,14.8,59.1,10.2,86.8-1.3
		c27.7-11.4,52.5-29,80.2-40.5s60.7-16.1,86.8-1.4c22.7,12.8,39.3,39.4,65.3,40.6c16.1,0.7,31.5-9.6,39.5-23.7
		c12.2-21.4,9.1-49.6,23.2-69.7c16.5-23.5,49.1-27.2,77.6-30.8c11.1-1.4,23.2-3.7,30.4-12.2"/>
</g>
<g id="Layer_16">
</g>
<g id="Layer_2_1_">
	<g id="Layer_8">
		<path class="st2" d="M648,381.8c14.9-1.8,30-2,45-0.7c3.9,0.3,7.9,0.8,11.2,2.7c5.8,3.2,8.2,9.8,8.8,15.9
			c0.8,7.8-0.4,15.7-1.6,23.4c-3.7,23.5-7.4,47.1-11.1,70.6c-0.9,5.7-2,11.7-6.2,15.9c-5.6,5.6-14.9,6.4-23.3,6.6
			c-16,0.5-32,0.4-48.1-0.2c-6.8-0.3-14.1-0.8-19.4-4.7c-3.7-2.7-5.8-6.7-7.5-10.6c-7.2-16.9-7.5-35.5-5.4-53.5
			c2.2-18.9,7.2-38.1,19.5-53.5c4.5-5.6,10.1-10.8,17.3-13.4C634.3,377.7,643.1,378,648,381.8z"/>
		<path class="st3" d="M658.3,524.7c4.5,52.4-0.4,106.4-14.1,155.4c-2.9,10.4-8.4,22.3-16,20.4"/>
	</g>
	<g id="Layer_9">
		<path class="st3" d="M397.4,707.1L397.4,707.1c0-9.9,8.1-18,18-18h236c9.9,0,18,8.1,18,18v0c0,9.9-8.1,18-18,18h-236
			C405.5,725.1,397.4,717,397.4,707.1z"/>
		<path class="st3" d="M518.3,725.5c-4.5,47.2-8.1,94.5-10.6,141.9c-0.3,6.2,0.9,14.5,6.7,15.2c6,0.7,8.8-7.5,9.5-13.9
			c5.6-47.7,11.1-95.3,16.7-143C531.8,719.6,518.7,720.9,518.3,725.5z"/>
		<path class="st3" d="M613.6,731.8c7.1,49.5,15.1,99,24.1,148.2c1.2,6.4,4.4,14.7,10.2,14.1c6-0.6,6.7-9.7,5.9-16.4
			c-6.2-50.2-12.3-100.5-18.5-150.7C625.3,722.6,612.9,727,613.6,731.8z"/>
	</g>
	<path class="st1" d="M542.8,322.5c0,18.4-13.6,38-32,52.2c-15.1,11.7-24.1,15.7-30.7,22.8l-0.9,0.8c-37.1-22.9-33.6-75.8-33.6-75.8
		"/>
	<path class="st4" d="M447.2,338.3c0,0,24,11.8,45,14.8c21.2,3,39.6,1.4,39.6,1.4l12.8-32L444.3,321l2.8,17.3H447.2z"/>
	<path class="st2" d="M509.6,374.8c15.5-12.1,27.6-27.9,31.1-43.5l0.4-1.8c0,0,15.9,8.1,19.3,23.7c24.2,6.4,65,16,82.7,38.3
		c16.2,21.8,27.4,64.6,33.2,83.6c0.9,3.9,2.9,8.7-1.3,11.3c-11.8,5.5-27.1,8.1-42.5,12.1c-6.4,1.4-16.3,3.9-20.8,3.5
		c-5.3-0.7-6.8-4.2-8.6-11.1c-1.1-4.5-2-8.7-3-13.8c-1.7-8.3-3-15.2-4.5-22.9c-1.2-6.6-0.4,1.8-0.4,3.9c1.7,26.1,3.3,72.9,3.7,103.3
		c0.4,23.5,1.6,39.1,1.3,54.5c-0.5,4.1-3.3,3.5-7.5,4.5c-25.1,4.3-58.8,8-85.3,9.4c-24.2,1.4-48.2,1.7-72.5-0.8
		c-17.1-1.6-41.3-5.4-53-8.8c-4.6-1.3-5-1.8-5.1-8.8c-0.8-35.3,0.3-73.4,2.1-110.8v-5.8c-10.3,0-23.6-0.7-34.6-2.6
		c-5.5-1-11.5-1.8-15.7-4.3c-2.2-1.4-2.5-3.4-1.8-6.7c3.8-14.9,9.7-33.7,15.1-49c6.2-16.5,12.2-34.6,25.3-46.1
		c16.5-14.8,40.1-23.9,61.1-27.8l2-5c4.2-9.3,15.3-14.9,15.3-14.9v1.4c2.2,17.6,9.5,44,33,58.6l1.6-1.6c6.6-6.6,15.4-10.7,30-22"/>
	<path class="st4" d="M623,66.1l34.9,15.3c10.7,4.7,17.4,15.3,16.8,27L667.7,284c-0.5,11.8-8.3,22-19.6,25.7L613.3,321"/>
	<path class="st1" d="M605,322.5H342.2c-13.7,0-24.6-11.4-24.1-25l8.7-210.3c0.5-12.8,11.2-23.1,24.1-23.1h262.8
		c13.7,0,24.6,11.4,24.1,25l-8.7,210.3C628.6,312.3,617.9,322.5,605,322.5z"/>
	<path class="st5" d="M350.1,272.9l6.7-160.3c0.4-9.7,8.4-17.4,18.3-17.4h212.7c10.4,0,18.7,8.7,18.3,19l-6.7,160.3
		c-0.4,9.7-8.4,17.4-18.3,17.4H368.4C358,291.9,349.7,283.2,350.1,272.9L350.1,272.9z"/>
	<path class="st6" d="M612,114.2c0.3-6.7-2.1-13-6.7-17.8c-4.6-4.9-10.9-7.5-17.6-7.5H375c-13.2,0-23.8,10.2-24.3,23.3l-6.7,160.3
		c-0.3,6.7,2.1,13,6.7,17.8c4.6,4.9,10.9,7.5,17.6,7.5h212.7c13.2,0,23.8-10.2,24.3-23.3L612,114.2L612,114.2z M593.2,274.2
		c-0.3,6.6-5.7,11.7-12.1,11.7H368.4c-3.3,0-6.4-1.3-8.8-3.7c-2.4-2.4-3.6-5.5-3.4-8.9l6.7-160.3c0.3-6.6,5.7-11.7,12.1-11.7h212.7
		c3.3,0,6.4,1.3,8.8,3.7c2.4,2.4,3.6,5.5,3.4,8.9L593.2,274.2L593.2,274.2z"/>
	<path class="st6" d="M683.1,474.6c0-0.5-0.3-0.9-0.4-1.3c0,0,0-0.3,0-0.4c-0.7-2.2-1.3-4.7-2.2-7.5c-6.3-21.8-17-58.1-32-78.3
		c0,0,0,0,0-0.1c-17.9-22.5-56.1-32.6-81.2-39.3c-0.4,0-0.9-0.3-1.3-0.4c-3-8.5-8.8-14.7-13.7-18.7h52.9c3.7,0,7.1-0.7,10.4-1.8
		l34.7-11.3c11.5-3.7,20-13.2,22.8-24.6c0.3,0.1,0.5,0.2,0.8,0.2c0.3-3,0.6-5.9,0.9-8.9c0.1-1.1,0.2-2.2,0.2-3.3
		c-0.2-0.1-0.4-0.1-0.7-0.2l6.8-169.9c0.5-14.2-7.5-27-20.5-32.8l-33.4-14.7c-4.1-2-8.6-3-13.3-3H351c-16.3,0-29.5,12.7-30.1,28.8
		l-8.7,210.3c-0.4,8.3,2.6,16.1,8.4,22c5.8,6,13.6,9.3,21.8,9.3h95.3c0,1.7,0,3.7,0.3,5.9c-4.3,2.9-10.8,8.1-14.2,15.7
		c-0.3,0.7-0.5,1.3-0.8,1.8c-24.1,5.1-45.9,15.5-60.5,28.7c-13.4,12.1-20.1,30-26.1,45.9l-1.2,3c-5.9,16.8-11.6,35.3-15.3,49.7
		c0,0,0,0.1,0,0.3c-0.5,2.4-2,9.4,4.7,13.8c0,0,0.3,0.1,0.3,0.3c0.6,0.4,1.2,0.7,1.9,1c0.5,0.1,1,0.2,1.5,0.5
		c4,1.8,9.6,1.5,13.5,3.6c0.4,0,0.7,0,1.1,0.1c0.7,0,1.4,0.2,2,0.5c9.7,1.5,19.6,2.1,26.6,2.2c-0.5,9.9-0.9,20-1.2,30.1
		c1.1,8.6,0.2,17.7-0.5,26.5c0,0.2,0,0.3,0,0.5v4.9c0,0.6,0,1.2,0,1.8c0,0.1,0,0.2-0.1,0.3c0,0.4,0,0.8,0,1.2c0.1,0.4,0.1,0.9,0,1.3
		c0,0.1,0,0.2-0.1,0.3c0,0.1,0,0.3,0,0.3c0,1.3,0,2.7-0.1,4c0,0.1,0,0.3,0,0.4c0,0.1,0,0.1,0,0.1c0,0,0,0,0,0.1c0,0.3,0,0.6-0.1,0.8
		c0,0.1,0,0.3,0,0.4c0,0.1,0,0.3,0,0.4c0,0,0,0.1,0,0.2c0.1,0.5-0.1,1.3,0,1.7c0,0.5,0.1,1.2,0.1,1.8c0,1-0.1,1.9,0,2.9
		c0,0.6,0.1,1.2,0,1.8c0,0.1,0,0.2,0,0.3c0,0,0,0,0,0c0,0,0,0,0,0c0,0,0,0.1,0,0.1c0,0,0,0,0,0c0,0.1,0,0.3,0,0.4
		c0,0.4-0.1,0.8-0.1,1.2c0,0.2,0,0.4,0,0.6c0,0,0,0.1,0,0.1c0.1-0.2,0.1-0.4,0.2-0.6c0,8.8,0,17.4,0.3,26c0,4.2,0.3,7.2,1.8,10
		c1.2,2.1,2.9,3.3,4.6,4.1c0,0.1,0,0.2,0,0.3c0.1,0,0.2,0.1,0.3,0.1c1.9,0.6,3.9,1,5.8,1.5c1.7,0.4,3.4,0.8,5.1,1.3
		c0.3,0.1,0.6,0.2,0.9,0.3c0-0.1,0-0.3,0-0.4c13.7,3,32.9,5.8,45.9,6.8c12.4,1.3,25.3,1.8,39.2,1.8s22.1-0.4,34.4-1
		c25.5-1.4,56.2-4.6,80-8.5c0,0.1,0,0.3,0,0.5c0.1,0,0.1,0,0.2,0c0-0.2,0.1-0.4,0.4-0.4c1.1,0,2.2-0.4,3.4-0.4c0,0,0,0,0,0
		c0.8-0.2,1.5-0.4,2.3-0.7c0.8-0.3,1.7-0.4,2.5-0.5c0.5-0.1,0.9-0.2,1.4-0.3c0,0,0.1,0,0.1,0c0.5-0.2,1.1-0.1,1.7-0.3
		c0.2-0.1,0.4-0.1,0.7-0.2c3-1.1,6.2-3.5,6.8-8.9v-0.7c0-8.8-0.1-17.4-0.5-27.5c-0.3-7.9-0.7-16.9-0.8-27.3
		c-0.2-13.1-0.6-29.3-1.1-45.6c-0.3-1-0.4-2-0.4-3.2c0-0.2,0-0.4,0.1-0.6c-0.1-0.3-0.1-0.5-0.1-0.8c0-0.3,0-0.6-0.1-1
		c0-0.6,0.1-1.2,0.3-1.8c0-0.6,0-1.2-0.1-1.8c0.2,0.1,0.5,0.3,0.8,0.4c1-1.4,2.8-2.3,4.5-2.4c3.9,0,7.3-0.2,11.1-0.8
		c0.7-0.1,2.4-0.4,3.3-0.2c0.7-0.3,1.3-0.6,2-0.7c0.7-0.1,1.1-0.1,1.3-0.1c2.4-1,4.7-1.5,7.3-2.1c6.2-1.5,12.6-3.4,19-4.8
		c0.7-0.2,1.4-0.4,2.1-0.6c0.6-0.2,2.3-0.7,3.3-1c2.4-0.8,4.8-1.6,7.2-2.3c5.1-1.5,10.1-3.3,15.1-5c0.6-0.2,1.3-0.4,1.9-0.7
		C685,481.8,683.8,477.1,683.1,474.6z M553.7,354.5c1.7,7.7-5.8,26-12.9,39.2l-27-13.4c0,0,0,0,0.1-0.1c15-11.7,25.9-25.6,31.2-39.5
		C548.7,344,552.4,348.6,553.7,354.5z M505.5,369.3h-0.1c-6.4,5-11.7,8.5-16.3,11.7c-4.5,3-8.3,5.6-11.7,8.5
		c-22.5-17.2-25.7-48.2-25.9-60.8h82.8C531.7,342.2,521.2,357.3,505.5,369.3z M635.3,299.9L635.3,299.9L644,89.6
		c0-2.8-0.1-5.4-0.7-7.9l12.2,5.4c8.4,3.7,13.6,12.1,13.3,21.2l-7.1,175.5c-0.4,9.2-6.6,17.3-15.4,20.2l-12.6,4.1
		C634.6,305.5,635.1,302.7,635.3,299.9z M342.3,316.5c-5,0-9.6-2-13-5.5c-3.4-3.5-5.3-8.3-5-13.1L333,87.6c0.4-9.7,8.3-17.2,18-17.2
		h262.8c2.4,0,4.7,0.5,6.8,1.3l0.5,0.3c2.1,0.9,3.9,2.2,5.5,3.9c3.4,3.5,5.3,8.3,5,13.1L623,299.3c-0.4,9.7-8.3,17.2-18,17.2H342.3z
		 M436.2,356c0.9-2,2.2-3.8,3.8-5.4c1.7,8.7,4.7,18.2,9.9,27.4l-20,8.9C430.5,377.9,432.1,364.9,436.2,356z M642.7,488.2
		c-4.1,0.9-8.2,2-12.4,3c-1.2,0.3-2.4,0.5-3.7,0.8c-4.3,0.9-12.2,2.8-14.7,2.5l0.4,0.4c-0.4,0-0.5,0-0.5,0c-0.3-0.3-0.9-1.4-2.1-5.8
		c-0.9-4.1-1.8-8-2.8-12.7v-0.9c-2-8.4-3.3-15.3-4.7-22.8c-0.4-2.2-1.7-8.8-8.3-8c-6.6,0.8-6.2,7.2-5.9,11v2.2c0,0,0,0.3,0,0.4
		c1.7,26,3.3,72.8,3.7,103c0.1,10.6,0.5,19.7,0.8,27.5c0.3,8.9,0.7,16.6,0.5,24.3c-0.7,0-1.3,0.3-2,0.4c-24,4.2-57.1,7.9-84.4,9.3
		c-28,1.7-50.1,1.4-71.5-0.8c-17.6-1.6-40.9-5.4-51.9-8.5v-2.4c-1.3-60.3,2.8-128.6,6.3-181.4c0.3-3.8-2.6-7.1-6.4-7.3
		c-3.8-0.3-7.1,2.6-7.4,6.4c-1.2,18.2-2.5,38.1-3.7,59c-9.7-0.3-19.5-1.2-27.1-2.5l-2-0.4c-3.6-0.7-7.2-1.3-9.9-2.4
		c3.6-13.9,9.1-32,14.9-48.1l1.1-3c5.5-15.1,11.3-30.7,22.2-40.5c11.5-10.4,28.2-18.6,46.9-23.7c-2.9,14.8-2.8,29.6-2.8,30.4
		c0,2.4,1.2,4.5,3.2,5.8c1.2,0.7,2.4,1,3.7,1c1.3,0,2-0.3,2.9-0.7l32.2-14.6c3,3.7,6.6,7.2,10.8,10.4c-8,14.2-6.7,44.2-6.4,47.7
		c0.3,3.7,3.3,6.6,6.8,6.6h0.4c3.8-0.3,6.7-3.4,6.6-7.2c-0.7-11.8,0.1-33.3,5-40.6c3.8-5.6,8.4-8.8,16.2-14c1.3-0.9,2.8-1.8,4.2-2.9
		l39.2,19.5c1.1,0.5,2,0.8,3,0.8c2.4,0,4.6-1.2,5.9-3.4c0.3-0.4,5.3-9,10.1-19.8c4.3-9.7,6.8-17.8,7.8-24.5
		c23.3,6.2,55.9,15.5,70.3,33.4c13.6,18.4,23.7,53.1,29.7,73.8c0.8,2.8,1.4,5.1,2.1,7.3c0,0.5,0.3,1,0.4,1.6
		c0.1,0.7,0.4,1.6,0.5,2.4C662.3,483.6,652.7,485.9,642.7,488.2z"/>
	<path class="st1" d="M430.5,198.1c-5.1,0-9.3-4.2-9.3-9.3v-29.4c0-5.1,4.2-9.3,9.3-9.3s9.3,4.2,9.3,9.3v29.4
		C439.8,193.9,435.6,198.1,430.5,198.1z"/>
	<path class="st1" d="M524.1,198.1c-5.1,0-9.3-4.2-9.3-9.3v-29.4c0-5.1,4.2-9.3,9.3-9.3c5.1,0,9.3,4.2,9.3,9.3v29.4
		C533.4,193.9,529.2,198.1,524.1,198.1z"/>
	<ellipse class="st1" cx="493.8" cy="430.4" rx="7.2" ry="7.2"/>
	<path class="st1" d="M525.5,228.3c-0.7-2.1-2.1-3.9-4.1-4.9c-2-1-4.2-1.3-6.3-0.7s-3.8,2-4.9,3.9c0,0-0.5,0.8-1.4,1.7
		c-0.9,0.9-2.6,2.4-5.1,3.9c-2.9,1.7-6.4,3-10.4,4.1c-5,1.3-10.8,2-17.2,2s-0.1,0-0.3,0c0,0-0.1,0-0.3,0c-6.3,0-12.1-0.7-17.2-2
		c-3.9-0.9-7.4-2.4-10.4-4.1c-2.5-1.4-4.2-2.9-5.1-3.9c-0.9-0.9-1.3-1.6-1.4-1.7c-1.1-1.8-2.8-3.3-4.9-3.9c-2.1-0.7-4.3-0.4-6.3,0.7
		c-2,1-3.4,2.8-4.1,4.9c-0.7,2.1-0.4,4.3,0.7,6.3c0.5,0.9,3.6,6.2,11.2,11c4.3,2.8,9.3,4.9,15,6.4c6.7,1.8,14.3,2.8,22.6,2.8
		c8.3,0,0.1,0,0.3,0c0,0,0.1,0,0.3,0c8.3,0,15.9-0.9,22.6-2.8c5.7-1.6,10.7-3.7,15-6.4c7.8-4.9,10.7-10,11.2-11
		C525.9,232.6,526.2,230.4,525.5,228.3z"/>
</g>
<g id="Layer_10">
	<path class="st7" d="M303,598.1c-16.7,4.5-33.8,9.1-48,20c-14.2,10.9-25,29.5-23,48.7c1.3,11.9,7.2,22.4,13.5,32
		c15.7,23.9,35,44.8,56.8,61.7c8.5,6.5,17.3,12.5,26.1,18.4c13.7,9.2,27.4,18.4,41.1,27.6c0.5,0.3,0.9,0.6,1.5,0.6
		c0.7,0,1.4-0.5,2-1.1c7.1-6.5,14.1-13.1,21.2-19.6c6.3-5.8,12.7-11.8,17-19.6c-21.8-16.1-44.2-32.9-58.1-57.6
		c-3.2-5.7-6-12-5.9-18.8c0-8.1,4.2-15.6,9.7-20.8c5.5-5.2,12.2-8.4,19-11.3c31.9-13.6,65.9-20.9,100.1-21.6c-0.1,0-0.2,0-0.3,0"/>
</g>
<g id="Layer_11">
	<path class="st7" d="M289.1,810.3c14-44.5,28-88.9,42-133.4c5-15.7,10.1-31.9,20-44.2c6.6-8.3,15.3-14.6,24.7-18
		c8.3-3,17.1-3.7,25.8-4.4c10.3-0.9,20.6-1.7,30.9-2.6c12.5-1,25.1-2.1,37.6-1.4c12.3,0.7,24.4,3.1,36.5,5.5
		c10.8,2.1,21.6,4.3,32.3,6.4c13.2,2.6,26.5,5.2,39.2,10.2c1.5,0.6,3.2,1.3,4,2.9c0.8,1.5,0.7,3.3,0.6,5
		c-1.1,17.7-3.3,36.3-12.6,50.5c-7.9,12.1-20.1,19.7-32.9,23.6s-26.1,4.5-39.3,4.8c-29.4,0.6-58.8-0.4-88.2-2.8
		c4.8-8.4,9.2-17.2,13-26.3c-22,51.2-55.1,96.5-69.9,151c-21.6-0.9-42.9-8-61.6-20.3C288.8,815.2,286.2,811.4,289.1,810.3z"/>
</g>
<g id="Layer_7">
</g>
<g id="Layer_14">
	<path class="st7" d="M382.7,807.8c5.7,4.8,11.9,11.2,10.3,18.5c-0.8,3.4-3.2,6.2-6,8.3c-8.9,6.8-20.8,7.4-31.9,8.6
		s-23.2,3.8-29.9,12.6c-1.2,1.5-2.1,3.3-2.2,5.2c-0.3,5.5,6.2,8.4,11.5,9.8c13.7,3.4,27.6,5.8,41.6,7.1c6.4,0.6,13,1,19.3-0.5
		c7.1-1.8,13.3-5.9,19.3-10c15.3-10.3,31.3-21.3,39.6-37.8c1.9-3.8,3.4-8.2,1.9-12.1c-0.9-2.5-2.9-4.5-4.9-6.3
		c-13.3-12.8-26.8-25.7-42.3-35.6c-1.4-0.9-3.1-1.9-4.7-1.5c-1.2,0.3-2.2,1.2-3.1,2c-6.9,6.7-13.5,13.6-19.9,20.9
		C378.2,800.4,375.9,807.2,382.7,807.8z"/>
</g>
<g id="Layer_13">
	<path class="st7" d="M296.4,826.2c-10.3,13.8-28,19.3-44.8,23s-34.5,6.7-47.8,17.6c-4.7,3.9-9,10.2-6.6,15.8
		c2.3,5.2,8.8,6.6,14.5,7.4c12.3,1.6,24.6,3.3,36.9,4.9c18.2,2.4,36.6,4.8,54.9,3c11.1-1.1,22.9-4.4,30-13
		c11.4-13.8,6.4-34.4,10.4-51.9C325.9,830.8,308.1,826.2,296.4,826.2z"/>
</g>
<g id="Layer_12">
	<g id="Layer_15">
	</g>
	<path class="st1" d="M298.6,830.4c-7.3,9.7-18.1,16.7-29.9,19.5c19,11.3,41.3,17.1,63.4,16.3c1.1,0,2.3-0.1,3-0.9
		c0.6-0.7,0.7-1.6,0.8-2.5c0.8-8.3,1.5-16.7,2.3-25C324.3,835.7,310.4,833.2,298.6,830.4z"/>
	<path class="st1" d="M383,803.6c5,4.3,10.1,8.7,12.8,14.7s2.1,14-3.2,17.9c-0.7,0.5-1.6,1.2-1.4,2.1c0.1,0.4,0.5,0.7,0.9,1
		c4.1,2.9,9.5,3.9,14.4,2.5c4.6-1.3,8.4-4.5,11.9-7.7c5-4.5,9.7-9.2,14.3-14c3.6-3.8,7.2-8,8-13.1c-3.6-3.2-7.1-6.5-10.7-9.7
		c-7.2-6.5-14.4-13.1-22.6-18.4c-0.5-0.3-1.1-0.7-1.7-0.6c-0.6,0.1-1,0.4-1.5,0.8C395.7,786,388.1,794.2,383,803.6z"/>
</g>
<g id="Layer_5">
	<g id="Layer_6">
		<path class="st8" d="M546.9,587.3c-13.3,3-28.1-1.6-37.2-11.7c-2.6,4.4-8.6,5.1-13.7,5.4c-6.9,0.4-13.9,0.7-20.8,1.1
			c6.2-8.5,12.3-17.1,18.5-25.6c-6.3,8.2-12.7,16.4-19,24.6c-0.8,1.1-1.7,2.2-3,2.6c-1.4,0.5-3,0.2-4.5,0.1c-3.3-0.1-6.8,1.3-9.8,0
			c-3.1-1.3-4.4-5.1-3.8-8.4c0.6-3.3,2.6-6.1,4.6-8.7c6.1-8,13-15.4,20.3-22.3c-14.3,10.4-24.9,25.7-29.5,42.6
			c-10.3-0.8-8.1-0.6-18.4-1.4c-0.9-9.1,2-18.2,6.5-26.1c4.6-8,10.8-15.1,16.9-22c7.1-8.1,15.2-16.7,26-18c9-1.2,17.8,3.1,25.8,7.3
			c5.3,2.8,10.6,5.7,15,9.7c3.4,3.1,6.2,7,10,9.7c5.1,3.7,11.6,5,17.9,6.2c27.3,5.1,55,8.6,82.7,10.5c-4.4,0.2-8.9-0.6-13-2.1
			l-1.4-37.8c0-0.1-0.3-2.5-0.3-2.7c0.7-3.4-2.7-18.2-1-18.4c54.4-8.1,64.3-31,64.3,0.9c0,3.5,0.3,11.9,0.7,15.4
			c2.6,24.7,2.4,49.7-0.5,74.3c-0.7,6.1-1.9,12.7-6.3,17.1c-3.4,3.3-8.2,4.7-12.8,5.6c-25.3,5-51.3-1.8-75.8-9.7
			C571.4,600.8,557.4,595.8,546.9,587.3z"/>
	</g>
	<g id="Layer_4">
		<path class="st9" d="M253.9,593v-4.2c0-5.7,4.6-10.4,10.4-10.4h251.2c5.7,0,10.4,4.6,10.4,10.4v4.2c0,5.7-4.6,10.4-10.4,10.4
			H264.3C258.5,603.4,253.9,598.7,253.9,593z"/>
	</g>
	<path class="st10" d="M196,463.1l9.5,124.6c0.9,11.3,9.8,20,20.7,20.1l163.3,2.2c12.3,0.2,22.2-10.6,21.4-23.3l-7-122.4
		c0-23.1-11.3-24.9-11.3-24.9l-174.9,0C205.2,439.1,195.1,450.2,196,463.1z"/>
	<ellipse class="st11" cx="307.1" cy="496.5" rx="11.7" ry="11.7"/>
</g>
</svg>
