<?xml version="1.0" encoding="utf-8"?>
<!-- Generator: Adobe Adobe Illustrator 24.2.0, SVG Export Plug-In . SVG Version: 6.00 Build 0)  -->
<svg version="1.1" xmlns="http://www.w3.org/2000/svg" xmlns:xlink="http://www.w3.org/1999/xlink" x="0px" y="0px" width="1000px"
	 height="1000px" viewBox="0 0 1000 1000" style="enable-background:new 0 0 1000 1000;" xml:space="preserve">
<style type="text/css">
	.st0{fill:#DBF3F5;}
	.st1{fill:#3FDE99;}
	.st2{fill:#2FBC7C;}
	.st3{fill:#005894;}
	.st4{fill:#005B96;}
	.st5{fill:#00324D;}
	.st6{fill:#005894;stroke:#00324D;stroke-width:8;stroke-linecap:round;stroke-linejoin:round;stroke-miterlimit:10;}
	.st7{fill:#005894;stroke:#00324D;stroke-width:6;stroke-linecap:round;stroke-linejoin:round;stroke-miterlimit:10;}
	.st8{fill:#005894;stroke:#005B96;stroke-width:8;stroke-linecap:round;stroke-linejoin:round;stroke-miterlimit:10;}
	.st9{fill:#3FDE99;stroke:#00324D;stroke-width:8;stroke-linecap:round;stroke-linejoin:round;stroke-miterlimit:10;}
	.st10{fill:#00324D;stroke:#00324D;stroke-width:8;stroke-linecap:round;stroke-linejoin:round;stroke-miterlimit:10;}
	.st11{fill:#00314C;stroke:#00324D;stroke-width:8;stroke-linecap:round;stroke-linejoin:round;stroke-miterlimit:10;}
	.st12{fill:#FFFFFF;stroke:#00324D;stroke-width:8;stroke-linecap:round;stroke-linejoin:round;stroke-miterlimit:10;}
</style>
<g id="Layer_10">
</g>
<g id="Layer_2_1_">
	<g id="Layer_4">
		<path class="st0" d="M283.4,262.4c-12-17.5-2.3-43,15-55.3c17.2-12.3,39.3-14.9,60.4-17.1c24.5-2.6,49-5.1,73.6-7.7
			c17.6-1.8,35.6-3.8,51.8-10.9s30.8-20.4,34.8-37.6c5.4-23.1-6.1-53.7,13.5-67.1c7-4.8,15.9-5.3,24.3-5.5
			c37.4-1,79.6,2.6,103.7,31.3c15.4,18.3,20,43.6,19,67.6c-1,23.9-6.9,47.4-10.1,71.1c-2.7,20.6-1.5,45.4,15.9,56.7
			c11.3,7.4,25.8,6.5,39.3,6.6c19.3,0.2,39.2,3.5,55.1,14.5c15.8,11,26.5,31.1,21.8,49.8c-3.3,13.3-13.5,23.7-22.9,33.6
			c-25.1,26.5-48.9,56.3-56.9,91.8c-8,35.6,4.3,78,36.6,94.9c21.7,11.3,48,9.4,71.2,17.3c32.8,11.1,57.5,43,60,77.5
			c2.5,34.5-17.5,69.7-48.4,85.2c-46.6,23.5-111.2,5.2-148.2,41.9c-12,11.9-18.9,27.9-27.9,42.2c-42.6,67.3-129.2,91.9-208.7,95.3
			c-51.1,2.2-103.3-2.4-151.1-20.7c-23.7-9.1-47.6-22.9-58.2-45.9c-5.6-12.1-7-25.9-6-39.2c2.2-28.2,15.6-55.3,36.6-74.2
			c28.7-25.9,71.9-38.3,88-73.4c3.5-7.6,5.4-16.2,3.4-24.3c-4.4-17.6-24.2-25.5-41.2-31.6c-64.6-23.4-127.6-61.4-161.4-121.3
			s-29.9-144.5,22.8-188.7C215.2,297.3,254.1,280.9,283.4,262.4z"/>
	</g>
	<path class="st1" d="M523.8,331.1c0,14-10.3,29-24.3,39.8c-11.5,8.9-18.3,12-23.3,17.4l-0.7,0.6c-28.2-17.5-25.5-57.8-25.5-57.8"/>
	<path class="st2" d="M451.2,343.1c0,0,18.2,9,34.2,11.3c16.1,2.3,30.1,1.1,30.1,1.1l9.7-24.4l-76.2-1.2l2.1,13.2H451.2z"/>
	<path class="st3" d="M498.6,371c11.8-9.2,21-21.3,23.6-33.2l0.3-1.4c0,0,12.1,6.2,14.7,18.1c18.4,4.9,49.4,12.2,62.8,29.2
		c12.3,16.6,20.8,49.3,25.2,63.8c0.7,3,2.2,6.6-1,8.6c-9,4.2-20.6,6.2-32.3,9.2c-4.9,1.1-12.4,3-15.8,2.7c-4-0.5-5.2-3.2-6.5-8.5
		c-0.8-3.4-1.5-6.6-2.3-10.5c-1.3-6.3-2.3-11.6-3.4-17.5c-0.9-5-0.3,1.4-0.3,3c1.3,19.9,2.5,55.6,2.8,78.8c0.3,17.9,1.2,29.8,1,41.6
		c-0.4,3.1-2.5,2.7-5.7,3.4c-19.1,3.3-44.7,6.1-64.8,7.2c-18.4,1.1-36.6,1.3-55.1-0.6c-13-1.2-31.4-4.1-40.3-6.7
		c-3.5-1-3.8-1.4-3.9-6.7c-0.6-26.9,0.2-56,1.6-84.5v-4.4c-7.8,0-17.9-0.5-26.3-2c-4.2-0.8-8.7-1.4-11.9-3.3
		c-1.7-1.1-1.9-2.6-1.4-5.1c2.9-11.4,7.4-25.7,11.5-37.4c4.7-12.6,9.3-26.4,19.2-35.2c12.5-11.3,30.5-18.2,46.4-21.2l1.5-3.8
		c3.2-7.1,11.6-11.4,11.6-11.4v1.1c1.7,13.4,7.2,33.6,25.1,44.7l1.2-1.2c5-5,11.7-8.2,22.8-16.8"/>
	<path class="st1" d="M580,608.8c0.2-0.2,0.3-0.3,0.5-0.4c0.1-0.2,0.2-0.4,0.3-0.7c0.2-0.4,0.4-0.8,0.6-1.2c0.1-0.5,0.3-0.9,0.5-1.4
		c0,0,1-1.4,1.5-2.2c0-0.1,0-0.2,0-0.2c0.2-0.5,0.4-1,0.7-1.6c0-0.1,0.1-0.2,0.1-0.2c0.1-0.5,0.3-1.1,0.6-1.6c0,0,0-0.1,0-0.1
		c-0.1-0.1-0.1-0.3-0.2-0.5c-0.2-0.7-0.2-1.7-0.3-2.6c-1.5,3.4-2.8,6.8-3.7,10.2C580.5,607.1,580.2,607.9,580,608.8z"/>
	<path class="st1" d="M584.1,471.9c1-0.7,2.1-1.2,3.5-1.2c0.3-0.1,0.6-0.2,1-0.3c-1,0.3,4-0.7,1.5-0.2c1.1-0.2,2.2-0.4,3.2-0.6
		c0.2,0,0.4-0.1,0.6-0.1c-0.2,0,0-0.1,1.4-0.5c4.2-1.2,9.5-2.5,13.1-2.9c0.3,0,0.6-0.1,0.9-0.1c3.5-1.1,7.3-1.8,10.2-2.8
		c0.3-0.1,0.5-0.2,0.8-0.3c-0.9-3.2-1.5-4.9-1.5-4.9l-36.7,9.2h-0.1c0,0,0.4,1.7,0.9,4.8C583.4,472,583.7,472,584.1,471.9z"/>
	<path class="st2" d="M587.6,470.7c0.3-0.1,0.6-0.2,1-0.3c-1,0.3,4-0.7,1.5-0.2c1.1-0.2,2.2-0.4,3.2-0.6c0.2,0,0.4-0.1,0.6-0.1
		c-0.2,0,0-0.1,1.4-0.5c4.2-1.2,9.5-2.5,13.1-2.9c0.3,0,0.6-0.1,1-0.1c2.5-0.8,5.2-1.4,7.6-2c0.8-0.9,1.3-1.4,1.3-1.4h-0.1l0.8-3.1
		l-34.1,8.8l0.3,3C585.9,470.9,586.7,470.7,587.6,470.7z"/>
	<path class="st1" d="M399.1,464.5c0,0,0-2.1-10-2.1s-22.7-3.1-22.7-3.1c-0.1,0.3-0.6,1.8-1.2,4.1c1.5,0.4,3,0.7,4.5,0.9
		c6.4,1,13.2,1.5,19.7,1.7c4.9,0.1,6.5,5.3,4.7,8.6c0,0.1,0,0.2,0.1,0.3c0.4,1.5,0.7,2.9,0.8,4.5c0.3,3.5-0.2,6.9-0.1,10.3
		c0.1,4.9-0.1,9.7-0.4,14.5c1.7-6.3,2.9-10.9,3.2-12.4l-0.1-0.1L399.1,464.5z"/>
	<path class="st2" d="M584.8,135.5l26.5,11.7c8.1,3.6,13.2,11.7,12.8,20.6l-5.4,133.9c-0.4,9-6.3,16.8-14.9,19.6l-26.4,8.6"/>
	<path class="st1" d="M571.1,331.1H371.4c-10.4,0-18.7-8.7-18.3-19.1l6.6-160.4c0.4-9.8,8.5-17.6,18.3-17.6h199.7
		c10.4,0,18.7,8.7,18.3,19.1l-6.6,160.4C589,323.3,580.9,331.1,571.1,331.1z"/>
	<path class="st4" d="M377.4,293.2l5.1-122.3c0.3-7.4,6.4-13.3,13.9-13.3H558c7.9,0,14.2,6.6,13.9,14.5l-5.1,122.3
		c-0.3,7.4-6.4,13.3-13.9,13.3H391.3C383.4,307.7,377.1,301.1,377.4,293.2L377.4,293.2z"/>
	<path class="st5" d="M576.4,172.2c0.2-5.1-1.6-9.9-5.1-13.6c-3.5-3.7-8.3-5.7-13.4-5.7H396.3c-10,0-18.1,7.8-18.5,17.8L372.7,293
		c-0.2,5.1,1.6,9.9,5.1,13.6s8.3,5.7,13.4,5.7h161.6c10,0,18.1-7.8,18.5-17.8L576.4,172.2L576.4,172.2z M562.1,294.2
		c-0.2,5-4.3,8.9-9.2,8.9H391.3c-2.5,0-4.9-1-6.7-2.8c-1.8-1.8-2.7-4.2-2.6-6.8l5.1-122.3c0.2-5,4.3-8.9,9.2-8.9h161.6
		c2.5,0,4.9,1,6.7,2.8s2.7,4.2,2.6,6.8L562.1,294.2L562.1,294.2z"/>
	<path class="st5" d="M577.1,613.4c0.7-1.9,1.8-3.8,3.4-5c0.1-0.2,0.2-0.4,0.3-0.7c0.2-0.4,0.4-0.8,0.6-1.2c0.1-0.5,0.3-0.9,0.5-1.4
		c0,0,1-1.4,1.5-2.2c0-0.1,0-0.2,0-0.2c0.2-0.5,0.4-1,0.7-1.6c0-0.1,0.1-0.2,0.1-0.2c0.1-0.5,0.3-1.1,0.6-1.6c0,0,0-0.1,0-0.1
		c-0.1-0.1-0.1-0.3-0.2-0.5c-0.2-0.7-0.2-1.8-0.3-2.8c-0.3-0.5-0.7-1.1-0.9-1.5c0-0.1-0.1-0.1-0.1-0.2c-0.4-0.5-0.8-1-1.2-1.5
		c-0.2-0.2-0.3-0.4-0.4-0.6c-0.1-0.1-0.2-0.2-0.2-0.4c-1.9,4.2-3.7,8.7-5,13.1c-1.2,3.7-1.7,8.3-1.5,12.5
		C575.6,616,576.3,614.6,577.1,613.4z"/>
	<path class="st5" d="M630.4,447.1c0-0.4-0.2-0.7-0.3-1c0,0,0-0.2,0-0.3c-0.5-1.7-1-3.6-1.7-5.7c-4.8-16.6-12.9-44.3-24.3-59.7
		c0,0,0,0,0-0.1c-13.6-17.2-42.6-24.9-61.7-30c-0.3,0-0.7-0.2-1-0.3c-2.3-6.5-6.7-11.2-10.4-14.3h40.2c2.8,0,5.4-0.5,7.9-1.4
		l26.4-8.6c8.7-2.8,15.2-10.1,17.3-18.8c0.1,0,0.3,0.1,0.4,0.1l0,0c-0.1-3.4,0-7.1,0.5-10.4l5.2-128.5c0.4-10.8-5.7-20.6-15.6-25
		l-25.4-11.2c-3.1-1.5-6.5-2.3-10.1-2.3H378.1c-12.4,0-22.4,9.7-22.9,22L348.6,312c-0.3,6.3,2,12.3,6.4,16.8
		c4.4,4.6,10.3,7.1,16.6,7.1H444c0,1.3,0,2.8,0.2,4.5c-3.3,2.2-8.2,6.2-10.8,12c-0.2,0.5-0.4,1-0.6,1.4c-18.3,3.9-34.9,11.8-46,21.9
		c-10.2,9.2-15.3,22.9-19.8,35l-0.9,2.3c-4.5,12.8-8.8,26.9-11.6,37.9c0,0,0,0.1,0,0.2c-0.4,1.8-1.5,7.2,3.6,10.5c0,0,0,0,0.1,0
		c3.8,0.9,7.6,2.1,11.5,2.7c6.4,1,13.2,1.5,19.7,1.7c1.8,0,3.1,0.7,4,1.8c0.1,0,0.2,0,0.3,0c0,0.1,0,0.3,0,0.4
		c1.3,1.8,1.4,4.4,0.4,6.4c0,0,0,0,0,0c0,0.1,0,0.2,0.1,0.3c0.4,1.5,0.7,2.9,0.8,4.5c0.3,3.5-0.2,6.9-0.1,10.3
		c0.2,7-0.3,13.8-0.8,20.7c-0.5,5.9-1.3,11.7-1.9,17.5c-0.3,2.3-0.5,4.6-0.7,6.9c0.3-1,0.5-2,0.8-3c0,6.7,0,13.3,0.2,19.8
		c0,3.2,0.2,5.5,1.4,7.6c0.7,1.2,1.6,2.1,2.6,2.6c0.5,0.2,1,0.4,1.4,0.6c0.9,0.3,1.8,0.6,2.6,0.8c0.5-0.1,1.1-0.1,1.6,0.1
		c1.3,0.5,2.7,0.8,4,1.2c0.2,0.1,0.4,0.1,0.6,0.2c10.4,2.3,24.9,4.4,34.7,5.2c9.4,1,19.2,1.4,29.8,1.4s16.8-0.3,26.1-0.8
		c19.4-1.1,42.7-3.5,60.8-6.5c0,0.1,0,0.2,0,0.3c0.4-0.2,0.9-0.3,1.4-0.4c1.2-0.1,2.4-0.3,3.6-0.6c0.5-0.1,1-0.3,1.4-0.3
		c0.9-0.2,1.8-0.4,2.7-0.6c0.1,0,0.2,0,0.2-0.1v0c2.3-0.8,4.9-2.6,5.4-6.9v-0.5c0-6.7-0.1-13.3-0.4-21c-0.2-6-0.5-12.9-0.6-20.8
		c-0.2-11.9-0.6-27.1-1.1-41.8c1.3,0.8,2.9,1.5,4.9,1.7c0.6,0.1,1.2,0.1,1.9,0.1c1.3-0.6,2.6-1,4.5-1c0.7,0,1.4-0.1,2-0.2
		c1-0.7,2.1-1.2,3.5-1.2c0.3-0.1,0.6-0.2,1-0.3c-1,0.3,4-0.7,1.5-0.2c1.1-0.2,2.2-0.4,3.2-0.6c0.2,0,0.4-0.1,0.6-0.1
		c-0.2,0,0-0.1,1.4-0.5c4.2-1.2,9.5-2.5,13.1-2.9c0.3,0,0.6-0.1,0.9-0.1c3.5-1.1,7.3-1.8,10.2-2.8c1.7-0.6,3.6-1.3,5.6-2
		c0.4-0.2,0.8-0.3,1.2-0.5c0.1,0,0.3-0.1,0.4-0.2C633,456.7,631.2,450,630.4,447.1z M532.1,355.5c1.3,5.9-4.4,19.8-9.8,29.9
		l-20.5-10.2c0,0,0,0,0.1-0.1c11.4-8.9,19.7-19.5,23.7-30.1C528.3,347.5,531.1,351,532.1,355.5z M495.5,366.8L495.5,366.8
		c-5,3.8-9,6.5-12.5,8.9c-3.4,2.3-6.3,4.3-8.9,6.5c-17.1-13.1-19.5-36.8-19.7-46.4h62.9C515.4,346.1,507.4,357.6,495.5,366.8z
		 M594.1,313.8L594.1,313.8l6.6-160.4c0-2.1-0.1-4.1-0.5-6l9.3,4.1c6.4,2.8,10.3,9.2,10.1,16.2l-5.4,133.9c-0.3,7-5,13.2-11.7,15.4
		l-9.6,3.1C593.6,318.1,594,316,594.1,313.8z M371.5,326.5c-3.8,0-7.3-1.5-9.9-4.2c-2.6-2.7-4-6.3-3.8-10l6.6-160.4
		c0.3-7.4,6.3-13.1,13.7-13.1h199.7c1.8,0,3.6,0.4,5.2,1l0.4,0.2c1.6,0.7,3,1.7,4.2,3c2.6,2.7,4,6.3,3.8,10l-6.6,160.4
		c-0.3,7.4-6.3,13.1-13.7,13.1H371.5z M442.8,356.6c0.7-1.5,1.7-2.9,2.9-4.1c1.3,6.6,3.6,13.9,7.5,20.9l-15.2,6.8
		C438.5,373.3,439.7,363.4,442.8,356.6z M599.7,457.5c-3.1,0.7-6.2,1.5-9.4,2.3c-0.9,0.2-1.8,0.4-2.8,0.6c-3.3,0.7-9.3,2.1-11.2,1.9
		l0.3,0.3c-0.3,0-0.4,0-0.4,0c-0.2-0.2-0.7-1.1-1.6-4.4c-0.7-3.1-1.4-6.1-2.1-9.7v-0.7c-1.5-6.4-2.5-11.7-3.6-17.4
		c-0.3-1.7-1.3-6.7-6.3-6.1c-5,0.6-4.7,5.5-4.5,8.4v1.7c0,0,0,0.2,0,0.3c1.3,19.8,2.5,55.5,2.8,78.6c0.1,8.1,0.4,15,0.6,21
		c0.2,6.8,0.5,12.7,0.4,18.5c-0.5,0-1,0.2-1.5,0.3c-18.2,3.2-43.4,6-64.1,7.1c-21.3,1.3-38.1,1.1-54.3-0.6
		c-13.4-1.2-31.1-4.1-39.4-6.5v-1.8c-1-46,2.1-98.1,4.8-138.4c0.2-2.9-2-5.4-4.9-5.6c-2.9-0.2-5.4,2-5.6,4.9
		c-0.9,13.9-1.9,29.1-2.8,45c-7.4-0.2-14.8-0.9-20.6-1.9L372,455c-2.7-0.5-5.5-1-7.5-1.8c2.7-10.6,6.9-24.4,11.3-36.7l0.8-2.3
		c4.2-11.5,8.6-23.4,16.9-30.9c8.7-7.9,21.4-14.2,35.6-18.1c-2.2,11.3-2.1,22.6-2.1,23.2c0,1.8,0.9,3.4,2.4,4.4
		c0.9,0.5,1.8,0.8,2.8,0.8s1.5-0.2,2.2-0.5l24.5-11.1c2.3,2.8,5,5.5,8.2,7.9c-6.1,10.8-5.1,33.7-4.9,36.4c0.2,2.8,2.5,5,5.2,5h0.3
		c2.9-0.2,5.1-2.6,5-5.5c-0.5-9,0.1-25.4,3.8-31c2.9-4.3,6.4-6.7,12.3-10.7c1-0.7,2.1-1.4,3.2-2.2l29.8,14.9
		c0.8,0.4,1.5,0.6,2.3,0.6c1.8,0,3.5-0.9,4.5-2.6c0.2-0.3,4-6.9,7.7-15.1c3.3-7.4,5.2-13.6,5.9-18.7c17.7,4.7,42.5,11.8,53.4,25.5
		c10.3,14,18,40.5,22.6,56.3c0.6,2.1,1.1,3.9,1.6,5.6c0,0.4,0.2,0.8,0.3,1.2c0.1,0.5,0.3,1.2,0.4,1.8
		C614.6,454,607.3,455.7,599.7,457.5z"/>
	<path class="st1" d="M438.5,236.2c-3.9,0-7.1-3.2-7.1-7.1v-22.4c0-3.9,3.2-7.1,7.1-7.1s7.1,3.2,7.1,7.1v22.4
		C445.6,233,442.4,236.2,438.5,236.2z"/>
	<path class="st1" d="M509.6,236.2c-3.9,0-7.1-3.2-7.1-7.1v-22.4c0-3.9,3.2-7.1,7.1-7.1s7.1,3.2,7.1,7.1v22.4
		C516.7,233,513.5,236.2,509.6,236.2z"/>
	<circle class="st1" cx="486.6" cy="413.4" r="5.5"/>
	<path class="st1" d="M507.9,252.9c-0.8-1.1-2-2-3.4-2.1c-1.4-0.2-2.7,0-3.8,0.8c-1.1,0.8-1.8,1.9-2.1,3.3c0,0-0.1,0.6-0.5,1.3
		c-0.4,0.7-1.1,1.9-2.2,3.4c-1.4,1.6-3.2,3.1-5.3,4.5c-2.7,1.8-5.9,3.3-9.7,4.6c-3.8,1.3-0.1,0-0.2,0.1c0,0-0.1,0-0.2,0.1
		c-3.7,1.2-7.2,2-10.5,2.2c-2.5,0.2-4.8,0-6.9-0.4c-1.8-0.4-3.1-0.9-3.8-1.4c-0.7-0.4-1.1-0.7-1.2-0.7c-1-0.9-2.3-1.4-3.7-1.4
		c-1.4,0-2.6,0.6-3.6,1.6c-0.9,1-1.4,2.3-1.4,3.7c0,1.4,0.6,2.7,1.7,3.7c0.5,0.5,3.3,3,8.8,4.5c3.1,0.8,6.5,1.1,10.1,0.9
		c4.3-0.2,9-1.2,13.8-2.8c4.9-1.6,0.1,0,0.2-0.1c0,0,0.1,0,0.2-0.1c4.9-1.6,9.1-3.7,12.7-6.1c3-2.1,5.5-4.3,7.5-6.8
		c3.6-4.5,4.2-8.1,4.3-8.9C509,255.4,508.7,254,507.9,252.9z"/>
	<path class="st6" d="M401.8,561.5c-3.5,40.5-7.1,81.1-10.6,121.6c-1.4,16.4-2.8,33.3,1.4,49.2c4.4,16.2,14.3,30,24.3,43.1
		c15.5,20.3,31.9,39.9,48.8,59c1.7,1.9,3.6,3.9,6,4.4c2.5,0.4,4.9-0.9,7.1-2.2c14.4-8.8,27.7-19.6,39.4-32.2
		c-17.5-23.7-34.9-47.4-52.4-71.1c-2.1-2.8-4.2-5.7-5.3-9.1c-1.3-4.1-0.9-8.6-0.5-12.9c2.5-27.9,5.1-55.9,7.6-83.8
		c0.3-3.3-1-8.2-4.1-7.3c8.7,2,17.3,3.9,26,5.9c0.5,34.7-7.1,81.1-8,107c-0.2,7.1,0.4,12.5,0.7,16.7c0.7,9.7,4.4,10.3,10.4,17.8
		c7.2,9,14.4,18.1,21.6,27.1c2.3,2.9,4.7,6.1,5,9.9c0.3,3.8-2.8,8-6.3,7.1c12.6,8.2,25.2,16.5,37.8,24.7
		c1.8-47.6,3.6-95.2,5.4-142.8c1.3-33.9,4.2-71.6,27.8-94.4c-6.8-6.3-13.5-12.5-20.3-18.8c-5.6-5.2-11.2-15-5.2-19.6
		C507.2,564.1,455.3,564.7,401.8,561.5z"/>
	<path class="st0" d="M741.8,398.2c-2.1,14.1-4.2,28.5-1.9,42.6c2.2,14.1,9.5,28.1,22,35c21.9,12,49.2-1.9,66.9-19.5
		c19.4-19.2,34.1-43,54.9-60.7c20.8-17.7,51.2-28.6,75.5-16.1c15.6,8.1,25.6,24.5,29.8,41.5c4.2,17.1,3.2,34.9,1.8,52.4
		c-2.3,27.6-6,55-10.9,82.3c-2.8,15.6-6.1,31.3-12.6,45.9c-9.3,20.9-24.9,38.4-36.4,58.2c-31.2,53.5-30.7,121.1-11.8,180.1
		c5.1,15.9,11,34.9,0.6,48c-5.7,7.2-15,10.5-23.8,13.2c-73.4,22.9-152.1,36.5-227.3,20.1c-26.3-5.8-52-15.1-78.9-17.5
		c-31.6-2.8-63.2,4.4-94.1,11.4"/>
</g>
<g id="Layer_12">
</g>
<g id="Layer_9">
	<rect x="631.3" y="560.7" class="st6" width="311.6" height="294.9"/>
	<rect x="942.8" y="543" class="st6" width="17" height="355.1"/>
	<rect x="620.6" y="543" class="st6" width="17" height="355.1"/>
</g>
<g id="Layer_11">
</g>
<g id="Layer_3">
	<path class="st7" d="M296.6,288.5l-17-42.9c-4.7-11.8-8.2-20.2,11.2-30.5l43.4-18.6c14.2-6.7,23.6,6,23.4,22.8l-0.6,93"/>
	<polyline class="st6" points="349.7,360.7 402.3,336.8 368.8,334.2 	"/>
	<path class="st6" d="M356.1,297.8c-3,11.2,2.8,24.1,13.2,29.2c10.7,5.3,23.5,2.4,35.3,4c0.9,0.2,0.2,1.6-0.6,2.1
		c-7.7,4.6-15.5,9.2-23.3,13.6c-8.8,5-18.1,9.9-28.2,10.6c-0.6,0-1.3,0.1-1.9-0.2c-2.3-0.9-2.4-5.1-5-5.3c-1.1-0.1-2,0.8-2.9,1.3
		c-3.9,2.4-9.9-0.5-10.4-5.1c-0.4-3.5,1.9-6.6,3.4-9.8c1.9-4,2.6-8.6,2.2-13c-0.1-0.7-0.2-1.4-0.7-1.9c-0.7-0.6-1.9-0.4-2.8-0.2
		c-2.9,0.3-6-1.3-7.2-4c-1.4-3-0.9-6.9-3.3-9.2c-1.8-1.7-4.7-1.7-7.2-1.9c-2.5-0.2-5.5-1.2-6.1-3.6c-0.3-1-0.1-2.1,0.1-3.2
		c0.6-3.2,1.2-6.3,1.8-9.5c-2.4-0.9-5-1.4-7.6-1.3"/>
	<path class="st8" d="M316.7,299.9c3.8-0.9,8.1,0.5,10.6,3.5c2.6,3,3.3,7.4,2,11c5.6,0.6,11.6,3.3,13.3,8.6c1.3,3.8,0,8-1.3,11.8
		c-1.1,3.3-2.2,6.6-3.3,9.8c2.5,0.1,4.2-2.5,6.1-4.1c4.8-4.2,12.2-3.1,18.4-1.5c-5-6.2-10.1-12.8-11.8-20.6
		c-1.1-5.2-0.6-10.5-0.5-15.8c0.2-8.5-0.7-17-2.5-25.3c-1.1-5-2.7-10.1-6-14c-6.2-7.3-18.2-8.7-25.9-2.9l-14.3-19.7"/>
</g>
<g id="Layer_8">
</g>
<g id="Layer_6">
	<path class="st6" d="M496.3,831.6c-16.5,17.9-46,17.7-63.5,34.6c-1,0.9-1.9,2-2.1,3.3c-0.3,1.9,1.3,3.7,2.9,4.8
		c6.2,4.5,14.3,4.8,21.9,4.9c26.6,0.5,53.5,0.9,79.1-6.2c1.8-0.5,3.8-1.1,5-2.6c1.5-1.8,1.5-4.3,1.4-6.6c-0.3-9.2-0.6-18.3-1-27.5
		c-0.1-1.4-0.2-3.1-1.4-3.9c-0.8-0.5-1.8-0.6-2.8-0.5C520.8,832,505.7,832.2,496.3,831.6z"/>
	<path class="st9" d="M579.9,476.7c3.3,33.2-5.6,68.3-23.2,91.4c6.9,13,13.8,25.9,20.7,38.9c0.6,1.1,1.3,2.2,2.2,2.3
		c0.9,0.1,1.7-1,2.3-1.9c13.7-21,27.5-42.3,36.8-67.5c9.3-25.2,13.6-55.1,7.2-81.9C609.5,462.7,592.9,467.4,579.9,476.7z"/>
	<path class="st9" d="M399.1,462.2c-11.8,7.4-24.5,13.6-37.7,18.3c-9.8,3.5-20.3,6.2-30.4,3.9c-15.2-3.4-25.7-17.6-29.4-32.4
		s-2-30.4-1-45.6c0.9-13.4,1.4-26.8,1.3-40.2c0-2.1,0-4.3-0.8-6.3c-1.1-2.8-3.4-4.9-5.6-7.1c-7.4-7.4-13-16.7-15.1-27
		s-0.2-21.3,5.8-30c2.8-4,6.5-7.5,11.1-9.2c4.6-1.7,10.2-1.3,13.9,1.7c1,0.8,2,1.9,2,3.2c0.1,1.3-0.7,2.6-1.5,3.7
		c-6,8.5-12,17-18,25.6c4.7-6.1,9.9-12,16.9-15.5c4.3-2.2,10.6-2.7,13.1,1.3c2.3,3.9-0.7,8.7-3.6,12.2c-4.3,5.3-8.5,10.5-12.8,15.8
		c3-5.2,6.2-10.6,11.4-13.8c5.2-3.2,12.9-3.2,16.5,1.6c2.6,3.5,2.3,8.5,0.3,12.4c-2,3.9-5.4,7-8.5,10.5c2,2.7,4.1,5.3,6.1,8
		c0.7,0.9,1.5,1.8,2.6,1.9c0.9,0,1.7-0.5,2.4-1c4-3,8-6,11.9-8.9c-4.2,3.4-8.4,6.9-12.6,10.3c2.2-1.8,5.7-0.4,7,2.1
		c1.3,2.4,1.1,5.3,0.8,8.1c-2.3,24.7-1.9,49.6,1.1,74.2c5.4-5.6,10.8-11.3,16.2-16.9"/>
	<path class="st10" d="M363.9,421.4c11.3,11.9,22.6,23.7,33.9,35.6"/>
	<rect x="637.6" y="583.4" class="st6" width="305.2" height="34"/>
	<rect x="660.8" y="662.4" class="st6" width="256" height="138"/>
	<rect x="606.3" y="591.8" class="st11" width="368" height="54"/>
	<rect x="712.8" y="604.6" class="st6" width="151.6" height="14.2"/>
	<rect x="790.3" y="528" class="st6" width="131" height="33"/>
	<path class="st12" d="M763.2,515.4v-2.7c0-7,5.7-12.7,12.7-12.7h132.7c7,0,12.7,5.7,12.7,12.7v2.7c0,7-5.7,12.7-12.7,12.7H775.8
		C768.8,528,763.2,522.4,763.2,515.4z"/>
	<rect x="908.6" y="500" class="st6" width="18" height="26.5"/>
	<path class="st6" d="M779.4,485.6v-5.9c0-7.9,6.4-14.4,14.4-14.4h143.2c7.9,0,14.4,6.4,14.4,14.4v5.9c0,7.9-6.4,14.4-14.4,14.4
		H793.8C785.9,500,779.4,493.6,779.4,485.6z"/>
	<rect x="930.6" y="465.3" class="st12" width="24.4" height="34.7"/>
	<path class="st9" d="M753.6,451.2v-3.8c0-4.5,3.6-8.1,8.1-8.1h138.7c4.5,0,8.1,3.6,8.1,8.1v3.8c0,4.5-3.6,8.1-8.1,8.1H761.8
		C757.3,459.3,753.6,455.7,753.6,451.2z"/>
	<rect x="863.6" y="439.2" class="st6" width="52.2" height="18.8"/>
	<path class="st11" d="M553.3,783.7c-0.9,11.7-3.5,23.2-7.5,34.2c-1,2.6-2,5.2-3.8,7.4"/>
</g>
<g id="Layer_7">
	<path class="st5" d="M293,234.6l49.5-23.2c0.6-0.3,1.2-0.1,1.5,0.5l12.6,21.8c0.1,0.2,0.2,0.4,0.2,0.6l0.3,74.2
		c0,0.2,0.1,0.4,0.1,0.6l4.3,7.9c0,0.1,0.1,0.1,0.1,0.2l4.6,5.5c0.1,0.1,0.1,0.1,0.2,0.2l2.7,2.1c0.1,0.1,0.3,0.2,0.4,0.2l3.3,0.9
		c0.1,0,0.2,0,0.4,0l0,0c1.3,0,1.7,1.8,0.5,2.3c-8.6,3.6-24,10.1-26.7,11.7c-0.3,0.2-0.7,0.2-1,0.1l-0.8-0.3c-0.4-0.2-0.8,0-1.2,0.2
		c-0.1,0.1-0.3,0.2-0.5,0.2c-0.4,0-0.8-0.1-1.3,0s-0.9,0.4-0.8,0.9c0,0.1-0.1,0.3-0.1,0.4c0-0.1,0-0.1,0-0.2l-48.8-105.1
		C292.2,235.6,292.4,234.9,293,234.6z"/>
	<circle class="st5" cx="369.8" cy="338.8" r="4.6"/>
</g>
<g id="Layer_5">
	<path class="st6" d="M489.3,833.7c-5.5,14-11,28-16.5,42c-1.4,3.6-2.8,7.2-2.9,11c-0.1,3.8,1.4,7.9,4.7,9.9
		c4.4,2.7,10.1,0.8,14.8-1.5c24.7-12,45.5-31.7,58.9-55.6c0.6-1,1.1-2.1,0.9-3.2c-0.2-1.2-1.4-2.1-2.4-2.8
		c-9.3-6.4-18.5-12.9-27.8-19.3c-0.7-0.5-1.5-1-2.4-1.1c-1.2-0.2-2.4,0.5-3.5,1.2C504.6,819.7,493.3,823.7,489.3,833.7z"/>
</g>
</svg>
