<svg width="432" height="701" viewBox="0 0 432 701" fill="none" xmlns="http://www.w3.org/2000/svg">
<path d="M288.8 264.5C288.8 282.9 275.2 302.5 256.8 316.7C241.7 328.4 232.7 332.4 226.1 339.5L225.2 340.3C188.1 317.4 191.6 264.5 191.6 264.5" fill="#3FDE99"/>
<path d="M193.201 280.3C193.201 280.3 217.201 292.1 238.201 295.1C259.401 298.1 277.801 296.5 277.801 296.5L290.601 264.5L190.301 263L193.101 280.3H193.201Z" fill="#2FBC7C"/>
<path d="M255.601 316.8C271.101 304.7 283.201 288.9 286.701 273.3L287.101 271.5C287.101 271.5 303.001 279.6 306.401 295.2C330.601 301.6 371.401 311.2 389.101 333.5C405.301 355.3 416.501 398.1 422.301 417.1C423.201 421 425.201 425.8 421.001 428.4C409.201 433.9 393.901 436.5 378.501 440.5C372.101 441.9 362.201 444.4 357.701 444C352.401 443.3 350.901 439.8 349.101 432.9C348.001 428.4 347.101 424.2 346.101 419.1C344.401 410.8 343.101 403.9 341.601 396.2C340.401 389.6 341.201 398 341.201 400.1C342.901 426.2 344.501 473 344.901 503.4C345.301 526.9 346.501 542.5 346.201 557.9C345.701 562 342.901 561.4 338.701 562.4C313.601 566.7 279.901 570.4 253.401 571.8C229.201 573.2 205.201 573.5 180.901 571C163.801 569.4 139.601 565.6 127.901 562.2C123.301 560.9 122.901 560.4 122.801 553.4C122.001 518.1 123.101 480 124.901 442.6V436.8C114.601 436.8 101.301 436.1 90.3008 434.2C84.8008 433.2 78.8008 432.4 74.6008 429.9C72.4008 428.5 72.1008 426.5 72.8008 423.2C76.6008 408.3 82.5008 389.5 87.9008 374.2C94.1008 357.7 100.101 339.6 113.201 328.1C129.701 313.3 153.301 304.2 174.301 300.3L176.301 295.3C180.501 286 191.601 280.4 191.601 280.4V281.8C193.801 299.4 201.101 325.8 224.601 340.4L226.201 338.8C232.801 332.2 241.601 328.1 256.201 316.8" fill="#005894"/>
<path d="M369.001 8.10156L403.901 23.4016C414.601 28.1016 421.301 38.7016 420.701 50.4016L413.701 226.002C413.201 237.802 405.401 248.002 394.101 251.702L359.301 263.002" fill="#2FBC7C"/>
<path d="M350.999 264.502H88.1986C74.4986 264.502 63.5986 253.102 64.0986 239.502L72.7986 29.2016C73.2986 16.4016 83.9986 6.10156 96.8986 6.10156H359.699C373.399 6.10156 384.299 17.5016 383.799 31.1016L375.099 241.402C374.599 254.302 363.899 264.502 350.999 264.502Z" fill="#3FDE99"/>
<path d="M96.0998 214.901L102.8 54.6012C103.2 44.9012 111.2 37.2012 121.1 37.2012H333.8C344.2 37.2012 352.5 45.9012 352.1 56.2012L345.4 216.501C345 226.201 337 233.901 327.1 233.901H114.4C104 233.901 95.6998 225.201 96.0998 214.901Z" fill="#005B96"/>
<path d="M357.998 56.2004C358.298 49.5004 355.898 43.2004 351.298 38.4004C346.698 33.5004 340.398 30.9004 333.698 30.9004H120.998C107.798 30.9004 97.1978 41.1004 96.6978 54.2004L89.9977 214.5C89.6977 221.2 92.0978 227.5 96.6978 232.3C101.298 237.2 107.598 239.8 114.298 239.8H326.998C340.198 239.8 350.798 229.6 351.298 216.5L357.998 56.2004ZM339.198 216.2C338.898 222.8 333.498 227.9 327.098 227.9H114.398C111.098 227.9 107.998 226.6 105.598 224.2C103.198 221.8 101.998 218.7 102.198 215.3L108.898 55.0004C109.198 48.4004 114.598 43.3004 120.998 43.3004H333.698C336.998 43.3004 340.098 44.6004 342.498 47.0004C344.898 49.4004 346.098 52.5004 345.898 55.9004L339.198 216.2Z" fill="#00324D"/>
<path d="M429.099 416.601C429.099 416.101 428.799 415.701 428.699 415.301C428.699 415.301 428.699 415.001 428.699 414.901C427.999 412.701 427.399 410.201 426.499 407.401C420.199 385.601 409.499 349.301 394.499 329.101C394.499 329.101 394.499 329.101 394.499 329.001C376.599 306.501 338.399 296.401 313.299 289.701C312.899 289.701 312.399 289.401 311.999 289.301C308.999 280.801 303.199 274.601 298.299 270.601H351.199C354.899 270.601 358.299 269.901 361.599 268.801L396.299 257.501C407.799 253.801 416.299 244.301 419.099 232.901C419.399 233.001 419.6 233.101 419.9 233.101C420.2 230.101 420.499 227.201 420.799 224.201C420.899 223.101 420.999 222.001 420.999 220.901C420.799 220.801 420.599 220.801 420.299 220.701L427.099 50.8008C427.599 36.6008 419.599 23.8008 406.599 18.0008L373.199 3.30078C369.099 1.30078 364.6 0.300781 359.9 0.300781H96.9995C80.6995 0.300781 67.4995 13.0008 66.8995 29.1008L58.1995 239.401C57.7995 247.701 60.7995 255.501 66.5995 261.401C72.3995 267.401 80.1995 270.701 88.3995 270.701H183.699C183.699 272.401 183.699 274.401 183.999 276.601C179.699 279.501 173.199 284.701 169.799 292.301C169.499 293.001 169.299 293.601 168.999 294.101C144.899 299.201 123.099 309.601 108.499 322.801C95.0995 334.901 88.3995 352.801 82.3995 368.701L81.1995 371.701C75.2995 388.501 69.5995 407.001 65.8995 421.401C65.8995 421.401 65.8995 421.501 65.8995 421.701C65.3995 424.101 63.8995 431.101 70.5995 435.501C70.5995 435.501 70.8995 435.601 70.8995 435.801C71.4995 436.201 72.0995 436.501 72.7995 436.801C73.2995 436.901 73.7995 437.001 74.2995 437.301C78.2995 439.101 83.8995 438.801 87.7995 440.901C88.1995 440.901 88.4995 440.901 88.8995 441.001C89.5995 441.001 90.2995 441.201 90.8995 441.501C100.599 443.001 110.499 443.601 117.499 443.701C116.999 453.601 116.599 463.701 116.299 473.801C117.399 482.401 116.499 491.501 115.799 500.301C115.799 500.501 115.799 500.601 115.799 500.801V505.701C115.799 506.301 115.799 506.901 115.799 507.501C115.799 507.601 115.799 507.701 115.699 507.801C115.699 508.201 115.699 508.601 115.699 509.001C115.799 509.401 115.799 509.901 115.699 510.301C115.699 510.401 115.699 510.501 115.599 510.601C115.599 510.701 115.599 510.901 115.599 510.901C115.599 512.201 115.599 513.601 115.499 514.901C115.499 515.001 115.499 515.201 115.499 515.301C115.499 515.401 115.499 515.401 115.499 515.401C115.499 515.401 115.499 515.401 115.499 515.501C115.499 515.801 115.499 516.101 115.399 516.301C115.399 516.401 115.399 516.601 115.399 516.701C115.399 516.801 115.399 517.001 115.399 517.101C115.399 517.101 115.399 517.201 115.399 517.301C115.499 517.801 115.299 518.601 115.399 519.001C115.399 519.501 115.499 520.201 115.499 520.801C115.499 521.801 115.399 522.701 115.499 523.701C115.499 524.301 115.599 524.901 115.499 525.501C115.499 525.601 115.499 525.701 115.499 525.801V525.901C115.499 526.001 115.499 526.201 115.499 526.301C115.499 526.701 115.399 527.101 115.399 527.501C115.399 527.701 115.399 527.901 115.399 528.101V528.201C115.499 528.001 115.499 527.801 115.599 527.601C115.599 536.401 115.599 545.001 115.899 553.601C115.899 557.801 116.199 560.801 117.699 563.601C118.899 565.701 120.599 566.901 122.299 567.701C122.299 567.801 122.299 567.901 122.299 568.001C122.399 568.001 122.499 568.101 122.599 568.101C124.499 568.701 126.499 569.101 128.399 569.601C130.099 570.001 131.799 570.401 133.499 570.901C133.799 571.001 134.099 571.101 134.399 571.201C134.399 571.101 134.399 570.901 134.399 570.801C148.099 573.801 167.299 576.601 180.299 577.601C192.699 578.901 205.599 579.401 219.499 579.401C233.399 579.401 241.599 579.001 253.899 578.401C279.399 577.001 310.1 573.801 333.9 569.901C333.9 570.001 333.9 570.201 333.9 570.401C334 570.401 333.999 570.401 334.099 570.401C334.099 570.201 334.199 570.001 334.499 570.001C335.599 570.001 336.7 569.601 337.9 569.601C338.7 569.401 339.399 569.201 340.199 568.901C340.999 568.601 341.899 568.501 342.699 568.401C343.199 568.301 343.599 568.201 344.099 568.101H344.199C344.699 567.901 345.3 568.001 345.9 567.801C346.1 567.701 346.299 567.701 346.599 567.601C349.599 566.501 352.8 564.101 353.4 558.701V558.001C353.4 549.201 353.3 540.601 352.9 530.501C352.6 522.601 352.199 513.601 352.099 503.201C351.899 490.101 351.499 473.901 350.999 457.601C350.699 456.601 350.599 455.601 350.599 454.401C350.599 454.201 350.599 454.001 350.699 453.801C350.599 453.501 350.599 453.301 350.599 453.001C350.599 452.701 350.599 452.401 350.499 452.001C350.499 451.401 350.599 450.801 350.799 450.201C350.799 449.601 350.799 449.001 350.699 448.401C350.899 448.501 351.199 448.701 351.499 448.801C352.499 447.401 354.299 446.501 355.999 446.401C359.899 446.401 363.299 446.201 367.099 445.601C367.799 445.501 369.5 445.201 370.4 445.401C371.1 445.101 371.7 444.801 372.4 444.701C373.1 444.601 373.499 444.601 373.699 444.601C376.099 443.601 378.399 443.101 380.999 442.501C387.199 441.001 393.599 439.101 399.999 437.701C400.699 437.501 401.399 437.301 402.099 437.101C402.699 436.901 404.4 436.401 405.4 436.101C407.8 435.301 410.199 434.501 412.599 433.801C417.699 432.301 422.699 430.501 427.699 428.801C428.299 428.601 428.999 428.401 429.599 428.101C430.999 423.801 429.799 419.101 429.099 416.601ZM299.699 296.501C301.399 304.201 293.899 322.501 286.799 335.701L259.799 322.301C259.799 322.301 259.799 322.301 259.899 322.201C274.899 310.501 285.799 296.601 291.099 282.701C294.699 286.001 298.399 290.601 299.699 296.501ZM251.499 311.301H251.399C244.999 316.301 239.699 319.801 235.099 323.001C230.599 326.001 226.799 328.601 223.399 331.501C200.899 314.301 197.699 283.301 197.499 270.701H280.299C277.699 284.201 267.199 299.301 251.499 311.301ZM381.299 241.901L389.999 31.6008C389.999 28.8008 389.899 26.2008 389.299 23.7008L401.499 29.1008C409.899 32.8008 415.099 41.2008 414.799 50.3008L407.699 225.801C407.299 235.001 401.099 243.101 392.299 246.001L379.699 250.101C380.599 247.501 381.099 244.701 381.299 241.901ZM88.2995 258.501C83.2995 258.501 78.6995 256.501 75.2995 253.001C71.8995 249.501 69.9995 244.701 70.2995 239.901L78.9995 29.6008C79.3995 19.9008 87.2995 12.4008 96.9995 12.4008H359.799C362.199 12.4008 364.499 12.9008 366.599 13.7008L367.099 14.0008C369.199 14.9008 370.999 16.2008 372.599 17.9008C375.999 21.4008 377.899 26.2008 377.599 31.0008L368.999 241.301C368.599 251.001 360.699 258.501 350.999 258.501H88.2995ZM182.199 298.001C183.099 296.001 184.399 294.201 185.999 292.601C187.699 301.301 190.699 310.801 195.899 320.001L175.899 328.901C176.499 319.901 178.099 306.901 182.199 298.001ZM388.699 430.201C384.599 431.101 380.499 432.201 376.299 433.201C375.099 433.501 373.899 433.701 372.599 434.001C368.299 434.901 360.4 436.801 357.9 436.501L358.299 436.901C357.899 436.901 357.799 436.901 357.799 436.901C357.499 436.601 356.899 435.501 355.699 431.101C354.799 427.001 353.9 423.101 352.9 418.401V417.501C350.9 409.101 349.599 402.201 348.199 394.701C347.799 392.501 346.5 385.901 339.9 386.701C333.3 387.501 333.699 393.901 333.999 397.701V399.901C333.999 399.901 333.999 400.201 333.999 400.301C335.699 426.301 337.299 473.101 337.699 503.301C337.799 513.901 338.199 523.001 338.499 530.801C338.799 539.701 339.199 547.401 338.999 555.101C338.299 555.101 337.699 555.401 336.999 555.501C312.999 559.701 279.899 563.401 252.599 564.801C224.599 566.501 202.499 566.201 181.099 564.001C163.499 562.401 140.199 558.601 129.199 555.501V553.101C127.899 492.801 131.999 424.501 135.499 371.701C135.799 367.901 132.899 364.601 129.099 364.401C125.299 364.101 121.999 367.001 121.699 370.801C120.499 389.001 119.199 408.901 117.999 429.801C108.299 429.501 98.4995 428.601 90.8995 427.301L88.8995 426.901C85.2995 426.201 81.6995 425.601 78.9995 424.501C82.5995 410.601 88.0995 392.501 93.8995 376.401L94.9995 373.401C100.499 358.301 106.299 342.701 117.199 332.901C128.699 322.501 145.399 314.301 164.099 309.201C161.199 324.001 161.299 338.801 161.299 339.601C161.299 342.001 162.499 344.101 164.499 345.401C165.699 346.101 166.899 346.401 168.199 346.401C169.499 346.401 170.199 346.101 171.099 345.701L203.299 331.101C206.299 334.801 209.899 338.301 214.099 341.501C206.099 355.701 207.399 385.701 207.699 389.201C207.999 392.901 210.999 395.801 214.499 395.801H214.899C218.699 395.501 221.599 392.401 221.499 388.601C220.799 376.801 221.599 355.301 226.499 348.001C230.299 342.401 234.899 339.201 242.699 334.001C243.999 333.101 245.499 332.201 246.899 331.101L286.099 350.601C287.199 351.101 288.099 351.401 289.099 351.401C291.499 351.401 293.699 350.201 294.999 348.001C295.299 347.601 300.299 339.001 305.099 328.201C309.399 318.501 311.899 310.401 312.899 303.701C336.199 309.901 368.799 319.201 383.199 337.101C396.799 355.501 406.9 390.201 412.9 410.901C413.7 413.701 414.299 416.001 414.999 418.201C414.999 418.701 415.3 419.201 415.4 419.801C415.5 420.501 415.8 421.401 415.9 422.201C408.3 425.601 398.699 427.901 388.699 430.201Z" fill="#00324D"/>
<path d="M176.499 140.102C171.399 140.102 167.199 135.902 167.199 130.802V101.402C167.199 96.3016 171.399 92.1016 176.499 92.1016C181.599 92.1016 185.799 96.3016 185.799 101.402V130.802C185.799 135.902 181.599 140.102 176.499 140.102Z" fill="#3FDE99"/>
<path d="M270.101 140.102C265.001 140.102 260.801 135.902 260.801 130.802V101.402C260.801 96.3016 265.001 92.1016 270.101 92.1016C275.201 92.1016 279.401 96.3016 279.401 101.402V130.802C279.401 135.902 275.201 140.102 270.101 140.102Z" fill="#3FDE99"/>
<path d="M239.798 379.601C243.774 379.601 246.998 376.378 246.998 372.401C246.998 368.425 243.774 365.201 239.798 365.201C235.821 365.201 232.598 368.425 232.598 372.401C232.598 376.378 235.821 379.601 239.798 379.601Z" fill="#3FDE99"/>
<path d="M271.499 170.302C270.799 168.202 269.399 166.402 267.399 165.402C265.399 164.402 263.199 164.102 261.099 164.702C258.999 165.302 257.299 166.702 256.199 168.602C256.199 168.602 255.699 169.402 254.799 170.302C253.899 171.202 252.199 172.702 249.699 174.202C246.799 175.902 243.299 177.202 239.299 178.302C234.299 179.602 228.499 180.302 222.099 180.302C215.699 180.302 221.999 180.302 221.799 180.302C221.799 180.302 221.699 180.302 221.499 180.302C215.199 180.302 209.399 179.602 204.299 178.302C200.399 177.402 196.899 175.902 193.899 174.202C191.399 172.802 189.699 171.302 188.799 170.302C187.899 169.402 187.499 168.702 187.399 168.602C186.299 166.802 184.599 165.302 182.499 164.702C180.399 164.102 178.199 164.302 176.199 165.402C174.199 166.502 172.799 168.202 172.099 170.302C171.399 172.402 171.699 174.602 172.799 176.602C173.299 177.502 176.399 182.802 183.999 187.602C188.299 190.402 193.299 192.502 198.999 194.002C205.699 195.802 213.299 196.802 221.599 196.802C229.899 196.802 221.699 196.802 221.899 196.802C221.899 196.802 221.999 196.802 222.199 196.802C230.499 196.802 238.099 195.902 244.799 194.002C250.499 192.402 255.499 190.302 259.799 187.602C267.599 182.702 270.499 177.602 270.999 176.602C271.899 174.602 272.199 172.402 271.499 170.302Z" fill="#3FDE99"/>
<path d="M156 582.101C161.8 591.501 167.7 600.901 175.6 608.601C183.5 616.301 193.8 622.001 204.8 622.301C215.4 622.601 225.7 617.701 233.9 610.901C239.1 606.601 243.7 601.301 245.6 594.901C249.3 582.801 241.9 569.001 230.6 563.201C219.3 557.401 205.3 558.701 193.9 564.201C185.7 568.201 177.9 574.401 156 582.101Z" fill="#005894" stroke="#00324D" stroke-width="9" stroke-miterlimit="10" stroke-linecap="round" stroke-linejoin="round"/>
<path d="M92.3005 625.1C72.9005 617.9 51.8005 614.4 33.9005 604C16.0005 593.6 1.20048 573.3 6.00048 553.1C10.4005 534.9 29.7005 523.3 48.5005 522.1C67.2005 520.9 85.4005 527.9 102.6 535.5C151.2 557 197.4 584.1 239.8 616.1C194 640.6 137.4 641.9 92.3005 625.1Z" fill="#005894" stroke="#00324D" stroke-width="10" stroke-miterlimit="10" stroke-linecap="round" stroke-linejoin="round"/>
<path d="M276.1 579.101L393.3 511.301L166.5 491.301C166.5 491.301 87.8001 545.201 86.4001 550.201C85.6001 561.801 92.4001 572.101 100.3 576.201C108.2 580.301 117 579.601 125.4 578.801L276.1 579.101Z" fill="#02ABB0" stroke="#00324D" stroke-width="9" stroke-miterlimit="10" stroke-linecap="round" stroke-linejoin="round"/>
<path d="M273.301 552.7C282.801 547.8 292.301 542.9 301.801 538.1C306.301 535.8 311.201 533.1 313.001 528.4C315.501 522 311.101 514.8 305.601 510.7C293.601 501.8 274.801 503 265.001 514.3C255.401 525.7 257.701 545.7 273.301 552.7Z" fill="#3FDE99" stroke="#00324D" stroke-width="9" stroke-miterlimit="10" stroke-linecap="round" stroke-linejoin="round"/>
<path d="M364.801 437.999C382.101 432.899 400.101 430.599 418.101 430.999C424.801 452.699 427.601 475.599 426.301 498.299C426.001 503.399 425.401 508.799 422.501 513.099C416.901 521.299 405.501 522.2 395.601 522.4C375.101 522.7 354.601 522.999 334.301 520.799C332.501 520.599 330.601 520.399 328.801 520.799C327.101 521.199 325.601 522.099 324.101 522.799C314.901 526.799 302.901 521.599 299.801 511.799C293.601 514.199 292.001 523.299 285.701 525.299C279.801 527.199 273.901 521 273.601 514.9C273.301 508.8 276.601 503.1 279.801 497.9C277.201 500 276.901 503.8 275.801 506.9C274.701 510.1 271.001 513.199 268.301 511.199C267.101 510.299 266.601 508.699 266.301 507.199C264.401 498.999 263.101 490.7 262.301 482.4C262.101 480.5 262.001 478.6 262.801 476.9C263.701 475.2 265.401 474.099 267.201 473.299C280.501 466.699 297.401 468.199 309.401 476.999C314.101 480.399 318.301 484.999 324.001 486.099C329.701 487.199 335.401 484.499 340.801 482.299C357.601 475.599 376.001 474 394.001 472.4C386.901 473 379.901 473.599 372.801 474.099C371.801 474.199 370.801 474.199 370.001 473.599C369.401 473.099 369.201 472.199 369.101 471.299C367.501 459.999 365.701 448.899 364.801 437.999Z" fill="#3FDE99" stroke="#00324D" stroke-width="9" stroke-miterlimit="10" stroke-linecap="round" stroke-linejoin="round"/>
<path d="M53.0996 409L62.5996 533.6C63.4996 544.9 72.3996 553.6 83.2996 553.7L246.6 555.9C258.9 556.1 268.8 545.3 268 532.6L261 410.2C261 387.1 249.7 385.3 249.7 385.3H74.7996C62.1996 384.9 52.0996 396 53.0996 409Z" fill="#02ABB0" stroke="#00324D" stroke-width="10" stroke-miterlimit="10" stroke-linecap="round" stroke-linejoin="round"/>
<path d="M160.598 463.5C167.06 463.5 172.298 458.261 172.298 451.8C172.298 445.338 167.06 440.1 160.598 440.1C154.137 440.1 148.898 445.338 148.898 451.8C148.898 458.261 154.137 463.5 160.598 463.5Z" fill="#3FDE99" stroke="#00324D" stroke-width="7" stroke-miterlimit="10" stroke-linecap="round" stroke-linejoin="round"/>
<path d="M170.699 616.1C169.799 619 134.099 622.3 116.599 626.6C97.3991 631.4 76.3991 637.3 65.0991 653.5C59.5991 661.3 57.1991 672.5 62.7991 680.2C67.4991 686.7 76.2991 688.8 84.2991 689.2C119.799 691 149.799 665.4 185.199 661.6C171.499 648.1 172.799 634 170.699 616.1Z" fill="#005894" stroke="#00324D" stroke-width="9" stroke-miterlimit="10" stroke-linecap="round" stroke-linejoin="round"/>
<path d="M213.102 661.4C233.002 672.7 253.602 682.7 274.802 691.1C280.702 693.4 286.802 695.7 293.102 695.7C299.402 695.7 306.102 693 309.202 687.5C313.602 679.7 309.502 669.9 304.802 662.3C299.602 653.9 293.602 646 286.902 638.6C286.102 637.7 285.302 636.8 284.102 636.5C282.802 636.1 281.402 636.5 280.102 636.9C266.202 641 252.202 645.1 238.302 649.3C226.902 652.7 215.302 656.1 213.102 661.4Z" fill="#005894" stroke="#00324D" stroke-width="9" stroke-miterlimit="10" stroke-linecap="round" stroke-linejoin="round"/>
<path d="M349.5 536.601C350.4 535.701 355.9 536.601 357.2 536.901C373.4 539.701 383.7 550.501 389.2 566.001C395 582.201 390.9 601.401 379.1 613.801C371.1 622.201 360.3 627.401 349.4 631.401C330.4 638.501 310.5 643.001 290.7 647.401C256.7 655.001 222.6 662.601 188.6 670.201C186.8 670.601 185 671.001 183.3 670.301C181.5 669.501 180.5 667.701 179.6 666.001C174.7 656.501 171.3 646.301 169.5 635.801C168.4 629.301 168.1 621.901 172.5 617.001C174.7 614.501 177.8 613.101 180.8 611.701C228.3 589.801 274.3 569.201 321.8 547.401C329.6 543.801 349.7 535.901 351.4 536.301C352.1 536.501 348.9 537.201 349.5 536.601Z" fill="#005894" stroke="#00324D" stroke-width="10" stroke-miterlimit="10" stroke-linecap="round" stroke-linejoin="round"/>
</svg>
