<svg width="524" height="846" viewBox="0 0 524 846" fill="none" xmlns="http://www.w3.org/2000/svg">
<path d="M457.999 323.801C472.899 322.001 487.999 321.801 502.999 323.101C506.899 323.401 510.899 323.901 514.199 325.801C519.999 329.001 522.399 335.601 522.999 341.701C523.799 349.501 522.599 357.401 521.399 365.101C517.699 388.601 513.999 412.201 510.299 435.701C509.399 441.401 508.299 447.401 504.099 451.601C498.499 457.201 489.199 458.001 480.799 458.201C464.799 458.701 448.799 458.601 432.699 458.001C425.899 457.701 418.599 457.201 413.299 453.301C409.599 450.601 407.499 446.601 405.799 442.701C398.599 425.801 398.299 407.201 400.399 389.201C402.599 370.301 407.599 351.101 419.899 335.701C424.399 330.101 429.999 324.901 437.199 322.301C444.299 319.701 453.099 320.001 457.999 323.801Z" fill="#005894"/>
<path d="M468.299 466.701C472.799 519.101 467.899 573.101 454.199 622.101C451.299 632.501 445.799 644.401 438.199 642.501" fill="#005894"/>
<path d="M468.299 466.701C472.799 519.101 467.899 573.101 454.199 622.101C451.299 632.501 445.799 644.401 438.199 642.501" stroke="#005894" stroke-width="9" stroke-miterlimit="10" stroke-linecap="round" stroke-linejoin="round"/>
<path d="M207.398 649.102C207.398 639.202 215.498 631.102 225.398 631.102H461.398C471.298 631.102 479.398 639.202 479.398 649.102C479.398 659.002 471.298 667.102 461.398 667.102H225.398C215.498 667.102 207.398 659.002 207.398 649.102Z" fill="#005894" stroke="#005894" stroke-width="9" stroke-miterlimit="10" stroke-linecap="round" stroke-linejoin="round"/>
<path d="M328.299 667.501C323.799 714.701 320.199 762.001 317.699 809.401C317.399 815.601 318.599 823.901 324.399 824.601C330.399 825.301 333.199 817.101 333.899 810.701C339.499 763.001 344.999 715.401 350.599 667.701C341.799 661.601 328.699 662.901 328.299 667.501Z" fill="#005894" stroke="#005894" stroke-width="9" stroke-miterlimit="10" stroke-linecap="round" stroke-linejoin="round"/>
<path d="M423.599 673.802C430.699 723.302 438.699 772.802 447.699 822.002C448.899 828.402 452.099 836.702 457.899 836.102C463.899 835.502 464.599 826.402 463.799 819.702C457.599 769.502 451.499 719.202 445.299 669.002C435.299 664.602 422.899 669.002 423.599 673.802Z" fill="#005894" stroke="#005894" stroke-width="9" stroke-miterlimit="10" stroke-linecap="round" stroke-linejoin="round"/>
<path d="M352.8 264.5C352.8 282.9 339.2 302.5 320.8 316.7C305.7 328.4 296.7 332.4 290.1 339.5L289.2 340.3C252.1 317.4 255.6 264.5 255.6 264.5" fill="#3FDE99"/>
<path d="M257.201 280.3C257.201 280.3 281.201 292.1 302.201 295.1C323.401 298.1 341.801 296.5 341.801 296.5L354.601 264.5L254.301 263L257.101 280.3H257.201Z" fill="#2FBC7C"/>
<path d="M319.601 316.8C335.101 304.7 347.201 288.9 350.701 273.3L351.101 271.5C351.101 271.5 367.001 279.6 370.401 295.2C394.601 301.6 435.401 311.2 453.101 333.5C469.301 355.3 480.501 398.1 486.301 417.1C487.201 421 489.201 425.8 485.001 428.4C473.201 433.9 457.901 436.5 442.501 440.5C436.101 441.9 426.201 444.4 421.701 444C416.401 443.3 414.901 439.8 413.101 432.9C412.001 428.4 411.101 424.2 410.101 419.1C408.401 410.8 407.101 403.9 405.601 396.2C404.401 389.6 405.201 398 405.201 400.1C406.901 426.2 408.501 473 408.901 503.4C409.301 526.9 410.501 542.5 410.201 557.9C409.701 562 406.901 561.4 402.701 562.4C377.601 566.7 343.901 570.4 317.401 571.8C293.201 573.2 269.201 573.5 244.901 571C227.801 569.4 203.601 565.6 191.901 562.2C187.301 560.9 186.901 560.4 186.801 553.4C186.001 518.1 187.101 480 188.901 442.6V436.8C178.601 436.8 165.301 436.1 154.301 434.2C148.801 433.2 142.801 432.4 138.601 429.9C136.401 428.5 136.101 426.5 136.801 423.2C140.601 408.3 146.501 389.5 151.901 374.2C158.101 357.7 164.101 339.6 177.201 328.1C193.701 313.3 217.301 304.2 238.301 300.3L240.301 295.3C244.501 286 255.601 280.4 255.601 280.4V281.8C257.801 299.4 265.101 325.8 288.601 340.4L290.201 338.8C296.801 332.2 305.601 328.1 320.201 316.8" fill="#005894"/>
<path d="M433.001 8.10156L467.901 23.4016C478.601 28.1016 485.301 38.7016 484.701 50.4016L477.701 226.002C477.201 237.802 469.401 248.002 458.101 251.702L423.301 263.002" fill="#2FBC7C"/>
<path d="M414.999 264.502H152.199C138.499 264.502 127.599 253.102 128.099 239.502L136.799 29.2016C137.299 16.4016 147.999 6.10156 160.899 6.10156H423.699C437.399 6.10156 448.299 17.5016 447.799 31.1016L439.099 241.402C438.599 254.302 427.899 264.502 414.999 264.502Z" fill="#3FDE99"/>
<path d="M160.1 214.901L166.8 54.6012C167.2 44.9012 175.2 37.2012 185.1 37.2012H397.8C408.2 37.2012 416.5 45.9012 416.1 56.2012L409.4 216.501C409 226.201 401 233.901 391.1 233.901H178.4C168 233.901 159.7 225.201 160.1 214.901Z" fill="#005B96"/>
<path d="M421.998 56.2004C422.298 49.5004 419.898 43.2004 415.298 38.4004C410.698 33.5004 404.398 30.9004 397.698 30.9004H184.998C171.798 30.9004 161.198 41.1004 160.698 54.2004L153.998 214.5C153.698 221.2 156.098 227.5 160.698 232.3C165.298 237.2 171.598 239.8 178.298 239.8H390.998C404.198 239.8 414.798 229.6 415.298 216.5L421.998 56.2004ZM403.198 216.2C402.898 222.8 397.498 227.9 391.098 227.9H178.398C175.098 227.9 171.998 226.6 169.598 224.2C167.198 221.8 165.998 218.7 166.198 215.3L172.898 55.0004C173.198 48.4004 178.598 43.3004 184.998 43.3004H397.698C400.998 43.3004 404.098 44.6004 406.498 47.0004C408.898 49.4004 410.098 52.5004 409.898 55.9004L403.198 216.2Z" fill="#00324D"/>
<path d="M493.099 416.601C493.099 416.101 492.799 415.701 492.699 415.301C492.699 415.301 492.699 415.001 492.699 414.901C491.999 412.701 491.399 410.201 490.499 407.401C484.199 385.601 473.499 349.301 458.499 329.101C458.499 329.101 458.499 329.101 458.499 329.001C440.599 306.501 402.399 296.401 377.299 289.701C376.899 289.701 376.399 289.401 375.999 289.301C372.999 280.801 367.199 274.601 362.299 270.601H415.199C418.899 270.601 422.299 269.901 425.599 268.801L460.299 257.501C471.799 253.801 480.299 244.301 483.099 232.901C483.399 233.001 483.6 233.101 483.9 233.101C484.2 230.101 484.499 227.201 484.799 224.201C484.899 223.101 484.999 222.001 484.999 220.901C484.799 220.801 484.599 220.801 484.299 220.701L491.099 50.8008C491.599 36.6008 483.599 23.8008 470.599 18.0008L437.199 3.30078C433.099 1.30078 428.6 0.300781 423.9 0.300781H160.999C144.699 0.300781 131.499 13.0008 130.899 29.1008L122.199 239.401C121.799 247.701 124.799 255.501 130.599 261.401C136.399 267.401 144.199 270.701 152.399 270.701H247.699C247.699 272.401 247.699 274.401 247.999 276.601C243.699 279.501 237.199 284.701 233.799 292.301C233.499 293.001 233.299 293.601 232.999 294.101C208.899 299.201 187.099 309.601 172.499 322.801C159.099 334.901 152.399 352.801 146.399 368.701L145.199 371.701C139.299 388.501 133.599 407.001 129.899 421.401C129.899 421.401 129.899 421.501 129.899 421.701C129.399 424.101 127.899 431.101 134.599 435.501C134.599 435.501 134.899 435.601 134.899 435.801C135.499 436.201 136.099 436.501 136.799 436.801C137.299 436.901 137.799 437.001 138.299 437.301C142.299 439.101 147.899 438.801 151.799 440.901C152.199 440.901 152.499 440.901 152.899 441.001C153.599 441.001 154.299 441.201 154.899 441.501C164.599 443.001 174.499 443.601 181.499 443.701C180.999 453.601 180.599 463.701 180.299 473.801C181.399 482.401 180.499 491.501 179.799 500.301C179.799 500.501 179.799 500.601 179.799 500.801V505.701C179.799 506.301 179.799 506.901 179.799 507.501C179.799 507.601 179.799 507.701 179.699 507.801C179.699 508.201 179.699 508.601 179.699 509.001C179.799 509.401 179.799 509.901 179.699 510.301C179.699 510.401 179.699 510.501 179.599 510.601C179.599 510.701 179.599 510.901 179.599 510.901C179.599 512.201 179.599 513.601 179.499 514.901C179.499 515.001 179.499 515.201 179.499 515.301C179.499 515.401 179.499 515.401 179.499 515.401C179.499 515.401 179.499 515.401 179.499 515.501C179.499 515.801 179.499 516.101 179.399 516.301C179.399 516.401 179.399 516.601 179.399 516.701C179.399 516.801 179.399 517.001 179.399 517.101C179.399 517.101 179.399 517.201 179.399 517.301C179.499 517.801 179.299 518.601 179.399 519.001C179.399 519.501 179.499 520.201 179.499 520.801C179.499 521.801 179.399 522.701 179.499 523.701C179.499 524.301 179.599 524.901 179.499 525.501C179.499 525.601 179.499 525.701 179.499 525.801V525.901C179.499 526.001 179.499 526.201 179.499 526.301C179.499 526.701 179.399 527.101 179.399 527.501C179.399 527.701 179.399 527.901 179.399 528.101V528.201C179.499 528.001 179.499 527.801 179.599 527.601C179.599 536.401 179.599 545.001 179.899 553.601C179.899 557.801 180.199 560.801 181.699 563.601C182.899 565.701 184.599 566.901 186.299 567.701C186.299 567.801 186.299 567.901 186.299 568.001C186.399 568.001 186.499 568.101 186.599 568.101C188.499 568.701 190.499 569.101 192.399 569.601C194.099 570.001 195.799 570.401 197.499 570.901C197.799 571.001 198.099 571.101 198.399 571.201C198.399 571.101 198.399 570.901 198.399 570.801C212.099 573.801 231.299 576.601 244.299 577.601C256.699 578.901 269.599 579.401 283.499 579.401C297.399 579.401 305.599 579.001 317.899 578.401C343.399 577.001 374.1 573.801 397.9 569.901C397.9 570.001 397.9 570.201 397.9 570.401C398 570.401 397.999 570.401 398.099 570.401C398.099 570.201 398.199 570.001 398.499 570.001C399.599 570.001 400.7 569.601 401.9 569.601C402.7 569.401 403.399 569.201 404.199 568.901C404.999 568.601 405.899 568.501 406.699 568.401C407.199 568.301 407.599 568.201 408.099 568.101H408.199C408.699 567.901 409.3 568.001 409.9 567.801C410.1 567.701 410.299 567.701 410.599 567.601C413.599 566.501 416.8 564.101 417.4 558.701V558.001C417.4 549.201 417.3 540.601 416.9 530.501C416.6 522.601 416.199 513.601 416.099 503.201C415.899 490.101 415.499 473.901 414.999 457.601C414.699 456.601 414.599 455.601 414.599 454.401C414.599 454.201 414.599 454.001 414.699 453.801C414.599 453.501 414.599 453.301 414.599 453.001C414.599 452.701 414.599 452.401 414.499 452.001C414.499 451.401 414.599 450.801 414.799 450.201C414.799 449.601 414.799 449.001 414.699 448.401C414.899 448.501 415.199 448.701 415.499 448.801C416.499 447.401 418.299 446.501 419.999 446.401C423.899 446.401 427.299 446.201 431.099 445.601C431.799 445.501 433.5 445.201 434.4 445.401C435.1 445.101 435.7 444.801 436.4 444.701C437.1 444.601 437.499 444.601 437.699 444.601C440.099 443.601 442.399 443.101 444.999 442.501C451.199 441.001 457.599 439.101 463.999 437.701C464.699 437.501 465.399 437.301 466.099 437.101C466.699 436.901 468.4 436.401 469.4 436.101C471.8 435.301 474.199 434.501 476.599 433.801C481.699 432.301 486.699 430.501 491.699 428.801C492.299 428.601 492.999 428.401 493.599 428.101C494.999 423.801 493.799 419.101 493.099 416.601ZM363.699 296.501C365.399 304.201 357.899 322.501 350.799 335.701L323.799 322.301C323.799 322.301 323.799 322.301 323.899 322.201C338.899 310.501 349.799 296.601 355.099 282.701C358.699 286.001 362.399 290.601 363.699 296.501ZM315.499 311.301H315.399C308.999 316.301 303.699 319.801 299.099 323.001C294.599 326.001 290.799 328.601 287.399 331.501C264.899 314.301 261.699 283.301 261.499 270.701H344.299C341.699 284.201 331.199 299.301 315.499 311.301ZM445.299 241.901L453.999 31.6008C453.999 28.8008 453.899 26.2008 453.299 23.7008L465.499 29.1008C473.899 32.8008 479.099 41.2008 478.799 50.3008L471.699 225.801C471.299 235.001 465.099 243.101 456.299 246.001L443.699 250.101C444.599 247.501 445.099 244.701 445.299 241.901ZM152.299 258.501C147.299 258.501 142.699 256.501 139.299 253.001C135.899 249.501 133.999 244.701 134.299 239.901L142.999 29.6008C143.399 19.9008 151.299 12.4008 160.999 12.4008H423.799C426.199 12.4008 428.499 12.9008 430.599 13.7008L431.099 14.0008C433.199 14.9008 434.999 16.2008 436.599 17.9008C439.999 21.4008 441.899 26.2008 441.599 31.0008L432.999 241.301C432.599 251.001 424.699 258.501 414.999 258.501H152.299ZM246.199 298.001C247.099 296.001 248.399 294.201 249.999 292.601C251.699 301.301 254.699 310.801 259.899 320.001L239.899 328.901C240.499 319.901 242.099 306.901 246.199 298.001ZM452.699 430.201C448.599 431.101 444.499 432.201 440.299 433.201C439.099 433.501 437.899 433.701 436.599 434.001C432.299 434.901 424.4 436.801 421.9 436.501L422.299 436.901C421.899 436.901 421.799 436.901 421.799 436.901C421.499 436.601 420.899 435.501 419.699 431.101C418.799 427.001 417.9 423.101 416.9 418.401V417.501C414.9 409.101 413.599 402.201 412.199 394.701C411.799 392.501 410.5 385.901 403.9 386.701C397.3 387.501 397.699 393.901 397.999 397.701V399.901C397.999 399.901 397.999 400.201 397.999 400.301C399.699 426.301 401.299 473.101 401.699 503.301C401.799 513.901 402.199 523.001 402.499 530.801C402.799 539.701 403.199 547.401 402.999 555.101C402.299 555.101 401.699 555.401 400.999 555.501C376.999 559.701 343.899 563.401 316.599 564.801C288.599 566.501 266.499 566.201 245.099 564.001C227.499 562.401 204.199 558.601 193.199 555.501V553.101C191.899 492.801 195.999 424.501 199.499 371.701C199.799 367.901 196.899 364.601 193.099 364.401C189.299 364.101 185.999 367.001 185.699 370.801C184.499 389.001 183.199 408.901 181.999 429.801C172.299 429.501 162.499 428.601 154.899 427.301L152.899 426.901C149.299 426.201 145.699 425.601 142.999 424.501C146.599 410.601 152.099 392.501 157.899 376.401L158.999 373.401C164.499 358.301 170.299 342.701 181.199 332.901C192.699 322.501 209.399 314.301 228.099 309.201C225.199 324.001 225.299 338.801 225.299 339.601C225.299 342.001 226.499 344.101 228.499 345.401C229.699 346.101 230.899 346.401 232.199 346.401C233.499 346.401 234.199 346.101 235.099 345.701L267.299 331.101C270.299 334.801 273.899 338.301 278.099 341.501C270.099 355.701 271.399 385.701 271.699 389.201C271.999 392.901 274.999 395.801 278.499 395.801H278.899C282.699 395.501 285.599 392.401 285.499 388.601C284.799 376.801 285.599 355.301 290.499 348.001C294.299 342.401 298.899 339.201 306.699 334.001C307.999 333.101 309.499 332.201 310.899 331.101L350.099 350.601C351.199 351.101 352.099 351.401 353.099 351.401C355.499 351.401 357.699 350.201 358.999 348.001C359.299 347.601 364.299 339.001 369.099 328.201C373.399 318.501 375.899 310.401 376.899 303.701C400.199 309.901 432.799 319.201 447.199 337.101C460.799 355.501 470.9 390.201 476.9 410.901C477.7 413.701 478.299 416.001 478.999 418.201C478.999 418.701 479.3 419.201 479.4 419.801C479.5 420.501 479.8 421.401 479.9 422.201C472.3 425.601 462.699 427.901 452.699 430.201Z" fill="#00324D"/>
<path d="M240.499 140.102C235.399 140.102 231.199 135.902 231.199 130.802V101.402C231.199 96.3016 235.399 92.1016 240.499 92.1016C245.599 92.1016 249.799 96.3016 249.799 101.402V130.802C249.799 135.902 245.599 140.102 240.499 140.102Z" fill="#3FDE99"/>
<path d="M334.101 140.102C329.001 140.102 324.801 135.902 324.801 130.802V101.402C324.801 96.3016 329.001 92.1016 334.101 92.1016C339.201 92.1016 343.401 96.3016 343.401 101.402V130.802C343.401 135.902 339.201 140.102 334.101 140.102Z" fill="#3FDE99"/>
<path d="M303.798 379.601C307.774 379.601 310.998 376.378 310.998 372.401C310.998 368.425 307.774 365.201 303.798 365.201C299.821 365.201 296.598 368.425 296.598 372.401C296.598 376.378 299.821 379.601 303.798 379.601Z" fill="#3FDE99"/>
<path d="M335.499 170.301C334.799 168.201 333.399 166.401 331.399 165.401C329.399 164.401 327.199 164.101 325.099 164.701C322.999 165.301 321.299 166.701 320.199 168.601C320.199 168.601 319.699 169.401 318.799 170.301C317.899 171.201 316.199 172.701 313.699 174.201C310.799 175.901 307.299 177.201 303.299 178.301C298.299 179.601 292.499 180.301 286.099 180.301C279.699 180.301 285.999 180.301 285.799 180.301C285.799 180.301 285.699 180.301 285.499 180.301C279.199 180.301 273.399 179.601 268.299 178.301C264.399 177.401 260.899 175.901 257.899 174.201C255.399 172.801 253.699 171.301 252.799 170.301C251.899 169.401 251.499 168.701 251.399 168.601C250.299 166.801 248.599 165.301 246.499 164.701C244.399 164.001 242.199 164.301 240.199 165.401C238.199 166.401 236.799 168.201 236.099 170.301C235.399 172.401 235.699 174.601 236.799 176.601C237.299 177.501 240.399 182.801 247.999 187.601C252.299 190.401 257.299 192.501 262.999 194.001C269.699 195.801 277.299 196.801 285.599 196.801C293.899 196.801 285.699 196.801 285.899 196.801C285.899 196.801 285.999 196.801 286.199 196.801C294.499 196.801 302.099 195.901 308.799 194.001C314.499 192.401 319.499 190.301 323.799 187.601C331.599 182.701 334.499 177.601 334.999 176.601C335.899 174.601 336.199 172.401 335.499 170.301Z" fill="#3FDE99"/>
<path d="M113.001 540.1C96.3008 544.6 79.2008 549.2 65.0008 560.1C50.8008 571 40.0008 589.6 42.0008 608.8C43.3008 620.7 49.2008 631.2 55.5008 640.8C71.2008 664.7 90.5008 685.6 112.301 702.5C120.801 709 129.601 715 138.401 720.9C152.101 730.1 165.801 739.3 179.501 748.5C180.001 748.8 180.401 749.1 181.001 749.1C181.701 749.1 182.401 748.6 183.001 748C190.101 741.5 197.101 734.9 204.201 728.4C210.501 722.6 216.901 716.6 221.201 708.8C199.401 692.7 177.001 675.9 163.101 651.2C159.901 645.5 157.101 639.2 157.201 632.4C157.201 624.3 161.401 616.8 166.901 611.6C172.401 606.4 179.101 603.2 185.901 600.3C217.801 586.7 251.801 579.4 286.001 578.7C285.901 578.7 285.801 578.7 285.701 578.7" fill="#005894"/>
<path d="M113.001 540.1C96.3008 544.6 79.2008 549.2 65.0008 560.1C50.8008 571 40.0008 589.6 42.0008 608.8C43.3008 620.7 49.2008 631.2 55.5008 640.8C71.2008 664.7 90.5008 685.6 112.301 702.5C120.801 709 129.601 715 138.401 720.9C152.101 730.1 165.801 739.3 179.501 748.5C180.001 748.8 180.401 749.1 181.001 749.1C181.701 749.1 182.401 748.6 183.001 748C190.101 741.5 197.101 734.9 204.201 728.4C210.501 722.6 216.901 716.6 221.201 708.8C199.401 692.7 177.001 675.9 163.101 651.2C159.901 645.5 157.101 639.2 157.201 632.4C157.201 624.3 161.401 616.8 166.901 611.6C172.401 606.4 179.101 603.2 185.901 600.3C217.801 586.7 251.801 579.4 286.001 578.7C285.901 578.7 285.801 578.7 285.701 578.7" stroke="#00324D" stroke-width="10" stroke-miterlimit="10" stroke-linecap="round" stroke-linejoin="round"/>
<path d="M99.1018 752.299C113.102 707.799 127.102 663.399 141.102 618.899C146.102 603.199 151.202 586.999 161.102 574.699C167.702 566.399 176.402 560.099 185.802 556.699C194.102 553.699 202.902 552.999 211.602 552.299C221.902 551.399 232.202 550.599 242.502 549.699C255.002 548.699 267.602 547.599 280.102 548.299C292.402 548.999 304.502 551.399 316.602 553.799C327.402 555.899 338.202 558.099 348.902 560.199C362.102 562.799 375.402 565.399 388.102 570.399C389.602 570.999 391.302 571.699 392.102 573.299C392.902 574.799 392.802 576.599 392.702 578.299C391.602 595.999 389.402 614.599 380.102 628.799C372.202 640.899 360.002 648.499 347.202 652.399C334.402 656.299 321.102 656.899 307.902 657.199C278.502 657.799 249.102 656.799 219.702 654.399C224.502 645.999 228.902 637.199 232.702 628.099C210.702 679.299 177.602 724.599 162.802 779.099C141.202 778.199 119.902 771.099 101.202 758.799C98.8018 757.199 96.2018 753.399 99.1018 752.299Z" fill="#005894" stroke="#00324D" stroke-width="10" stroke-miterlimit="10" stroke-linecap="round" stroke-linejoin="round"/>
<path d="M192.698 749.8C198.398 754.6 204.598 761 202.998 768.3C202.198 771.7 199.798 774.5 196.998 776.6C188.098 783.4 176.198 784 165.098 785.2C153.998 786.4 141.898 789 135.198 797.8C133.998 799.3 133.098 801.1 132.998 803C132.698 808.5 139.198 811.4 144.498 812.8C158.198 816.2 172.098 818.6 186.098 819.9C192.498 820.5 199.098 820.9 205.398 819.4C212.498 817.6 218.698 813.5 224.698 809.4C239.998 799.1 255.998 788.1 264.298 771.6C266.198 767.8 267.698 763.4 266.198 759.5C265.298 757 263.298 755 261.298 753.2C247.998 740.4 234.498 727.5 218.998 717.6C217.598 716.7 215.898 715.7 214.298 716.1C213.098 716.4 212.098 717.3 211.198 718.1C204.298 724.8 197.698 731.7 191.298 739C188.198 742.4 185.898 749.2 192.698 749.8Z" fill="#005894" stroke="#00324D" stroke-width="10" stroke-miterlimit="10" stroke-linecap="round" stroke-linejoin="round"/>
<path d="M106.398 768.199C96.0982 781.999 78.3982 787.499 61.5982 791.199C44.7982 794.899 27.0982 797.899 13.7982 808.799C9.09823 812.699 4.79823 818.999 7.19823 824.599C9.49823 829.799 15.9982 831.199 21.6982 831.999C33.9982 833.599 46.2982 835.299 58.5982 836.899C76.7982 839.299 95.1982 841.699 113.498 839.899C124.598 838.799 136.398 835.499 143.498 826.899C154.898 813.099 149.898 792.499 153.898 774.999C135.898 772.799 118.098 768.199 106.398 768.199Z" fill="#005894" stroke="#00324D" stroke-width="10" stroke-miterlimit="10" stroke-linecap="round" stroke-linejoin="round"/>
<path d="M108.599 772.4C101.299 782.1 90.4992 789.1 78.6992 791.9C97.6992 803.2 119.999 809 142.099 808.2C143.199 808.2 144.399 808.1 145.099 807.3C145.699 806.6 145.799 805.7 145.899 804.8C146.699 796.5 147.399 788.1 148.199 779.8C134.299 777.7 120.399 775.2 108.599 772.4Z" fill="#3FDE99"/>
<path d="M193 745.601C198 749.901 203.1 754.301 205.8 760.301C208.5 766.301 207.9 774.301 202.6 778.201C201.9 778.701 201 779.401 201.2 780.301C201.3 780.701 201.7 781.001 202.1 781.301C206.2 784.201 211.6 785.201 216.5 783.801C221.1 782.501 224.9 779.301 228.4 776.101C233.4 771.601 238.1 766.901 242.7 762.101C246.3 758.301 249.9 754.101 250.7 749.001C247.1 745.801 243.6 742.501 240 739.301C232.8 732.801 225.6 726.201 217.4 720.901C216.9 720.601 216.3 720.201 215.7 720.301C215.1 720.401 214.7 720.701 214.2 721.101C205.7 728.001 198.1 736.201 193 745.601Z" fill="#3FDE99"/>
<path d="M356.901 529.3C343.601 532.3 328.801 527.7 319.701 517.6C317.101 522 311.101 522.7 306.001 523C299.101 523.4 292.101 523.7 285.201 524.1C291.401 515.6 297.501 507 303.701 498.5C297.401 506.7 291.001 514.9 284.701 523.1C283.901 524.2 283.001 525.3 281.701 525.7C280.301 526.2 278.701 525.9 277.201 525.8C273.901 525.7 270.401 527.1 267.401 525.8C264.301 524.5 263.001 520.7 263.601 517.4C264.201 514.1 266.201 511.3 268.201 508.7C274.301 500.7 281.201 493.3 288.501 486.4C274.201 496.8 263.601 512.1 259.001 529C248.701 528.2 250.901 528.4 240.601 527.6C239.701 518.5 242.601 509.4 247.101 501.5C251.701 493.5 257.901 486.4 264.001 479.5C271.101 471.4 279.201 462.8 290.001 461.5C299.001 460.3 307.801 464.6 315.801 468.8C321.101 471.6 326.401 474.5 330.801 478.5C334.201 481.6 337.001 485.5 340.801 488.2C345.901 491.9 352.401 493.2 358.701 494.4C386.001 499.5 413.701 503 441.401 504.9C437.001 505.1 432.501 504.3 428.401 502.8L427.001 465C427.001 464.9 426.701 462.5 426.701 462.3C427.401 458.9 424.001 444.1 425.701 443.9C480.101 435.8 490.001 412.9 490.001 444.8C490.001 448.3 490.301 456.7 490.701 460.2C493.301 484.9 493.101 509.9 490.201 534.5C489.501 540.6 488.301 547.2 483.901 551.6C480.501 554.9 475.701 556.3 471.101 557.2C445.801 562.2 419.801 555.4 395.301 547.5C381.401 542.8 367.401 537.8 356.901 529.3Z" fill="#3FDE99" stroke="#00324D" stroke-width="10" stroke-miterlimit="10" stroke-linecap="round" stroke-linejoin="round"/>
<path d="M63.9023 535V530.8C63.9023 525.1 68.5023 520.4 74.3023 520.4H325.502C331.202 520.4 335.902 525 335.902 530.8V535C335.902 540.7 331.302 545.4 325.502 545.4H74.3023C68.5023 545.4 63.9023 540.7 63.9023 535Z" fill="#02ABB0" stroke="#00324D" stroke-width="9" stroke-miterlimit="10" stroke-linecap="round" stroke-linejoin="round"/>
<path d="M6.00114 405.1L15.5011 529.7C16.4011 541 25.3011 549.7 36.2011 549.8L199.501 552C211.801 552.2 221.701 541.4 220.901 528.7L213.901 406.3C213.901 383.2 202.601 381.4 202.601 381.4H27.7011C15.2011 381.1 5.10114 392.2 6.00114 405.1Z" fill="#02ABB0" stroke="#00324D" stroke-width="10" stroke-miterlimit="10" stroke-linecap="round" stroke-linejoin="round"/>
<path d="M117.102 450.201C123.564 450.201 128.802 444.963 128.802 438.501C128.802 432.039 123.564 426.801 117.102 426.801C110.641 426.801 105.402 432.039 105.402 438.501C105.402 444.963 110.641 450.201 117.102 450.201Z" fill="#3FDE99" stroke="#00324D" stroke-width="7" stroke-miterlimit="10" stroke-linecap="round" stroke-linejoin="round"/>
</svg>
