<svg width="367" height="766" viewBox="0 0 367 766" fill="none" xmlns="http://www.w3.org/2000/svg">
<path d="M259.147 201.6C259.147 215.6 248.847 230.6 234.847 241.4C223.347 250.3 216.547 253.4 211.547 258.8L210.847 259.4C182.647 241.9 185.347 201.6 185.347 201.6" fill="#3FDE99"/>
<path d="M186.548 213.6C186.548 213.6 204.748 222.6 220.748 224.9C236.848 227.2 250.848 226 250.848 226L260.548 201.6L184.348 200.4L186.448 213.6H186.548Z" fill="#2FBC7C"/>
<path d="M233.946 241.401C245.746 232.201 254.946 220.101 257.546 208.201L257.846 206.801C257.846 206.801 269.946 213.001 272.546 224.901C290.946 229.801 321.946 237.101 335.346 254.101C347.646 270.701 356.146 303.401 360.546 317.901C361.246 320.901 362.746 324.501 359.546 326.501C350.546 330.701 338.946 332.701 327.246 335.701C322.346 336.801 314.846 338.701 311.446 338.401C307.446 337.901 306.246 335.201 304.946 329.901C304.146 326.501 303.446 323.301 302.646 319.401C301.346 313.101 300.346 307.801 299.246 301.901C298.346 296.901 298.946 303.301 298.946 304.901C300.246 324.801 301.446 360.501 301.746 383.701C302.046 401.601 302.946 413.501 302.746 425.301C302.346 428.401 300.246 428.001 297.046 428.701C277.946 432.001 252.346 434.801 232.246 435.901C213.846 437.001 195.646 437.201 177.146 435.301C164.146 434.101 145.746 431.201 136.846 428.601C133.346 427.601 133.046 427.201 132.946 421.901C132.346 395.001 133.146 365.901 134.546 337.401V333.001C126.746 333.001 116.646 332.501 108.246 331.001C104.046 330.201 99.5465 329.601 96.3465 327.701C94.6465 326.601 94.4465 325.101 94.9465 322.601C97.8465 311.201 102.346 296.901 106.446 285.201C111.146 272.601 115.746 258.801 125.646 250.001C138.146 238.701 156.146 231.801 172.046 228.801L173.546 225.001C176.746 217.901 185.146 213.601 185.146 213.601V214.701C186.846 228.101 192.346 248.301 210.246 259.401L211.446 258.201C216.446 253.201 223.146 250.001 234.246 241.401" fill="#005894"/>
<path d="M188.647 702.9L191.847 731.5C192.247 734.7 190.647 737.8 187.947 739.5C182.047 743.1 170.147 748.9 150.647 751.9C120.947 756.4 103.047 755 99.9475 746.4C96.8475 737.8 112.747 726.7 124.747 720.9C136.847 715 150.647 702 150.647 702" fill="#005B96"/>
<path d="M265.247 706.6L258.347 746.8C257.847 750 259.147 753.2 261.947 754.9C266.947 758.1 276.447 762.1 291.047 760.4C301.847 759.1 309.047 757.2 313.747 755.6C317.947 754.1 320.147 749.5 318.747 745.3L304.847 705.5" fill="#005B96"/>
<path d="M210.147 474.099C210.147 474.099 203.747 525.699 199.947 578.799C196.147 631.899 194.447 701.499 194.447 701.499C194.447 701.499 182.747 705.599 167.947 704.899C153.147 704.199 141.047 697.299 141.047 697.299C141.047 697.299 139.647 638.299 138.247 552.799C136.847 467.299 138.247 428.499 138.247 428.499C138.247 428.499 160.747 436.499 204.847 436.499C248.947 436.499 298.947 428.199 298.947 428.199C298.947 428.199 298.647 484.899 303.847 570.699C309.047 656.599 311.747 702.399 311.747 702.399C311.747 702.399 301.447 709.299 288.347 709.299C275.247 709.299 259.747 704.899 259.747 704.899C259.747 704.899 251.847 653.799 242.547 591.399C233.247 528.999 220.447 475.499 220.447 475.499C220.447 475.499 215.847 475.099 210.347 473.899L210.147 474.099Z" fill="#005B96"/>
<path d="M320.146 5.90039L346.646 17.6004C354.746 21.2004 359.846 29.3004 359.446 38.2004L354.046 172.1C353.646 181.1 347.746 188.9 339.146 191.7L312.746 200.3" fill="#2FBC7C"/>
<path d="M306.447 201.6H106.747C96.3475 201.6 88.0475 192.9 88.4475 182.5L95.0474 22.1C95.4474 12.3 103.547 4.5 113.347 4.5H313.047C323.447 4.5 331.747 13.2 331.347 23.6L324.747 183.9C324.347 193.7 316.247 201.6 306.447 201.6Z" fill="#3FDE99"/>
<path d="M112.749 163.7L117.849 41.3996C118.149 33.9996 124.249 28.0996 131.749 28.0996H293.349C301.249 28.0996 307.549 34.6996 307.249 42.5996L302.149 164.9C301.849 172.3 295.749 178.2 288.249 178.2H126.649C118.749 178.2 112.449 171.6 112.749 163.7Z" fill="#005B96"/>
<path d="M311.746 42.6008C311.946 37.5008 310.146 32.7008 306.646 29.0008C303.146 25.3008 298.346 23.3008 293.246 23.3008H131.646C121.646 23.3008 113.546 31.1008 113.146 41.1008L108.046 163.401C107.846 168.501 109.646 173.301 113.146 177.001C116.646 180.701 121.446 182.701 126.546 182.701H288.146C298.146 182.701 306.246 174.901 306.646 164.901L311.746 42.6008ZM297.446 164.701C297.246 169.701 293.146 173.601 288.246 173.601H126.646C124.146 173.601 121.746 172.601 119.946 170.801C118.146 169.001 117.246 166.601 117.346 164.001L122.446 41.7008C122.646 36.7008 126.746 32.8008 131.646 32.8008H293.246C295.746 32.8008 298.146 33.8008 299.946 35.6008C301.746 37.4008 302.646 39.8008 302.546 42.4008L297.446 164.701Z" fill="#00324D"/>
<path d="M365.748 317.5C365.748 317.1 365.548 316.8 365.448 316.5C365.448 316.5 365.448 316.3 365.448 316.2C364.948 314.5 364.448 312.6 363.748 310.5C358.948 293.9 350.848 266.2 339.448 250.8C339.448 250.8 339.448 250.8 339.448 250.7C325.848 233.5 296.848 225.8 277.748 220.7C277.448 220.7 277.048 220.5 276.748 220.4C274.448 213.9 270.048 209.2 266.348 206.1H306.548C309.348 206.1 311.948 205.6 314.448 204.7L340.848 196.1C349.548 193.3 356.048 186 358.148 177.3C358.348 177.4 358.548 177.4 358.748 177.5C358.948 175.2 359.248 173 359.448 170.7C359.548 169.9 359.548 169 359.648 168.2C359.448 168.2 359.348 168.1 359.148 168.1L364.348 38.5C364.748 27.7 358.648 17.9 348.748 13.5L323.348 2.3C320.248 0.800003 316.848 0 313.248 0H113.448C101.048 0 91.0479 9.7 90.5479 22L83.9479 182.4C83.6479 188.7 85.9479 194.7 90.3479 199.2C94.7479 203.8 100.648 206.3 106.948 206.3H179.348C179.348 207.6 179.348 209.1 179.548 210.8C176.248 213 171.348 217 168.748 222.8C168.548 223.3 168.348 223.8 168.148 224.2C149.848 228.1 133.248 236 122.148 246.1C111.948 255.3 106.848 269 102.348 281.1L101.448 283.4C96.9479 296.2 92.6479 310.3 89.8479 321.3C89.8479 321.3 89.8479 321.4 89.8479 321.5C89.4479 323.3 88.3479 328.7 93.4479 332C93.4479 332 93.6479 332.1 93.6479 332.2C94.1479 332.5 94.5479 332.7 95.0479 332.9C95.4479 333 95.8479 333.1 96.1479 333.2C99.1479 334.6 103.448 334.3 106.448 336C106.748 336 107.048 336 107.248 336.1C107.748 336.1 108.348 336.3 108.848 336.5C116.248 337.7 123.748 338.1 129.048 338.2C128.648 345.8 128.348 353.4 128.148 361.2C129.148 369.5 127.848 378.3 127.348 386.5C127.348 386.8 127.348 387 127.348 387.3C127.348 389.1 127.348 390.9 127.148 392.6C126.748 396.5 127.148 400.5 126.948 404.5C127.148 403.7 127.348 403 127.548 402.2C127.548 408.9 127.548 415.5 127.748 422C127.748 425.2 127.948 427.5 129.148 429.6C130.048 431.2 131.348 432.1 132.648 432.7C132.348 444.9 131.648 483.9 132.748 553.1C134.148 637.6 135.548 697 135.548 697.6C135.548 699.2 136.448 700.7 137.848 701.5C138.048 701.6 139.548 702.5 142.048 703.6C137.148 707.8 129.648 713.5 122.948 716.8C117.448 719.5 90.5479 733.4 95.7479 748.1C98.4479 755.6 107.048 759.2 122.948 759.2C130.648 759.2 140.148 758.3 151.448 756.6C171.148 753.6 183.548 747.9 190.448 743.6C194.648 741 197.048 736.1 196.548 731.1L193.748 706.4C194.548 706.2 194.948 706 195.048 706C196.848 705.4 198.048 703.7 198.148 701.7C198.148 701 199.948 631.5 203.648 579.2C206.648 536.6 211.348 494.2 213.048 479.6C214.048 479.8 214.848 479.9 215.648 480C218.448 492.4 229.048 539.3 236.948 592.3C246.148 654 254.148 705.3 254.148 705.8C254.448 707.6 255.748 709.1 257.448 709.5C257.648 709.5 258.548 709.8 260.048 710.2L253.948 746.1C253.048 751.2 255.348 756.2 259.648 758.9C264.648 762.1 272.748 765.5 284.248 765.5C286.548 765.5 289.048 765.4 291.748 765C301.148 763.9 309.048 762.2 315.448 760C322.048 757.7 325.548 750.4 323.248 743.8L310.748 708C312.348 707.1 313.348 706.5 313.448 706.4C314.848 705.5 315.648 703.9 315.548 702.3C315.548 702.3 312.748 656.4 307.648 570.6C303.348 499.4 302.848 447.7 302.848 432.8C305.148 432 307.748 430.2 308.248 425.9V425.4C308.248 418.7 308.148 412.1 307.848 404.4C307.648 398.4 307.348 391.5 307.248 383.6C307.048 373.6 306.748 361.2 306.348 348.8C306.148 348.1 306.048 347.3 306.048 346.3C306.048 346.1 306.048 346 306.048 345.8C306.048 345.6 305.948 345.4 305.948 345.2C305.948 345 305.948 344.7 305.948 344.5C305.948 344 306.048 343.6 306.148 343.1C306.148 342.6 306.148 342.2 306.148 341.7C306.348 341.8 306.548 341.9 306.748 342C307.548 340.9 308.848 340.2 310.148 340.2C313.048 340.2 315.748 340.1 318.548 339.6C319.148 339.5 320.348 339.3 321.048 339.4C321.548 339.2 322.048 338.9 322.648 338.9C323.148 338.8 323.448 338.8 323.648 338.9C325.548 338.1 327.248 337.7 329.148 337.3C333.848 336.1 338.748 334.7 343.548 333.6C344.048 333.4 344.648 333.3 345.148 333.1C345.548 333 346.848 332.6 347.648 332.3C349.448 331.7 351.248 331.1 353.048 330.5C356.948 329.3 360.748 328 364.448 326.7C364.948 326.5 365.448 326.4 365.948 326.2C367.248 323.1 366.248 319.5 365.748 317.5ZM267.448 225.9C268.748 231.8 263.048 245.7 257.648 255.8L237.148 245.6C237.148 245.6 237.148 245.6 237.248 245.5C248.648 236.6 256.948 226 260.948 215.4C263.648 217.9 266.448 221.4 267.448 225.9ZM230.848 237.2C225.848 241 221.848 243.7 218.348 246.1C214.948 248.4 212.048 250.4 209.448 252.6C192.348 239.5 189.948 215.8 189.748 206.2H252.648C250.748 216.5 242.748 228 230.848 237.2ZM329.448 184.2L336.048 23.8C336.048 21.7 335.948 19.7 335.548 17.8L344.848 21.9C351.248 24.7 355.148 31.1 354.948 38.1L349.548 172C349.248 179 344.548 185.2 337.848 187.4L328.248 190.5C328.948 188.5 329.348 186.4 329.448 184.2ZM106.848 196.9C103.048 196.9 99.5479 195.4 96.9479 192.7C94.3479 190 92.9479 186.4 93.1479 182.7L99.7479 22.3C100.048 14.9 106.048 9.2 113.448 9.2H313.148C314.948 9.2 316.748 9.6 318.348 10.2L318.748 10.4C320.348 11.1 321.748 12.1 322.948 13.4C325.548 16.1 326.948 19.7 326.748 23.4L320.148 183.8C319.848 191.2 313.848 196.9 306.448 196.9H106.848ZM178.148 227C178.848 225.5 179.848 224.1 181.048 222.9C182.348 229.5 184.648 236.8 188.548 243.8L173.348 250.6C173.848 243.7 175.048 233.8 178.148 227ZM185.648 735.4L185.548 735.5C180.448 738.6 169.048 744.3 150.048 747.2C109.648 753.3 104.948 746.2 104.448 744.7C103.148 741.1 112.048 732.1 126.948 724.9C136.848 720.1 147.548 710.9 151.948 707C156.248 708.2 161.348 709.2 166.748 709.5H170.348C175.748 709.5 180.648 708.9 184.648 708.3L187.348 731.9C187.548 733.3 186.848 734.7 185.648 735.4ZM314.348 746.9C314.848 748.8 313.948 750.8 312.148 751.4C308.248 752.8 301.348 754.7 290.448 756C277.548 757.5 269.148 754.2 264.448 751.2C263.348 750.5 262.748 749.1 262.948 747.7L269.048 712.2C274.448 713.2 281.048 714.1 287.248 714.1C293.448 714.1 297.848 713 302.048 711.6L314.348 746.9ZM306.148 699.8L305.948 699.9C302.548 701.7 295.448 704.8 287.348 704.8C279.248 704.8 267.748 702.5 262.848 701.3C261.048 689.4 254.048 644 246.048 590.8C236.848 528.9 224.048 475.1 223.948 474.6C223.448 472.6 221.748 471.2 219.748 471.1C219.748 471.1 216.748 470.9 211.748 469.9C211.148 469.5 210.448 469.1 209.648 469H208.148C207.648 468.9 207.248 468.8 206.748 468.7C199.448 467 196.348 465 196.248 464.9C194.148 463.5 191.348 464 189.848 466.1C188.348 468.2 188.848 471.1 190.948 472.6C191.348 472.9 195.248 475.5 203.948 477.6C202.348 491.5 197.548 534.8 194.448 578.4C191.148 624.4 189.448 683.4 189.048 698C184.848 699.1 176.648 700.8 167.248 700.3C157.348 699.8 148.648 696.3 144.748 694.5C144.448 681.8 143.248 627 142.048 552.8C140.948 487.6 141.548 449.4 141.848 435.1C152.248 437.4 166.848 439.5 176.748 440.3C186.148 441.3 195.948 441.7 206.548 441.7C217.148 441.7 223.348 441.4 232.648 440.9C252.048 439.8 275.348 437.4 293.448 434.4C293.448 451.5 294.148 502.1 298.348 571C302.748 644.5 305.448 688.6 306.148 699.8ZM335.048 327.9C331.948 328.6 328.848 329.4 325.648 330.2C324.748 330.4 323.848 330.6 322.848 330.8C319.548 331.5 313.548 332.9 311.648 332.7L311.948 333C311.648 333 311.548 333 311.548 333C311.348 332.8 310.848 331.9 309.948 328.6C309.248 325.5 308.548 322.5 307.848 318.9V318.2C306.348 311.8 305.348 306.5 304.248 300.8C303.948 299.1 302.948 294.1 297.948 294.7C292.948 295.3 293.248 300.2 293.448 303.1V304.8C293.448 304.8 293.448 305 293.448 305.1C294.748 324.9 295.948 360.6 296.248 383.7C296.348 391.8 296.648 398.7 296.848 404.7C297.048 411.5 297.348 417.4 297.248 423.2C296.748 423.2 296.248 423.4 295.748 423.5C277.548 426.7 252.348 429.5 231.648 430.6C210.348 431.9 193.548 431.7 177.348 430C163.948 428.8 146.248 425.9 137.948 423.5V421.7C136.948 375.7 140.048 323.6 142.748 283.3C142.948 280.4 140.748 277.9 137.848 277.7C134.948 277.5 132.448 279.7 132.248 282.6C131.348 296.5 130.348 311.7 129.448 327.6C122.048 327.4 114.648 326.7 108.848 325.7L107.348 325.4C104.648 324.9 101.848 324.4 99.8479 323.6C102.548 313 106.748 299.2 111.148 286.9L111.948 284.6C116.148 273.1 120.548 261.2 128.848 253.7C137.548 245.8 150.248 239.5 164.448 235.6C162.248 246.9 162.348 258.2 162.348 258.8C162.348 260.6 163.248 262.2 164.748 263.2C165.648 263.7 166.548 264 167.548 264C168.548 264 169.048 263.8 169.748 263.5L194.248 252.4C196.548 255.2 199.248 257.9 202.448 260.3C196.348 271.1 197.348 294 197.548 296.7C197.748 299.5 200.048 301.7 202.748 301.7H203.048C205.948 301.5 208.148 299.1 208.048 296.2C207.548 287.2 208.148 270.8 211.848 265.2C214.748 260.9 218.248 258.5 224.148 254.5C225.148 253.8 226.248 253.1 227.348 252.3L257.148 267.2C257.948 267.6 258.648 267.8 259.448 267.8C261.248 267.8 262.948 266.9 263.948 265.2C264.148 264.9 267.948 258.3 271.648 250.1C274.948 242.7 276.848 236.5 277.548 231.4C295.248 236.1 320.048 243.2 330.948 256.9C341.248 270.9 348.948 297.4 353.548 313.2C354.148 315.3 354.648 317.1 355.148 318.8C355.148 319.2 355.348 319.6 355.448 320C355.548 320.5 355.748 321.2 355.848 321.8C349.948 324.4 342.648 326.1 335.048 327.9Z" fill="#00324D"/>
<path d="M173.846 106.6C169.946 106.6 166.746 103.4 166.746 99.5V77.1C166.746 73.2 169.946 70 173.846 70C177.746 70 180.946 73.2 180.946 77.1V99.5C180.946 103.4 177.746 106.6 173.846 106.6Z" fill="#3FDE99"/>
<path d="M244.948 106.6C241.048 106.6 237.848 103.4 237.848 99.5V77.1C237.848 73.2 241.048 70 244.948 70C248.848 70 252.048 73.2 252.048 77.1V99.5C252.048 103.4 248.848 106.6 244.948 106.6Z" fill="#3FDE99"/>
<path d="M285.147 726.699C279.947 726.699 276.747 725.599 276.547 725.499C274.747 724.899 273.847 722.899 274.447 721.199C275.047 719.399 276.947 718.499 278.747 719.099C278.847 719.099 284.447 720.899 292.747 719.099C294.547 718.699 296.447 719.799 296.847 721.699C297.247 723.499 296.147 725.399 294.247 725.799C290.847 726.599 287.747 726.899 285.147 726.899V726.699Z" fill="#00324D"/>
<path d="M221.949 289.301C224.987 289.301 227.449 286.838 227.449 283.801C227.449 280.763 224.987 278.301 221.949 278.301C218.912 278.301 216.449 280.763 216.449 283.801C216.449 286.838 218.912 289.301 221.949 289.301Z" fill="#3FDE99"/>
<path d="M246.048 129.699C245.548 128.099 244.448 126.699 242.948 125.999C241.448 125.199 239.748 124.999 238.148 125.499C236.548 125.999 235.248 126.999 234.448 128.499C234.448 128.499 234.048 129.099 233.348 129.799C232.648 130.499 231.348 131.599 229.448 132.799C227.248 134.099 224.548 135.099 221.548 135.899C217.748 136.899 213.348 137.399 208.448 137.399C203.548 137.399 208.348 137.399 208.248 137.399C208.248 137.399 208.148 137.399 208.048 137.399C203.248 137.399 198.848 136.899 194.948 135.899C191.948 135.199 189.348 134.099 187.048 132.799C185.148 131.699 183.848 130.599 183.148 129.799C182.448 129.099 182.148 128.599 182.048 128.499C181.248 127.099 179.948 125.999 178.348 125.499C176.748 124.999 175.048 125.199 173.548 125.999C172.048 126.799 170.948 128.099 170.448 129.699C169.948 131.299 170.148 132.999 170.948 134.499C171.348 135.199 173.648 139.199 179.448 142.899C182.748 144.999 186.548 146.599 190.848 147.799C195.948 149.199 201.748 149.899 208.048 149.899C214.348 149.899 208.148 149.899 208.248 149.899C208.248 149.899 208.348 149.899 208.448 149.899C214.748 149.899 220.548 149.199 225.648 147.799C229.948 146.599 233.748 144.999 237.048 142.899C242.948 139.199 245.148 135.299 245.548 134.499C246.348 132.899 246.548 131.199 246.048 129.699Z" fill="#3FDE99"/>
<path d="M13.5469 293C13.5469 285.5 15.9469 278.3 18.4469 271.2C20.4469 265.3 20.4469 257.3 26.5469 256C29.3469 255.4 35.1469 257.3 37.8469 258C61.5469 264.3 84.0469 275.2 103.447 290C112.547 296.9 121.347 305.4 123.947 316.4C126.547 304.5 138.547 297.5 149.447 292C162.947 285.2 176.647 278.6 190.847 273.3C201.847 269.3 236.147 264.5 236.147 264.5C236.147 264.5 248.347 276.2 251.847 287.3C252.047 288 252.247 288.7 251.947 289.4C251.547 290.1 250.747 290.4 249.947 290.7C209.747 303.6 168.447 312.7 127.247 321.6C120.747 323 114.247 324.4 107.647 324.4C85.3469 324.5 66.4469 309.2 46.4469 299.3C37.2469 294.8 27.5469 291.2 13.5469 293Z" fill="white" stroke="#00324D" stroke-width="9" stroke-miterlimit="10" stroke-linecap="square"/>
<path d="M84.1442 408.202C100.144 417.502 116.944 425.202 134.244 431.102C135.344 431.502 136.844 431.802 137.644 430.902C138.244 430.202 138.244 429.202 138.144 428.202C137.344 416.302 133.944 404.902 130.944 393.402C126.144 375.302 122.244 356.902 119.144 338.302C117.844 330.702 116.644 322.702 112.144 316.602C109.844 313.402 106.844 311.002 103.744 308.602C83.4442 293.002 60.7442 280.902 36.8442 273.102C28.6442 270.402 20.1442 268.202 11.5442 267.502C9.8442 267.402 7.8442 267.402 6.5442 268.702C5.6442 269.602 5.34421 271.002 5.14421 272.302C4.24421 279.502 7.74422 286.402 10.4442 293.102C19.0442 314.002 21.6442 337.002 27.2442 359.002C29.1442 366.402 31.4442 373.902 35.5442 380.302C43.1442 392.102 55.8442 398.702 68.3442 403.802C80.8442 408.902 93.9442 413.302 104.344 422.302" fill="#005894"/>
<path d="M84.1442 408.202C100.144 417.502 116.944 425.202 134.244 431.102C135.344 431.502 136.844 431.802 137.644 430.902C138.244 430.202 138.244 429.202 138.144 428.202C137.344 416.302 133.944 404.902 130.944 393.402C126.144 375.302 122.244 356.902 119.144 338.302C117.844 330.702 116.644 322.702 112.144 316.602C109.844 313.402 106.844 311.002 103.744 308.602C83.4442 293.002 60.7442 280.902 36.8442 273.102C28.6442 270.402 20.1442 268.202 11.5442 267.502C9.8442 267.402 7.8442 267.402 6.5442 268.702C5.6442 269.602 5.34421 271.002 5.14421 272.302C4.24421 279.502 7.74422 286.402 10.4442 293.102C19.0442 314.002 21.6442 337.002 27.2442 359.002C29.1442 366.402 31.4442 373.902 35.5442 380.302C43.1442 392.102 55.8442 398.702 68.3442 403.802C80.8442 408.902 93.9442 413.302 104.344 422.302" stroke="#00324D" stroke-width="9" stroke-miterlimit="10"/>
<path d="M282.343 399.202C239.043 406.602 196.143 416.002 153.843 427.102C155.343 390.602 139.643 355.002 135.243 318.602C134.843 315.702 134.643 312.402 136.443 310.002C138.143 307.702 141.143 306.702 143.943 305.802C178.843 294.702 215.943 289.102 253.143 289.302C256.343 289.302 259.643 289.402 262.343 290.802C267.643 293.402 269.343 299.402 270.443 304.702C273.643 319.702 276.843 334.702 279.943 349.702C283.843 367.002 287.543 384.902 282.343 399.202Z" fill="#005894" stroke="#00324D" stroke-width="9" stroke-miterlimit="10"/>
<path d="M130.745 431.402L113.645 323.902C113.045 320.002 115.645 316.302 119.645 315.702L126.345 314.602C130.245 314.002 133.945 316.602 134.545 320.602L151.645 428.102C152.245 432.002 149.645 435.702 145.645 436.302L138.945 437.402C135.045 438.002 131.345 435.302 130.745 431.402Z" fill="#005894" stroke="#00324D" stroke-width="8" stroke-miterlimit="10" stroke-linejoin="round"/>
<path d="M38.6446 402.501C38.3446 397.601 39.6446 393.501 40.8446 388.801C42.0446 384.101 44.9446 379.401 49.5446 377.001C50.9446 376.301 52.6446 375.701 54.2446 376.101C57.5446 376.801 58.5446 380.601 58.7446 383.601C59.6446 393.901 59.3446 404.301 57.8446 414.501C57.6446 407.801 57.6446 401.201 57.7446 394.501C57.8446 390.501 58.0446 386.301 60.4446 382.901C62.7446 379.501 68.0446 377.401 71.7446 379.501C74.1446 380.801 75.3446 383.401 75.5446 385.901C75.7446 388.401 75.1446 390.901 74.6446 393.301C73.1446 401.001 72.7446 408.901 73.4446 416.701C73.1446 408.301 72.8446 399.801 74.7446 391.601C75.4446 388.601 76.5446 385.401 79.1446 383.301C81.7446 381.201 86.2446 381.001 88.3446 383.401C89.7446 385.001 89.7446 387.201 89.6446 389.201C89.4446 398.301 89.1446 407.401 88.9446 416.501C88.9446 417.601 89.6446 419.101 90.7446 418.601C90.5446 411.801 90.3446 405.001 90.1446 398.301C90.1446 396.601 90.0446 394.801 90.8446 393.301C91.6446 391.701 93.4446 390.501 95.2446 390.801C96.4446 391.001 97.4446 391.801 98.1446 392.701C102.845 398.501 99.8446 407.001 103.045 413.501C106.645 420.801 116.345 423.401 124.645 426.201C125.345 426.401 125.945 426.601 126.445 427.101C127.545 428.101 127.245 429.901 126.445 431.101C124.745 433.601 121.545 435.001 118.445 435.901C104.545 440.001 89.3446 439.101 74.9446 436.801C69.8446 436.001 64.6446 435.001 60.2446 432.501C56.4446 430.401 52.4446 428.301 49.4446 425.201C45.1446 420.701 41.2446 417.201 39.7446 409.501C36.8446 394.601 38.8446 395.901 40.8446 386.601" fill="#3FDE99"/>
<path d="M38.6446 402.501C38.3446 397.601 39.6446 393.501 40.8446 388.801C42.0446 384.101 44.9446 379.401 49.5446 377.001C50.9446 376.301 52.6446 375.701 54.2446 376.101C57.5446 376.801 58.5446 380.601 58.7446 383.601C59.6446 393.901 59.3446 404.301 57.8446 414.501C57.6446 407.801 57.6446 401.201 57.7446 394.501C57.8446 390.501 58.0446 386.301 60.4446 382.901C62.7446 379.501 68.0446 377.401 71.7446 379.501C74.1446 380.801 75.3446 383.401 75.5446 385.901C75.7446 388.401 75.1446 390.901 74.6446 393.301C73.1446 401.001 72.7446 408.901 73.4446 416.701C73.1446 408.301 72.8446 399.801 74.7446 391.601C75.4446 388.601 76.5446 385.401 79.1446 383.301C81.7446 381.201 86.2446 381.001 88.3446 383.401C89.7446 385.001 89.7446 387.201 89.6446 389.201C89.4446 398.301 89.1446 407.401 88.9446 416.501C88.9446 417.601 89.6446 419.101 90.7446 418.601C90.5446 411.801 90.3446 405.001 90.1446 398.301C90.1446 396.601 90.0446 394.801 90.8446 393.301C91.6446 391.701 93.4446 390.501 95.2446 390.801C96.4446 391.001 97.4446 391.801 98.1446 392.701C102.845 398.501 99.8446 407.001 103.045 413.501C106.645 420.801 116.345 423.401 124.645 426.201C125.345 426.401 125.945 426.601 126.445 427.101C127.545 428.101 127.245 429.901 126.445 431.101C124.745 433.601 121.545 435.001 118.445 435.901C104.545 440.001 89.3446 439.101 74.9446 436.801C69.8446 436.001 64.6446 435.001 60.2446 432.501C56.4446 430.401 52.4446 428.301 49.4446 425.201C45.1446 420.701 41.2446 417.201 39.7446 409.501C36.8446 394.601 38.8446 395.901 40.8446 386.601" stroke="#00324D" stroke-width="7" stroke-miterlimit="10" stroke-linecap="round" stroke-linejoin="round"/>
<path d="M247.047 294.002C249.347 298.802 245.847 292.002 246.647 297.302C246.947 299.202 252.047 313.402 250.747 314.802C249.647 316.002 247.847 315.402 246.347 314.902C238.447 312.302 228.947 312.302 222.047 312.302C214.047 312.302 203.247 309.202 202.347 318.402C202.347 318.702 202.547 319.902 202.547 320.202C202.947 329.902 226.247 331.302 240.047 334.002C240.647 334.102 240.647 335.102 240.047 335.002C205.647 330.002 204.347 324.102 194.747 331.602C194.047 332.202 193.647 333.002 193.347 333.902C192.847 335.402 193.347 337.102 194.447 338.202C205.247 348.302 223.247 350.602 234.447 354.402C235.047 354.602 235.847 354.602 235.247 354.402L202.447 343.502C201.347 343.002 201.047 342.802 199.847 343.102C194.347 344.202 194.847 353.602 199.447 356.402C219.447 368.702 238.247 366.802 257.247 364.602C264.847 363.702 282.447 377.802 283.047 378.302C283.547 378.702 297.647 388.602 307.047 396.502C316.447 404.402 332.547 406.902 339.747 406.502C353.247 405.702 358.647 387.602 360.347 374.102C361.947 361.402 361.447 348.402 358.847 335.802C358.547 334.602 358.247 333.202 357.247 332.402C355.647 331.102 353.347 331.702 351.347 332.302C335.247 337.602 324.747 339.402 308.047 337.902C307.547 337.902 307.047 338.102 306.847 338.602C300.947 353.702 312.547 350.902 318.347 353.802C319.647 354.402 318.747 356.402 317.447 355.902C304.747 351.202 285.047 342.402 276.947 331.502C271.647 324.402 269.247 315.702 264.947 307.902C260.947 300.602 254.247 293.802 246.147 293.002C245.347 292.902 244.747 293.602 244.947 294.402C246.447 300.802 249.047 305.902 247.047 294.002Z" fill="#3FDE99" stroke="#00324D" stroke-width="7" stroke-miterlimit="10" stroke-linecap="round" stroke-linejoin="round"/>
</svg>
