<?xml version="1.0" encoding="utf-8"?>
<!-- Generator: Adobe Adobe Illustrator 24.2.0, SVG Export Plug-In . SVG Version: 6.00 Build 0)  -->
<svg version="1.1" xmlns="http://www.w3.org/2000/svg" xmlns:xlink="http://www.w3.org/1999/xlink" x="0px" y="0px" width="1000px"
	 height="1000px" viewBox="0 0 1000 1000" style="enable-background:new 0 0 1000 1000;" xml:space="preserve">
<style type="text/css">
	.st0{fill:#DBF3F5;}
	.st1{fill:#3FDE99;}
	.st2{fill:#2FBC7C;}
	.st3{fill:#005894;}
	.st4{fill:#005B96;}
	.st5{fill:#00324D;}
	.st6{fill:#FFFFFF;stroke:#00324D;stroke-width:9;stroke-linecap:square;stroke-miterlimit:10;}
	.st7{fill:#005894;stroke:#00324D;stroke-width:9;stroke-linecap:square;stroke-miterlimit:10;}
	.st8{fill:#2FBC7C;stroke:#00324D;stroke-width:9;stroke-linecap:square;stroke-miterlimit:10;}
	.st9{fill:#3FDE99;stroke:#00324D;stroke-width:9;stroke-linecap:square;stroke-miterlimit:10;}
	.st10{fill:#144761;stroke:#00324D;stroke-width:9;stroke-linecap:square;stroke-miterlimit:10;}
	.st11{fill:#005894;stroke:#00324D;stroke-width:9;stroke-miterlimit:10;}
	.st12{fill:#005894;stroke:#00324D;stroke-width:8;stroke-linejoin:round;stroke-miterlimit:10;}
	.st13{fill:#3FDE99;stroke:#00324D;stroke-width:7;stroke-linecap:round;stroke-linejoin:round;stroke-miterlimit:10;}
	.st14{fill:#005894;stroke:#00324D;stroke-width:7;stroke-linecap:round;stroke-linejoin:round;stroke-miterlimit:10;}
	.st15{fill:#145D82;stroke:#00324D;stroke-width:7;stroke-linecap:round;stroke-linejoin:round;stroke-miterlimit:10;}
	.st16{fill:#144761;stroke:#00324D;stroke-width:7;stroke-linecap:round;stroke-linejoin:round;stroke-miterlimit:10;}
	.st17{opacity:0.6784;fill:#144761;}
</style>
<g id="Layer_9">
	<path class="st0" d="M377.3,248.1c2.3,11.7-7.3,23-19.3,29.4c-12,6.4-26.2,9-39.7,13c-30.1,8.9-57.1,24.8-77.1,45.5
		c-5,5.1-9.7,10.9-9.9,17.5c-0.4,12.6,16.3,21.4,31.4,21.7s29.4-5.3,44.1-8.4c23.8-5,49.6-3.5,72.3,4.3
		c16.2,5.5,32.5,16.7,31.9,31.3c-0.7,15.8-20.3,25.9-37.8,32.1c-75.5,26.8-160.7,39.1-224.1,82.4c-30.3,20.7-55.4,53.5-43.7,84.6
		c7.2,19,26.4,32.8,44.7,45.6c31.1,21.6,62.1,43.3,93.2,64.9c12.6,8.8,26,18.7,28.7,32.1c1.9,9.3-1.8,18.7-6.8,27.1
		c-15.5,25.9-43.5,44.8-69,64.5c-7.9,6.1-16,12.8-18.7,21.5c-3.7,11.8,3.8,24.5,15.2,32.3c11.3,7.8,25.9,11.5,40.1,14.4
		c11.9,2.4,24.5,4.3,36.1,1.2c30.6-8.2,39.8-46.6,71.6-51.1c16.6-2.3,32.9,6.3,43.8,16.9c11,10.6,18.5,23.5,29.6,34
		c26,24.9,68.6,34.2,108.1,31.7c39.5-2.5,76.9-15.3,113.2-28.5c16.5-6,34.2-13,42.4-26.4c9.7-15.7,3.2-35.6,12-51.7
		c10.2-18.7,36.7-26.1,58.2-36.3c21.5-10.2,41.5-32.2,28.5-49.7c-12.3-16.4-44.8-15.1-57.1-31.5c-8.1-10.7-4-25.1,4.3-35.6
		c8.3-10.6,20.2-18.8,29.4-28.9c21.6-23.8,25.8-55.3,26.3-85.1c0.7-43.5-5.1-87.1-17-129.5c-3.2-11.3-7.3-23.2-17.6-31
		c-14.4-10.9-36.6-10.7-55.4-6.5c-18.8,4.3-36.5,12-55.9,14.1c-19.3,2.1-42-3.3-50-18.1c-6.8-12.5-0.4-27.8,10.8-37.9
		c11.2-10.1,26.6-16.2,41.3-22.4c42.1-17.8,82.5-38.3,120.8-61.2c15.2-9.1,30.7-19.3,37.2-33.9c11.3-25.5-9.3-52.5-28.9-74.2
		c-13.4-14.8-27.4-30-46.9-39.1c-23.7-11-52.1-11.3-79.2-11.4c-66.5-0.2-135.5,0-195.9,23.1c-12.5,4.8-26.5,16.1-19,25.7
		c7.2,9.3,25.5,4.5,36.6,10.7c13.2,7.3,7.2,26.1-6.7,32.5c-13.9,6.4-30.9,4.6-46.7,3.2c-15.8-1.4-33.5-1.6-45.5,7.1
		C349.4,223,351.1,243.5,377.3,248.1z"/>
</g>
<g id="Layer_2_1_">
	<path class="st1" d="M558.4,343.4c0,14-10.3,29-24.3,39.8c-11.5,8.9-18.3,12-23.3,17.4l-0.7,0.6c-28.2-17.5-25.5-57.8-25.5-57.8"/>
	<path class="st2" d="M485.8,355.4c0,0,18.2,9,34.2,11.3c16.1,2.3,30.1,1.1,30.1,1.1l9.7-24.4l-76.2-1.2l2.1,13.2H485.8z"/>
	<path class="st3" d="M533.2,383.3c11.8-9.2,21-21.3,23.6-33.2l0.3-1.4c0,0,12.1,6.2,14.7,18.1c18.4,4.9,49.4,12.2,62.8,29.2
		c12.3,16.6,20.8,49.3,25.2,63.8c0.7,3,2.2,6.6-1,8.6c-9,4.2-20.6,6.2-32.3,9.2c-4.9,1.1-12.4,3-15.8,2.7c-4-0.5-5.2-3.2-6.5-8.5
		c-0.8-3.4-1.5-6.6-2.3-10.5c-1.3-6.3-2.3-11.6-3.4-17.5c-0.9-5-0.3,1.4-0.3,3c1.3,19.9,2.5,55.6,2.8,78.8c0.3,17.9,1.2,29.8,1,41.6
		c-0.4,3.1-2.5,2.7-5.7,3.4c-19.1,3.3-44.7,6.1-64.8,7.2c-18.4,1.1-36.6,1.3-55.1-0.6c-13-1.2-31.4-4.1-40.3-6.7
		c-3.5-1-3.8-1.4-3.9-6.7c-0.6-26.9,0.2-56,1.6-84.5v-4.4c-7.8,0-17.9-0.5-26.3-2c-4.2-0.8-8.7-1.4-11.9-3.3
		c-1.7-1.1-1.9-2.6-1.4-5.1c2.9-11.4,7.4-25.7,11.5-37.4c4.7-12.6,9.3-26.4,19.2-35.2c12.5-11.3,30.5-18.2,46.4-21.2l1.5-3.8
		c3.2-7.1,11.6-11.4,11.6-11.4v1.1c1.7,13.4,7.2,33.6,25.1,44.7l1.2-1.2c5-5,11.7-8.2,22.8-16.8"/>
	<path class="st2" d="M619.4,147.8l26.5,11.7c8.1,3.6,13.2,11.7,12.8,20.6L653.3,314c-0.4,9-6.3,16.8-14.9,19.6l-26.4,8.6"/>
	<path class="st1" d="M605.7,343.4H406c-10.4,0-18.7-8.7-18.3-19.1l6.6-160.4c0.4-9.8,8.5-17.6,18.3-17.6h199.7
		c10.4,0,18.7,8.7,18.3,19.1L624,325.8C623.6,335.6,615.5,343.4,605.7,343.4z"/>
	<path class="st4" d="M412,305.5l5.1-122.3c0.3-7.4,6.4-13.3,13.9-13.3h161.6c7.9,0,14.2,6.6,13.9,14.5l-5.1,122.3
		c-0.3,7.4-6.4,13.3-13.9,13.3H425.9C418,320,411.7,313.4,412,305.5L412,305.5z"/>
	<path class="st5" d="M611,184.5c0.2-5.1-1.6-9.9-5.1-13.6c-3.5-3.7-8.3-5.7-13.4-5.7H430.9c-10,0-18.1,7.8-18.5,17.8l-5.1,122.3
		c-0.2,5.1,1.6,9.9,5.1,13.6s8.3,5.7,13.4,5.7h161.6c10,0,18.1-7.8,18.5-17.8L611,184.5L611,184.5z M596.7,306.5
		c-0.2,5-4.3,8.9-9.2,8.9H425.9c-2.5,0-4.9-1-6.7-2.8c-1.8-1.8-2.7-4.2-2.6-6.8l5.1-122.3c0.2-5,4.3-8.9,9.2-8.9h161.6
		c2.5,0,4.9,1,6.7,2.8s2.7,4.2,2.6,6.8L596.7,306.5L596.7,306.5z"/>
	<path class="st5" d="M665,459.4c0-0.4-0.2-0.7-0.3-1c0,0,0-0.2,0-0.3c-0.5-1.7-1-3.6-1.7-5.7c-4.8-16.6-12.9-44.3-24.3-59.7
		c0,0,0,0,0-0.1c-13.6-17.2-42.6-24.9-61.7-30c-0.3,0-0.7-0.2-1-0.3c-2.3-6.5-6.7-11.2-10.4-14.3h40.2c2.8,0,5.4-0.5,7.9-1.4
		l26.4-8.6c8.7-2.8,15.2-10.1,17.3-18.8c0.2,0.1,0.4,0.1,0.6,0.2c0.2-2.3,0.5-4.5,0.7-6.8c0.1-0.8,0.1-1.7,0.2-2.5
		c-0.2,0-0.3-0.1-0.5-0.1l5.2-129.6c0.4-10.8-5.7-20.6-15.6-25l-25.4-11.2c-3.1-1.5-6.5-2.3-10.1-2.3H412.7
		c-12.4,0-22.4,9.7-22.9,22l-6.6,160.4c-0.3,6.3,2,12.3,6.4,16.8c4.4,4.6,10.3,7.1,16.6,7.1h72.4c0,1.3,0,2.8,0.2,4.5
		c-3.3,2.2-8.2,6.2-10.8,12c-0.2,0.5-0.4,1-0.6,1.4c-18.3,3.9-34.9,11.8-46,21.9c-10.2,9.2-15.3,22.9-19.8,35l-0.9,2.3
		c-4.5,12.8-8.8,26.9-11.6,37.9c0,0,0,0.1,0,0.2c-0.4,1.8-1.5,7.2,3.6,10.5c0,0,0.2,0.1,0.2,0.2c0.5,0.3,0.9,0.5,1.4,0.7
		c0.4,0.1,0.8,0.2,1.1,0.3c3,1.4,7.3,1.1,10.3,2.8c0.3,0,0.6,0,0.8,0.1c0.5,0,1.1,0.2,1.6,0.4c7.4,1.2,14.9,1.6,20.2,1.7
		c-0.4,7.6-0.7,15.2-0.9,23c1,8.3-0.3,17.1-0.8,25.3c0,0.3,0,0.5,0,0.8c0,1.8,0,3.6-0.2,5.3c-0.4,3.9,0,7.9-0.2,11.9
		c0.2-0.8,0.4-1.5,0.6-2.3c0,6.7,0,13.3,0.2,19.8c0,3.2,0.2,5.5,1.4,7.6c0.9,1.6,2.2,2.5,3.5,3.1c0,1.8-0.1,4.3-0.2,7.4
		c2.9-0.5,6.1-0.6,9.3-0.2c0-1.8,0.1-3.4,0.1-4.7c10.4,2.3,25,4.4,34.9,5.2c9.4,1,19.2,1.4,29.8,1.4s16.8-0.3,26.1-0.8
		c15.4-0.9,33.2-2.6,48.9-4.7c4-1.5,8.3-2.4,12.6-2.9c3.7-1.2,7.5-1.8,11.5-2.2c1.3-1.1,2.3-2.8,2.6-5.3v-0.5c0-6.7-0.1-13.3-0.4-21
		c-0.2-6-0.5-12.9-0.6-20.8c-0.2-10-0.5-22.4-0.9-34.8c-0.2-0.7-0.3-1.5-0.3-2.5c0-0.2,0-0.3,0-0.5c0-0.2-0.1-0.4-0.1-0.6
		c0-0.2,0-0.5,0-0.7c0-0.5,0.1-0.9,0.2-1.4c0-0.5,0-0.9,0-1.4c0.2,0.1,0.4,0.2,0.6,0.3c0.8-1.1,2.1-1.8,3.4-1.8
		c2.9,0,5.6-0.1,8.4-0.6c0.6-0.1,1.8-0.3,2.5-0.2c0.5-0.2,1-0.5,1.6-0.5c0.5-0.1,0.8-0.1,1,0c1.9-0.8,3.6-1.2,5.5-1.6
		c4.7-1.2,9.6-2.6,14.4-3.7c0.5-0.2,1.1-0.3,1.6-0.5c0.4-0.1,1.7-0.5,2.5-0.8c1.8-0.6,3.6-1.2,5.4-1.8c3.9-1.2,7.7-2.5,11.4-3.8
		c0.5-0.2,1-0.3,1.5-0.5C666.5,464.9,665.5,461.3,665,459.4z M566.7,367.8c1.3,5.9-4.4,19.8-9.8,29.9l-20.5-10.2c0,0,0,0,0.1-0.1
		c11.4-8.9,19.7-19.5,23.7-30.1C562.9,359.8,565.7,363.3,566.7,367.8z M530.1,379.1L530.1,379.1c-5,3.8-9,6.5-12.5,8.9
		c-3.4,2.3-6.3,4.3-8.9,6.5c-17.1-13.1-19.5-36.8-19.7-46.4h62.9C550,358.4,542,369.9,530.1,379.1z M628.7,326.1L628.7,326.1
		l6.6-160.4c0-2.1-0.1-4.1-0.5-6l9.3,4.1c6.4,2.8,10.3,9.2,10.1,16.2l-5.4,133.9c-0.3,7-5,13.2-11.7,15.4l-9.6,3.1
		C628.2,330.4,628.6,328.3,628.7,326.1z M406.1,338.8c-3.8,0-7.3-1.5-9.9-4.2c-2.6-2.7-4-6.3-3.8-10l6.6-160.4
		c0.3-7.4,6.3-13.1,13.7-13.1h199.7c1.8,0,3.6,0.4,5.2,1l0.4,0.2c1.6,0.7,3,1.7,4.2,3c2.6,2.7,4,6.3,3.8,10l-6.6,160.4
		c-0.3,7.4-6.3,13.1-13.7,13.1H406.1z M477.4,368.9c0.7-1.5,1.7-2.9,2.9-4.1c1.3,6.6,3.6,13.9,7.5,20.9l-15.2,6.8
		C473.1,385.6,474.3,375.7,477.4,368.9z M634.3,469.8c-3.1,0.7-6.2,1.5-9.4,2.3c-0.9,0.2-1.8,0.4-2.8,0.6c-3.3,0.7-9.3,2.1-11.2,1.9
		l0.3,0.3c-0.3,0-0.4,0-0.4,0c-0.2-0.2-0.7-1.1-1.6-4.4c-0.7-3.1-1.4-6.1-2.1-9.7v-0.7c-1.5-6.4-2.5-11.7-3.6-17.4
		c-0.3-1.7-1.3-6.7-6.3-6.1c-5,0.6-4.7,5.5-4.5,8.4v1.7c0,0,0,0.2,0,0.3c1.3,19.8,2.5,55.5,2.8,78.6c0.1,8.1,0.4,15,0.6,21
		c0.2,6.8,0.5,12.7,0.4,18.5c-0.5,0-1,0.2-1.5,0.3c-18.2,3.2-43.4,6-64.1,7.1c-21.3,1.3-38.1,1.1-54.3-0.6
		c-13.4-1.2-31.1-4.1-39.4-6.5v-1.8c-1-46,2.1-98.1,4.8-138.4c0.2-2.9-2-5.4-4.9-5.6c-2.9-0.2-5.4,2-5.6,4.9
		c-0.9,13.9-1.9,29.1-2.8,45c-7.4-0.2-14.8-0.9-20.6-1.9l-1.5-0.3c-2.7-0.5-5.5-1-7.5-1.8c2.7-10.6,6.9-24.4,11.3-36.7l0.8-2.3
		c4.2-11.5,8.6-23.4,16.9-30.9c8.7-7.9,21.4-14.2,35.6-18.1c-2.2,11.3-2.1,22.6-2.1,23.2c0,1.8,0.9,3.4,2.4,4.4
		c0.9,0.5,1.8,0.8,2.8,0.8s1.5-0.2,2.2-0.5l24.5-11.1c2.3,2.8,5,5.5,8.2,7.9c-6.1,10.8-5.1,33.7-4.9,36.4c0.2,2.8,2.5,5,5.2,5h0.3
		c2.9-0.2,5.1-2.6,5-5.5c-0.5-9,0.1-25.4,3.8-31c2.9-4.3,6.4-6.7,12.3-10.7c1-0.7,2.1-1.4,3.2-2.2l29.8,14.9
		c0.8,0.4,1.5,0.6,2.3,0.6c1.8,0,3.5-0.9,4.5-2.6c0.2-0.3,4-6.9,7.7-15.1c3.3-7.4,5.2-13.6,5.9-18.7c17.7,4.7,42.5,11.8,53.4,25.5
		c10.3,14,18,40.5,22.6,56.3c0.6,2.1,1.1,3.9,1.6,5.6c0,0.4,0.2,0.8,0.3,1.2c0.1,0.5,0.3,1.2,0.4,1.8
		C649.2,466.3,641.9,468,634.3,469.8z"/>
	<path class="st1" d="M473.1,248.5c-3.9,0-7.1-3.2-7.1-7.1V219c0-3.9,3.2-7.1,7.1-7.1s7.1,3.2,7.1,7.1v22.4
		C480.2,245.3,477,248.5,473.1,248.5z"/>
	<path class="st1" d="M544.2,248.5c-3.9,0-7.1-3.2-7.1-7.1V219c0-3.9,3.2-7.1,7.1-7.1c3.9,0,7.1,3.2,7.1,7.1v22.4
		C551.3,245.3,548.1,248.5,544.2,248.5z"/>
	<circle class="st1" cx="527.1" cy="425.5" r="5.5"/>
	<path class="st1" d="M545.3,271.5c-0.5-1.6-1.6-3-3.1-3.7c-1.5-0.8-3.2-1-4.8-0.5s-2.9,1.5-3.7,3c0,0-0.4,0.6-1.1,1.3
		c-0.7,0.7-2,1.8-3.9,3c-2.2,1.3-4.9,2.3-7.9,3.1c-3.8,1-8.2,1.5-13.1,1.5s-0.1,0-0.2,0c0,0-0.1,0-0.2,0c-4.8,0-9.2-0.5-13.1-1.5
		c-3-0.7-5.6-1.8-7.9-3.1c-1.9-1.1-3.2-2.2-3.9-3c-0.7-0.7-1-1.2-1.1-1.3c-0.8-1.4-2.1-2.5-3.7-3s-3.3-0.3-4.8,0.5s-2.6,2.1-3.1,3.7
		s-0.3,3.3,0.5,4.8c0.4,0.7,2.7,4.7,8.5,8.4c3.3,2.1,7.1,3.7,11.4,4.9c5.1,1.4,10.9,2.1,17.2,2.1s0.1,0,0.2,0c0,0,0.1,0,0.2,0
		c6.3,0,12.1-0.7,17.2-2.1c4.3-1.2,8.1-2.8,11.4-4.9c5.9-3.7,8.1-7.6,8.5-8.4C545.6,274.8,545.8,273.1,545.3,271.5z"/>
</g>
<g id="Layer_6">
</g>
<g id="Layer_3">
	<path class="st6" d="M277.2,427.3c0.4-7.5,3.2-14.6,6-21.5c2.3-5.8,2.7-13.7,8.9-14.8c2.8-0.5,8.5,1.7,11.2,2.6
		c23.3,7.5,45.2,19.7,63.8,35.6c8.7,7.4,17.1,16.3,19,27.5c3.2-11.7,15.6-18.1,26.8-22.9c13.9-6,27.9-11.9,42.4-16.4
		c11.2-3.4,45.7-6.3,45.7-6.3s11.6,12.3,14.4,23.6c0.2,0.7,0.3,1.4,0,2.1c-0.4,0.7-1.2,1-2,1.2c-40.8,10.7-82.5,17.5-124.2,24.2
		c-6.5,1-13.1,2.1-19.7,1.7c-22.3-1.2-40.4-17.4-59.7-28.4C300.8,430.3,291.3,426.3,277.2,427.3z"/>
	<path class="st7" d="M821.1,534.7c-0.8-1.8-1.3-3.8-1.6-5.9c-0.3-2-0.5-3.9-0.4-5.7c0-1.6,0.2-3.3,0.6-5c0-0.2,0-0.5,0.1-0.7
		c0.4-2.9,1.9-7.5,4.2-11.6c-2.4-2-5.5-3.2-8.9-3.2H669.3c-7.8,0-14.2,6.4-14.2,14.2v15.7c0,7.8,6.4,14.2,14.2,14.2H815
		c4.1,0,7.7-1.8,10.3-4.6C823.5,540,822.1,537.4,821.1,534.7z"/>
	<path class="st8" d="M674.7,485.8v-15.7c0-7.8,6.4-14.2,14.2-14.2h78.1c7.8,0,14.2,6.4,14.2,14.2v15.7c0,7.8-6.4,14.2-14.2,14.2
		h-78.1C681.1,500,674.7,493.6,674.7,485.8z"/>
	<path class="st9" d="M814,433.1c0.7-1.7,2-3.8,3.7-5.7c-2-4.4-7.2-7.5-13.2-7.5H679.9c-7.8,0-14.2,5.2-14.2,11.6v12.8
		c0,6.4,6.4,11.6,14.2,11.6h124.6c4.8,0,9-1.9,11.5-4.9c-0.1-0.3-0.3-0.5-0.4-0.8C811.6,445.6,812.1,438,814,433.1z"/>
	<path class="st10" d="M806.6,407.2c-0.1-0.8-0.2-1.5-0.2-2.3c-0.2-5.1-0.4-10.3,1.5-15.1c0.6-1.5,1.3-2.9,2-4.3
		c0.4-1,0.9-2.1,1.4-3.1c0.6-1.3,1.2-2.5,1.9-3.6c-2.3-2.1-5.2-3.3-8.4-3.3h-98.5c-7.2,0-13.1,6.4-13.1,14.2v15.7
		c0,7.8,5.9,14.2,13.1,14.2h98.5c1.4,0,2.8-0.3,4.1-0.7c-0.7-1.6-1.3-3.4-1.7-5.6C806.8,411.3,806.6,409.2,806.6,407.2z"/>
	<path class="st6" d="M816.2,407.2c-0.1-0.8-0.2-1.5-0.2-2.3c-0.3-5.1-0.4-10.3,1.6-15.1c0.6-1.5,1.4-2.9,2.2-4.3
		c0.5-1,1-2.1,1.5-3.1c0.7-1.5,1.6-2.9,2.5-4.2c-2.8-1.7-6.1-2.7-9.7-2.7h-21.3c-10.7,0-19.3,8.7-19.3,19.3v5.4
		c0,10.7,8.7,19.3,19.3,19.3h21.3c1.6,0,3.2-0.2,4.7-0.6c-0.8-1.6-1.4-3.5-1.9-5.7C816.5,411.3,816.3,409.2,816.2,407.2z"/>
	<path class="st6" d="M814,433.1c1-2.4,3.3-5.7,6.3-8.2c-3.8-3-9-4.9-14.7-4.9h-17.8c-11.6,0-21.1,7.7-21.1,17.2v1.6
		c0,9.5,9.4,17.2,21.1,17.2h17.8c4.4,0,8.5-1.1,11.8-3c-0.8-0.8-1.4-1.7-1.8-2.7C811.6,445.6,812.1,438,814,433.1z"/>
	<path class="st6" d="M799.3,466.7c0.6-1,1.2-1.8,1.8-2.6c0.5-0.9,1.1-1.7,1.6-2.4c0.1-0.2,0.3-0.4,0.4-0.6
		c-3.7-3.2-8.5-5.2-13.8-5.2h-8.8c-11.6,0-21.1,9.4-21.1,21.1v1.9c0,11.6,9.4,21.1,21.1,21.1h8.8c3.6,0,7-0.9,9.9-2.5
		c-3.1-4.3-4.7-10.2-4.5-15.3C794.9,476.9,796.6,471.3,799.3,466.7z"/>
	<path class="st6" d="M821.1,534.7c-0.8-1.8-1.3-3.8-1.6-6c-0.3-2-0.5-3.9-0.4-5.7c0-1.6,0.2-3.3,0.6-5c0-0.2,0-0.5,0.1-0.7
		c0.3-2.7,1.7-6.9,3.8-10.8c-3.4-2.5-7.6-4-12.2-4h-17.8c-11.6,0-21.1,9.4-21.1,21.1v1.9c0,11.6,9.4,21.1,21.1,21.1h17.8
		c5.2,0,9.9-1.9,13.6-5.1C823.3,539.6,822,537.2,821.1,534.7z"/>
</g>
<g id="Layer_4">
	<path class="st11" d="M342.5,545.6c16,9.3,32.8,17,50.1,22.9c1.1,0.4,2.6,0.7,3.4-0.2c0.6-0.7,0.6-1.7,0.5-2.7
		c-0.8-11.9-4.2-23.3-7.2-34.8c-4.8-18.1-8.7-36.5-11.8-55.1c-1.3-7.6-2.5-15.6-7-21.7c-2.3-3.2-5.3-5.6-8.4-8
		c-20.3-15.6-43-27.7-66.9-35.5c-8.2-2.7-16.7-4.9-25.3-5.6c-1.7-0.1-3.7-0.1-5,1.2c-0.9,0.9-1.2,2.3-1.4,3.6
		c-0.9,7.2,2.6,14.1,5.3,20.8c8.6,20.9,11.2,43.9,16.8,65.9c1.9,7.4,4.2,14.9,8.3,21.3c7.6,11.8,20.3,18.4,32.8,23.5
		s25.6,9.5,36,18.5"/>
	<path class="st11" d="M538.4,548c-43.3,7.4-86.2,16.8-128.5,27.9c1.5-36.5-14.2-72.1-18.6-108.5c-0.4-2.9-0.6-6.2,1.2-8.6
		c1.7-2.3,4.7-3.3,7.5-4.2c34.9-11.1,72-16.7,109.2-16.5c3.2,0,6.5,0.1,9.2,1.5c5.3,2.6,7,8.6,8.1,13.9c3.2,15,6.4,30,9.5,45
		C539.8,515.8,543.5,533.6,538.4,548z"/>
</g>
<g id="Layer_5">
	<path class="st12" d="M390.5,568.1l-17.1-107.5c-0.6-3.9,2-7.6,6-8.2l6.7-1.1c3.9-0.6,7.6,2,8.2,6l17.1,107.5c0.6,3.9-2,7.6-6,8.2
		l-6.7,1.1C394.8,574.6,391.2,572,390.5,568.1z"/>
</g>
<g id="Layer_7">
	<path class="st13" d="M276.4,524.9c8.4,5.6,17.7,7.9,27.8,7c2.6-0.2,10.2-3,12.5-4.1c2.5-1.2,2.7-7.1,3.5-9.7
		c-2.2-0.8-5.2-2.5-7.8-1.7c-9.3,3.1-18.1,4.1-27.8,4.8c-1.9,0.1-5.1,0-6.9-0.4c-2.3-0.5-4.7,0.5-5.9-1.5c-3-5-4.9-10.6-5.5-16.4
		c0.7,3.8,1.4,7.6,3,11.2c1.6,3.5,6.1,5.3,9.6,7c3.4,1.6,5.8,0.7,9.6,0.5c7.5-0.3,21.6-6.2,26.4-2.1c0.3,0.2,0.2-0.5,0.4-0.7
		c1.1-1.2,3.4-4,4.1-5.4c0.8-1.8-0.9-2.4-1.5-4.3c-1.6-5-6.8-4.5-11-3.9c-12.3,1.7-24.8,1.3-37-1.2c-1.2-0.2-2.4-0.5-3.4-1.3
		c-1.1-0.9-1.5-2.4-1.8-3.7c-0.6-2.9-0.7-5.9-0.3-8.8c-0.8,3.7-1.6,7.8,0.5,10.9c1.5,2.2,4.1,3.3,6.6,4.1c8.7,2.6,18,1.8,26.9,1.2
		c3.6-0.2,7.1-1,10.4-2.5c1.5-0.7,3.1-1.6,3.8-3.1c0.7-1.7,0.2-3.6-0.5-5.2c-2.4-4.9-7.1-8.4-12.3-10.3c-5.1-1.9-10.7-2.4-16.1-2.8
		c-4-0.3-8.1-0.5-11.9,0.7c-3.8,1.2-7.3,4.3-7.8,8.3"/>
	<path class="st13" d="M602.8,477.9c-0.8,6.6-1.8,21,6.8,23.8c4.6,0.6,9.6,0.6,14.2,1.2c-21.2-2.6-16.2,0.3-63.2,7
		c-8.7-10-19.2-17.3-30.4-21.2c2,4.1,3.7,15.6,4.8,20.3c-11.9-1.1-24-3.5-33.8,5.8c-2.1,2-4.3,6-2.6,8.6c0.6,0.9,1.5,1.3,2.3,1.6
		c8.6,3.4,17.8,3.8,26.5,1.2c-5.3,1.9-10.9,2.4-16.4,1.5c-4-0.7-10-1.7-13.9-0.6c-3.9,1.1-5.6,5.6-4.6,10.8c1.2,6,7,7.3,11.6,7.4
		c49.1,0.9,98.2-0.7,147.2-5c1.1-0.1,2.3-0.2,3.3-1c1-0.9,1.7-2.3,2.1-3.8c3.4-12.9,4.4-20.1,3.9-35.9c-0.1-3.7-0.6-28.5-6-31.4
		c-13.4-0.8-30.3,3.1-30.3,3.1S603.2,474.6,602.8,477.9z"/>
</g>
<g id="Layer_8">
</g>
<g id="Layer_11">
	<rect x="184.9" y="575.9" class="st14" width="468.4" height="208"/>
	<rect x="211.8" y="575.9" class="st14" width="414.4" height="208"/>
	<rect x="240" y="625.3" class="st15" width="358.2" height="156"/>
	<rect x="653.2" y="575.9" class="st16" width="158" height="205.4"/>
	<path class="st16" d="M829.1,545.7H653.2v27.6h176v-27.4C829.2,545.8,829.1,545.7,829.1,545.7z"/>
	<rect x="184.9" y="578.6" class="st17" width="470.2" height="25"/>
</g>
<g id="Layer_10">
	<rect x="160.6" y="545.7" class="st16" width="512" height="27.6"/>
</g>
</svg>
