<svg width="355" height="767" viewBox="0 0 355 767" fill="none" xmlns="http://www.w3.org/2000/svg">
<path d="M246.799 202.1C246.799 216.1 236.499 231.1 222.499 241.9C210.999 250.8 204.199 253.9 199.199 259.3L198.499 259.9C170.299 242.4 172.999 202.1 172.999 202.1" fill="#3FDE99"/>
<path d="M174.2 214.1C174.2 214.1 192.4 223.1 208.4 225.4C224.5 227.7 238.5 226.5 238.5 226.5L248.2 202.1L172 200.9L174.1 214.1H174.2Z" fill="#2FBC7C"/>
<path d="M221.599 242C233.399 232.8 242.599 220.7 245.199 208.8L245.499 207.4C245.499 207.4 257.599 213.6 260.199 225.5C278.599 230.4 309.599 237.7 322.999 254.7C335.299 271.3 343.799 304 348.199 318.5C348.899 321.5 350.399 325.1 347.199 327.1C338.199 331.3 326.599 333.3 314.899 336.3C309.999 337.4 302.499 339.3 299.099 339C295.099 338.5 293.899 335.8 292.599 330.5C291.799 327.1 291.099 323.9 290.299 320C288.999 313.7 287.999 308.4 286.899 302.5C285.999 297.5 286.599 303.9 286.599 305.5C287.899 325.4 289.099 361.1 289.399 384.3C289.699 402.2 290.599 414.1 290.399 425.9C289.999 429 287.899 428.6 284.699 429.3C265.599 432.6 239.999 435.4 219.899 436.5C201.499 437.6 183.299 437.8 164.799 435.9C151.799 434.7 133.399 431.8 124.499 429.2C120.999 428.2 120.699 427.8 120.599 422.5C119.999 395.6 120.799 366.5 122.199 338V333.6C114.399 333.6 104.299 333.1 95.8988 331.6C91.6988 330.8 87.1988 330.2 83.9988 328.3C82.2988 327.2 82.0988 325.7 82.5988 323.2C85.4988 311.8 89.9988 297.5 94.0988 285.8C98.7988 273.2 103.399 259.4 113.299 250.6C125.799 239.3 143.799 232.4 159.699 229.4L161.199 225.6C164.399 218.5 172.799 214.2 172.799 214.2V215.3C174.499 228.7 179.999 248.9 197.899 260L199.099 258.8C204.099 253.8 210.799 250.6 221.899 242" fill="#005894"/>
<path d="M176.3 703.4L179.5 732C179.9 735.2 178.3 738.3 175.6 740C169.7 743.6 157.8 749.4 138.3 752.4C108.6 756.9 90.6998 755.5 87.5998 746.9C84.4998 738.3 100.4 727.2 112.4 721.4C124.5 715.5 138.3 702.5 138.3 702.5" fill="#005B96"/>
<path d="M252.9 707.2L246 747.4C245.5 750.6 246.799 753.8 249.599 755.5C254.599 758.7 264.1 762.7 278.7 761C289.5 759.7 296.7 757.8 301.4 756.2C305.6 754.7 307.8 750.1 306.4 745.9L292.5 706.1" fill="#005B96"/>
<path d="M197.8 474.699C197.8 474.699 191.4 526.299 187.6 579.399C183.8 632.499 182.1 702.099 182.1 702.099C182.1 702.099 170.4 706.199 155.6 705.499C140.8 704.799 128.7 697.899 128.7 697.899C128.7 697.899 127.3 638.899 125.9 553.399C124.5 467.899 125.9 429.099 125.9 429.099C125.9 429.099 148.4 437.099 192.5 437.099C236.6 437.099 286.6 428.799 286.6 428.799C286.6 428.799 286.3 485.499 291.5 571.299C296.7 657.199 299.4 702.999 299.4 702.999C299.4 702.999 289.1 709.899 276 709.899C262.9 709.899 247.4 705.499 247.4 705.499C247.4 705.499 239.5 654.399 230.2 591.999C220.9 529.599 208.1 476.099 208.1 476.099C208.1 476.099 203.5 475.699 198 474.499L197.8 474.699Z" fill="#005B96"/>
<path d="M307.798 6.5L334.298 18.2C342.398 21.8 347.498 29.9 347.098 38.8L341.698 172.7C341.298 181.7 335.398 189.5 326.798 192.3L300.398 200.9" fill="#2FBC7C"/>
<path d="M294.1 202.1H94.3998C83.9998 202.1 75.6998 193.4 76.0998 183L82.6998 22.6C83.0998 12.8 91.1998 5 101 5H300.7C311.1 5 319.4 13.7 319 24.1L312.4 184.5C312 194.3 303.9 202.1 294.1 202.1Z" fill="#3FDE99"/>
<path d="M100.401 164.2L105.501 41.8996C105.801 34.4996 111.901 28.5996 119.401 28.5996H281.001C288.901 28.5996 295.201 35.1996 294.901 43.0996L289.801 165.4C289.501 172.8 283.401 178.7 275.901 178.7H114.301C106.401 178.7 100.101 172.1 100.401 164.2Z" fill="#005B96"/>
<path d="M299.399 43.2004C299.599 38.1004 297.799 33.3004 294.299 29.6004C290.799 25.9004 285.999 23.9004 280.899 23.9004H119.299C109.299 23.9004 101.199 31.7004 100.799 41.7004L95.6986 164C95.4986 169.1 97.2986 173.9 100.799 177.6C104.299 181.3 109.099 183.3 114.199 183.3H275.799C285.799 183.3 293.899 175.5 294.299 165.5L299.399 43.2004ZM285.099 165.2C284.899 170.2 280.799 174.1 275.899 174.1H114.299C111.799 174.1 109.399 173.1 107.599 171.3C105.799 169.5 104.899 167.1 104.999 164.5L110.099 42.2004C110.299 37.2004 114.399 33.3004 119.299 33.3004H280.899C283.399 33.3004 285.799 34.3004 287.599 36.1004C289.399 37.9004 290.299 40.3004 290.199 42.9004L285.099 165.2Z" fill="#00324D"/>
<path d="M353.4 318.1C353.4 317.7 353.2 317.4 353.1 317.1C353.1 317.1 353.1 316.9 353.1 316.8C352.6 315.1 352.1 313.2 351.4 311.1C346.6 294.5 338.5 266.8 327.1 251.4C327.1 251.4 327.1 251.4 327.1 251.3C313.5 234.1 284.5 226.4 265.4 221.3C265.1 221.3 264.7 221.1 264.4 221C262.1 214.5 257.7 209.8 254 206.7H294.2C297 206.7 299.6 206.2 302.1 205.3L328.5 196.7C337.2 193.9 343.7 186.6 345.8 177.9C346 178 346.2 178 346.4 178.1C346.6 175.8 346.9 173.6 347.1 171.3C347.2 170.5 347.2 169.6 347.3 168.8C347.1 168.8 347 168.7 346.8 168.7L352 39.0996C352.4 28.2996 346.3 18.4996 336.4 14.0996L311 2.89961C307.9 1.39961 304.5 0.599609 300.9 0.599609H101.1C88.7003 0.599609 78.7003 10.2996 78.2003 22.5996L71.6003 183C71.3003 189.3 73.6003 195.3 78.0003 199.8C82.4003 204.4 88.3003 206.9 94.6003 206.9H167C167 208.2 167 209.7 167.2 211.4C163.9 213.6 159 217.6 156.4 223.4C156.2 223.9 156 224.4 155.8 224.8C137.5 228.7 120.9 236.6 109.8 246.7C99.6003 255.9 94.5003 269.6 90.0003 281.7L89.1003 284C84.6003 296.8 80.3003 310.9 77.5003 321.9C77.5003 321.9 77.5003 322 77.5003 322.1C77.1003 323.9 76.0003 329.3 81.1003 332.6C81.1003 332.6 81.3003 332.7 81.3003 332.8C81.8003 333.1 82.2003 333.3 82.7003 333.5C83.1003 333.6 83.5003 333.7 83.8003 333.8C86.8003 335.2 91.1003 334.9 94.1003 336.6C94.4003 336.6 94.7003 336.6 94.9003 336.7C95.4003 336.7 96.0003 336.9 96.5003 337.1C103.9 338.3 111.4 338.7 116.7 338.8C116.3 346.4 116 354 115.8 361.8C116.8 370.1 115.5 378.9 115 387.1C115 387.4 115 387.6 115 387.9C115 389.7 115 391.5 114.8 393.2C114.4 397.1 114.8 401.1 114.6 405.1C114.8 404.3 115 403.6 115.2 402.8C115.2 409.5 115.2 416.1 115.4 422.6C115.4 425.8 115.6 428.1 116.8 430.2C117.7 431.8 119 432.7 120.3 433.3C120 445.5 119.3 484.5 120.4 553.7C121.8 638.2 123.2 697.6 123.2 698.2C123.2 699.8 124.1 701.3 125.5 702.1C125.7 702.2 127.2 703.1 129.7 704.2C124.8 708.4 117.3 714.1 110.6 717.4C105.1 720.1 78.2003 734 83.4003 748.7C86.1003 756.2 94.7003 759.8 110.6 759.8C118.3 759.8 127.8 758.9 139.1 757.2C158.8 754.2 171.2 748.5 178.1 744.2C182.3 741.6 184.7 736.7 184.2 731.7L181.4 707C182.2 706.8 182.6 706.6 182.7 706.6C184.5 706 185.7 704.3 185.8 702.3C185.8 701.6 187.6 632.1 191.3 579.8C194.3 537.2 199 494.8 200.7 480.2C201.7 480.4 202.5 480.5 203.3 480.6C206.1 493 216.7 539.9 224.6 592.9C233.8 654.6 241.8 705.9 241.8 706.4C242.1 708.2 243.4 709.7 245.1 710.1C245.3 710.1 246.2 710.4 247.7 710.8L241.6 746.7C240.7 751.8 243 756.8 247.3 759.5C252.3 762.7 260.4 766.1 271.9 766.1C274.2 766.1 276.7 766 279.4 765.6C288.8 764.5 296.7 762.8 303.1 760.6C309.7 758.3 313.2 751 310.9 744.4L298.4 708.5C300 707.6 301 707 301.1 706.9C302.5 706 303.3 704.4 303.2 702.8C303.2 702.8 300.4 656.9 295.3 571.1C291 499.9 290.5 448.2 290.5 433.3C292.8 432.5 295.4 430.7 295.9 426.4V425.9C295.9 419.2 295.8 412.6 295.5 404.9C295.3 398.9 295 392 294.9 384.1C294.7 374.1 294.4 361.7 294 349.3C293.8 348.6 293.7 347.8 293.7 346.8C293.7 346.6 293.7 346.5 293.7 346.3C293.7 346.1 293.6 345.9 293.6 345.7C293.6 345.5 293.6 345.2 293.6 345C293.6 344.5 293.7 344.1 293.8 343.6C293.8 343.1 293.8 342.7 293.8 342.2C294 342.3 294.2 342.4 294.4 342.5C295.2 341.4 296.5 340.7 297.8 340.7C300.7 340.7 303.4 340.6 306.2 340.1C306.8 340 308 339.8 308.7 339.9C309.2 339.7 309.7 339.4 310.3 339.4C310.8 339.3 311.1 339.3 311.3 339.4C313.2 338.6 314.9 338.2 316.8 337.8C321.5 336.6 326.4 335.2 331.2 334.1C331.7 333.9 332.3 333.8 332.8 333.6C333.2 333.5 334.5 333.1 335.3 332.8C337.1 332.2 338.9 331.6 340.7 331C344.6 329.8 348.4 328.5 352.1 327.2C352.6 327 353.1 326.9 353.6 326.7C354.9 323.6 353.9 320 353.4 318.1ZM255.1 226.5C256.4 232.4 250.7 246.3 245.3 256.4L224.8 246.2C224.8 246.2 224.8 246.2 224.9 246.1C236.3 237.2 244.6 226.6 248.6 216C251.3 218.5 254.1 222 255.1 226.5ZM218.5 237.8C213.5 241.6 209.5 244.3 206 246.7C202.6 249 199.7 251 197.1 253.2C180 240.1 177.6 216.4 177.4 206.8H240.3C238.4 217.1 230.4 228.6 218.5 237.8ZM317.1 184.8L323.7 24.3996C323.7 22.2996 323.6 20.2996 323.2 18.3996L332.5 22.4996C338.9 25.2996 342.8 31.6996 342.6 38.6996L337.2 172.6C336.9 179.6 332.2 185.8 325.5 188L315.9 191.1C316.6 189.1 317 187 317.1 184.8ZM94.5003 197.5C90.7003 197.5 87.2003 196 84.6003 193.3C82.0003 190.6 80.6003 187 80.8003 183.3L87.4003 22.8996C87.7003 15.4996 93.7003 9.79961 101.1 9.79961H300.8C302.6 9.79961 304.4 10.1996 306 10.7996L306.4 10.9996C308 11.6996 309.4 12.6996 310.6 13.9996C313.2 16.6996 314.6 20.2996 314.4 23.9996L307.8 184.4C307.5 191.8 301.5 197.5 294.1 197.5H94.5003ZM165.8 227.6C166.5 226.1 167.5 224.7 168.7 223.5C170 230.1 172.3 237.4 176.2 244.4L161 251.2C161.5 244.3 162.7 234.4 165.8 227.6ZM173.3 736L173.2 736.1C168.1 739.2 156.7 744.9 137.7 747.8C97.3003 753.9 92.6003 746.8 92.1003 745.3C90.8003 741.7 99.7003 732.7 114.6 725.5C124.5 720.7 135.2 711.5 139.6 707.6C143.9 708.8 149 709.8 154.4 710.1H158C163.4 710.1 168.3 709.5 172.3 708.9L175 732.5C175.2 733.9 174.5 735.3 173.3 736ZM302 747.4C302.5 749.3 301.6 751.3 299.8 751.9C295.9 753.3 289 755.2 278.1 756.5C265.2 758 256.8 754.7 252.1 751.7C251 751 250.4 749.6 250.6 748.2L256.7 712.7C262.1 713.7 268.7 714.6 274.9 714.6C281.1 714.6 285.5 713.5 289.7 712.1L302 747.4ZM293.8 700.4L293.6 700.5C290.2 702.3 283.1 705.4 275 705.4C266.9 705.4 255.4 703.1 250.5 701.9C248.7 690 241.7 644.6 233.7 591.4C224.5 529.5 211.7 475.7 211.6 475.2C211.1 473.2 209.4 471.8 207.4 471.7C207.4 471.7 204.4 471.5 199.4 470.5C198.8 470.1 198.1 469.7 197.3 469.6H195.8C195.3 469.5 194.9 469.4 194.4 469.3C187.1 467.6 184 465.6 183.9 465.5C181.8 464.1 179 464.6 177.5 466.7C176 468.8 176.5 471.7 178.6 473.2C179 473.5 182.9 476.1 191.6 478.2C190 492.1 185.2 535.4 182.1 579C178.8 625 177.1 684 176.7 698.6C172.5 699.7 164.3 701.4 154.9 700.9C145 700.4 136.3 696.9 132.4 695.1C132.1 682.4 130.9 627.6 129.7 553.4C128.6 488.2 129.2 450 129.5 435.7C139.9 438 154.5 440.1 164.4 440.9C173.8 441.9 183.6 442.3 194.2 442.3C204.8 442.3 211 442 220.3 441.5C239.7 440.4 263 438 281.1 435C281.1 452.1 281.8 502.7 286 571.6C290.4 645 293.1 689.2 293.8 700.4ZM322.7 328.5C319.6 329.2 316.5 330 313.3 330.8C312.4 331 311.5 331.2 310.5 331.4C307.2 332.1 301.2 333.5 299.3 333.3L299.6 333.6C299.3 333.6 299.2 333.6 299.2 333.6C299 333.4 298.5 332.5 297.6 329.2C296.9 326.1 296.2 323.1 295.5 319.5V318.8C294 312.4 293 307.1 291.9 301.4C291.6 299.7 290.6 294.7 285.6 295.3C280.6 295.9 280.9 300.8 281.1 303.7V305.4C281.1 305.4 281.1 305.6 281.1 305.7C282.4 325.5 283.6 361.2 283.9 384.3C284 392.4 284.3 399.3 284.5 405.3C284.7 412.1 285 418 284.9 423.8C284.4 423.8 283.9 424 283.4 424.1C265.2 427.3 240 430.1 219.3 431.2C198 432.5 181.2 432.3 165 430.6C151.6 429.4 133.9 426.5 125.6 424.1V422.3C124.6 376.3 127.7 324.2 130.4 283.9C130.6 281 128.4 278.5 125.5 278.3C122.6 278.1 120.1 280.3 119.9 283.2C119 297.1 118 312.3 117.1 328.2C109.7 328 102.3 327.3 96.5003 326.3L95.0003 326C92.3003 325.5 89.5003 325 87.5003 324.2C90.2003 313.6 94.4003 299.8 98.8003 287.5L99.6003 285.2C103.8 273.7 108.2 261.8 116.5 254.3C125.2 246.4 137.9 240.1 152.1 236.2C149.9 247.5 150 258.8 150 259.4C150 261.2 150.9 262.8 152.4 263.8C153.3 264.3 154.2 264.6 155.2 264.6C156.2 264.6 156.7 264.4 157.4 264.1L181.9 253C184.2 255.8 186.9 258.5 190.1 260.9C184 271.7 185 294.6 185.2 297.3C185.4 300.1 187.7 302.3 190.4 302.3H190.7C193.6 302.1 195.8 299.7 195.7 296.8C195.2 287.8 195.8 271.4 199.5 265.8C202.4 261.5 205.9 259.1 211.8 255.1C212.8 254.4 213.9 253.7 215 252.9L244.8 267.8C245.6 268.2 246.3 268.4 247.1 268.4C248.9 268.4 250.6 267.5 251.6 265.8C251.8 265.5 255.6 258.9 259.3 250.7C262.6 243.3 264.5 237.1 265.2 232C282.9 236.7 307.7 243.8 318.6 257.5C328.9 271.5 336.6 298 341.2 313.8C341.8 315.9 342.3 317.7 342.8 319.4C342.8 319.8 343 320.2 343.1 320.6C343.2 321.1 343.4 321.8 343.5 322.4C337.6 325 330.3 326.7 322.7 328.5Z" fill="#00324D"/>
<path d="M161.498 107.2C157.598 107.2 154.398 104 154.398 100.1V77.6996C154.398 73.7996 157.598 70.5996 161.498 70.5996C165.398 70.5996 168.598 73.7996 168.598 77.6996V100.1C168.598 104 165.398 107.2 161.498 107.2Z" fill="#3FDE99"/>
<path d="M232.6 107.2C228.7 107.2 225.5 104 225.5 100.1V77.6996C225.5 73.7996 228.7 70.5996 232.6 70.5996C236.5 70.5996 239.7 73.7996 239.7 77.6996V100.1C239.7 104 236.5 107.2 232.6 107.2Z" fill="#3FDE99"/>
<path d="M272.799 727.299C267.599 727.299 264.399 726.199 264.199 726.099C262.399 725.499 261.499 723.499 262.099 721.799C262.699 719.999 264.599 719.099 266.399 719.699C266.499 719.699 272.099 721.499 280.399 719.699C282.199 719.299 284.099 720.399 284.499 722.299C284.899 724.099 283.799 725.999 281.899 726.399C278.499 727.199 275.399 727.499 272.799 727.499V727.299Z" fill="#00324D"/>
<path d="M209.602 289.9C212.639 289.9 215.102 287.438 215.102 284.4C215.102 281.363 212.639 278.9 209.602 278.9C206.564 278.9 204.102 281.363 204.102 284.4C204.102 287.438 206.564 289.9 209.602 289.9Z" fill="#3FDE99"/>
<path d="M233.701 130.199C233.201 128.599 232.101 127.199 230.601 126.499C229.101 125.699 227.401 125.499 225.801 125.999C224.201 126.499 222.901 127.499 222.101 128.999C222.101 128.999 221.701 129.599 221.001 130.299C220.301 130.999 219.001 132.099 217.101 133.299C214.901 134.599 212.201 135.599 209.201 136.399C205.401 137.399 201.001 137.899 196.101 137.899C191.201 137.899 196.001 137.899 195.901 137.899C195.901 137.899 195.801 137.899 195.701 137.899C190.901 137.899 186.501 137.399 182.601 136.399C179.601 135.699 177.001 134.599 174.701 133.299C172.801 132.199 171.501 131.099 170.801 130.299C170.101 129.599 169.801 129.099 169.701 128.999C168.901 127.599 167.601 126.499 166.001 125.999C164.401 125.499 162.701 125.699 161.201 126.499C159.701 127.299 158.601 128.599 158.101 130.199C157.601 131.799 157.801 133.499 158.601 134.999C159.001 135.699 161.301 139.699 167.101 143.399C170.401 145.499 174.201 147.099 178.501 148.299C183.601 149.699 189.401 150.399 195.701 150.399C202.001 150.399 195.801 150.399 195.901 150.399C195.901 150.399 196.001 150.399 196.101 150.399C202.401 150.399 208.201 149.699 213.301 148.299C217.601 147.099 221.401 145.499 224.701 143.399C230.601 139.699 232.801 135.799 233.201 134.999C234.001 133.499 234.201 131.799 233.701 130.199Z" fill="#3FDE99"/>
<path d="M319 350.999C295.9 346.299 272.2 341.399 252.1 329.099C245 324.699 238.3 319.499 230.7 315.999C223.1 312.499 214.1 310.799 206.4 313.999C197.6 317.599 192.2 326.599 187 334.299C185.6 336.299 185.3 338.999 186.3 341.199C188.6 345.899 194.3 344.399 198.1 341.899C203.2 338.599 207.5 334.099 210.6 328.899C206.4 333.999 201.1 339.199 201 341.499C206.6 345.699 215.4 344.799 220.1 339.599C221.2 338.399 222.5 336.899 224 337.399C224.5 337.599 225 337.999 225.4 338.399C248.2 360.099 275.4 377.099 304.9 387.999C315 391.699 326.9 394.599 335.9 388.799C344.1 383.599 346.9 372.899 347.1 363.199C347.3 352.399 346.6 350.599 343.6 331.299C343.3 329.299 341.5 323.099 341.5 323.099C341.5 323.099 334.1 325.899 332.2 326.199C320.7 328.299 310.5 330.499 300.4 332.799C299.9 344.999 291.7 345.799 319 350.999Z" fill="#3FDE99" stroke="#00324D" stroke-width="8" stroke-miterlimit="10" stroke-linecap="round" stroke-linejoin="round"/>
<path d="M12.1992 353.1V345C12.1992 341.5 14.9992 338.6 18.5992 338.6H217.899C221.399 338.6 224.299 341.4 224.299 345V353.1C224.299 356.6 221.499 359.5 217.899 359.5H18.4992C14.9992 359.4 12.1992 356.6 12.1992 353.1Z" fill="#02ABB0" stroke="#00324D" stroke-width="8" stroke-miterlimit="10" stroke-linecap="round" stroke-linejoin="round"/>
<path d="M4.60015 238.5L11.8001 333.6C12.5001 342.2 19.3001 348.8 27.6001 349L151.7 350.7C161 350.8 168.5 342.6 168 332.9L162.6 239.5C162.6 221.9 154 220.5 154 220.5H21.1001C11.5001 220.1 3.80015 228.6 4.60015 238.5Z" fill="#02ABB0" stroke="#00324D" stroke-width="8" stroke-miterlimit="10" stroke-linecap="round" stroke-linejoin="round"/>
<path d="M82.4 274.2C87.3153 274.2 91.3 270.216 91.3 265.3C91.3 260.385 87.3153 256.4 82.4 256.4C77.4847 256.4 73.5 260.385 73.5 265.3C73.5 270.216 77.4847 274.2 82.4 274.2Z" fill="#3FDE99" stroke="#00324D" stroke-width="7" stroke-miterlimit="10" stroke-linecap="round" stroke-linejoin="round"/>
<path d="M94.6011 361.3C90.4011 357.6 86.0011 353.6 84.2011 348.3C82.7011 344 83.4011 338.6 79.0011 335.7C72.2011 333 69.0011 339.8 69.1011 345.2C69.1011 350.6 70.9011 355.9 74.1011 360.3C71.3011 356.6 70.3011 351.9 69.5011 347.4C68.7011 342.6 69.3011 338 62.2011 332.4C53.2011 332.7 50.0011 339.8 50.7011 346.7C51.2011 351.3 54.5011 355.6 56.4011 359.8C53.2011 354.6 49.4011 350.1 49.7011 344C49.9011 340.7 51.8011 336.3 46.1011 333.8C40.7011 332.5 36.4011 336.6 35.0011 341.3C34.0011 344.8 34.4011 348.5 35.4011 352C37.7011 360.1 43.0011 367.3 50.0011 372C58.3011 377.4 68.4011 379.2 77.7011 382C85.1011 384.2 92.6011 385.7 100.301 386.5C102.501 386.7 106.901 386.4 106.901 386.4C106.901 386.4 110.701 383.7 112.001 381.8C115.201 377 117.201 371.5 117.801 365.7C118.001 364 117.901 361.8 116.401 360.9C115.701 360.5 114.901 360.4 114.101 360.4C107.501 359.9 100.801 359.4 94.2011 358.5C94.1011 358.4 94.0011 358.4 94.6011 361.3Z" fill="#3FDE99" stroke="#00324D" stroke-width="8" stroke-miterlimit="10" stroke-linecap="round" stroke-linejoin="round"/>
</svg>
