<?xml version="1.0" encoding="utf-8"?>
<!-- Generator: Adobe Adobe Illustrator 24.2.0, SVG Export Plug-In . SVG Version: 6.00 Build 0)  -->
<svg version="1.1" xmlns="http://www.w3.org/2000/svg" xmlns:xlink="http://www.w3.org/1999/xlink" x="0px" y="0px" width="1000px"
	 height="1000px" viewBox="0 0 1000 1000" style="enable-background:new 0 0 1000 1000;" xml:space="preserve">
<style type="text/css">
	.st0{fill:#DBF3F5;}
	.st1{fill:#3FDE99;}
	.st2{fill:#2FBC7C;}
	.st3{fill:#005894;}
	.st4{fill:#005B96;}
	.st5{fill:#00324D;}
	.st6{fill:#3FDE99;stroke:#00324D;stroke-width:8;stroke-linecap:round;stroke-linejoin:round;stroke-miterlimit:10;}
	.st7{fill:#DBF3F5;stroke:#00324D;stroke-width:8;stroke-linecap:round;stroke-linejoin:round;stroke-miterlimit:10;}
	.st8{fill:#00324D;stroke:#00324D;stroke-width:8;stroke-linecap:round;stroke-linejoin:round;stroke-miterlimit:10;}
	.st9{fill:none;stroke:#005894;stroke-width:8;stroke-linecap:round;stroke-linejoin:round;stroke-miterlimit:10;}
</style>
<g id="Layer_9">
	<path class="st0" d="M436.8,711.8c-27.1-28.4-29.9-73.1-55.5-102.8c-18.8-21.8-47.2-32.7-71.1-48.8c-46-31-76-84.7-75.3-139.6
		c0.6-54.9,33-109,82.6-133.9c23.3-11.7,49.4-17,73-28s46.1-30,50.1-55.4c2.4-15.5-2.3-31.2-1.5-46.9c0.8-16.9,8.1-33,18.2-46.6
		c30.4-41,84.8-59.7,136.3-58.2c27.2,0.8,56.5,7.7,73.8,28.5c15.5,18.5,18.5,44.7,33.1,63.9c9.9,13.1,24.3,21.9,38.4,30.4
		c20.9,12.7,41.8,25.4,62.7,38.1c15.4,9.4,31,18.8,44.5,30.7c36.4,31.9,55.8,80.4,56.8,128.4c0.9,48-15.5,95.4-41.6,136
		c-7.9,12.3-16.9,24.4-20.5,38.5c-9,35.2,17,68.6,28.6,103c14.2,42.3,1.5,96.6-39.1,116.3c-31.5,15.3-69.4,6.3-102.2-6.1
		s-66.2-28.1-101.3-25.3c-25.3,2-48.7,13.6-72.9,21.3c-24.2,7.7-52.2,11.2-73.8-2c-13.2-8-22.2-21.2-32.2-32.9
		C432.4,702.3,412.9,684.3,436.8,711.8z"/>
</g>
<g id="Layer_2_1_">
	<path class="st1" d="M657.8,407.1c0,14-10.3,29-24.3,39.8c-11.5,8.9-18.3,12-23.3,17.4l-0.7,0.6c-28.2-17.5-25.5-57.8-25.5-57.8"/>
	<path class="st2" d="M585.2,419.1c0,0,18.2,9,34.2,11.3c16.1,2.3,30.1,1.1,30.1,1.1l9.7-24.4l-76.2-1.2l2.1,13.2H585.2z"/>
	<path class="st3" d="M632.6,447c11.8-9.2,21-21.3,23.6-33.2l0.3-1.4c0,0,12.1,6.2,14.7,18.1c18.4,4.9,49.4,12.2,62.8,29.2
		c12.3,16.6,20.8,49.3,25.2,63.8c0.7,3,2.2,6.6-1,8.6c-9,4.2-20.6,6.2-32.3,9.2c-4.9,1.1-12.4,3-15.8,2.7c-4-0.5-5.2-3.2-6.5-8.5
		c-0.8-3.4-1.5-6.6-2.3-10.5c-1.3-6.3-2.3-11.6-3.4-17.5c-0.9-5-0.3,1.4-0.3,3c1.3,19.9,2.5,55.6,2.8,78.8c0.3,17.9,1.2,29.8,1,41.6
		c-0.4,3.1-2.5,2.7-5.7,3.4c-19.1,3.3-44.7,6.1-64.8,7.2c-18.4,1.1-36.6,1.3-55.1-0.6c-13-1.2-31.4-4.1-40.3-6.7
		c-3.5-1-3.8-1.4-3.9-6.7c-0.6-26.9,0.2-56,1.6-84.5v-4.4c-7.8,0-17.9-0.5-26.3-2c-4.2-0.8-8.7-1.4-11.9-3.3
		c-1.7-1.1-1.9-2.6-1.4-5.1c2.9-11.4,7.4-25.7,11.5-37.4c4.7-12.6,9.3-26.4,19.2-35.2c12.5-11.3,30.5-18.2,46.4-21.2l1.5-3.8
		c3.2-7.1,11.6-11.4,11.6-11.4v1.1c1.7,13.4,7.2,33.6,25.1,44.7l1.2-1.2c5-5,11.7-8.2,22.8-16.8"/>
	<path class="st4" d="M616.1,647.1c19.5-0.9,39-1.9,58.5-2.7c1.8-0.1,3.6-0.1,5.4-0.2c4.7-0.9,9.3-1.7,14-2.7
		c1.2-0.4,2.4-0.7,3.6-1.1c0-4.3,0-6.6,0-6.6s-50,8.3-94.1,8.3s-66.6-8-66.6-8s-0.1,2.1-0.2,6.2c0.8,0.1,1.5,0.3,2.3,0.4
		c7.1,1.4,14.3,2.6,21.5,3.7c3.6,0.5,7.2,0.9,10.8,1.2c9.6,1,19.1,1.4,28.7,1.8C605.3,647.4,610.7,647.3,616.1,647.1z"/>
	<path class="st4" d="M700.9,776.2c0.1,0.5,0.1,1.1,0.2,1.6c0.2,1.6,0.4,2.8,0.4,3.1C701.5,780.7,701.3,779.3,700.9,776.2z"/>
	<path class="st2" d="M718.8,211.5l26.5,11.7c8.1,3.6,13.2,11.7,12.8,20.6l-5.4,133.9c-0.4,9-6.3,16.8-14.9,19.6l-26.4,8.6"/>
	<path class="st1" d="M705.1,407.1H505.4c-10.4,0-18.7-8.7-18.3-19.1l6.6-160.4c0.4-9.8,8.5-17.6,18.3-17.6h199.7
		c10.4,0,18.7,8.7,18.3,19.1l-6.6,160.4C723,399.3,714.9,407.1,705.1,407.1z"/>
	<path class="st4" d="M511.4,369.2l5.1-122.3c0.3-7.4,6.4-13.3,13.9-13.3H692c7.9,0,14.2,6.6,13.9,14.5l-5.1,122.3
		c-0.3,7.4-6.4,13.3-13.9,13.3H525.3C517.4,383.7,511.1,377.1,511.4,369.2L511.4,369.2z"/>
	<path class="st5" d="M710.4,248.2c0.2-5.1-1.6-9.9-5.1-13.6c-3.5-3.7-8.3-5.7-13.4-5.7H530.3c-10,0-18.1,7.8-18.5,17.8L506.7,369
		c-0.2,5.1,1.6,9.9,5.1,13.6c3.5,3.7,8.3,5.7,13.4,5.7h161.6c10,0,18.1-7.8,18.5-17.8L710.4,248.2L710.4,248.2z M696.1,370.2
		c-0.2,5-4.3,8.9-9.2,8.9H525.3c-2.5,0-4.9-1-6.7-2.8c-1.8-1.8-2.7-4.2-2.6-6.8l5.1-122.3c0.2-5,4.3-8.9,9.2-8.9h161.6
		c2.5,0,4.9,1,6.7,2.8s2.7,4.2,2.6,6.8L696.1,370.2L696.1,370.2z"/>
	<path class="st5" d="M700.9,776.2c0.1,0.5,0.1,1.1,0.2,1.6c0.2,1.6,0.4,2.8,0.4,3.1C701.5,780.7,701.3,779.3,700.9,776.2z"/>
	<path class="st5" d="M606.6,647.4c2.2-0.1,4.3-0.1,6.5-0.2c8.1-0.4,16.1-0.8,24.2-1.1c17.3-1.3,36.4-3.4,51.8-5.9
		c0,0.6,0,1.2,0,1.9c0.6-0.1,1.3-0.3,1.9-0.4c1.6-0.5,3.2-1,4.8-1.4c0.9-0.3,1.8-0.5,2.7-0.8c0-0.3,0-0.7,0-1
		c2.3-0.8,4.9-2.6,5.4-6.9v-0.5c0-6.7-0.1-13.3-0.4-21c-0.2-6-0.5-12.9-0.6-20.8c-0.2-10-0.5-22.4-0.9-34.8
		c-0.2-0.7-0.3-1.5-0.3-2.5c0-0.2,0-0.3,0-0.5c0-0.2-0.1-0.4-0.1-0.6c0-0.2,0-0.5,0-0.7c0-0.5,0.1-0.9,0.2-1.4c0-0.5,0-0.9,0-1.4
		c0.2,0.1,0.4,0.2,0.6,0.3c0.8-1.1,2.1-1.8,3.4-1.8c2.9,0,5.6-0.1,8.4-0.6c0.6-0.1,1.8-0.3,2.5-0.2c0.5-0.2,1-0.5,1.6-0.5
		c0.5-0.1,0.8-0.1,1,0c1.9-0.8,3.6-1.2,5.5-1.6c4.7-1.2,9.6-2.6,14.4-3.7c0.5-0.2,1.1-0.3,1.6-0.5c0.4-0.1,1.7-0.5,2.5-0.8
		c1.8-0.6,3.6-1.2,5.4-1.8c3.9-1.2,7.7-2.5,11.4-3.8c0.5-0.2,1-0.3,1.5-0.5c1.2-3.3,0.3-6.9-0.2-8.8c0-0.4-0.2-0.7-0.3-1
		c0,0,0-0.2,0-0.3c-0.5-1.7-1-3.6-1.7-5.7c-4.8-16.6-12.9-44.3-24.3-59.7c0,0,0,0,0-0.1c-13.6-17.2-42.6-24.9-61.7-30
		c-0.3,0-0.7-0.2-1-0.3c-2.3-6.5-6.7-11.2-10.4-14.3h40.2c2.8,0,5.4-0.5,7.9-1.4l26.4-8.6c8.7-2.8,15.2-10.1,17.3-18.8
		c0.2,0.1,0.4,0.1,0.6,0.2c0.2-2.3,0.5-4.5,0.7-6.8c0.1-0.8,0.1-1.7,0.2-2.5c-0.2,0-0.3-0.1-0.5-0.1l5.2-129.6
		c0.4-10.8-5.7-20.6-15.6-25l-25.4-11.2c-3.1-1.5-6.5-2.3-10.1-2.3H509.1c-12.4,0-22.4,9.7-22.9,22l-6.6,160.4
		c-0.3,6.3,2,12.3,6.4,16.8c4.4,4.6,10.3,7.1,16.6,7.1H575c0,1.3,0,2.8,0.2,4.5c-3.3,2.2-8.2,6.2-10.8,12c-0.2,0.5-0.4,1-0.6,1.4
		c-18.3,3.9-34.9,11.8-46,21.9c-10.2,9.2-15.3,22.9-19.8,35l-0.9,2.3c-4.5,12.8-8.8,26.9-11.6,37.9c0,0,0,0.1,0,0.2
		c-0.4,1.8-1.5,7.2,3.6,10.5c0,0,0.2,0.1,0.2,0.2c0.5,0.3,0.9,0.5,1.4,0.7c0.4,0.1,0.8,0.2,1.1,0.3c3,1.4,7.3,1.1,10.3,2.8
		c0.3,0,0.6,0,0.8,0.1c0.5,0,1.1,0.2,1.6,0.4c7.4,1.2,14.9,1.6,20.2,1.7c-0.4,7.6-0.7,15.2-0.9,23c1,8.3-0.3,17.1-0.8,25.3
		c0,0.3,0,0.5,0,0.8c0,1.8,0,3.6-0.2,5.3c-0.4,3.9,0,7.9-0.2,11.9c0.2-0.8,0.4-1.5,0.6-2.3c0,6.7,0,13.3,0.2,19.8
		c0,3.2,0.2,5.5,1.4,7.6c0.9,1.6,2.2,2.5,3.5,3.1c0,0.3,0,0.7,0,1.1c2.6,0.4,5.2,0.9,7.7,1.4c0.5,0.1,1,0.2,1.5,0.3
		c0-0.1,0-0.2,0-0.3c10.4,2.3,25,4.4,34.9,5.2c9.4,1,19.2,1.4,29.8,1.4C603.7,647.5,605.2,647.5,606.6,647.4z M663.1,431.7
		c1.3,5.9-4.4,19.8-9.8,29.9l-20.5-10.2c0,0,0,0,0.1-0.1c11.4-8.9,19.7-19.5,23.7-30.1C659.3,423.7,662.1,427.2,663.1,431.7z
		 M626.5,443L626.5,443c-5,3.8-9,6.5-12.5,8.9c-3.4,2.3-6.3,4.3-8.9,6.5c-17.1-13.1-19.5-36.8-19.7-46.4h62.9
		C646.4,422.3,638.4,433.8,626.5,443z M725.1,390L725.1,390l6.6-160.4c0-2.1-0.1-4.1-0.5-6l9.3,4.1c6.4,2.8,10.3,9.2,10.1,16.2
		l-5.4,133.9c-0.3,7-5,13.2-11.7,15.4l-9.6,3.1C724.6,394.3,725,392.2,725.1,390z M502.4,402.7c-3.8,0-7.3-1.5-9.9-4.2
		c-2.6-2.7-4-6.3-3.8-10l6.6-160.4c0.3-7.4,6.3-13.1,13.7-13.1h199.7c1.8,0,3.6,0.4,5.2,1l0.4,0.2c1.6,0.7,3,1.7,4.2,3
		c2.6,2.7,4,6.3,3.8,10l-6.6,160.4c-0.3,7.4-6.3,13.1-13.7,13.1H502.4z M573.8,432.8c0.7-1.5,1.7-2.9,2.9-4.1
		c1.3,6.6,3.6,13.9,7.5,20.9l-15.2,6.8C569.5,449.5,570.7,439.6,573.8,432.8z M573,635.8c-13.4-1.2-31.1-4.1-39.4-6.5v-1.8
		c-1-46,2.1-98.1,4.8-138.4c0.2-2.9-2-5.4-4.9-5.6c-2.9-0.2-5.4,2-5.6,4.9c-0.9,13.9-1.9,29.1-2.8,45c-7.4-0.2-14.8-0.9-20.6-1.9
		l-1.5-0.3c-2.7-0.5-5.5-1-7.5-1.8c2.7-10.6,6.9-24.4,11.3-36.7l0.8-2.3c4.2-11.5,8.6-23.4,16.9-30.9c8.7-7.9,21.4-14.2,35.6-18.1
		c-2.2,11.3-2.1,22.6-2.1,23.2c0,1.8,0.9,3.4,2.4,4.4c0.9,0.5,1.8,0.8,2.8,0.8s1.5-0.2,2.2-0.5l24.5-11.1c2.3,2.8,5,5.5,8.2,7.9
		c-6.1,10.8-5.1,33.7-4.9,36.4c0.2,2.8,2.5,5,5.2,5h0.3c2.9-0.2,5.1-2.6,5-5.5c-0.5-9,0.1-25.4,3.8-31c2.9-4.3,6.4-6.7,12.3-10.7
		c1-0.7,2.1-1.4,3.2-2.2l29.8,14.9c0.8,0.4,1.5,0.6,2.3,0.6c1.8,0,3.5-0.9,4.5-2.6c0.2-0.3,4-6.9,7.7-15.1
		c3.3-7.4,5.2-13.6,5.9-18.7c17.7,4.7,42.5,11.8,53.4,25.5c10.3,14,18,40.5,22.6,56.3c0.6,2.1,1.1,3.9,1.6,5.6
		c0,0.4,0.2,0.8,0.3,1.2c0.1,0.5,0.3,1.2,0.4,1.8c-5.9,2.6-13.2,4.3-20.8,6.1c-3.1,0.7-6.2,1.5-9.4,2.3c-0.9,0.2-1.8,0.4-2.8,0.6
		c-3.3,0.7-9.3,2.1-11.2,1.9l0.3,0.3c-0.3,0-0.4,0-0.4,0c-0.2-0.2-0.7-1.1-1.6-4.4c-0.7-3.1-1.4-6.1-2.1-9.7V524
		c-1.5-6.4-2.5-11.7-3.6-17.4c-0.3-1.7-1.3-6.7-6.3-6.1c-5,0.6-4.7,5.5-4.5,8.4v1.7c0,0,0,0.2,0,0.3c1.3,19.8,2.5,55.5,2.8,78.6
		c0.1,8.1,0.4,15,0.6,21c0.2,6.8,0.5,12.7,0.4,18.5c-0.5,0-1,0.2-1.5,0.3c-18.2,3.2-43.4,6-64.1,7.1
		C606,637.7,589.2,637.5,573,635.8z"/>
	<path class="st1" d="M572.5,312.2c-3.9,0-7.1-3.2-7.1-7.1v-22.4c0-3.9,3.2-7.1,7.1-7.1s7.1,3.2,7.1,7.1v22.4
		C579.6,309,576.4,312.2,572.5,312.2z"/>
	<path class="st1" d="M643.6,312.2c-3.9,0-7.1-3.2-7.1-7.1v-22.4c0-3.9,3.2-7.1,7.1-7.1c3.9,0,7.1,3.2,7.1,7.1v22.4
		C650.7,309,647.5,312.2,643.6,312.2z"/>
	<circle class="st1" cx="620.6" cy="489.4" r="5.5"/>
	<path class="st1" d="M644.7,335.2c-0.5-1.6-1.6-3-3.1-3.7c-1.5-0.8-3.2-1-4.8-0.5c-1.6,0.5-2.9,1.5-3.7,3c0,0-0.4,0.6-1.1,1.3
		c-0.7,0.7-2,1.8-3.9,3c-2.2,1.3-4.9,2.3-7.9,3.1c-3.8,1-8.2,1.5-13.1,1.5c-4.9,0-0.1,0-0.2,0c0,0-0.1,0-0.2,0
		c-4.8,0-9.2-0.5-13.1-1.5c-3-0.7-5.6-1.8-7.9-3.1c-1.9-1.1-3.2-2.2-3.9-3c-0.7-0.7-1-1.2-1.1-1.3c-0.8-1.4-2.1-2.5-3.7-3
		c-1.6-0.5-3.3-0.3-4.8,0.5s-2.6,2.1-3.1,3.7s-0.3,3.3,0.5,4.8c0.4,0.7,2.7,4.7,8.5,8.4c3.3,2.1,7.1,3.7,11.4,4.9
		c5.1,1.4,10.9,2.1,17.2,2.1c6.3,0,0.1,0,0.2,0c0,0,0.1,0,0.2,0c6.3,0,12.1-0.7,17.2-2.1c4.3-1.2,8.1-2.8,11.4-4.9
		c5.9-3.7,8.1-7.6,8.5-8.4C645,338.5,645.2,336.8,644.7,335.2z"/>
</g>
<g id="Layer_4">
	<path class="st6" d="M529.7,558l-31.9-59.4c-5.6,8.5-11.2,16.9-16.8,25.4c-0.5,0.8-1,1.6-1.1,2.5c-0.1,1.3,0.9,2.5,1.7,3.5
		c3,3.7,5.3,8,6.7,12.6c-1.6-6.8-5.2-13-10.4-17.8c-3.7-3.5-8.2-6.1-12-9.4c-9-7.7-14.9-18.7-25.2-24.7c-1.9-1.1-4-2.1-5.3-3.9
		c-1.2-1.6-1.6-3.6-2.1-5.5c-3.1-11.8-12.2-21-20.9-29.7c-3.5-3.5-7.4-22-21.7-29.8c-2.2-1.2-3.9,0.2-5.2,2.3
		c-2.5,4.1-2.5,9.1-0.3,13.3c3.7,7.3,10.4,20.3,11.7,23.4c-23,0.1-65.2-25.3-68.3-2.6c1.9,6.4,9.7,8.6,16,11.1
		c5.3,2.1,10.2,5.1,14.5,8.8c-1.2-3.6,1.4-7.6,4.9-9.4c3.5-1.8,7.6-1.9,11.5-1.7c9.1,0.5,19,2.9,23.8,10.3
		c-6.6-8.3-19.1-11.7-29.5-8c-4.3,1.5-8.5,4.4-9.7,8.9c-0.7,2.8,0,5.8,2.3,7.5c4.7,3.7,11.5-0.2,17.6-1.3c6-1,12.3,1.3,16,5.9
		c-9.5-7.7-24.8-7.7-34.8-0.2c-3,2.3-5.6,5.3-5.7,9c-0.1,2.1,0.8,4.1,2.5,5.3c3.2,2.2,7.1,0.4,10.5-0.9c7.3-2.7,15.5-3,22.9-0.8
		c-5.3-0.4-10.6-0.9-15.9-1.3c-3.8-0.3-7.7-0.6-11.1,1.4c-1.9,1.1-3.4,3-3.5,5.2c-0.3,4.3,4.3,6.6,8.2,7.9
		c8.9,2.9,18.3,4.5,27.8,4.7c3.3,0.1,6.8,0.1,9.6,1.6c2.5,1.3,4.2,3.6,5.7,5.9c8.5,12.1,16.4,24.4,23.9,37.1
		c3.5,5.8,6.8,11.8,11.1,17c3.4,4.2,7.4,7.9,11.7,11.4c6.4,5.2,13.6,10,21.9,11.4c11.3,1.8,23-3.3,31.7-10.8
		c8.8-7.7,15-17.7,21.1-27.6c0.6-0.9,1-1.9,1.3-2.9C535.7,561.8,535.6,559.5,529.7,558z"/>
</g>
<g id="Layer_5">
</g>
<g id="Layer_7">
</g>
<g id="Layer_3">
	<polygon class="st7" points="460.5,504.3 482.2,645.5 666.3,647.3 642,503.4 	"/>
	<rect x="511.4" y="577.1" class="st8" width="15" height="52"/>
	<rect x="539.9" y="564.1" class="st8" width="15" height="65"/>
	<rect x="568.8" y="586.5" class="st8" width="15" height="43"/>
	<rect x="597.4" y="554.5" class="st8" width="15" height="75"/>
	<polyline class="st9" points="499,561.6 541.8,535.5 573.3,550.8 604.7,531.1 598.2,524.4 613.3,523.6 611.4,535.5 598.6,526.2 	
		"/>
</g>
<g id="Layer_6">
	<g id="Layer_8">
		<path class="st6" d="M705.9,542.6c0.6,3.5,0,8.7,0,8.7s0.4,15.9-2.2,21.5c-0.9,2,1.1,4.2,3.2,3.3c4-1.6,6.5-2.8,13.4-3.1
			c-16,1.2-22.3,8-37.1,13.4c-1.8-5.2-6.3-16.8-11-20.3c-5.6-4.2-16.5-9.2-21.5-14c1.8,6.5,4.7,21,6,22.8c2.9-0.1,5.8,1.3,7.3,3.5
			c-9.5-0.6-19.1-1-28.6-1.2c-0.1-0.7-0.3-1.4-0.4-2c-0.8-0.3-1.6,0.8-1.4,1.5c2.2,6.2,4.5,10.6,14.5,15.2c4.4,2,10.6-0.1,18.3,0
			c-10.1,1-17.5,0.8-24.9-5.3c-1.3-1.1-2.1-2.8-2.4-4.4c-0.2-1.2-0.4-1.9-0.9-3c-0.7-1.7-1.1-2.5-3.1-2.2c-2,0.3-4.8,0.9-6.5,1.9
			c-1.6,1-4.4,2.7-4.8,4.4c-0.2,1,0.1,2,0.4,3c5.4,14.6,24.9,24.1,41.9,20.2c-4.8,0.8-9.8,1.6-14.6,0.7c-6.3-1.1-10.1-3.1-15-6.3
			c-4.1-2.8-10.6-10.7-13-15.9c-7.9,7.7-4.6,18.4,2.6,26.6c2.2,2.5,1.7,0.2,3.7,2.8c1.2,1.6,7.1,2.9,8.8,4.1c1.8,1.3,4.1,1.7,6.4,2
			c4.4,0.5,8.4,1.3,12.8,1.2c-12.5,0.1-30.5-3.4-34.3-13.8c-0.6,6.7-2.5,15.3,3.3,19.7c1.9,1.4,3.7,2.7,6,3.6
			c7.6,2.9,23,4.8,31.3,4.4c10.4-0.4,19.5-5.9,27.9-11.2c2.3,2.1,6.1,2.1,9.5,1.8c8.1-0.7,16.1-1.6,24.2-2.8
			c9.8-1.5,20.1-3.6,27.1-9.9c8.5-7.7,9.7-19.4,9.8-30.1c0.2-17.1-1.1-34.2-3.8-51.2c-10.9,3.8-22.7,4.8-34.4,5.8
			c-3.3,0.3-6.6,0.6-9.9,1.2C711.6,539.7,708.7,541.8,705.9,542.6C701.1,544,705.1,542.9,705.9,542.6z"/>
	</g>
</g>
</svg>
