<?xml version="1.0" encoding="utf-8"?>
<!-- Generator: Adobe Adobe Illustrator 24.2.0, SVG Export Plug-In . SVG Version: 6.00 Build 0)  -->
<svg version="1.1" xmlns="http://www.w3.org/2000/svg" xmlns:xlink="http://www.w3.org/1999/xlink" x="0px" y="0px" width="1000px"
	 height="1000px" viewBox="0 0 1000 1000" style="enable-background:new 0 0 1000 1000;" xml:space="preserve">
<style type="text/css">
	.st0{fill:#DBF4F5;}
	.st1{fill:#004D7B;stroke:#02374F;stroke-width:9;stroke-linecap:round;stroke-linejoin:round;stroke-miterlimit:10;}
	.st2{fill:#005894;stroke:#02374F;stroke-width:9;stroke-linecap:round;stroke-linejoin:round;stroke-miterlimit:10;}
	.st3{fill:#00324D;stroke:#02374F;stroke-width:7;stroke-linecap:round;stroke-linejoin:round;stroke-miterlimit:10;}
	.st4{fill:#3FDE99;}
	.st5{fill:#2FBC7C;}
	.st6{fill:#005894;}
	.st7{fill:#005B96;}
	.st8{fill:#00324D;}
	.st9{fill:#3FDE99;stroke:#00324D;stroke-width:8;stroke-linecap:round;stroke-linejoin:round;stroke-miterlimit:10;}
	.st10{fill:#02ABB0;stroke:#00324D;stroke-width:8;stroke-linecap:round;stroke-linejoin:round;stroke-miterlimit:10;}
	.st11{fill:#3FDE99;stroke:#00324D;stroke-width:7;stroke-linecap:round;stroke-linejoin:round;stroke-miterlimit:10;}
	.st12{fill:#005894;stroke:#00324D;stroke-width:9;stroke-miterlimit:10;}
	.st13{fill:#2FBC7C;stroke:#00324D;stroke-width:5;stroke-miterlimit:10;}
	.st14{fill:#3FDE99;stroke:#00324D;stroke-width:5;stroke-miterlimit:10;}
	.st15{fill:#92C3DE;}
	.st16{fill:#004D7B;stroke:#00324D;stroke-width:9;stroke-miterlimit:10;}
	.st17{fill:#00324D;stroke:#00324D;stroke-width:9;stroke-miterlimit:10;}
</style>
<g id="Layer_7">
	<path class="st0" d="M583.5,761c-54.7,48.5-124.4,79.8-197,88.3c-37.4,4.4-81.8-0.5-102.1-32.2c-9.5-14.8-11.8-32.9-16.2-50
		c-4.4-17-12.3-34.9-28-42.8c-13.1-6.6-28.8-4.9-43.1-8.4c-28.5-6.9-48.7-35.4-51.3-64.7c-2.7-29.3,9.7-58.3,28.2-81.2
		c19.2-23.8,46-44.1,52.1-74c6.1-30.1-11-59.4-26-86.2c-15-26.8-29-58.9-16.9-87.2c9.6-22.5,33.1-35.5,55.9-44.4
		c26-10.1,53.4-17.1,77.6-31.1c24.1-14,45.3-37,47.8-64.8c0.6-7.1,0.2-14.8,4-20.9c3.1-4.9,8.4-7.9,13.4-10.6
		c19.7-10.7,39.4-21.3,59.1-32c23-12.4,46.7-25.1,72.7-28c28.7-3.2,57.4,5.8,84.5,15.8c16,5.9,32.3,12.3,45.5,23.2
		s23.3,26.8,23,43.9c-0.3,17.4-11.1,34.6-6.4,51.4c4.4,15.4,20,24.3,29.5,37.1c33.5,45.3-19.4,115.7,9.6,164
		c17.5,29.2,57.5,36.5,80,62c20.7,23.5,22.7,59.6,10.9,88.7c-11.8,29.1-35.2,52-60.7,70.2c-25.5,18.2-53.6,32.6-79.5,50.2
		C621.3,716.6,601.5,745,583.5,761z"/>
	<path class="st0" d="M409.3,755.7c33,3.3,62.5,21.6,89.7,40.6c42.6,29.8,83.6,62.8,131.2,83.7c56.9,24.9,121.8,30.9,182.3,16.9
		c13.2-3,26.5-7.2,37-15.7c12.5-10.1,20-26,19.7-42.1c-0.5-33.7-31.3-58.2-45.4-88.8c-18.9-40.8-3.5-94.4,34.1-119
		c19.2-12.5,42.1-17.7,63-26.9c20.9-9.3,41.5-25,45.9-47.4c2.2-11.3,0-22.9-3.5-33.9c-10.9-33.8-35.1-63.1-66.2-80.3
		c-37.7-20.7-82.6-23.2-125.5-21c-42.9,2.2-86,8.6-128.7,3.8"/>
	<path class="st0" d="M406.8,832c38.8-14.9,82.3-10.7,123-2.2c40.7,8.5,80.9,21.3,122.4,22.9c31.2,1.2,66.1-6,84.1-31.6
		c14.4-20.6,14.3-48.2,8.6-72.6c-10.2-43.9-36.1-82.7-66.4-116.1c-30.3-33.4-65.1-62.2-97.7-93.4"/>
</g>
<g id="Layer_9">
	<path class="st1" d="M837,318.3c17-2,34.2-1.5,48.3,3.9c8.6,3.3,13.3,12.9,15.4,21.7c2.1,8.8,1.2,18,1.2,27
		c0,135.8-3.1,267.3-0.7,400.9c0.2,13.8-0.8,30.1-12.8,37.5c-3.9,2.4-8.4,3.5-12.9,4.4c-16.2,3.2-32.7,4.6-49.2,4.1
		c-4.3-0.1-8.8-0.5-12.4-2.8c-4.4-2.9-6.4-8.2-7.8-13.2c-7.1-25.5-4.9-52.5-4.3-78.9c1.3-60.9-6.4-121.8-3.7-182.6
		c2.5-55.7,13.7-110.6,24.8-165.2C826.3,357.9,825.3,339.7,837,318.3z"/>
</g>
<g id="Layer_8">
	<path class="st2" d="M581.1,798.6V334.4c0-9.9,8-17.9,17.9-17.9h242.1c9.9,0,17.9,8,17.9,17.9v464.1c0,9.9-8,17.9-17.9,17.9H599
		C589.1,816.5,581.1,808.5,581.1,798.6z"/>
	<rect x="619.1" y="817.1" class="st3" width="51" height="22.8"/>
	<rect x="771.9" y="819.1" class="st3" width="51" height="22.8"/>
</g>
<g id="Layer_10">
</g>
<g id="Layer_2_1_">
	<path class="st4" d="M451.8,313.1c0,14-10.3,29-24.3,39.8c-11.5,8.9-18.3,12-23.3,17.4l-0.7,0.6c-28.2-17.5-25.5-57.8-25.5-57.8"/>
	<path class="st5" d="M379.2,325.1c0,0,18.2,9,34.2,11.3c16.1,2.3,30.1,1.1,30.1,1.1l9.7-24.4l-76.2-1.2l2.1,13.2H379.2z"/>
	<path class="st6" d="M426.6,353c11.8-9.2,21-21.3,23.6-33.2l0.3-1.4c0,0,12.1,6.2,14.7,18.1c18.4,4.9,49.4,12.2,62.8,29.2
		c12.3,16.6,20.8,49.3,25.2,63.8c0.7,3,2.2,6.6-1,8.6c-9,4.2-20.6,6.2-32.3,9.2c-4.9,1.1-12.4,3-15.8,2.7c-4-0.5-5.2-3.2-6.5-8.5
		c-0.8-3.4-1.5-6.6-2.3-10.5c-1.3-6.3-2.3-11.6-3.4-17.5c-0.9-5-0.3,1.4-0.3,3c1.3,19.9,2.5,55.6,2.8,78.8c0.3,17.9,1.2,29.8,1,41.6
		c-0.4,3.1-2.5,2.7-5.7,3.4c-19.1,3.3-44.7,6.1-64.8,7.2c-18.4,1.1-36.6,1.3-55.1-0.6c-13-1.2-31.4-4.1-40.3-6.7
		c-3.5-1-3.8-1.4-3.9-6.7c-0.6-26.9,0.2-56,1.6-84.5v-4.4c-7.8,0-17.9-0.5-26.3-2c-4.2-0.8-8.7-1.4-11.9-3.3
		c-1.7-1.1-1.9-2.6-1.4-5.1c2.9-11.4,7.4-25.7,11.5-37.4c4.7-12.6,9.3-26.4,19.2-35.2c12.5-11.3,30.5-18.2,46.4-21.2l1.5-3.8
		c3.2-7.1,11.6-11.4,11.6-11.4v1.1c1.7,13.4,7.2,33.6,25.1,44.7l1.2-1.2c5-5,11.7-8.2,22.8-16.8"/>
	<path class="st7" d="M381.3,814.4l3.2,28.6c0.4,3.2-1.2,6.3-3.9,8c-5.9,3.6-17.8,9.4-37.3,12.4c-29.7,4.5-47.6,3.1-50.7-5.5
		s12.8-19.7,24.8-25.5c12.1-5.9,25.9-18.9,25.9-18.9"/>
	<path class="st7" d="M457.9,818.2l-6.9,40.2c-0.5,3.2,0.8,6.4,3.6,8.1c5,3.2,14.5,7.2,29.1,5.5c10.8-1.3,18-3.2,22.7-4.8
		c4.2-1.5,6.4-6.1,5-10.3l-13.9-39.8"/>
	<path class="st7" d="M402.8,585.7c0,0-6.4,51.6-10.2,104.7c-3.8,53.1-5.5,122.7-5.5,122.7s-11.7,4.1-26.5,3.4
		c-14.8-0.7-26.9-7.6-26.9-7.6s-1.4-59-2.8-144.5s0-124.3,0-124.3s22.5,8,66.6,8s94.1-8.3,94.1-8.3s-0.3,56.7,4.9,142.5
		c5.2,85.9,7.9,131.7,7.9,131.7s-10.3,6.9-23.4,6.9s-28.6-4.4-28.6-4.4s-7.9-51.1-17.2-113.5s-22.1-115.9-22.1-115.9
		s-4.6-0.4-10.1-1.6L402.8,585.7z"/>
	<path class="st5" d="M512.8,117.5l26.5,11.7c8.1,3.6,13.2,11.7,12.8,20.6l-5.4,133.9c-0.4,9-6.3,16.8-14.9,19.6l-26.4,8.6"/>
	<path class="st4" d="M499.1,313.1H299.4c-10.4,0-18.7-8.7-18.3-19.1l6.6-160.4c0.4-9.8,8.5-17.6,18.3-17.6h199.7
		c10.4,0,18.7,8.7,18.3,19.1l-6.6,160.4C517,305.3,508.9,313.1,499.1,313.1z"/>
	<path class="st7" d="M305.4,275.2l5.1-122.3c0.3-7.4,6.4-13.3,13.9-13.3H486c7.9,0,14.2,6.6,13.9,14.5l-5.1,122.3
		c-0.3,7.4-6.4,13.3-13.9,13.3H319.3C311.4,289.7,305.1,283.1,305.4,275.2L305.4,275.2z"/>
	<path class="st8" d="M504.4,154.2c0.2-5.1-1.6-9.9-5.1-13.6c-3.5-3.7-8.3-5.7-13.4-5.7H324.3c-10,0-18.1,7.8-18.5,17.8L300.7,275
		c-0.2,5.1,1.6,9.9,5.1,13.6s8.3,5.7,13.4,5.7h161.6c10,0,18.1-7.8,18.5-17.8L504.4,154.2L504.4,154.2z M490.1,276.2
		c-0.2,5-4.3,8.9-9.2,8.9H319.3c-2.5,0-4.9-1-6.7-2.8c-1.8-1.8-2.7-4.2-2.6-6.8l5.1-122.3c0.2-5,4.3-8.9,9.2-8.9h161.6
		c2.5,0,4.9,1,6.7,2.8s2.7,4.2,2.6,6.8L490.1,276.2L490.1,276.2z"/>
	<path class="st8" d="M558.4,429.1c0-0.4-0.2-0.7-0.3-1c0,0,0-0.2,0-0.3c-0.5-1.7-1-3.6-1.7-5.7c-4.8-16.6-12.9-44.3-24.3-59.7
		c0,0,0,0,0-0.1c-13.6-17.2-42.6-24.9-61.7-30c-0.3,0-0.7-0.2-1-0.3c-2.3-6.5-6.7-11.2-10.4-14.3h40.2c2.8,0,5.4-0.5,7.9-1.4
		l26.4-8.6c8.7-2.8,15.2-10.1,17.3-18.8c0.2,0.1,0.4,0.1,0.6,0.2c0.2-2.3,0.5-4.5,0.7-6.8c0.1-0.8,0.1-1.7,0.2-2.5
		c-0.2,0-0.3-0.1-0.5-0.1l5.2-129.6c0.4-10.8-5.7-20.6-15.6-25l-25.4-11.2c-3.1-1.5-6.5-2.3-10.1-2.3H306.1
		c-12.4,0-22.4,9.7-22.9,22L276.6,294c-0.3,6.3,2,12.3,6.4,16.8c4.4,4.6,10.3,7.1,16.6,7.1H372c0,1.3,0,2.8,0.2,4.5
		c-3.3,2.2-8.2,6.2-10.8,12c-0.2,0.5-0.4,1-0.6,1.4c-18.3,3.9-34.9,11.8-46,21.9c-10.2,9.2-15.3,22.9-19.8,35l-0.9,2.3
		c-4.5,12.8-8.8,26.9-11.6,37.9c0,0,0,0.1,0,0.2c-0.4,1.8-1.5,7.2,3.6,10.5c0,0,0.2,0.1,0.2,0.2c0.5,0.3,0.9,0.5,1.4,0.7
		c0.4,0.1,0.8,0.2,1.1,0.3c3,1.4,7.3,1.1,10.3,2.8c0.3,0,0.6,0,0.8,0.1c0.5,0,1.1,0.2,1.6,0.4c7.4,1.2,14.9,1.6,20.2,1.7
		c-0.4,7.6-0.7,15.2-0.9,23c1,8.3-0.3,17.1-0.8,25.3c0,0.3,0,0.5,0,0.8c0,1.8,0,3.6-0.2,5.3c-0.4,3.9,0,7.9-0.2,11.9
		c0.2-0.8,0.4-1.5,0.6-2.3c0,6.7,0,13.3,0.2,19.8c0,3.2,0.2,5.5,1.4,7.6c0.9,1.6,2.2,2.5,3.5,3.1c-0.3,12.2-1,51.2,0.1,120.4
		c1.4,84.5,2.8,143.9,2.8,144.5c0,1.6,0.9,3.1,2.3,3.9c0.2,0.1,1.7,1,4.2,2.1c-4.9,4.2-12.4,9.9-19.1,13.2
		c-5.5,2.7-32.4,16.6-27.2,31.3c2.7,7.5,11.3,11.1,27.2,11.1c7.7,0,17.2-0.9,28.5-2.6c19.7-3,32.1-8.7,39-13
		c4.2-2.6,6.6-7.5,6.1-12.5l-2.8-24.7c0.8-0.2,1.2-0.4,1.3-0.4c1.8-0.6,3-2.3,3.1-4.3c0-0.7,1.8-70.2,5.5-122.5
		c3-42.6,7.7-85,9.4-99.6c1,0.2,1.8,0.3,2.6,0.4c2.8,12.4,13.4,59.3,21.3,112.3c9.2,61.7,17.2,113,17.2,113.5
		c0.3,1.8,1.6,3.3,3.3,3.7c0.2,0,1.1,0.3,2.6,0.7l-6.1,35.9c-0.9,5.1,1.4,10.1,5.7,12.8c5,3.2,13.1,6.6,24.6,6.6
		c2.3,0,4.8-0.1,7.5-0.5c9.4-1.1,17.3-2.8,23.7-5c6.6-2.3,10.1-9.6,7.8-16.2l-12.5-35.9c1.6-0.9,2.6-1.5,2.7-1.6
		c1.4-0.9,2.2-2.5,2.1-4.1c0,0-2.8-45.9-7.9-131.7c-4.3-71.2-4.8-122.9-4.8-137.8c2.3-0.8,4.9-2.6,5.4-6.9v-0.5
		c0-6.7-0.1-13.3-0.4-21c-0.2-6-0.5-12.9-0.6-20.8c-0.2-10-0.5-22.4-0.9-34.8c-0.2-0.7-0.3-1.5-0.3-2.5c0-0.2,0-0.3,0-0.5
		c0-0.2-0.1-0.4-0.1-0.6c0-0.2,0-0.5,0-0.7c0-0.5,0.1-0.9,0.2-1.4c0-0.5,0-0.9,0-1.4c0.2,0.1,0.4,0.2,0.6,0.3
		c0.8-1.1,2.1-1.8,3.4-1.8c2.9,0,5.6-0.1,8.4-0.6c0.6-0.1,1.8-0.3,2.5-0.2c0.5-0.2,1-0.5,1.6-0.5c0.5-0.1,0.8-0.1,1,0
		c1.9-0.8,3.6-1.2,5.5-1.6c4.7-1.2,9.6-2.6,14.4-3.7c0.5-0.2,1.1-0.3,1.6-0.5c0.4-0.1,1.7-0.5,2.5-0.8c1.8-0.6,3.6-1.2,5.4-1.8
		c3.9-1.2,7.7-2.5,11.4-3.8c0.5-0.2,1-0.3,1.5-0.5C559.9,434.6,558.9,431,558.4,429.1z M460.1,337.5c1.3,5.9-4.4,19.8-9.8,29.9
		l-20.5-10.2c0,0,0,0,0.1-0.1c11.4-8.9,19.7-19.5,23.7-30.1C456.3,329.5,459.1,333,460.1,337.5z M423.5,348.8L423.5,348.8
		c-5,3.8-9,6.5-12.5,8.9c-3.4,2.3-6.3,4.3-8.9,6.5c-17.1-13.1-19.5-36.8-19.7-46.4h62.9C443.4,328.1,435.4,339.6,423.5,348.8z
		 M522.1,295.8L522.1,295.8l6.6-160.4c0-2.1-0.1-4.1-0.5-6l9.3,4.1c6.4,2.8,10.3,9.2,10.1,16.2l-5.4,133.9c-0.3,7-5,13.2-11.7,15.4
		l-9.6,3.1C521.6,300.1,522,298,522.1,295.8z M299.5,308.5c-3.8,0-7.3-1.5-9.9-4.2c-2.6-2.7-4-6.3-3.8-10l6.6-160.4
		c0.3-7.4,6.3-13.1,13.7-13.1h199.7c1.8,0,3.6,0.4,5.2,1l0.4,0.2c1.6,0.7,3,1.7,4.2,3c2.6,2.7,4,6.3,3.8,10l-6.6,160.4
		c-0.3,7.4-6.3,13.1-13.7,13.1H299.5z M370.8,338.6c0.7-1.5,1.7-2.9,2.9-4.1c1.3,6.6,3.6,13.9,7.5,20.9l-15.2,6.8
		C366.5,355.3,367.7,345.4,370.8,338.6z M378.3,847l-0.1,0.1c-5.1,3.1-16.5,8.8-35.5,11.7c-40.4,6.1-45.1-1-45.6-2.5
		c-1.3-3.6,7.6-12.6,22.5-19.8c9.9-4.8,20.6-14,25-17.9c4.3,1.2,9.4,2.2,14.8,2.5h3.6c5.4,0,10.3-0.6,14.3-1.2l2.7,23.6
		C380.2,844.9,379.5,846.3,378.3,847z M507,858.4L507,858.4c0.5,1.9-0.4,3.9-2.2,4.5c-3.9,1.4-10.8,3.3-21.7,4.6
		c-12.9,1.5-21.3-1.8-26-4.8c-1.1-0.7-1.7-2.1-1.5-3.5l6.1-35.5c5.4,1,12,1.9,18.2,1.9s10.6-1.1,14.8-2.5L507,858.4z M498.8,811.4
		l-0.2,0.1c-3.4,1.8-10.5,4.9-18.6,4.9s-19.6-2.3-24.5-3.5c-1.8-11.9-8.8-57.3-16.8-110.5c-9.2-61.9-22-115.7-22.1-116.2
		c-0.5-2-2.2-3.4-4.2-3.5c0,0-3-0.2-8-1.2c-0.6-0.4-1.3-0.8-2.1-0.9h-1.5c-0.5-0.1-0.9-0.2-1.4-0.3c-7.3-1.7-10.4-3.7-10.5-3.8
		c-2.1-1.4-4.9-0.9-6.4,1.2c-1.5,2.1-1,5,1.1,6.5c0.4,0.3,4.3,2.9,13,5c-1.6,13.9-6.4,57.2-9.5,100.8c-3.3,46-5,105-5.4,119.6
		c-4.2,1.1-12.4,2.8-21.8,2.3c-9.9-0.5-18.6-4-22.5-5.8c-0.3-12.7-1.5-67.5-2.7-141.7c-1.1-65.2-0.5-103.4-0.2-117.7
		c10.4,2.3,25,4.4,34.9,5.2c9.4,1,19.2,1.4,29.8,1.4s16.8-0.3,26.1-0.8c19.4-1.1,42.7-3.5,60.8-6.5c0,17.1,0.7,67.7,4.9,136.6
		C495.4,756,498.1,800.2,498.8,811.4z M527.7,439.5c-3.1,0.7-6.2,1.5-9.4,2.3c-0.9,0.2-1.8,0.4-2.8,0.6c-3.3,0.7-9.3,2.1-11.2,1.9
		l0.3,0.3c-0.3,0-0.4,0-0.4,0c-0.2-0.2-0.7-1.1-1.6-4.4c-0.7-3.1-1.4-6.1-2.1-9.7v-0.7c-1.5-6.4-2.5-11.7-3.6-17.4
		c-0.3-1.7-1.3-6.7-6.3-6.1c-5,0.6-4.7,5.5-4.5,8.4v1.7c0,0,0,0.2,0,0.3c1.3,19.8,2.5,55.5,2.8,78.6c0.1,8.1,0.4,15,0.6,21
		c0.2,6.8,0.5,12.7,0.4,18.5c-0.5,0-1,0.2-1.5,0.3c-18.2,3.2-43.4,6-64.1,7.1c-21.3,1.3-38.1,1.1-54.3-0.6
		c-13.4-1.2-31.1-4.1-39.4-6.5v-1.8c-1-46,2.1-98.1,4.8-138.4c0.2-2.9-2-5.4-4.9-5.6c-2.9-0.2-5.4,2-5.6,4.9
		c-0.9,13.9-1.9,29.1-2.8,45c-7.4-0.2-14.8-0.9-20.6-1.9L300,437c-2.7-0.5-5.5-1-7.5-1.8c2.7-10.6,6.9-24.4,11.3-36.7l0.8-2.3
		c4.2-11.5,8.6-23.4,16.9-30.9c8.7-7.9,21.4-14.2,35.6-18.1c-2.2,11.3-2.1,22.6-2.1,23.2c0,1.8,0.9,3.4,2.4,4.4
		c0.9,0.5,1.8,0.8,2.8,0.8s1.5-0.2,2.2-0.5l24.5-11.1c2.3,2.8,5,5.5,8.2,7.9c-6.1,10.8-5.1,33.7-4.9,36.4c0.2,2.8,2.5,5,5.2,5h0.3
		c2.9-0.2,5.1-2.6,5-5.5c-0.5-9,0.1-25.4,3.8-31c2.9-4.3,6.4-6.7,12.3-10.7c1-0.7,2.1-1.4,3.2-2.2l29.8,14.9
		c0.8,0.4,1.5,0.6,2.3,0.6c1.8,0,3.5-0.9,4.5-2.6c0.2-0.3,4-6.9,7.7-15.1c3.3-7.4,5.2-13.6,5.9-18.7c17.7,4.7,42.5,11.8,53.4,25.5
		c10.3,14,18,40.5,22.6,56.3c0.6,2.1,1.1,3.9,1.6,5.6c0,0.4,0.2,0.8,0.3,1.2c0.1,0.5,0.3,1.2,0.4,1.8
		C542.6,436,535.3,437.7,527.7,439.5z"/>
	<path class="st4" d="M366.5,218.2c-3.9,0-7.1-3.2-7.1-7.1v-22.4c0-3.9,3.2-7.1,7.1-7.1s7.1,3.2,7.1,7.1v22.4
		C373.6,215,370.4,218.2,366.5,218.2z"/>
	<path class="st4" d="M437.6,218.2c-3.9,0-7.1-3.2-7.1-7.1v-22.4c0-3.9,3.2-7.1,7.1-7.1s7.1,3.2,7.1,7.1v22.4
		C444.7,215,441.5,218.2,437.6,218.2z"/>
	<path class="st8" d="M477.8,838.3c-5.2,0-8.4-1.1-8.6-1.2c-1.8-0.6-2.7-2.6-2.1-4.3c0.6-1.8,2.5-2.7,4.3-2.1c0.1,0,5.7,1.8,14,0
		c1.8-0.4,3.7,0.7,4.1,2.6c0.4,1.8-0.7,3.7-2.6,4.1c-3.4,0.8-6.5,1.1-9.1,1.1L477.8,838.3z"/>
	<circle class="st4" cx="414.6" cy="395.4" r="5.5"/>
	<path class="st4" d="M438.7,241.2c-0.5-1.6-1.6-3-3.1-3.7c-1.5-0.8-3.2-1-4.8-0.5c-1.6,0.5-2.9,1.5-3.7,3c0,0-0.4,0.6-1.1,1.3
		c-0.7,0.7-2,1.8-3.9,3c-2.2,1.3-4.9,2.3-7.9,3.1c-3.8,1-8.2,1.5-13.1,1.5s-0.1,0-0.2,0c0,0-0.1,0-0.2,0c-4.8,0-9.2-0.5-13.1-1.5
		c-3-0.7-5.6-1.8-7.9-3.1c-1.9-1.1-3.2-2.2-3.9-3c-0.7-0.7-1-1.2-1.1-1.3c-0.8-1.4-2.1-2.5-3.7-3s-3.3-0.3-4.8,0.5
		c-1.5,0.8-2.6,2.1-3.1,3.7s-0.3,3.3,0.5,4.8c0.4,0.7,2.7,4.7,8.5,8.4c3.3,2.1,7.1,3.7,11.4,4.9c5.1,1.4,10.9,2.1,17.2,2.1
		s0.1,0,0.2,0c0,0,0.1,0,0.2,0c6.3,0,12.1-0.7,17.2-2.1c4.3-1.2,8.1-2.8,11.4-4.9c5.9-3.7,8.1-7.6,8.5-8.4
		C439,244.5,439.2,242.8,438.7,241.2z"/>
</g>
<g id="Layer_3">
	<path class="st9" d="M524,462c-23.1-4.7-46.8-9.6-66.9-21.9c-7.1-4.4-13.8-9.6-21.4-13.1s-16.6-5.2-24.3-2
		c-8.8,3.6-14.2,12.6-19.4,20.3c-1.4,2-1.7,4.7-0.7,6.9c2.3,4.7,8,3.2,11.8,0.7c5.1-3.3,9.4-7.8,12.5-13c-4.2,5.1-9.5,10.3-9.6,12.6
		c5.6,4.2,14.4,3.3,19.1-1.9c1.1-1.2,2.4-2.7,3.9-2.2c0.5,0.2,1,0.6,1.4,1c22.8,21.7,50,38.7,79.5,49.6c10.1,3.7,22,6.6,31,0.8
		c8.2-5.2,11-15.9,11.2-25.6c0.2-10.8-0.5-12.6-3.5-31.9c-0.3-2-2.1-8.2-2.1-8.2s-7.4,2.8-9.3,3.1c-11.5,2.1-21.7,4.3-31.8,6.6
		C504.9,456,496.7,456.8,524,462z"/>
</g>
<g id="Layer_4">
	<path class="st10" d="M217.2,464.1V456c0-3.5,2.8-6.4,6.4-6.4h199.3c3.5,0,6.4,2.8,6.4,6.4v8.1c0,3.5-2.8,6.4-6.4,6.4H223.5
		C220,470.4,217.2,467.6,217.2,464.1z"/>
</g>
<g id="Layer_5">
	<path class="st10" d="M209.6,349.5l7.2,95.1c0.7,8.6,7.5,15.2,15.8,15.4l124.1,1.7c9.3,0.1,16.8-8.1,16.3-17.8l-5.4-93.4
		c0-17.6-8.6-19-8.6-19l-132.9,0C216.5,331.1,208.8,339.6,209.6,349.5z"/>
	<circle class="st11" cx="287.4" cy="376.3" r="8.9"/>
</g>
<g id="Layer_6">
	<path class="st9" d="M299.6,472.3c-4.2-3.7-8.6-7.7-10.4-13c-1.5-4.3-0.8-9.7-5.2-12.6c-6.8-2.7-10,4.1-9.9,9.5
		c0,5.4,1.8,10.7,5,15.1c-2.8-3.7-3.8-8.4-4.6-12.9c-0.8-4.8-0.2-9.4-7.3-15c-9,0.3-12.2,7.4-11.5,14.3c0.5,4.6,3.8,8.9,5.7,13.1
		c-3.2-5.2-7-9.7-6.7-15.8c0.2-3.3,2.1-7.7-3.6-10.2c-5.4-1.3-9.7,2.8-11.1,7.5c-1,3.5-0.6,7.2,0.4,10.7c2.3,8.1,7.6,15.3,14.6,20
		c8.3,5.4,18.4,7.2,27.7,10c7.4,2.2,14.9,3.7,22.6,4.5c2.2,0.2,6.6-0.1,6.6-0.1s3.8-2.7,5.1-4.6c3.2-4.8,5.2-10.3,5.8-16.1
		c0.2-1.7,0.1-3.9-1.4-4.8c-0.7-0.4-1.5-0.5-2.3-0.5c-6.6-0.5-13.3-1-19.9-1.9C299.1,469.4,299,469.4,299.6,472.3z"/>
	<path class="st12" d="M600.1,768.7V364.3c0-3.8,3-6.8,6.8-6.8h226.4c3.8,0,6.8,3,6.8,6.8v404.4c0,3.8-3,6.8-6.8,6.8H606.9
		C603.1,775.5,600.1,772.5,600.1,768.7z"/>
	<g id="Layer_11">
		<circle class="st13" cx="631.5" cy="436.5" r="13.2"/>
		<circle class="st13" cx="763" cy="436.5" r="13.2"/>
		<circle class="st14" cx="808.4" cy="436.5" r="13.2"/>
		<ellipse class="st14" cx="625.7" cy="509" rx="6.6" ry="6"/>
		<ellipse class="st14" cx="651.2" cy="509" rx="6.6" ry="6"/>
		<ellipse class="st14" cx="681.2" cy="509" rx="6.6" ry="6"/>
		<ellipse class="st14" cx="705" cy="509" rx="6.6" ry="6"/>
	</g>
	<path class="st15" d="M725.2,511.8v-2.7c0-3.4,2.8-6.2,6.2-6.2h90.7c3.4,0,6.2,2.8,6.2,6.2v2.7c0,3.4-2.8,6.2-6.2,6.2h-90.7
		C728,518,725.2,515.2,725.2,511.8z"/>
	<path class="st15" d="M659.9,437.8v-2.7c0-3.4,2.8-6.2,6.2-6.2h64.7c3.4,0,6.2,2.8,6.2,6.2v2.7c0,3.4-2.8,6.2-6.2,6.2H666
		C662.6,444,659.9,441.2,659.9,437.8z"/>
	<path class="st15" d="M612.7,549.7V547c0-3.4,2.8-6.2,6.2-6.2h203.2c3.4,0,6.2,2.8,6.2,6.2v2.7c0,3.4-2.8,6.2-6.2,6.2H618.9
		C615.5,555.8,612.7,553.1,612.7,549.7z"/>
	<path class="st15" d="M612.7,575.3v-2.7c0-3.4,2.8-6.2,6.2-6.2h146.9c3.4,0,6.2,2.8,6.2,6.2v2.7c0,3.4-2.8,6.2-6.2,6.2H618.9
		C615.5,581.5,612.7,578.7,612.7,575.3z"/>
	<path class="st15" d="M612.7,601v-2.7c0-3.4,2.8-6.2,6.2-6.2h131.7c3.4,0,6.2,2.8,6.2,6.2v2.7c0,3.4-2.8,6.2-6.2,6.2H618.9
		C615.5,607.2,612.7,604.4,612.7,601z"/>
	<path class="st15" d="M687.8,396.7v-2.7c0-3.4,2.8-6.2,6.2-6.2h131.7c3.4,0,6.2,2.8,6.2,6.2v2.7c0,3.4-2.8,6.2-6.2,6.2H694
		C690.6,402.9,687.8,400.1,687.8,396.7z"/>
	<rect x="600.1" y="623.4" class="st16" width="240" height="145.3"/>
</g>
<g id="Layer_12">
	<rect x="618.3" y="643.4" class="st17" width="138.5" height="1"/>
	<rect x="618.3" y="661.4" class="st17" width="138.5" height="1"/>
	<rect x="618.3" y="679.4" class="st17" width="138.5" height="1"/>
	<rect x="615.5" y="732" class="st17" width="138.5" height="1"/>
	<rect x="791" y="643.9" class="st17" width="17.8" height="1"/>
	<rect x="791" y="660.9" class="st17" width="17.8" height="1"/>
	<rect x="791" y="677.9" class="st17" width="17.8" height="1"/>
	<rect x="791" y="731.5" class="st17" width="17.8" height="1"/>
</g>
</svg>
