<svg width="911" height="855" viewBox="0 0 911 855" fill="none" xmlns="http://www.w3.org/2000/svg">
<path d="M455.301 854.4C671.244 854.4 846.301 846.923 846.301 837.7C846.301 828.477 671.244 821 455.301 821C239.357 821 64.3008 828.477 64.3008 837.7C64.3008 846.923 239.357 854.4 455.301 854.4Z" fill="#9DC0D4" stroke="#004D7A" stroke-miterlimit="10"/>
<path d="M384.501 700.4L374.301 745.4L540.301 748.4L531.801 700.9" fill="#00385B"/>
<path d="M194.301 802.701V776.801C194.301 757.501 210.001 741.801 229.301 741.801H681.201C700.501 741.801 716.201 757.501 716.201 776.801V802.701C716.201 822.001 700.501 837.701 681.201 837.701H229.301C209.901 837.701 194.301 822.001 194.301 802.701Z" fill="#00385B" stroke="#004D7A" stroke-miterlimit="10"/>
<path d="M220.301 792.201V787.201C220.301 775.901 229.501 766.701 240.801 766.701H669.801C681.101 766.701 690.301 775.901 690.301 787.201V792.201C690.301 803.501 681.101 812.701 669.801 812.701H240.801C229.501 812.701 220.301 803.501 220.301 792.201Z" fill="#004D7A" stroke="#004D7A" stroke-miterlimit="10"/>
<path d="M0.300781 550.9V149.5C0.300781 66.9 67.3008 0 149.801 0H760.701C843.301 0 910.201 67 910.201 149.5V550.8C910.201 633.4 843.201 700.3 760.701 700.3H149.801C67.2008 700.4 0.300781 633.4 0.300781 550.9Z" fill="#00385B"/>
<path d="M37.3008 540.4V159.9C37.3008 90.9996 93.2008 35.0996 162.101 35.0996H752.601C821.501 35.0996 877.401 90.9996 877.401 159.9V540.4C877.401 609.3 821.501 665.2 752.601 665.2H162.001C93.1008 665.2 37.3008 609.3 37.3008 540.4Z" fill="#00C6A8"/>
<path d="M70.3008 550.499V149.899C70.3008 114.199 99.3008 85.1992 135.001 85.1992H775.601C811.301 85.1992 840.301 114.199 840.301 149.899V550.499C840.301 586.199 811.301 615.199 775.601 615.199H135.001C99.2008 615.199 70.3008 586.199 70.3008 550.499Z" fill="#00385B"/>
<path d="M99.3008 537.999V162.399C99.3008 135.799 120.901 114.199 147.501 114.199H763.201C789.801 114.199 811.401 135.799 811.401 162.399V537.999C811.401 564.599 789.801 586.199 763.201 586.199H147.401C120.801 586.199 99.3008 564.599 99.3008 537.999Z" fill="#004D7A"/>
</svg>
